<svg width="152" height="224" viewBox="0 0 152 224" fill="none" xmlns="http://www.w3.org/2000/svg">
<g filter="url(#filter0_d)">
<path d="M128 88C128 116.95 104.414 140 76 140C47.5888 140 24 116.95 24 88C24 59.0497 47.0497 36 76 36C104.95 36 128 59.0497 128 88Z" fill="url(#paint0_linear)"/>
<g style="mix-blend-mode:color-dodge" opacity="0.8">
<path d="M79.3779 110.678C78.2174 110.256 74.8539 106.353 74.4734 106C74.093 105.647 72.3715 105.177 71.5751 105.33C70.7787 105.483 67.0511 107.815 66.0029 108.004C64.9547 108.193 64.0515 107.322 63.5534 106C63.0553 104.678 62.1905 99.3197 62.8857 97.9732C63.5808 96.6266 70.921 91.5087 72.4673 91.5087C74.0136 91.5087 75.1084 96.1066 76.704 96.4104C78.2995 96.7142 77.588 92.3407 79.6023 92.4037C81.3514 92.4584 82.9206 97.4713 83.3002 98.7783C83.3599 98.9837 83.4464 99.1763 83.5604 99.3573C84.0749 100.174 85.5501 102.618 85.3962 103.551C85.2101 104.678 82.9002 109.402 82.2762 110.013C81.6522 110.617 80.5438 111.099 79.3779 110.678Z" fill="url(#paint1_linear)"/>
<path d="M95.631 113.985C94.8126 113.985 94.008 113.602 93.5099 112.88C92.8794 111.981 92.9004 110.823 93.4741 109.962C93.7579 109.536 93.8574 108.946 93.4907 108.588C92.4617 107.6 92.4206 105.964 93.4059 104.932C94.3912 103.906 96.0278 103.862 97.0596 104.839C98.2994 106.016 99.7472 107.8 99.6267 109.626C99.4899 111.703 97.6672 113.129 97.1116 113.517C96.6573 113.832 96.14 113.985 95.631 113.985Z" fill="url(#paint2_linear)"/>
<path d="M87.2396 122.199C86.5609 122.199 85.8876 121.933 85.3786 121.408C84.3851 120.381 84.4125 118.742 85.4443 117.748L90.3241 113.041C91.3504 112.045 92.9897 112.075 93.9832 113.107C94.9767 114.133 94.9466 115.772 93.9175 116.766L89.0377 121.473C88.5342 121.958 87.8883 122.199 87.2396 122.199Z" fill="url(#paint3_linear)"/>
<path d="M74.1745 48.646C72.4914 48.7609 70.0884 50.0938 69.697 49.9952C69.3057 49.894 68.6872 49.4506 68.3149 49.3247C67.9427 49.2016 63.5665 49.6641 62.6141 49.9624C61.6617 50.2607 59.6857 51.766 58.7524 51.6702C57.8192 51.5744 58.2297 50.4715 57.7261 50.3894C57.2225 50.3072 55.4299 51.5498 54.056 51.5224C52.6821 51.495 51.3328 49.5574 49.1297 49.1961C48.3386 49.0668 46.722 49.5383 44.9813 50.1954C44.7776 50.2723 44.5908 50.3859 44.4155 50.5149C42.9687 51.5794 40.5844 52.3169 37.9185 52.9985C37.5324 53.0971 37.1825 53.3056 36.9194 53.6048C28.8845 62.7423 24 74.7313 24 87.999C24 96.6184 26.1134 104.696 29.8044 111.814C30.3203 112.809 31.5728 113.14 32.5268 112.552C33.4604 111.977 34.0886 111.561 34.1099 111.467C34.4055 110.096 33.2232 102.168 33.1684 100.679C33.1164 99.19 35.4838 93.7054 34.6135 93.0513C33.7404 92.3972 33.0589 93.8668 32.4733 93.4399C31.8876 93.0129 28.6937 89.1786 28.4036 88.4698C28.1135 87.7609 27.2924 85.0788 28.16 84.9119C29.0276 84.7477 32.9549 89.7698 33.6857 90.1885C34.4192 90.6073 35.0541 90.2542 35.8259 89.7971C36.5977 89.3401 37.5884 86.4281 37.0356 85.8534C36.4827 85.2786 31.6604 83.5708 32.0983 82.8428C32.4794 82.2108 35.8701 82.8727 36.7792 83.0631C36.9293 83.0945 37.0792 83.1101 37.2325 83.1124C37.8908 83.1219 39.7984 83.1914 40.7714 83.6666C41.9592 84.2468 43.3549 87.7774 44.3101 88.6039C45.2653 89.4304 47.233 90.6346 47.6053 89.9778C47.9775 89.3209 46.6939 87.3997 46.7131 86.5896C46.7322 85.7767 48.6891 82.279 49.6524 82.0163C50.6158 81.7536 52.1922 83.4094 52.8792 84.4466C53.5634 85.4839 55.9116 89.986 56.9133 89.9395C57.9149 89.8929 58.5006 85.8889 58.0244 84.9912C57.5509 84.0963 55.3752 82.9249 55.3971 81.5456C55.4189 80.1662 57.3156 81.7946 58.2653 81.302C59.2149 80.8094 61.0869 75.8611 60.5669 74.3148C60.0469 72.7712 58.3392 72.035 58.3419 71.1073C58.3446 70.1795 62.9179 68.8548 64.0509 67.8778C65.1813 66.9007 65.7232 64.3281 65.2907 63.4058C64.8583 62.4835 63.2436 61.7363 63.2299 60.1544C63.2135 58.5698 69.6067 54.73 70.3703 55.1651C71.1339 55.6003 70.1459 61.0384 71.2954 61.3066C72.4476 61.5748 72.2998 56.5609 72.9183 55.0119C73.5368 53.4656 78.9832 51.1174 79.0488 50.1211C79.1173 49.1249 75.8577 48.531 74.1745 48.646Z" fill="url(#paint4_linear)"/>
<path d="M124.502 96.2624C124.455 96.2104 124.406 96.142 124.373 96.0982C123.875 95.4031 121.516 90.7696 121.081 90.5972C120.646 90.4247 117.233 91.3334 116.571 92.2119C115.906 93.0877 116.141 94.3658 115.525 94.7599C114.907 95.154 113.596 94.2837 113.015 95.4989C112.435 96.714 113.393 101.276 113.889 102.114C114.384 102.951 115.454 103.463 115.708 104.552C115.952 105.61 114.581 107.622 114.487 107.758C114.484 107.763 114.481 107.768 114.477 107.773L107.707 117.285C107.642 117.376 107.586 117.47 107.54 117.57C107.281 118.125 106.403 120.096 106.417 121.181C106.436 122.451 107.449 123.103 108.086 122.867C108.569 122.689 109.068 121.153 109.281 120.418C109.356 120.162 109.471 119.921 109.637 119.711C110.239 118.948 111.811 117.027 112.868 116.362C114.195 115.527 115.418 115.218 116.467 114.854C116.669 114.786 117.003 114.604 117.402 114.366C117.57 114.266 117.75 114.184 117.943 114.153C118.397 114.078 118.95 114.072 119.56 114.106C120.347 114.15 121.111 113.783 121.493 113.093C123.822 108.889 125.583 104.33 126.675 99.5012C126.956 98.2608 125.859 97.2118 124.806 96.4975C124.702 96.4269 124.601 96.3487 124.502 96.2624Z" fill="url(#paint5_linear)"/>
<path d="M123.231 76.5051C123.548 76.3114 123.819 76.2146 124.189 76.2346C125.395 76.2994 126.412 75.1972 126.09 74.0335C125.778 72.9015 125.427 71.786 125.043 70.6866C124.76 69.8775 123.976 69.3668 123.119 69.3764C122.516 69.3832 121.962 69.3742 121.492 69.3368C119.702 69.3176 117.565 69.2793 117.368 69.1917C117.026 69.0412 115.082 68.2886 115.416 67.0981C115.685 66.1289 118.037 66.1252 119.256 65.7657C119.568 65.6737 119.827 65.5795 120.152 65.6016C121.42 65.6879 122.403 64.4234 121.804 63.3026C119.704 59.3702 117.118 55.749 114.115 52.5174C113.181 51.5133 111.558 51.9843 111.069 53.2651C111.007 53.4271 110.915 53.5899 110.804 53.7234C110.174 54.4836 109.434 55.209 108.856 55.2995C107.603 55.4939 102.958 53.288 102.181 53.1429C101.404 52.9979 98.9953 54.057 97.7938 54.0324C96.5924 54.0077 94.6711 51.7909 93.9978 51.4461C93.3273 51.0985 90.8696 50.9452 90.2347 51.2928C89.5997 51.6431 88.5625 53.7724 88.9128 54.9109C89.2604 56.0494 90.3031 57.2482 90.1854 57.8475C90.0705 58.4469 87.6347 59.632 87.5006 60.7486C87.3665 61.8625 92.5254 58.8656 93.8911 58.8547C95.2568 58.841 96.3269 58.8684 96.8387 59.4787C97.345 60.089 101.179 66.4686 101.565 68.1928C101.951 69.9197 101.541 73.1383 101.97 74.3534C102.331 75.3724 103.83 77.2208 104.305 77.7911C104.401 77.9065 104.485 78.0305 104.555 78.1635L108.685 86.0408C108.75 86.1638 108.826 86.2795 108.917 86.385C109.513 87.0806 111.933 89.8118 113.049 89.6277C114.327 89.417 109.384 82.72 109.568 81.4227C109.746 80.1254 112.056 79.485 113.473 80.4046C114.891 81.3269 117.474 86.557 118.424 85.7223C119.377 84.8875 117.715 80.9 118.26 79.9694C118.579 79.4274 121.17 77.7671 123.231 76.5051Z" fill="url(#paint6_linear)"/>
</g>
</g>
<path fill-rule="evenodd" clip-rule="evenodd" d="M76 120C93.6731 120 108 105.673 108 88C108 70.3269 93.6731 56 76 56C58.3269 56 44 70.3269 44 88C44 105.673 58.3269 120 76 120Z" fill="black"/>
<path d="M20.7866 152.145C20.9386 151.795 20.9187 151.398 20.7952 151.037C20.2147 149.338 20.5404 146.854 21.8118 144.498C23.6683 141.058 26.8383 139.194 28.8921 140.336C30.9459 141.477 31.1058 145.191 29.2492 148.631C27.9131 151.107 25.8965 152.766 24.1054 153.076C23.8136 153.127 23.5475 153.299 23.4319 153.571C23.2321 154.042 23.0404 154.528 22.8591 155.027C22.8363 155.09 22.899 155.15 22.9611 155.125C26.5976 153.688 30.2346 154.318 31.0844 156.532C31.9343 158.746 29.6753 161.706 26.0387 163.143C25.1721 163.486 24.3056 163.711 23.4767 163.825C22.2893 163.989 21.2154 164.91 21.3133 166.105C21.3319 166.331 21.3536 166.559 21.3787 166.788C21.483 167.741 21.6278 168.66 21.8089 169.547C21.9138 170.061 22.6376 170.134 22.913 169.687C24.9837 166.33 28.4365 164.736 30.6252 166.126C32.8139 167.516 32.9096 171.365 30.8389 174.721C29.4875 176.912 27.5473 178.352 25.754 178.702C25.6385 178.724 25.5782 178.856 25.6427 178.955C25.829 179.176 25.986 179.407 26.1107 179.646C27.0155 180.937 28.0009 182.095 29.0276 183.127C29.4525 183.554 30.1824 183.248 30.268 182.652C30.8301 178.733 33.1642 175.833 35.4814 176.176C37.7986 176.518 39.2213 179.972 38.6592 183.891C38.5313 184.783 38.3116 185.622 38.0213 186.382C37.5647 187.577 37.9528 189.066 39.0019 189.799C42.8856 192.511 44 196.454 44 198.502C44 199.329 43.33 200 42.5035 200C41.6769 200 41.0069 199.329 41.0069 198.502C41.0069 197.894 40.8229 196.857 40.2676 195.711C40.0106 195.181 39.2618 195.262 38.9703 195.774C37.7995 197.832 36.0284 199.018 35.0145 198.424C34.0006 197.83 34.1277 195.681 35.2985 193.623C35.4628 193.334 35.6389 193.063 35.8231 192.811C36.2009 192.294 36.1127 191.526 35.5291 191.263C35.2001 191.115 34.8123 191.284 34.6355 191.599C33.7132 193.24 31.316 194.562 28.4029 194.847C24.5182 195.226 21.1872 193.616 20.9628 191.251C20.7385 188.886 23.7059 186.661 27.5906 186.282C27.7308 186.268 27.7917 186.093 27.6888 185.996C27.1137 185.46 26.5476 184.889 25.9958 184.283C25.5524 183.797 24.8006 183.74 24.2222 184.055C22.9131 184.766 21.1377 185.162 19.201 185.074C15.3022 184.899 12.2258 182.832 12.3297 180.458C12.4337 178.084 15.6785 176.303 19.5773 176.478C20.169 176.505 20.6332 175.897 20.415 175.346C20.4094 175.332 20.4038 175.318 20.3982 175.304C20.2009 174.803 19.5501 174.624 19.0483 174.818C17.3491 175.473 14.7747 175.102 12.3583 173.686C8.9785 171.706 7.18775 168.433 8.35854 166.375C9.52934 164.317 13.2183 164.254 16.5981 166.234C17.1406 166.552 17.6422 166.903 18.0972 167.277C18.2245 167.382 18.4214 167.278 18.4034 167.115C18.3029 166.196 18.2497 165.295 18.2384 164.414C18.2252 163.382 17.4781 162.49 16.5417 162.057C15.3573 161.509 14.1465 160.592 13.095 159.366C10.5324 156.379 9.88665 152.693 11.6527 151.133C13.4188 149.573 16.9278 150.729 19.4904 153.716C19.6934 153.952 20.0861 153.89 20.1964 153.599C20.385 153.1 20.5825 152.616 20.7866 152.145Z" fill="url(#paint7_linear)"/>
<path d="M131.213 152.145C131.061 151.795 131.081 151.398 131.205 151.037C131.785 149.338 131.46 146.854 130.188 144.498C128.332 141.058 125.162 139.194 123.108 140.336C121.054 141.477 120.894 145.191 122.751 148.631C124.087 151.107 126.103 152.766 127.895 153.076C128.186 153.127 128.452 153.299 128.568 153.571C128.768 154.042 128.96 154.528 129.141 155.027C129.164 155.09 129.101 155.15 129.039 155.125C125.402 153.688 121.765 154.318 120.916 156.532C120.066 158.746 122.325 161.706 125.961 163.143C126.828 163.486 127.694 163.711 128.523 163.825C129.711 163.989 130.785 164.91 130.687 166.105C130.668 166.331 130.646 166.559 130.621 166.788C130.517 167.741 130.372 168.66 130.191 169.547C130.086 170.061 129.362 170.134 129.087 169.687C127.016 166.33 123.563 164.736 121.375 166.126C119.186 167.516 119.09 171.365 121.161 174.721C122.512 176.912 124.453 178.352 126.246 178.702C126.362 178.724 126.422 178.856 126.357 178.955C126.171 179.176 126.014 179.407 125.889 179.646C124.984 180.937 123.999 182.095 122.972 183.127C122.547 183.554 121.818 183.248 121.732 182.652C121.17 178.733 118.836 175.833 116.519 176.176C114.201 176.518 112.779 179.972 113.341 183.891C113.469 184.783 113.688 185.622 113.979 186.382C114.435 187.577 114.047 189.066 112.998 189.799C109.114 192.511 108 196.454 108 198.502C108 199.329 108.67 200 109.497 200C110.323 200 110.993 199.329 110.993 198.502C110.993 197.894 111.177 196.857 111.732 195.711C111.989 195.181 112.738 195.262 113.03 195.774C114.2 197.832 115.972 199.018 116.985 198.424C117.999 197.83 117.872 195.681 116.701 193.623C116.537 193.334 116.361 193.063 116.177 192.811C115.799 192.294 115.887 191.526 116.471 191.263C116.8 191.115 117.188 191.284 117.364 191.599C118.287 193.24 120.684 194.562 123.597 194.847C127.482 195.226 130.813 193.616 131.037 191.251C131.261 188.886 128.294 186.661 124.409 186.282C124.269 186.268 124.208 186.093 124.311 185.996C124.886 185.46 125.452 184.889 126.004 184.283C126.448 183.797 127.199 183.74 127.778 184.055C129.087 184.766 130.862 185.162 132.799 185.074C136.698 184.899 139.774 182.832 139.67 180.458C139.566 178.084 136.321 176.303 132.423 176.478C131.831 176.505 131.367 175.897 131.585 175.346C131.591 175.332 131.596 175.318 131.602 175.304C131.799 174.803 132.45 174.624 132.952 174.818C134.651 175.473 137.225 175.102 139.642 173.686C143.022 171.706 144.812 168.433 143.641 166.375C142.471 164.317 138.782 164.254 135.402 166.234C134.859 166.552 134.358 166.903 133.903 167.277C133.776 167.382 133.579 167.278 133.597 167.115C133.697 166.196 133.75 165.295 133.762 164.414C133.775 163.382 134.522 162.49 135.458 162.057C136.643 161.509 137.854 160.592 138.905 159.366C141.468 156.379 142.113 152.693 140.347 151.133C138.581 149.573 135.072 150.729 132.51 153.716C132.307 153.952 131.914 153.89 131.804 153.599C131.615 153.1 131.418 152.616 131.213 152.145Z" fill="url(#paint8_linear)"/>
<path fill-rule="evenodd" clip-rule="evenodd" d="M76 192C93.6731 192 108 177.673 108 160C108 142.327 93.6731 128 76 128C58.3269 128 44 142.327 44 160C44 177.673 58.3269 192 76 192Z" fill="black"/>
<path fill-rule="evenodd" clip-rule="evenodd" d="M69.9067 181.173L75.1334 177.547C72.5201 174.667 71.7201 171.52 71.7201 167.253V157.6H75.5601H76.8401H79.6667V167.093C79.6667 172.427 80.4134 178.24 85.6401 181.173L90.8667 177.547C88.2534 174.667 87.4534 171.52 87.4534 167.253V157.6H92.5734L93.2667 151.84H87.4534V142.88L79.6667 143.84V151.84H77.5334H75.5601H71.7201V142.88L63.9334 143.84V151.84H59.8267V157.6H63.9334V167.093C63.9334 172.427 64.6801 178.24 69.9067 181.173Z" fill="white"/>
<defs>
<filter id="filter0_d" x="-4" y="24" width="160" height="168" filterUnits="userSpaceOnUse" color-interpolation-filters="sRGB">
<feFlood flood-opacity="0" result="BackgroundImageFix"/>
<feColorMatrix in="SourceAlpha" type="matrix" values="0 0 0 0 0 0 0 0 0 0 0 0 0 0 0 0 0 0 127 0"/>
<feOffset dy="12"/>
<feGaussianBlur stdDeviation="12"/>
<feColorMatrix type="matrix" values="0 0 0 0 0.917647 0 0 0 0 0.917647 0 0 0 0 0.917647 0 0 0 0.22 0"/>
<feBlend mode="color-dodge" in2="BackgroundImageFix" result="effect1_dropShadow"/>
<feBlend mode="normal" in="SourceGraphic" in2="effect1_dropShadow" result="shape"/>
</filter>
<linearGradient id="paint0_linear" x1="221.5" y1="140" x2="-54.5" y2="140" gradientUnits="userSpaceOnUse">
<stop offset="0.149171" stop-color="#6F7778"/>
<stop offset="0.226519" stop-color="#EAEAEA"/>
<stop offset="0.430939" stop-color="#949597"/>
<stop offset="0.668508" stop-color="#EFEFEF"/>
<stop offset="1" stop-color="#6F7778"/>
</linearGradient>
<linearGradient id="paint1_linear" x1="219.069" y1="122.915" x2="-53.5336" y2="122.915" gradientUnits="userSpaceOnUse">
<stop offset="0.149171" stop-color="#6F7778"/>
<stop offset="0.226519" stop-color="#EAEAEA"/>
<stop offset="0.430939" stop-color="#949597"/>
<stop offset="0.668508" stop-color="#EFEFEF"/>
<stop offset="1" stop-color="#6F7778"/>
</linearGradient>
<linearGradient id="paint2_linear" x1="219.069" y1="122.915" x2="-53.5336" y2="122.915" gradientUnits="userSpaceOnUse">
<stop offset="0.149171" stop-color="#6F7778"/>
<stop offset="0.226519" stop-color="#EAEAEA"/>
<stop offset="0.430939" stop-color="#949597"/>
<stop offset="0.668508" stop-color="#EFEFEF"/>
<stop offset="1" stop-color="#6F7778"/>
</linearGradient>
<linearGradient id="paint3_linear" x1="219.069" y1="122.915" x2="-53.5336" y2="122.915" gradientUnits="userSpaceOnUse">
<stop offset="0.149171" stop-color="#6F7778"/>
<stop offset="0.226519" stop-color="#EAEAEA"/>
<stop offset="0.430939" stop-color="#949597"/>
<stop offset="0.668508" stop-color="#EFEFEF"/>
<stop offset="1" stop-color="#6F7778"/>
</linearGradient>
<linearGradient id="paint4_linear" x1="219.069" y1="122.915" x2="-53.5336" y2="122.915" gradientUnits="userSpaceOnUse">
<stop offset="0.149171" stop-color="#6F7778"/>
<stop offset="0.226519" stop-color="#EAEAEA"/>
<stop offset="0.430939" stop-color="#949597"/>
<stop offset="0.668508" stop-color="#EFEFEF"/>
<stop offset="1" stop-color="#6F7778"/>
</linearGradient>
<linearGradient id="paint5_linear" x1="219.069" y1="122.915" x2="-53.5336" y2="122.915" gradientUnits="userSpaceOnUse">
<stop offset="0.149171" stop-color="#6F7778"/>
<stop offset="0.226519" stop-color="#EAEAEA"/>
<stop offset="0.430939" stop-color="#949597"/>
<stop offset="0.668508" stop-color="#EFEFEF"/>
<stop offset="1" stop-color="#6F7778"/>
</linearGradient>
<linearGradient id="paint6_linear" x1="219.069" y1="122.915" x2="-53.5336" y2="122.915" gradientUnits="userSpaceOnUse">
<stop offset="0.149171" stop-color="#6F7778"/>
<stop offset="0.226519" stop-color="#EAEAEA"/>
<stop offset="0.430939" stop-color="#949597"/>
<stop offset="0.668508" stop-color="#EFEFEF"/>
<stop offset="1" stop-color="#6F7778"/>
</linearGradient>
<linearGradient id="paint7_linear" x1="-24.3654" y1="200" x2="71.1731" y2="200" gradientUnits="userSpaceOnUse">
<stop offset="0.149171" stop-color="#6F7778"/>
<stop offset="0.226519" stop-color="#EAEAEA"/>
<stop offset="0.430939" stop-color="#949597"/>
<stop offset="0.668508" stop-color="#EFEFEF"/>
<stop offset="1" stop-color="#6F7778"/>
</linearGradient>
<linearGradient id="paint8_linear" x1="176.365" y1="200" x2="80.8269" y2="200" gradientUnits="userSpaceOnUse">
<stop offset="0.149171" stop-color="#6F7778"/>
<stop offset="0.226519" stop-color="#EAEAEA"/>
<stop offset="0.430939" stop-color="#949597"/>
<stop offset="0.668508" stop-color="#EFEFEF"/>
<stop offset="1" stop-color="#6F7778"/>
</linearGradient>
</defs>
</svg>
