<svg width="136" height="224" viewBox="0 0 136 224" fill="none" xmlns="http://www.w3.org/2000/svg">
<g filter="url(#filter0_d)">
<path d="M105.857 48.8768C106.982 48.4421 108.254 48.9986 108.547 50.1684C111.7 62.7357 124.649 126.137 68.9955 139.883C68.6913 139.958 68.3452 139.959 68.0408 139.885C11.5966 126.178 24.2434 63.0593 27.4285 50.2655C27.7288 49.0596 29.0517 48.5149 30.1975 48.9961C48.0487 56.4941 61.1383 44.2562 65.9649 38.6125C66.9448 37.4668 68.9315 37.5572 69.8344 38.7644C74.1261 44.5022 85.9871 56.5539 105.857 48.8768Z" fill="url(#paint0_angular)"/>
</g>
<path fill-rule="evenodd" clip-rule="evenodd" d="M68 120C85.6731 120 100 105.673 100 88C100 70.3269 85.6731 56 68 56C50.3269 56 36 70.3269 36 88C36 105.673 50.3269 120 68 120Z" fill="black"/>
<path d="M21.8099 163.297C21.9051 163.081 21.8926 162.835 21.8159 162.612C21.4658 161.593 21.6661 160.108 22.4405 158.699C23.5751 156.635 25.5123 155.517 26.7674 156.201C28.0225 156.886 28.1202 159.115 26.9857 161.179C26.1676 162.667 24.9323 163.663 23.8363 163.847C23.6612 163.876 23.5016 163.979 23.4312 164.141C23.3091 164.424 23.1919 164.715 23.0811 165.015C23.0669 165.053 23.1049 165.09 23.1429 165.075C25.3652 164.213 27.5878 164.591 28.1072 165.919C28.6265 167.248 27.246 169.024 25.0237 169.886C24.6257 170.04 24.2278 170.155 23.8396 170.232C22.9183 170.413 22.0718 171.14 22.1759 172.073C22.2395 172.643 22.3278 173.194 22.4382 173.725C22.5032 174.039 22.9433 174.083 23.1135 173.812C24.3789 171.798 26.489 170.842 27.8265 171.676C29.1641 172.51 29.2225 174.819 27.9571 176.833C27.1308 178.148 25.9442 179.012 24.8478 179.221C24.7784 179.235 24.7425 179.314 24.7817 179.373C24.8955 179.506 24.9915 179.644 25.0676 179.788C25.6225 180.565 26.2268 181.262 26.8565 181.882C27.1159 182.138 27.5556 181.951 27.6082 181.591C27.9517 179.24 29.3781 177.5 30.7942 177.705C32.2102 177.911 33.0797 179.983 32.7362 182.335C32.711 182.507 32.6799 182.677 32.6434 182.842C32.3654 184.104 32.784 185.642 33.7438 186.507C35.4757 188.07 36 190.023 36 191.101C36 191.597 35.5905 192 35.0854 192C34.5804 192 34.1709 191.597 34.1709 191.101C34.1709 190.736 34.0583 190.114 33.7186 189.426C33.56 189.105 33.1059 189.155 32.9263 189.464C32.2108 190.699 31.1285 191.411 30.5089 191.055C29.8892 190.698 29.9669 189.408 30.6824 188.174C30.7819 188.002 30.8885 187.84 31 187.69C31.2308 187.38 31.1772 186.915 30.8233 186.758C30.6215 186.669 30.3849 186.772 30.2748 186.964C29.7093 187.946 28.246 188.738 26.4684 188.908C24.0944 189.136 22.0588 188.17 21.9217 186.751C21.7847 185.332 23.598 183.997 25.972 183.769C26.0569 183.761 26.0935 183.654 26.0306 183.597C25.676 183.271 25.3269 182.926 24.9867 182.558C24.7206 182.271 24.275 182.238 23.9304 182.424C23.1288 182.856 22.0369 183.097 20.845 183.045C18.4624 182.939 16.5824 181.699 16.646 180.275C16.7095 178.851 18.6924 177.782 21.075 177.887C21.4357 177.903 21.717 177.53 21.5821 177.196C21.5794 177.189 21.5766 177.182 21.5739 177.175C21.454 176.876 21.0664 176.769 20.766 176.885C19.7278 177.286 18.1469 177.065 16.6634 176.212C14.598 175.024 13.5036 173.06 14.2191 171.825C14.9346 170.59 17.189 170.552 19.2544 171.741C19.5869 171.932 19.8942 172.143 20.1728 172.368C20.2503 172.431 20.3687 172.368 20.3577 172.269C20.3244 171.97 20.2996 171.675 20.2827 171.382C20.2233 170.349 19.4665 169.444 18.5902 168.894C18.076 168.571 17.5702 168.142 17.1136 167.62C15.5476 165.828 15.153 163.616 16.2322 162.68C17.3115 161.744 19.4559 162.437 21.0219 164.23C21.147 164.373 21.3858 164.335 21.4542 164.157C21.5679 163.862 21.6869 163.575 21.8099 163.297Z" fill="url(#paint1_linear)"/>
<path d="M114.19 163.297C114.095 163.081 114.107 162.835 114.184 162.612C114.534 161.593 114.334 160.108 113.559 158.699C112.425 156.635 110.488 155.517 109.233 156.201C107.978 156.886 107.88 159.115 109.014 161.179C109.832 162.667 111.068 163.663 112.164 163.847C112.339 163.876 112.498 163.979 112.569 164.141C112.691 164.424 112.808 164.715 112.919 165.015C112.933 165.053 112.895 165.09 112.857 165.075C110.635 164.213 108.412 164.591 107.893 165.919C107.373 167.248 108.754 169.024 110.976 169.886C111.374 170.04 111.772 170.155 112.16 170.232C113.082 170.413 113.928 171.14 113.824 172.073C113.761 172.643 113.672 173.194 113.562 173.725C113.497 174.039 113.057 174.083 112.886 173.812C111.621 171.798 109.511 170.842 108.173 171.676C106.836 172.51 106.777 174.819 108.043 176.833C108.869 178.148 110.056 179.012 111.152 179.221C111.222 179.235 111.258 179.314 111.218 179.373C111.105 179.506 111.009 179.644 110.932 179.788C110.378 180.565 109.773 181.262 109.143 181.882C108.884 182.138 108.444 181.951 108.392 181.591C108.048 179.24 106.622 177.5 105.206 177.705C103.79 177.911 102.92 179.983 103.264 182.335C103.289 182.507 103.32 182.677 103.357 182.842C103.635 184.104 103.216 185.642 102.256 186.507C100.524 188.07 100 190.023 100 191.101C100 191.597 100.409 192 100.915 192C101.42 192 101.829 191.597 101.829 191.101C101.829 190.736 101.942 190.114 102.281 189.426C102.44 189.105 102.894 189.155 103.074 189.464C103.789 190.699 104.872 191.411 105.491 191.055C106.111 190.698 106.033 189.408 105.318 188.174C105.218 188.002 105.111 187.84 105 187.69C104.769 187.38 104.823 186.915 105.177 186.758C105.379 186.669 105.615 186.772 105.725 186.964C106.291 187.946 107.754 188.738 109.532 188.908C111.906 189.136 113.941 188.17 114.078 186.751C114.215 185.332 112.402 183.997 110.028 183.769C109.943 183.761 109.906 183.654 109.969 183.597C110.324 183.271 110.673 182.926 111.013 182.558C111.279 182.271 111.725 182.238 112.07 182.424C112.871 182.856 113.963 183.097 115.155 183.045C117.538 182.939 119.418 181.699 119.354 180.275C119.291 178.851 117.308 177.782 114.925 177.887C114.564 177.903 114.283 177.53 114.418 177.196C114.421 177.189 114.423 177.182 114.426 177.175C114.546 176.876 114.934 176.769 115.234 176.885C116.272 177.286 117.853 177.065 119.337 176.212C121.402 175.024 122.496 173.06 121.781 171.825C121.065 170.59 118.811 170.552 116.746 171.741C116.413 171.932 116.106 172.143 115.827 172.368C115.75 172.431 115.631 172.368 115.642 172.269C115.676 171.97 115.7 171.675 115.717 171.382C115.777 170.349 116.533 169.444 117.41 168.894C117.924 168.571 118.43 168.142 118.886 167.62C120.452 165.828 120.847 163.616 119.768 162.68C118.689 161.744 116.544 162.437 114.978 164.23C114.853 164.373 114.614 164.335 114.546 164.157C114.432 163.862 114.313 163.575 114.19 163.297Z" fill="url(#paint2_linear)"/>
<path fill-rule="evenodd" clip-rule="evenodd" d="M68 192C85.6731 192 100 177.673 100 160C100 142.327 85.6731 128 68 128C50.3269 128 36 142.327 36 160C36 177.673 50.3269 192 68 192Z" fill="black"/>
<path fill-rule="evenodd" clip-rule="evenodd" d="M61.9067 181.173L67.1334 177.547C64.52 174.667 63.72 171.52 63.72 167.253V157.6H67.5601H68.84H71.6667V167.093C71.6667 172.427 72.4134 178.24 77.6401 181.173L82.8667 177.547C80.2534 174.667 79.4534 171.52 79.4534 167.253V157.6H84.5734L85.2667 151.84H79.4534V142.88L71.6667 143.84V151.84H69.5334H67.5601H63.72V142.88L55.9334 143.84V151.84H51.8267V157.6H55.9334V167.093C55.9334 172.427 56.68 178.24 61.9067 181.173Z" fill="white"/>
<defs>
<filter id="filter0_d" x="-8" y="24" width="152" height="160" filterUnits="userSpaceOnUse" color-interpolation-filters="sRGB">
<feFlood flood-opacity="0" result="BackgroundImageFix"/>
<feColorMatrix in="SourceAlpha" type="matrix" values="0 0 0 0 0 0 0 0 0 0 0 0 0 0 0 0 0 0 127 0"/>
<feOffset dy="8"/>
<feGaussianBlur stdDeviation="10"/>
<feColorMatrix type="matrix" values="0 0 0 0 0.964706 0 0 0 0 0.756863 0 0 0 0 0.498039 0 0 0 0.22 0"/>
<feBlend mode="color-dodge" in2="BackgroundImageFix" result="effect1_dropShadow"/>
<feBlend mode="normal" in="SourceGraphic" in2="effect1_dropShadow" result="shape"/>
</filter>
<radialGradient id="paint0_angular" cx="0" cy="0" r="1" gradientUnits="userSpaceOnUse" gradientTransform="translate(67.6946 405.498) rotate(0.565559) scale(253.274 462.075)">
<stop offset="0.709154" stop-color="#AC6847"/>
<stop offset="0.726281" stop-color="#FCC783"/>
<stop offset="0.748222" stop-color="#8B533A"/>
<stop offset="0.770045" stop-color="#FCC783"/>
<stop offset="0.789504" stop-color="#92583F"/>
</radialGradient>
<linearGradient id="paint1_linear" x1="-5.77884" y1="192" x2="52.6058" y2="192" gradientUnits="userSpaceOnUse">
<stop offset="0.149171" stop-color="#AC6847"/>
<stop offset="0.226519" stop-color="#FCC783"/>
<stop offset="0.430939" stop-color="#8B533A"/>
<stop offset="0.668508" stop-color="#FCC783"/>
<stop offset="1" stop-color="#92583F"/>
</linearGradient>
<linearGradient id="paint2_linear" x1="141.779" y1="192" x2="83.3942" y2="192" gradientUnits="userSpaceOnUse">
<stop offset="0.149171" stop-color="#AC6847"/>
<stop offset="0.226519" stop-color="#FCC783"/>
<stop offset="0.430939" stop-color="#8B533A"/>
<stop offset="0.668508" stop-color="#FCC783"/>
<stop offset="1" stop-color="#92583F"/>
</linearGradient>
</defs>
</svg>
