<svg width="136" height="224" viewBox="0 0 136 224" fill="none" xmlns="http://www.w3.org/2000/svg">
<path d="M120 88C120 116.95 96.4139 140 68 140C39.5888 140 16 116.95 16 88C16 59.0497 39.0497 36 68 36C96.9503 36 120 59.0497 120 88Z" fill="white"/>
<g opacity="0.8">
<path d="M71.3779 110.678C70.2174 110.256 66.8539 106.353 66.4734 106C66.093 105.647 64.3715 105.177 63.5751 105.33C62.7787 105.483 59.0511 107.815 58.0029 108.004C56.9547 108.193 56.0515 107.322 55.5534 106C55.0553 104.678 54.1905 99.3197 54.8857 97.9732C55.5808 96.6266 62.921 91.5087 64.4673 91.5087C66.0136 91.5087 67.1084 96.1066 68.704 96.4104C70.2995 96.7142 69.588 92.3407 71.6023 92.4037C73.3514 92.4584 74.9206 97.4713 75.3002 98.7783C75.3599 98.9837 75.4464 99.1763 75.5604 99.3573C76.0749 100.174 77.5501 102.618 77.3962 103.551C77.2101 104.678 74.9002 109.402 74.2762 110.013C73.6522 110.617 72.5438 111.099 71.3779 110.678Z" fill="url(#paint0_linear)"/>
<path d="M87.631 113.985C86.8126 113.985 86.008 113.602 85.5099 112.88C84.8794 111.981 84.9004 110.823 85.4741 109.962C85.7579 109.536 85.8574 108.946 85.4907 108.588C84.4617 107.6 84.4206 105.964 85.4059 104.932C86.3912 103.906 88.0278 103.862 89.0596 104.839C90.2994 106.016 91.7472 107.8 91.6267 109.626C91.4899 111.703 89.6672 113.129 89.1116 113.517C88.6573 113.832 88.14 113.985 87.631 113.985Z" fill="url(#paint1_linear)"/>
<path d="M79.2396 122.199C78.5609 122.199 77.8876 121.933 77.3786 121.408C76.3851 120.381 76.4125 118.742 77.4443 117.748L82.3241 113.041C83.3504 112.045 84.9897 112.075 85.9832 113.107C86.9767 114.133 86.9466 115.772 85.9175 116.766L81.0377 121.473C80.5342 121.958 79.8883 122.199 79.2396 122.199Z" fill="url(#paint2_linear)"/>
<path d="M66.1745 48.646C64.4914 48.7609 62.0884 50.0938 61.697 49.9952C61.3057 49.894 60.6872 49.4506 60.3149 49.3247C59.9427 49.2016 55.5665 49.6641 54.6141 49.9624C53.6617 50.2607 51.6857 51.766 50.7524 51.6702C49.8192 51.5744 50.2297 50.4715 49.7261 50.3894C49.2225 50.3072 47.4299 51.5498 46.056 51.5224C44.6821 51.495 43.3328 49.5574 41.1297 49.1961C40.3386 49.0668 38.722 49.5383 36.9813 50.1954C36.7776 50.2723 36.5908 50.3859 36.4155 50.5149C34.9687 51.5794 32.5844 52.3169 29.9185 52.9985C29.5324 53.0971 29.1825 53.3056 28.9194 53.6048C20.8845 62.7423 16 74.7313 16 87.999C16 96.6184 18.1134 104.696 21.8044 111.814C22.3203 112.809 23.5728 113.14 24.5268 112.552C25.4604 111.977 26.0886 111.561 26.1099 111.467C26.4055 110.096 25.2232 102.168 25.1684 100.679C25.1164 99.19 27.4838 93.7054 26.6135 93.0513C25.7404 92.3972 25.0589 93.8668 24.4733 93.4399C23.8876 93.0129 20.6937 89.1786 20.4036 88.4698C20.1135 87.7609 19.2924 85.0788 20.16 84.9119C21.0276 84.7477 24.9549 89.7698 25.6857 90.1885C26.4192 90.6073 27.0541 90.2542 27.8259 89.7971C28.5977 89.3401 29.5884 86.4281 29.0356 85.8534C28.4827 85.2786 23.6604 83.5708 24.0983 82.8428C24.4794 82.2108 27.8701 82.8727 28.7792 83.0631C28.9293 83.0945 29.0792 83.1101 29.2325 83.1124C29.8908 83.1219 31.7984 83.1914 32.7714 83.6666C33.9592 84.2468 35.3549 87.7774 36.3101 88.6039C37.2653 89.4304 39.233 90.6346 39.6053 89.9778C39.9775 89.3209 38.6939 87.3997 38.7131 86.5896C38.7322 85.7767 40.6891 82.279 41.6524 82.0163C42.6158 81.7536 44.1922 83.4094 44.8792 84.4466C45.5634 85.4839 47.9116 89.986 48.9133 89.9395C49.9149 89.8929 50.5006 85.8889 50.0244 84.9912C49.5509 84.0963 47.3752 82.9249 47.3971 81.5456C47.4189 80.1662 49.3156 81.7946 50.2653 81.302C51.2149 80.8094 53.0869 75.8611 52.5669 74.3148C52.0469 72.7712 50.3392 72.035 50.3419 71.1073C50.3446 70.1795 54.9179 68.8548 56.0509 67.8778C57.1813 66.9007 57.7232 64.3281 57.2907 63.4058C56.8583 62.4835 55.2436 61.7363 55.2299 60.1544C55.2135 58.5698 61.6067 54.73 62.3703 55.1651C63.1339 55.6003 62.1459 61.0384 63.2954 61.3066C64.4476 61.5748 64.2998 56.5609 64.9183 55.0119C65.5368 53.4656 70.9832 51.1174 71.0488 50.1211C71.1173 49.1249 67.8577 48.531 66.1745 48.646Z" fill="url(#paint3_linear)"/>
<path d="M116.502 96.2624C116.455 96.2104 116.406 96.142 116.373 96.0982C115.875 95.4031 113.516 90.7696 113.081 90.5972C112.646 90.4247 109.233 91.3334 108.571 92.2119C107.906 93.0877 108.141 94.3658 107.525 94.7599C106.907 95.154 105.596 94.2837 105.015 95.4989C104.435 96.714 105.393 101.276 105.889 102.114C106.384 102.951 107.454 103.463 107.708 104.552C107.952 105.61 106.581 107.622 106.487 107.758C106.484 107.763 106.481 107.768 106.477 107.773L99.7066 117.285C99.6424 117.376 99.5863 117.47 99.5396 117.57C99.2814 118.125 98.4029 120.096 98.4169 121.181C98.4361 122.451 99.4487 123.103 100.086 122.867C100.569 122.689 101.068 121.153 101.281 120.418C101.356 120.162 101.471 119.921 101.637 119.711C102.239 118.948 103.811 117.027 104.868 116.362C106.195 115.527 107.418 115.218 108.467 114.854C108.669 114.786 109.003 114.604 109.402 114.366C109.57 114.266 109.75 114.184 109.943 114.153C110.397 114.078 110.95 114.072 111.56 114.106C112.347 114.15 113.111 113.783 113.493 113.093C115.822 108.889 117.583 104.33 118.675 99.5012C118.956 98.2608 117.859 97.2118 116.806 96.4975C116.702 96.4269 116.601 96.3487 116.502 96.2624Z" fill="url(#paint4_linear)"/>
<path d="M115.231 76.5051C115.548 76.3114 115.819 76.2146 116.189 76.2346C117.395 76.2994 118.412 75.1972 118.09 74.0335C117.778 72.9015 117.427 71.786 117.043 70.6866C116.76 69.8775 115.976 69.3668 115.119 69.3764C114.516 69.3832 113.962 69.3742 113.492 69.3368C111.702 69.3176 109.565 69.2793 109.368 69.1917C109.026 69.0412 107.082 68.2886 107.416 67.0981C107.685 66.1289 110.037 66.1252 111.256 65.7657C111.568 65.6737 111.827 65.5795 112.152 65.6016C113.42 65.6879 114.403 64.4234 113.804 63.3026C111.704 59.3702 109.118 55.749 106.115 52.5174C105.181 51.5133 103.558 51.9843 103.069 53.2651C103.007 53.4271 102.915 53.5899 102.804 53.7234C102.174 54.4836 101.434 55.209 100.856 55.2995C99.6027 55.4939 94.9583 53.288 94.181 53.1429C93.4037 52.9979 90.9953 54.057 89.7938 54.0324C88.5924 54.0077 86.6711 51.7909 85.9978 51.4461C85.3273 51.0985 82.8696 50.9452 82.2347 51.2928C81.5997 51.6431 80.5625 53.7724 80.9128 54.9109C81.2604 56.0494 82.3031 57.2482 82.1854 57.8475C82.0705 58.4469 79.6347 59.632 79.5006 60.7486C79.3665 61.8625 84.5254 58.8656 85.8911 58.8547C87.2568 58.841 88.3269 58.8684 88.8387 59.4787C89.345 60.089 93.1793 66.4686 93.5652 68.1928C93.9511 69.9197 93.5406 73.1383 93.9703 74.3534C94.3306 75.3724 95.8302 77.2208 96.305 77.7911C96.4011 77.9065 96.4851 78.0305 96.5548 78.1635L100.685 86.0408C100.75 86.1638 100.826 86.2795 100.917 86.385C101.513 87.0806 103.933 89.8118 105.049 89.6277C106.327 89.417 101.384 82.72 101.568 81.4227C101.746 80.1254 104.056 79.485 105.473 80.4046C106.891 81.3269 109.474 86.557 110.424 85.7223C111.377 84.8875 109.715 80.9 110.26 79.9694C110.579 79.4274 113.17 77.7671 115.231 76.5051Z" fill="url(#paint5_linear)"/>
</g>
<path fill-rule="evenodd" clip-rule="evenodd" d="M68 120C85.6731 120 100 105.673 100 88C100 70.3269 85.6731 56 68 56C50.3269 56 36 70.3269 36 88C36 105.673 50.3269 120 68 120Z" fill="black"/>
<path d="M12.7866 152.145C12.9386 151.795 12.9187 151.398 12.7952 151.037C12.2147 149.338 12.5404 146.854 13.8118 144.498C15.6683 141.058 18.8383 139.194 20.8921 140.336C22.9459 141.477 23.1058 145.191 21.2492 148.631C19.9131 151.107 17.8965 152.766 16.1054 153.076C15.8136 153.127 15.5475 153.299 15.4319 153.571C15.2321 154.042 15.0404 154.528 14.8591 155.027C14.8363 155.09 14.899 155.15 14.9611 155.125C18.5976 153.688 22.2346 154.318 23.0844 156.532C23.9343 158.746 21.6753 161.706 18.0387 163.143C17.1721 163.486 16.3056 163.711 15.4767 163.825C14.2893 163.989 13.2154 164.91 13.3133 166.105C13.3319 166.331 13.3536 166.559 13.3787 166.788C13.483 167.741 13.6278 168.66 13.8089 169.547C13.9138 170.061 14.6376 170.134 14.913 169.687C16.9837 166.33 20.4365 164.736 22.6252 166.126C24.8139 167.516 24.9096 171.365 22.8389 174.721C21.4875 176.912 19.5473 178.352 17.754 178.702C17.6385 178.724 17.5782 178.856 17.6427 178.955C17.829 179.176 17.986 179.407 18.1107 179.646C19.0155 180.937 20.0009 182.095 21.0276 183.127C21.4525 183.554 22.1824 183.248 22.268 182.652C22.8301 178.733 25.1642 175.833 27.4814 176.176C29.7986 176.518 31.2213 179.972 30.6592 183.891C30.5313 184.783 30.3116 185.622 30.0213 186.382C29.5647 187.577 29.9528 189.066 31.0019 189.799C34.8856 192.511 36 196.454 36 198.502C36 199.329 35.33 200 34.5035 200C33.6769 200 33.0069 199.329 33.0069 198.502C33.0069 197.894 32.8229 196.857 32.2676 195.711C32.0106 195.181 31.2618 195.262 30.9703 195.774C29.7995 197.832 28.0284 199.018 27.0145 198.424C26.0006 197.83 26.1277 195.681 27.2985 193.623C27.4628 193.334 27.6389 193.063 27.8231 192.811C28.2009 192.294 28.1127 191.526 27.5291 191.263C27.2001 191.115 26.8123 191.284 26.6355 191.599C25.7132 193.24 23.316 194.562 20.4029 194.847C16.5182 195.226 13.1872 193.616 12.9628 191.251C12.7385 188.886 15.7059 186.661 19.5906 186.282C19.7308 186.268 19.7917 186.093 19.6888 185.996C19.1137 185.46 18.5476 184.889 17.9958 184.283C17.5524 183.797 16.8006 183.74 16.2222 184.055C14.9131 184.766 13.1377 185.162 11.201 185.074C7.30216 184.899 4.22581 182.832 4.32974 180.458C4.43367 178.084 7.67853 176.303 11.5773 176.478C12.169 176.505 12.6332 175.897 12.415 175.346C12.4094 175.332 12.4038 175.318 12.3982 175.304C12.2009 174.803 11.5501 174.624 11.0483 174.818C9.3491 175.473 6.77467 175.102 4.35829 173.686C0.978497 171.706 -0.812248 168.433 0.358543 166.375C1.52934 164.317 5.21832 164.254 8.59812 166.234C9.14063 166.552 9.64221 166.903 10.0972 167.277C10.2245 167.382 10.4214 167.278 10.4034 167.115C10.3029 166.196 10.2497 165.295 10.2384 164.414C10.2252 163.382 9.47814 162.49 8.54173 162.057C7.35733 161.509 6.14648 160.592 5.09499 159.366C2.53238 156.379 1.88665 152.693 3.6527 151.133C5.41875 149.573 8.92782 150.729 11.4904 153.716C11.6934 153.952 12.0861 153.89 12.1964 153.599C12.385 153.1 12.5825 152.616 12.7866 152.145Z" fill="white"/>
<path d="M123.213 152.145C123.061 151.795 123.081 151.398 123.205 151.037C123.785 149.338 123.46 146.854 122.188 144.498C120.332 141.058 117.162 139.194 115.108 140.336C113.054 141.477 112.894 145.191 114.751 148.631C116.087 151.107 118.103 152.766 119.895 153.076C120.186 153.127 120.452 153.299 120.568 153.571C120.768 154.042 120.96 154.528 121.141 155.027C121.164 155.09 121.101 155.15 121.039 155.125C117.402 153.688 113.765 154.318 112.916 156.532C112.066 158.746 114.325 161.706 117.961 163.143C118.828 163.486 119.694 163.711 120.523 163.825C121.711 163.989 122.785 164.91 122.687 166.105C122.668 166.331 122.646 166.559 122.621 166.788C122.517 167.741 122.372 168.66 122.191 169.547C122.086 170.061 121.362 170.134 121.087 169.687C119.016 166.33 115.563 164.736 113.375 166.126C111.186 167.516 111.09 171.365 113.161 174.721C114.512 176.912 116.453 178.352 118.246 178.702C118.362 178.724 118.422 178.856 118.357 178.955C118.171 179.176 118.014 179.407 117.889 179.646C116.984 180.937 115.999 182.095 114.972 183.127C114.547 183.554 113.818 183.248 113.732 182.652C113.17 178.733 110.836 175.833 108.519 176.176C106.201 176.518 104.779 179.972 105.341 183.891C105.469 184.783 105.688 185.622 105.979 186.382C106.435 187.577 106.047 189.066 104.998 189.799C101.114 192.511 100 196.454 100 198.502C100 199.329 100.67 200 101.497 200C102.323 200 102.993 199.329 102.993 198.502C102.993 197.894 103.177 196.857 103.732 195.711C103.989 195.181 104.738 195.262 105.03 195.774C106.2 197.832 107.972 199.018 108.985 198.424C109.999 197.83 109.872 195.681 108.701 193.623C108.537 193.334 108.361 193.063 108.177 192.811C107.799 192.294 107.887 191.526 108.471 191.263C108.8 191.115 109.188 191.284 109.364 191.599C110.287 193.24 112.684 194.562 115.597 194.847C119.482 195.226 122.813 193.616 123.037 191.251C123.261 188.886 120.294 186.661 116.409 186.282C116.269 186.268 116.208 186.093 116.311 185.996C116.886 185.46 117.452 184.889 118.004 184.283C118.448 183.797 119.199 183.74 119.778 184.055C121.087 184.766 122.862 185.162 124.799 185.074C128.698 184.899 131.774 182.832 131.67 180.458C131.566 178.084 128.321 176.303 124.423 176.478C123.831 176.505 123.367 175.897 123.585 175.346C123.591 175.332 123.596 175.318 123.602 175.304C123.799 174.803 124.45 174.624 124.952 174.818C126.651 175.473 129.225 175.102 131.642 173.686C135.022 171.706 136.812 168.433 135.641 166.375C134.471 164.317 130.782 164.254 127.402 166.234C126.859 166.552 126.358 166.903 125.903 167.277C125.776 167.382 125.579 167.278 125.597 167.115C125.697 166.196 125.75 165.295 125.762 164.414C125.775 163.382 126.522 162.49 127.458 162.057C128.643 161.509 129.854 160.592 130.905 159.366C133.468 156.379 134.113 152.693 132.347 151.133C130.581 149.573 127.072 150.729 124.51 153.716C124.307 153.952 123.914 153.89 123.804 153.599C123.615 153.1 123.418 152.616 123.213 152.145Z" fill="white"/>
<path fill-rule="evenodd" clip-rule="evenodd" d="M68 192C85.6731 192 100 177.673 100 160C100 142.327 85.6731 128 68 128C50.3269 128 36 142.327 36 160C36 177.673 50.3269 192 68 192Z" fill="black"/>
<path fill-rule="evenodd" clip-rule="evenodd" d="M61.9067 181.173L67.1334 177.547C64.5201 174.667 63.7201 171.52 63.7201 167.253V157.6H67.5601H68.8401H71.6667V167.093C71.6667 172.427 72.4134 178.24 77.6401 181.173L82.8667 177.547C80.2534 174.667 79.4534 171.52 79.4534 167.253V157.6H84.5734L85.2667 151.84H79.4534V142.88L71.6667 143.84V151.84H69.5334H67.5601H63.7201V142.88L55.9334 143.84V151.84H51.8267V157.6H55.9334V167.093C55.9334 172.427 56.6801 178.24 61.9067 181.173Z" fill="white"/>
<defs>
<linearGradient id="paint0_linear" x1="-75.2319" y1="43.4088" x2="-75.2319" y2="159.476" gradientUnits="userSpaceOnUse">
<stop stop-color="#6F7778"/>
<stop offset="0.232302" stop-color="#EAEAEA"/>
<stop offset="0.489975" stop-color="#949597"/>
<stop offset="0.740374" stop-color="#EFEFEF"/>
<stop offset="1" stop-color="#6F7778"/>
</linearGradient>
<linearGradient id="paint1_linear" x1="-75.2319" y1="43.4088" x2="-75.2319" y2="159.476" gradientUnits="userSpaceOnUse">
<stop stop-color="#6F7778"/>
<stop offset="0.232302" stop-color="#EAEAEA"/>
<stop offset="0.489975" stop-color="#949597"/>
<stop offset="0.740374" stop-color="#EFEFEF"/>
<stop offset="1" stop-color="#6F7778"/>
</linearGradient>
<linearGradient id="paint2_linear" x1="-75.2319" y1="43.4088" x2="-75.2319" y2="159.476" gradientUnits="userSpaceOnUse">
<stop stop-color="#6F7778"/>
<stop offset="0.232302" stop-color="#EAEAEA"/>
<stop offset="0.489975" stop-color="#949597"/>
<stop offset="0.740374" stop-color="#EFEFEF"/>
<stop offset="1" stop-color="#6F7778"/>
</linearGradient>
<linearGradient id="paint3_linear" x1="-75.2319" y1="43.4088" x2="-75.2319" y2="159.476" gradientUnits="userSpaceOnUse">
<stop stop-color="#6F7778"/>
<stop offset="0.232302" stop-color="#EAEAEA"/>
<stop offset="0.489975" stop-color="#949597"/>
<stop offset="0.740374" stop-color="#EFEFEF"/>
<stop offset="1" stop-color="#6F7778"/>
</linearGradient>
<linearGradient id="paint4_linear" x1="-75.2319" y1="43.4088" x2="-75.2319" y2="159.476" gradientUnits="userSpaceOnUse">
<stop stop-color="#6F7778"/>
<stop offset="0.232302" stop-color="#EAEAEA"/>
<stop offset="0.489975" stop-color="#949597"/>
<stop offset="0.740374" stop-color="#EFEFEF"/>
<stop offset="1" stop-color="#6F7778"/>
</linearGradient>
<linearGradient id="paint5_linear" x1="-75.2319" y1="43.4088" x2="-75.2319" y2="159.476" gradientUnits="userSpaceOnUse">
<stop stop-color="#6F7778"/>
<stop offset="0.232302" stop-color="#EAEAEA"/>
<stop offset="0.489975" stop-color="#949597"/>
<stop offset="0.740374" stop-color="#EFEFEF"/>
<stop offset="1" stop-color="#6F7778"/>
</linearGradient>
</defs>
</svg>
