<svg width="144" height="224" viewBox="0 0 144 224" fill="none" xmlns="http://www.w3.org/2000/svg">
<g filter="url(#filter0_d)">
<path d="M124 88C124 116.95 100.414 140 72 140C43.5888 140 20 116.95 20 88C20 59.0497 43.0497 36 72 36C100.95 36 124 59.0497 124 88Z" fill="url(#paint0_linear)"/>
<g style="mix-blend-mode:color-dodge" opacity="0.8">
<path d="M75.3779 110.678C74.2174 110.256 70.8539 106.353 70.4734 106C70.093 105.647 68.3715 105.177 67.5751 105.33C66.7787 105.483 63.0511 107.815 62.0029 108.004C60.9547 108.193 60.0515 107.322 59.5534 106C59.0553 104.678 58.1905 99.3197 58.8857 97.9732C59.5808 96.6266 66.921 91.5087 68.4673 91.5087C70.0136 91.5087 71.1084 96.1066 72.704 96.4104C74.2995 96.7142 73.588 92.3407 75.6023 92.4037C77.3514 92.4584 78.9206 97.4713 79.3002 98.7783C79.3599 98.9837 79.4464 99.1763 79.5604 99.3573C80.0749 100.174 81.5501 102.618 81.3962 103.551C81.2101 104.678 78.9002 109.402 78.2762 110.013C77.6522 110.617 76.5438 111.099 75.3779 110.678Z" fill="url(#paint1_linear)"/>
<path d="M91.631 113.985C90.8126 113.985 90.008 113.602 89.5099 112.88C88.8794 111.981 88.9004 110.823 89.4741 109.962C89.7579 109.536 89.8574 108.946 89.4907 108.588C88.4617 107.6 88.4206 105.964 89.4059 104.932C90.3912 103.906 92.0278 103.862 93.0596 104.839C94.2994 106.016 95.7472 107.8 95.6267 109.626C95.4899 111.703 93.6672 113.129 93.1116 113.517C92.6573 113.832 92.14 113.985 91.631 113.985Z" fill="url(#paint2_linear)"/>
<path d="M83.2396 122.199C82.5609 122.199 81.8876 121.933 81.3786 121.408C80.3851 120.381 80.4125 118.742 81.4443 117.748L86.3241 113.041C87.3504 112.045 88.9897 112.075 89.9832 113.107C90.9767 114.133 90.9466 115.772 89.9175 116.766L85.0377 121.473C84.5342 121.958 83.8883 122.199 83.2396 122.199Z" fill="url(#paint3_linear)"/>
<path d="M70.1745 48.646C68.4914 48.7609 66.0884 50.0938 65.697 49.9952C65.3057 49.894 64.6872 49.4506 64.3149 49.3247C63.9427 49.2016 59.5665 49.6641 58.6141 49.9624C57.6617 50.2607 55.6857 51.766 54.7524 51.6702C53.8192 51.5744 54.2297 50.4715 53.7261 50.3894C53.2225 50.3072 51.4299 51.5498 50.056 51.5224C48.6821 51.495 47.3328 49.5574 45.1297 49.1961C44.3386 49.0668 42.722 49.5383 40.9813 50.1954C40.7776 50.2723 40.5908 50.3859 40.4155 50.5149C38.9687 51.5794 36.5844 52.3169 33.9185 52.9985C33.5324 53.0971 33.1825 53.3056 32.9194 53.6048C24.8845 62.7423 20 74.7313 20 87.999C20 96.6184 22.1134 104.696 25.8044 111.814C26.3203 112.809 27.5728 113.14 28.5268 112.552C29.4604 111.977 30.0886 111.561 30.1099 111.467C30.4055 110.096 29.2232 102.168 29.1684 100.679C29.1164 99.19 31.4838 93.7054 30.6135 93.0513C29.7404 92.3972 29.0589 93.8668 28.4733 93.4399C27.8876 93.0129 24.6937 89.1786 24.4036 88.4698C24.1135 87.7609 23.2924 85.0788 24.16 84.9119C25.0276 84.7477 28.9549 89.7698 29.6857 90.1885C30.4192 90.6073 31.0541 90.2542 31.8259 89.7971C32.5977 89.3401 33.5884 86.4281 33.0356 85.8534C32.4827 85.2786 27.6604 83.5708 28.0983 82.8428C28.4794 82.2108 31.8701 82.8727 32.7792 83.0631C32.9293 83.0945 33.0792 83.1101 33.2325 83.1124C33.8908 83.1219 35.7984 83.1914 36.7714 83.6666C37.9592 84.2468 39.3549 87.7774 40.3101 88.6039C41.2653 89.4304 43.233 90.6346 43.6053 89.9778C43.9775 89.3209 42.6939 87.3997 42.7131 86.5896C42.7322 85.7767 44.6891 82.279 45.6524 82.0163C46.6158 81.7536 48.1922 83.4094 48.8792 84.4466C49.5634 85.4839 51.9116 89.986 52.9133 89.9395C53.9149 89.8929 54.5006 85.8889 54.0244 84.9912C53.5509 84.0963 51.3752 82.9249 51.3971 81.5456C51.4189 80.1662 53.3156 81.7946 54.2653 81.302C55.2149 80.8094 57.0869 75.8611 56.5669 74.3148C56.0469 72.7712 54.3392 72.035 54.3419 71.1073C54.3446 70.1795 58.9179 68.8548 60.0509 67.8778C61.1813 66.9007 61.7232 64.3281 61.2907 63.4058C60.8583 62.4835 59.2436 61.7363 59.2299 60.1544C59.2135 58.5698 65.6067 54.73 66.3703 55.1651C67.1339 55.6003 66.1459 61.0384 67.2954 61.3066C68.4476 61.5748 68.2998 56.5609 68.9183 55.0119C69.5368 53.4656 74.9832 51.1174 75.0488 50.1211C75.1173 49.1249 71.8577 48.531 70.1745 48.646Z" fill="url(#paint4_linear)"/>
<path d="M120.502 96.2624C120.455 96.2104 120.406 96.142 120.373 96.0982C119.875 95.4031 117.516 90.7696 117.081 90.5972C116.646 90.4247 113.233 91.3334 112.571 92.2119C111.906 93.0877 112.141 94.3658 111.525 94.7599C110.907 95.154 109.596 94.2837 109.015 95.4989C108.435 96.714 109.393 101.276 109.889 102.114C110.384 102.951 111.454 103.463 111.708 104.552C111.952 105.61 110.581 107.622 110.487 107.758C110.484 107.763 110.481 107.768 110.477 107.773L103.707 117.285C103.642 117.376 103.586 117.47 103.54 117.57C103.281 118.125 102.403 120.096 102.417 121.181C102.436 122.451 103.449 123.103 104.086 122.867C104.569 122.689 105.068 121.153 105.281 120.418C105.356 120.162 105.471 119.921 105.637 119.711C106.239 118.948 107.811 117.027 108.868 116.362C110.195 115.527 111.418 115.218 112.467 114.854C112.669 114.786 113.003 114.604 113.402 114.366C113.57 114.266 113.75 114.184 113.943 114.153C114.397 114.078 114.95 114.072 115.56 114.106C116.347 114.15 117.111 113.783 117.493 113.093C119.822 108.889 121.583 104.33 122.675 99.5012C122.956 98.2608 121.859 97.2118 120.806 96.4975C120.702 96.4269 120.601 96.3487 120.502 96.2624Z" fill="url(#paint5_linear)"/>
<path d="M119.231 76.5051C119.548 76.3114 119.819 76.2146 120.189 76.2346C121.395 76.2994 122.412 75.1972 122.09 74.0335C121.778 72.9015 121.427 71.786 121.043 70.6866C120.76 69.8775 119.976 69.3668 119.119 69.3764C118.516 69.3832 117.962 69.3742 117.492 69.3368C115.702 69.3176 113.565 69.2793 113.368 69.1917C113.026 69.0412 111.082 68.2886 111.416 67.0981C111.685 66.1289 114.037 66.1252 115.256 65.7657C115.568 65.6737 115.827 65.5795 116.152 65.6016C117.42 65.6879 118.403 64.4234 117.804 63.3026C115.704 59.3702 113.118 55.749 110.115 52.5174C109.181 51.5133 107.558 51.9843 107.069 53.2651C107.007 53.4271 106.915 53.5899 106.804 53.7234C106.174 54.4836 105.434 55.209 104.856 55.2995C103.603 55.4939 98.9583 53.288 98.181 53.1429C97.4037 52.9979 94.9953 54.057 93.7938 54.0324C92.5924 54.0077 90.6711 51.7909 89.9978 51.4461C89.3273 51.0985 86.8696 50.9452 86.2347 51.2928C85.5997 51.6431 84.5625 53.7724 84.9128 54.9109C85.2604 56.0494 86.3031 57.2482 86.1854 57.8475C86.0705 58.4469 83.6347 59.632 83.5006 60.7486C83.3665 61.8625 88.5254 58.8656 89.8911 58.8547C91.2568 58.841 92.3269 58.8684 92.8387 59.4787C93.345 60.089 97.1793 66.4686 97.5652 68.1928C97.9511 69.9197 97.5406 73.1383 97.9703 74.3534C98.3306 75.3724 99.8302 77.2208 100.305 77.7911C100.401 77.9065 100.485 78.0305 100.555 78.1635L104.685 86.0408C104.75 86.1638 104.826 86.2795 104.917 86.385C105.513 87.0806 107.933 89.8118 109.049 89.6277C110.327 89.417 105.384 82.72 105.568 81.4227C105.746 80.1254 108.056 79.485 109.473 80.4046C110.891 81.3269 113.474 86.557 114.424 85.7223C115.377 84.8875 113.715 80.9 114.26 79.9694C114.579 79.4274 117.17 77.7671 119.231 76.5051Z" fill="url(#paint6_linear)"/>
</g>
</g>
<path fill-rule="evenodd" clip-rule="evenodd" d="M72 120C89.6731 120 104 105.673 104 88C104 70.3269 89.6731 56 72 56C54.3269 56 40 70.3269 40 88C40 105.673 54.3269 120 72 120Z" fill="black"/>
<path d="M16.7866 152.145C16.9386 151.795 16.9187 151.398 16.7952 151.037C16.2147 149.338 16.5404 146.854 17.8118 144.498C19.6683 141.058 22.8383 139.194 24.8921 140.336C26.9459 141.477 27.1058 145.191 25.2492 148.631C23.9131 151.107 21.8965 152.766 20.1054 153.076C19.8136 153.127 19.5475 153.299 19.4319 153.571C19.2321 154.042 19.0404 154.528 18.8591 155.027C18.8363 155.09 18.899 155.15 18.9611 155.125C22.5976 153.688 26.2346 154.318 27.0844 156.532C27.9343 158.746 25.6753 161.706 22.0387 163.143C21.1721 163.486 20.3056 163.711 19.4767 163.825C18.2893 163.989 17.2154 164.91 17.3133 166.105C17.3319 166.331 17.3536 166.559 17.3787 166.788C17.483 167.741 17.6278 168.66 17.8089 169.547C17.9138 170.061 18.6376 170.134 18.913 169.687C20.9837 166.33 24.4365 164.736 26.6252 166.126C28.8139 167.516 28.9096 171.365 26.8389 174.721C25.4875 176.912 23.5473 178.352 21.754 178.702C21.6385 178.724 21.5782 178.856 21.6427 178.955C21.829 179.176 21.986 179.407 22.1107 179.646C23.0155 180.937 24.0009 182.095 25.0276 183.127C25.4525 183.554 26.1824 183.248 26.268 182.652C26.8301 178.733 29.1642 175.833 31.4814 176.176C33.7986 176.518 35.2213 179.972 34.6592 183.891C34.5313 184.783 34.3116 185.622 34.0213 186.382C33.5647 187.577 33.9528 189.066 35.0019 189.799C38.8856 192.511 40 196.454 40 198.502C40 199.329 39.33 200 38.5035 200C37.6769 200 37.0069 199.329 37.0069 198.502C37.0069 197.894 36.8229 196.857 36.2676 195.711C36.0106 195.181 35.2618 195.262 34.9703 195.774C33.7995 197.832 32.0284 199.018 31.0145 198.424C30.0006 197.83 30.1277 195.681 31.2985 193.623C31.4628 193.334 31.6389 193.063 31.8231 192.811C32.2009 192.294 32.1127 191.526 31.5291 191.263C31.2001 191.115 30.8123 191.284 30.6355 191.599C29.7132 193.24 27.316 194.562 24.4029 194.847C20.5182 195.226 17.1872 193.616 16.9628 191.251C16.7385 188.886 19.7059 186.661 23.5906 186.282C23.7308 186.268 23.7917 186.093 23.6888 185.996C23.1137 185.46 22.5476 184.889 21.9958 184.283C21.5524 183.797 20.8006 183.74 20.2222 184.055C18.9131 184.766 17.1377 185.162 15.201 185.074C11.3022 184.899 8.22581 182.832 8.32974 180.458C8.43367 178.084 11.6785 176.303 15.5773 176.478C16.169 176.505 16.6332 175.897 16.415 175.346C16.4094 175.332 16.4038 175.318 16.3982 175.304C16.2009 174.803 15.5501 174.624 15.0483 174.818C13.3491 175.473 10.7747 175.102 8.35829 173.686C4.9785 171.706 3.18775 168.433 4.35854 166.375C5.52934 164.317 9.21832 164.254 12.5981 166.234C13.1406 166.552 13.6422 166.903 14.0972 167.277C14.2245 167.382 14.4214 167.278 14.4034 167.115C14.3029 166.196 14.2497 165.295 14.2384 164.414C14.2252 163.382 13.4781 162.49 12.5417 162.057C11.3573 161.509 10.1465 160.592 9.09499 159.366C6.53238 156.379 5.88665 152.693 7.6527 151.133C9.41875 149.573 12.9278 150.729 15.4904 153.716C15.6934 153.952 16.0861 153.89 16.1964 153.599C16.385 153.1 16.5825 152.616 16.7866 152.145Z" fill="url(#paint7_linear)"/>
<path d="M127.213 152.145C127.061 151.795 127.081 151.398 127.205 151.037C127.785 149.338 127.46 146.854 126.188 144.498C124.332 141.058 121.162 139.194 119.108 140.336C117.054 141.477 116.894 145.191 118.751 148.631C120.087 151.107 122.103 152.766 123.895 153.076C124.186 153.127 124.452 153.299 124.568 153.571C124.768 154.042 124.96 154.528 125.141 155.027C125.164 155.09 125.101 155.15 125.039 155.125C121.402 153.688 117.765 154.318 116.916 156.532C116.066 158.746 118.325 161.706 121.961 163.143C122.828 163.486 123.694 163.711 124.523 163.825C125.711 163.989 126.785 164.91 126.687 166.105C126.668 166.331 126.646 166.559 126.621 166.788C126.517 167.741 126.372 168.66 126.191 169.547C126.086 170.061 125.362 170.134 125.087 169.687C123.016 166.33 119.563 164.736 117.375 166.126C115.186 167.516 115.09 171.365 117.161 174.721C118.512 176.912 120.453 178.352 122.246 178.702C122.362 178.724 122.422 178.856 122.357 178.955C122.171 179.176 122.014 179.407 121.889 179.646C120.984 180.937 119.999 182.095 118.972 183.127C118.547 183.554 117.818 183.248 117.732 182.652C117.17 178.733 114.836 175.833 112.519 176.176C110.201 176.518 108.779 179.972 109.341 183.891C109.469 184.783 109.688 185.622 109.979 186.382C110.435 187.577 110.047 189.066 108.998 189.799C105.114 192.511 104 196.454 104 198.502C104 199.329 104.67 200 105.497 200C106.323 200 106.993 199.329 106.993 198.502C106.993 197.894 107.177 196.857 107.732 195.711C107.989 195.181 108.738 195.262 109.03 195.774C110.2 197.832 111.972 199.018 112.985 198.424C113.999 197.83 113.872 195.681 112.701 193.623C112.537 193.334 112.361 193.063 112.177 192.811C111.799 192.294 111.887 191.526 112.471 191.263C112.8 191.115 113.188 191.284 113.364 191.599C114.287 193.24 116.684 194.562 119.597 194.847C123.482 195.226 126.813 193.616 127.037 191.251C127.261 188.886 124.294 186.661 120.409 186.282C120.269 186.268 120.208 186.093 120.311 185.996C120.886 185.46 121.452 184.889 122.004 184.283C122.448 183.797 123.199 183.74 123.778 184.055C125.087 184.766 126.862 185.162 128.799 185.074C132.698 184.899 135.774 182.832 135.67 180.458C135.566 178.084 132.321 176.303 128.423 176.478C127.831 176.505 127.367 175.897 127.585 175.346C127.591 175.332 127.596 175.318 127.602 175.304C127.799 174.803 128.45 174.624 128.952 174.818C130.651 175.473 133.225 175.102 135.642 173.686C139.022 171.706 140.812 168.433 139.641 166.375C138.471 164.317 134.782 164.254 131.402 166.234C130.859 166.552 130.358 166.903 129.903 167.277C129.776 167.382 129.579 167.278 129.597 167.115C129.697 166.196 129.75 165.295 129.762 164.414C129.775 163.382 130.522 162.49 131.458 162.057C132.643 161.509 133.854 160.592 134.905 159.366C137.468 156.379 138.113 152.693 136.347 151.133C134.581 149.573 131.072 150.729 128.51 153.716C128.307 153.952 127.914 153.89 127.804 153.599C127.615 153.1 127.418 152.616 127.213 152.145Z" fill="url(#paint8_linear)"/>
<path fill-rule="evenodd" clip-rule="evenodd" d="M72 192C89.6731 192 104 177.673 104 160C104 142.327 89.6731 128 72 128C54.3269 128 40 142.327 40 160C40 177.673 54.3269 192 72 192Z" fill="black"/>
<path fill-rule="evenodd" clip-rule="evenodd" d="M65.9067 181.173L71.1334 177.547C68.52 174.667 67.72 171.52 67.72 167.253V157.6H71.5601H72.84H75.6667V167.093C75.6667 172.427 76.4134 178.24 81.6401 181.173L86.8667 177.547C84.2534 174.667 83.4534 171.52 83.4534 167.253V157.6H88.5734L89.2667 151.84H83.4534V142.88L75.6667 143.84V151.84H73.5334H71.5601H67.72V142.88L59.9334 143.84V151.84H55.8267V157.6H59.9334V167.093C59.9334 172.427 60.68 178.24 65.9067 181.173Z" fill="white"/>
<defs>
<filter id="filter0_d" x="-4" y="24" width="152" height="160" filterUnits="userSpaceOnUse" color-interpolation-filters="sRGB">
<feFlood flood-opacity="0" result="BackgroundImageFix"/>
<feColorMatrix in="SourceAlpha" type="matrix" values="0 0 0 0 0 0 0 0 0 0 0 0 0 0 0 0 0 0 127 0"/>
<feOffset dy="8"/>
<feGaussianBlur stdDeviation="10"/>
<feColorMatrix type="matrix" values="0 0 0 0 0.964706 0 0 0 0 0.756863 0 0 0 0 0.498039 0 0 0 0.22 0"/>
<feBlend mode="color-dodge" in2="BackgroundImageFix" result="effect1_dropShadow"/>
<feBlend mode="normal" in="SourceGraphic" in2="effect1_dropShadow" result="shape"/>
</filter>
<linearGradient id="paint0_linear" x1="217.5" y1="140" x2="-58.5" y2="140" gradientUnits="userSpaceOnUse">
<stop offset="0.149171" stop-color="#AC6847"/>
<stop offset="0.226519" stop-color="#FCC783"/>
<stop offset="0.430939" stop-color="#8B533A"/>
<stop offset="0.668508" stop-color="#FCC783"/>
<stop offset="1" stop-color="#92583F"/>
</linearGradient>
<linearGradient id="paint1_linear" x1="215.069" y1="122.915" x2="-57.5336" y2="122.915" gradientUnits="userSpaceOnUse">
<stop offset="0.149171" stop-color="#AC6847"/>
<stop offset="0.226519" stop-color="#FCC783"/>
<stop offset="0.430939" stop-color="#8B533A"/>
<stop offset="0.668508" stop-color="#FCC783"/>
<stop offset="1" stop-color="#92583F"/>
</linearGradient>
<linearGradient id="paint2_linear" x1="215.069" y1="122.915" x2="-57.5336" y2="122.915" gradientUnits="userSpaceOnUse">
<stop offset="0.149171" stop-color="#AC6847"/>
<stop offset="0.226519" stop-color="#FCC783"/>
<stop offset="0.430939" stop-color="#8B533A"/>
<stop offset="0.668508" stop-color="#FCC783"/>
<stop offset="1" stop-color="#92583F"/>
</linearGradient>
<linearGradient id="paint3_linear" x1="215.069" y1="122.915" x2="-57.5336" y2="122.915" gradientUnits="userSpaceOnUse">
<stop offset="0.149171" stop-color="#AC6847"/>
<stop offset="0.226519" stop-color="#FCC783"/>
<stop offset="0.430939" stop-color="#8B533A"/>
<stop offset="0.668508" stop-color="#FCC783"/>
<stop offset="1" stop-color="#92583F"/>
</linearGradient>
<linearGradient id="paint4_linear" x1="215.069" y1="122.915" x2="-57.5336" y2="122.915" gradientUnits="userSpaceOnUse">
<stop offset="0.149171" stop-color="#AC6847"/>
<stop offset="0.226519" stop-color="#FCC783"/>
<stop offset="0.430939" stop-color="#8B533A"/>
<stop offset="0.668508" stop-color="#FCC783"/>
<stop offset="1" stop-color="#92583F"/>
</linearGradient>
<linearGradient id="paint5_linear" x1="215.069" y1="122.915" x2="-57.5336" y2="122.915" gradientUnits="userSpaceOnUse">
<stop offset="0.149171" stop-color="#AC6847"/>
<stop offset="0.226519" stop-color="#FCC783"/>
<stop offset="0.430939" stop-color="#8B533A"/>
<stop offset="0.668508" stop-color="#FCC783"/>
<stop offset="1" stop-color="#92583F"/>
</linearGradient>
<linearGradient id="paint6_linear" x1="215.069" y1="122.915" x2="-57.5336" y2="122.915" gradientUnits="userSpaceOnUse">
<stop offset="0.149171" stop-color="#AC6847"/>
<stop offset="0.226519" stop-color="#FCC783"/>
<stop offset="0.430939" stop-color="#8B533A"/>
<stop offset="0.668508" stop-color="#FCC783"/>
<stop offset="1" stop-color="#92583F"/>
</linearGradient>
<linearGradient id="paint7_linear" x1="-28.3654" y1="200" x2="67.1731" y2="200" gradientUnits="userSpaceOnUse">
<stop offset="0.149171" stop-color="#AC6847"/>
<stop offset="0.226519" stop-color="#FCC783"/>
<stop offset="0.430939" stop-color="#8B533A"/>
<stop offset="0.668508" stop-color="#FCC783"/>
<stop offset="1" stop-color="#92583F"/>
</linearGradient>
<linearGradient id="paint8_linear" x1="172.365" y1="200" x2="76.8269" y2="200" gradientUnits="userSpaceOnUse">
<stop offset="0.149171" stop-color="#AC6847"/>
<stop offset="0.226519" stop-color="#FCC783"/>
<stop offset="0.430939" stop-color="#8B533A"/>
<stop offset="0.668508" stop-color="#FCC783"/>
<stop offset="1" stop-color="#92583F"/>
</linearGradient>
</defs>
</svg>
