<svg width="160" height="224" viewBox="0 0 160 224" fill="none" xmlns="http://www.w3.org/2000/svg">
<g filter="url(#filter0_d)">
<path fill-rule="evenodd" clip-rule="evenodd" d="M25.9781 68C24.8735 68 23.9758 68.9003 24.0005 70.0046C24.7196 102.181 42.5708 128.378 53.7469 131.655C54.9013 131.993 55.8463 130.946 55.6971 129.752L55.3165 126.708C45.0343 121.369 32.7165 100.264 32.0099 77.9999C31.9749 76.8959 32.8735 76 33.9781 76H48.9781L48.1971 69.7519C48.072 68.7511 47.2211 68 46.2125 68H25.9781ZM55.3165 126.708L48.9781 76H54.126C55.1711 76 56.04 76.8046 56.1201 77.8466L59.8124 125.847C59.9018 127.008 58.9706 128.005 57.8443 127.708C57.0212 127.49 56.176 127.154 55.3165 126.708Z" fill="url(#paint0_angular)"/>
<path fill-rule="evenodd" clip-rule="evenodd" d="M133.978 68C135.083 68 135.98 68.9003 135.956 70.0046C135.236 102.181 117.385 128.378 106.209 131.655C105.055 131.993 104.11 130.946 104.259 129.752L104.64 126.708C114.922 121.369 127.24 100.264 127.946 77.9999C127.981 76.8959 127.083 76 125.978 76H110.978L111.759 69.7519C111.884 68.7511 112.735 68 113.744 68H133.978ZM104.64 126.708L110.978 76H105.83C104.785 76 103.916 76.8046 103.836 77.8466L100.144 125.847C100.054 127.008 100.985 128.005 102.112 127.708C102.935 127.49 103.78 127.154 104.64 126.708Z" fill="url(#paint1_angular)"/>
<path d="M61.9149 141.93C61.9573 141.977 61.9951 142.023 62.0375 142.069C62.5193 142.6 66.1474 146 79.9785 146C93.8103 146 97.4381 142.599 97.9196 142.069C97.9619 142.023 97.9997 141.977 98.0421 141.93L107.607 131.408C107.849 131.141 108.015 130.813 108.087 130.46L123.712 53.316C123.873 52.52 123.545 51.7142 122.846 51.2999C118.522 48.7349 102.166 40 79.9785 40C58.0068 39.9876 41.4914 48.736 37.1214 51.3012C36.4173 51.7145 36.0847 52.5243 36.2468 53.3246L51.8681 130.46C51.9397 130.813 52.1057 131.141 52.3485 131.408L61.9149 141.93Z" fill="url(#paint2_angular)"/>
</g>
<path fill-rule="evenodd" clip-rule="evenodd" d="M80 120C97.6731 120 112 105.673 112 88C112 70.3269 97.6731 56 80 56C62.3269 56 48 70.3269 48 88C48 105.673 62.3269 120 80 120Z" fill="black"/>
<path d="M29.9531 161.698C30.0668 161.429 30.052 161.125 29.9583 160.849C29.4979 159.489 29.749 157.492 30.7425 155.598C32.1865 152.846 34.652 151.355 36.2494 152.268C37.8468 153.182 37.9712 156.153 36.5272 158.905C35.4908 160.88 33.9282 162.206 32.5381 162.459C32.3046 162.502 32.0919 162.64 32.0015 162.86C31.8462 163.237 31.6971 163.625 31.5561 164.024C31.5388 164.074 31.5882 164.12 31.6364 164.1C34.4648 162.95 37.2936 163.454 37.9546 165.225C38.6156 166.997 36.8585 169.365 34.0301 170.515C33.529 170.718 33.0278 170.87 32.5388 170.972C31.3624 171.218 30.2743 172.146 30.3964 173.341C30.3994 173.371 30.4025 173.401 30.4057 173.43C30.487 174.194 30.6 174.932 30.7413 175.643C30.8211 176.045 31.3884 176.101 31.599 175.75C33.2095 173.064 35.8951 171.789 37.5974 172.901C39.2997 174.013 39.3741 177.092 37.7636 179.777C36.7134 181.528 35.2061 182.68 33.8124 182.961C33.7201 182.979 33.6715 183.085 33.7221 183.164C33.867 183.341 33.9891 183.526 34.0861 183.717C34.7862 184.744 35.5484 185.667 36.3425 186.489C36.6735 186.832 37.2537 186.593 37.3195 186.121C37.7567 182.986 39.5722 180.667 41.3744 180.941C43.1767 181.214 44.2832 183.978 43.846 187.113C43.7693 187.663 43.65 188.189 43.4958 188.679C43.118 189.881 43.508 191.344 44.4947 192.128C47.207 194.281 48 197.235 48 198.801C48 199.463 47.4789 200 46.836 200C46.1932 200 45.6721 199.463 45.6721 198.801C45.6721 198.316 45.5292 197.487 45.0981 196.571C44.9012 196.153 44.3118 196.215 44.088 196.619C43.1774 198.265 41.7999 199.215 41.0113 198.74C40.2227 198.264 40.3216 196.545 41.2322 194.898C41.3617 194.664 41.5006 194.444 41.646 194.24C41.94 193.828 41.8709 193.224 41.4115 193.011C41.1573 192.893 40.8548 193.024 40.7213 193.27C40.0074 194.587 38.1397 195.649 35.8689 195.877C32.8475 196.181 30.2567 194.893 30.0822 193.001C29.9077 191.109 32.2157 189.329 35.2371 189.025C35.3476 189.014 35.3963 188.877 35.3162 188.8C34.8754 188.377 34.4413 187.927 34.0179 187.45C33.6636 187.052 33.0513 187.005 32.5837 187.262C31.5688 187.82 30.2017 188.129 28.7119 188.06C25.6795 187.919 23.2867 186.265 23.3676 184.366C23.4484 182.467 25.9722 181.042 29.0046 181.183C29.4666 181.204 29.8321 180.732 29.6654 180.301C29.6598 180.286 29.6542 180.272 29.6486 180.257C29.4938 179.854 28.9672 179.71 28.5644 179.865C27.2426 180.374 25.2556 180.073 23.3898 178.949C20.7611 177.365 19.3682 174.746 20.2789 173.1C21.1895 171.454 24.0587 171.403 26.6874 172.987C27.1076 173.241 27.4962 173.52 27.8488 173.818C27.9485 173.902 28.1054 173.821 28.0916 173.692C28.0264 173.079 27.9868 172.477 27.9703 171.885C27.9418 170.858 27.1953 169.965 26.2964 169.467C25.4882 169.019 24.6781 168.35 23.9628 167.493C21.9696 165.103 21.4674 162.154 22.841 160.906C24.2146 159.658 26.9439 160.583 28.937 162.973C29.0927 163.159 29.4007 163.111 29.4846 162.883C29.6341 162.476 29.7909 162.081 29.9531 161.698Z" fill="url(#paint3_linear)"/>
<path d="M130.047 161.698C129.933 161.429 129.948 161.125 130.042 160.849C130.502 159.489 130.251 157.492 129.257 155.598C127.814 152.846 125.348 151.355 123.751 152.268C122.153 153.182 122.029 156.153 123.473 158.905C124.509 160.88 126.072 162.206 127.462 162.459C127.695 162.502 127.908 162.64 127.999 162.86C128.154 163.237 128.303 163.625 128.444 164.024C128.461 164.074 128.412 164.12 128.364 164.1C125.535 162.95 122.706 163.454 122.045 165.225C121.384 166.997 123.141 169.365 125.97 170.515C126.471 170.718 126.972 170.87 127.461 170.972C128.638 171.218 129.726 172.146 129.604 173.341C129.601 173.371 129.598 173.401 129.594 173.43C129.513 174.194 129.4 174.932 129.259 175.643C129.179 176.045 128.612 176.101 128.401 175.75C126.79 173.064 124.105 171.789 122.403 172.901C120.7 174.013 120.626 177.092 122.236 179.777C123.287 181.528 124.794 182.68 126.188 182.961C126.28 182.979 126.328 183.085 126.278 183.164C126.133 183.341 126.011 183.526 125.914 183.717C125.214 184.744 124.452 185.667 123.658 186.489C123.327 186.832 122.746 186.593 122.68 186.121C122.243 182.986 120.428 180.667 118.626 180.941C116.823 181.214 115.717 183.978 116.154 187.113C116.231 187.663 116.35 188.189 116.504 188.679C116.882 189.881 116.492 191.344 115.505 192.128C112.793 194.281 112 197.235 112 198.801C112 199.463 112.521 200 113.164 200C113.807 200 114.328 199.463 114.328 198.801C114.328 198.316 114.471 197.487 114.902 196.571C115.099 196.153 115.688 196.215 115.912 196.619C116.823 198.265 118.2 199.215 118.989 198.74C119.777 198.264 119.678 196.545 118.768 194.898C118.638 194.664 118.499 194.444 118.354 194.24C118.06 193.828 118.129 193.224 118.588 193.011C118.843 192.893 119.145 193.024 119.279 193.27C119.993 194.587 121.86 195.649 124.131 195.877C127.153 196.181 129.743 194.893 129.918 193.001C130.092 191.109 127.784 189.329 124.763 189.025C124.652 189.014 124.604 188.877 124.684 188.8C125.125 188.377 125.559 187.927 125.982 187.45C126.336 187.052 126.949 187.005 127.416 187.262C128.431 187.82 129.798 188.129 131.288 188.06C134.321 187.919 136.713 186.265 136.632 184.366C136.552 182.467 134.028 181.042 130.995 181.183C130.533 181.204 130.168 180.732 130.335 180.301C130.34 180.286 130.346 180.272 130.351 180.257C130.506 179.854 131.033 179.71 131.436 179.865C132.757 180.374 134.744 180.073 136.61 178.949C139.239 177.365 140.632 174.746 139.721 173.1C138.811 171.454 135.941 171.403 133.313 172.987C132.892 173.241 132.504 173.52 132.151 173.818C132.052 173.902 131.895 173.821 131.908 173.692C131.974 173.079 132.013 172.477 132.03 171.885C132.058 170.858 132.805 169.965 133.704 169.467C134.512 169.019 135.322 168.35 136.037 167.493C138.03 165.103 138.533 162.154 137.159 160.906C135.785 159.658 133.056 160.583 131.063 162.973C130.907 163.159 130.599 163.111 130.515 162.883C130.366 162.476 130.209 162.081 130.047 161.698Z" fill="url(#paint4_linear)"/>
<path fill-rule="evenodd" clip-rule="evenodd" d="M80 192C97.6731 192 112 177.673 112 160C112 142.327 97.6731 128 80 128C62.3269 128 48 142.327 48 160C48 177.673 62.3269 192 80 192Z" fill="black"/>
<path fill-rule="evenodd" clip-rule="evenodd" d="M73.9067 181.173L79.1333 177.547C76.52 174.667 75.72 171.52 75.72 167.253V157.6H79.56H80.84H83.6667V167.093C83.6667 172.427 84.4133 178.24 89.64 181.173L94.8667 177.547C92.2533 174.667 91.4533 171.52 91.4533 167.253V157.6H96.5733L97.2667 151.84H91.4533V142.88L83.6667 143.84V151.84H81.5333H79.56H75.72V142.88L67.9333 143.84V151.84H63.8267V157.6H67.9333V167.093C67.9333 172.427 68.68 178.24 73.9067 181.173Z" fill="white"/>
<defs>
<filter id="filter0_d" x="0" y="24" width="160" height="168" filterUnits="userSpaceOnUse" color-interpolation-filters="sRGB">
<feFlood flood-opacity="0" result="BackgroundImageFix"/>
<feColorMatrix in="SourceAlpha" type="matrix" values="0 0 0 0 0 0 0 0 0 0 0 0 0 0 0 0 0 0 127 0"/>
<feOffset dy="12"/>
<feGaussianBlur stdDeviation="12"/>
<feColorMatrix type="matrix" values="0 0 0 0 0.972549 0 0 0 0 0.741176 0 0 0 0 0.313726 0 0 0 0.32 0"/>
<feBlend mode="normal" in2="BackgroundImageFix" result="effect1_dropShadow"/>
<feBlend mode="normal" in="SourceGraphic" in2="effect1_dropShadow" result="shape"/>
</filter>
<radialGradient id="paint0_angular" cx="0" cy="0" r="1" gradientUnits="userSpaceOnUse" gradientTransform="translate(42.0489 324.287) rotate(179.035) scale(102.947 320.469)">
<stop offset="0.713958" stop-color="#FFD880"/>
<stop offset="0.730488" stop-color="#F8C54D"/>
<stop offset="0.748222" stop-color="#FFE978"/>
<stop offset="0.769092" stop-color="#F7B94E"/>
<stop offset="0.791208" stop-color="#FFDD5F"/>
</radialGradient>
<radialGradient id="paint1_angular" cx="0" cy="0" r="1" gradientUnits="userSpaceOnUse" gradientTransform="translate(117.907 324.287) rotate(0.965121) scale(102.947 320.469)">
<stop offset="0.713958" stop-color="#FFD880"/>
<stop offset="0.730488" stop-color="#F8C54D"/>
<stop offset="0.748222" stop-color="#FFE978"/>
<stop offset="0.769092" stop-color="#F7B94E"/>
<stop offset="0.791208" stop-color="#FFDD5F"/>
</radialGradient>
<radialGradient id="paint2_angular" cx="0" cy="0" r="1" gradientUnits="userSpaceOnUse" gradientTransform="translate(79.6352 466.346) rotate(0.653527) scale(252.905 533.157)">
<stop offset="0.713958" stop-color="#FFD880"/>
<stop offset="0.730488" stop-color="#F8C54D"/>
<stop offset="0.748222" stop-color="#FFE978"/>
<stop offset="0.769092" stop-color="#F7B94E"/>
<stop offset="0.791208" stop-color="#FFDD5F"/>
</radialGradient>
<linearGradient id="paint3_linear" x1="-17.5577" y1="214.098" x2="74.1154" y2="214.098" gradientUnits="userSpaceOnUse">
<stop stop-color="#F4C55C"/>
<stop offset="0.348578" stop-color="#FFE978"/>
<stop offset="0.499789" stop-color="#E9AD21"/>
<stop offset="0.711064" stop-color="#FFFB9B"/>
<stop offset="1" stop-color="#DBA120"/>
</linearGradient>
<linearGradient id="paint4_linear" x1="177.558" y1="214.098" x2="85.8846" y2="214.098" gradientUnits="userSpaceOnUse">
<stop stop-color="#F4C55C"/>
<stop offset="0.348578" stop-color="#FFE978"/>
<stop offset="0.499789" stop-color="#E9AD21"/>
<stop offset="0.711064" stop-color="#FFFB9B"/>
<stop offset="1" stop-color="#DBA120"/>
</linearGradient>
</defs>
</svg>
