<svg width="136" height="220" viewBox="0 0 136 220" fill="none" xmlns="http://www.w3.org/2000/svg">
<g filter="url(#filter0_d)">
<path d="M69.0979 139.214C75.526 134.498 108 109.038 108 76C108 53.9086 90.0914 36 68 36C45.9086 36 28 53.9086 28 76C28 109.038 60.474 134.498 66.9021 139.214C67.5665 139.702 68.4335 139.702 69.0979 139.214Z" fill="url(#paint0_linear)"/>
</g>
<path fill-rule="evenodd" clip-rule="evenodd" d="M68 108C85.6731 108 100 93.6731 100 76C100 58.3269 85.6731 44 68 44C50.3269 44 36 58.3269 36 76C36 93.6731 50.3269 108 68 108Z" fill="black"/>
<path d="M28.3933 164.073C28.4693 163.898 28.4593 163.699 28.3976 163.518C28.1073 162.669 28.2702 161.427 28.9059 160.249C29.8342 158.529 31.4192 157.597 32.4461 158.168C33.4729 158.738 33.5529 160.595 32.6246 162.316C31.9565 163.554 30.9483 164.383 30.0527 164.538C29.9068 164.564 29.7738 164.649 29.7159 164.786C29.6161 165.021 29.5202 165.264 29.4296 165.514C29.4182 165.545 29.4495 165.575 29.4806 165.563C31.2988 164.844 33.1173 165.159 33.5422 166.266C33.9672 167.373 32.8376 168.853 31.0194 169.572C30.7026 169.697 30.3858 169.791 30.0765 169.854C29.3107 170.012 28.6042 170.617 28.6893 171.394C28.7415 171.87 28.8139 172.33 28.9044 172.774C28.9569 173.031 29.3188 173.067 29.4565 172.844C30.4918 171.165 32.2183 170.368 33.3126 171.063C34.407 171.758 34.4548 173.682 33.4195 175.361C32.7438 176.456 31.7737 177.176 30.877 177.351C30.8192 177.362 30.7891 177.428 30.8214 177.478C30.9145 177.588 30.993 177.704 31.0553 177.823C31.5078 178.469 32.0004 179.048 32.5138 179.563C32.7263 179.777 33.0912 179.624 33.134 179.326C33.415 177.366 34.5821 175.917 35.7407 176.088C36.8993 176.259 37.6107 177.986 37.3296 179.946C37.3276 179.959 37.3256 179.973 37.3236 179.986C37.1334 181.252 37.564 182.782 38.4456 183.71C39.6307 184.956 40 186.418 40 187.251C40 187.665 39.665 188 39.2517 188C38.8385 188 38.5035 187.665 38.5035 187.251C38.5035 186.947 38.4115 186.429 38.1338 185.856C38.0053 185.59 37.6309 185.631 37.4852 185.887C36.8998 186.916 36.0142 187.509 35.5073 187.212C35.0003 186.915 35.0639 185.84 35.6493 184.811C35.7314 184.667 35.8194 184.531 35.9115 184.405C36.1004 184.147 36.0564 183.763 35.7646 183.632C35.6001 183.557 35.4062 183.642 35.3178 183.799C34.8566 184.62 33.658 185.281 32.2014 185.423C30.2591 185.613 28.5936 184.808 28.4814 183.626C28.3693 182.443 29.8529 181.33 31.7953 181.141C31.8654 181.134 31.8959 181.046 31.8444 180.998C31.5569 180.73 31.2738 180.444 30.9979 180.142C30.7762 179.898 30.4003 179.87 30.1111 180.027C29.4565 180.383 28.5688 180.581 27.6005 180.537C25.6511 180.449 24.1129 179.416 24.1649 178.229C24.2168 177.042 25.8393 176.151 27.7887 176.239C28.0845 176.252 28.3166 175.948 28.2075 175.673C28.2047 175.666 28.2019 175.659 28.1991 175.652C28.1005 175.402 27.7751 175.312 27.5242 175.409C26.6745 175.737 25.3873 175.551 24.1791 174.843C22.4892 173.853 21.5939 172.216 22.1793 171.187C22.7647 170.159 24.6092 170.127 26.2991 171.117C26.5703 171.276 26.8211 171.452 27.0486 171.639C27.1122 171.691 27.2107 171.639 27.2017 171.557C27.1855 171.409 27.1718 171.262 27.1604 171.116C27.0803 170.087 26.322 169.174 25.4905 168.563C25.162 168.322 24.8422 168.027 24.5475 167.683C23.2662 166.19 22.9433 164.347 23.8263 163.566C24.7094 162.786 26.4639 163.365 27.7452 164.858C27.8467 164.976 28.0431 164.945 28.0982 164.799C28.1925 164.55 28.2912 164.308 28.3933 164.073Z" fill="url(#paint1_linear)"/>
<path d="M107.607 164.073C107.531 163.898 107.541 163.699 107.602 163.518C107.893 162.669 107.73 161.427 107.094 160.249C106.166 158.529 104.581 157.597 103.554 158.168C102.527 158.738 102.447 160.595 103.375 162.316C104.043 163.554 105.052 164.383 105.947 164.538C106.093 164.564 106.226 164.649 106.284 164.786C106.384 165.021 106.48 165.264 106.57 165.514C106.582 165.545 106.55 165.575 106.519 165.563C104.701 164.844 102.883 165.159 102.458 166.266C102.033 167.373 103.162 168.853 104.981 169.572C105.297 169.697 105.614 169.791 105.924 169.854C106.689 170.012 107.396 170.617 107.311 171.394C107.258 171.87 107.186 172.33 107.096 172.774C107.043 173.031 106.681 173.067 106.543 172.844C105.508 171.165 103.782 170.368 102.687 171.063C101.593 171.758 101.545 173.682 102.581 175.361C103.256 176.456 104.226 177.176 105.123 177.351C105.181 177.362 105.211 177.428 105.179 177.478C105.086 177.588 105.007 177.704 104.945 177.823C104.492 178.469 104 179.048 103.486 179.563C103.274 179.777 102.909 179.624 102.866 179.326C102.585 177.366 101.418 175.917 100.259 176.088C99.1007 176.259 98.3893 177.986 98.6704 179.946C98.6724 179.959 98.6744 179.973 98.6764 179.986C98.8666 181.252 98.436 182.782 97.5544 183.71C96.3693 184.956 96 186.418 96 187.251C96 187.665 96.335 188 96.7483 188C97.1615 188 97.4965 187.665 97.4965 187.251C97.4965 186.947 97.5885 186.429 97.8662 185.856C97.9947 185.59 98.3691 185.631 98.5148 185.887C99.1002 186.916 99.9858 187.509 100.493 187.212C101 186.915 100.936 185.84 100.351 184.811C100.269 184.667 100.181 184.531 100.088 184.405C99.8996 184.147 99.9436 183.763 100.235 183.632C100.4 183.557 100.594 183.642 100.682 183.799C101.143 184.62 102.342 185.281 103.799 185.423C105.741 185.613 107.406 184.808 107.519 183.626C107.631 182.443 106.147 181.33 104.205 181.141C104.135 181.134 104.104 181.046 104.156 180.998C104.443 180.73 104.726 180.444 105.002 180.142C105.224 179.898 105.6 179.87 105.889 180.027C106.543 180.383 107.431 180.581 108.4 180.537C110.349 180.449 111.887 179.416 111.835 178.229C111.783 177.042 110.161 176.151 108.211 176.239C107.915 176.252 107.683 175.948 107.792 175.673C107.795 175.666 107.798 175.659 107.801 175.652C107.9 175.402 108.225 175.312 108.476 175.409C109.325 175.737 110.613 175.551 111.821 174.843C113.511 173.853 114.406 172.216 113.821 171.187C113.235 170.159 111.391 170.127 109.701 171.117C109.43 171.276 109.179 171.452 108.951 171.639C108.888 171.691 108.789 171.639 108.798 171.557C108.814 171.409 108.828 171.262 108.84 171.116C108.92 170.087 109.678 169.174 110.51 168.563C110.838 168.322 111.158 168.027 111.453 167.683C112.734 166.19 113.057 164.347 112.174 163.566C111.291 162.786 109.536 163.365 108.255 164.858C108.153 164.976 107.957 164.945 107.902 164.799C107.807 164.55 107.709 164.308 107.607 164.073Z" fill="url(#paint2_linear)"/>
<path fill-rule="evenodd" clip-rule="evenodd" d="M68 188C81.2548 188 92 177.255 92 164C92 150.745 81.2548 140 68 140C54.7452 140 44 150.745 44 164C44 177.255 54.7452 188 68 188Z" fill="black"/>
<path fill-rule="evenodd" clip-rule="evenodd" d="M63.43 179.88L67.35 177.16C65.39 175 64.79 172.64 64.79 169.44V162.2H67.67H68.63H70.75V169.32C70.75 173.32 71.31 177.68 75.23 179.88L79.15 177.16C77.19 175 76.59 172.64 76.59 169.44V162.2H80.43L80.95 157.88H76.59V151.16L70.75 151.88V157.88H69.15H67.67H64.79V151.16L58.95 151.88V157.88H55.87V162.2H58.95V169.32C58.95 173.32 59.51 177.68 63.43 179.88Z" fill="white"/>
<defs>
<filter id="filter0_d" x="-12" y="24" width="160" height="168" filterUnits="userSpaceOnUse" color-interpolation-filters="sRGB">
<feFlood flood-opacity="0" result="BackgroundImageFix"/>
<feColorMatrix in="SourceAlpha" type="matrix" values="0 0 0 0 0 0 0 0 0 0 0 0 0 0 0 0 0 0 127 0"/>
<feOffset dy="12"/>
<feGaussianBlur stdDeviation="12"/>
<feColorMatrix type="matrix" values="0 0 0 0 0.917647 0 0 0 0 0.917647 0 0 0 0 0.917647 0 0 0 0.22 0"/>
<feBlend mode="color-dodge" in2="BackgroundImageFix" result="effect1_dropShadow"/>
<feBlend mode="normal" in="SourceGraphic" in2="effect1_dropShadow" result="shape"/>
</filter>
<linearGradient id="paint0_linear" x1="179.923" y1="140" x2="-32.3846" y2="140" gradientUnits="userSpaceOnUse">
<stop offset="0.149171" stop-color="#6F7778"/>
<stop offset="0.226519" stop-color="#EAEAEA"/>
<stop offset="0.430939" stop-color="#949597"/>
<stop offset="0.668508" stop-color="#EFEFEF"/>
<stop offset="1" stop-color="#6F7778"/>
</linearGradient>
<linearGradient id="paint1_linear" x1="5.81731" y1="188" x2="53.5865" y2="188" gradientUnits="userSpaceOnUse">
<stop offset="0.149171" stop-color="#6F7778"/>
<stop offset="0.226519" stop-color="#EAEAEA"/>
<stop offset="0.430939" stop-color="#949597"/>
<stop offset="0.668508" stop-color="#EFEFEF"/>
<stop offset="1" stop-color="#6F7778"/>
</linearGradient>
<linearGradient id="paint2_linear" x1="130.183" y1="188" x2="82.4135" y2="188" gradientUnits="userSpaceOnUse">
<stop offset="0.149171" stop-color="#6F7778"/>
<stop offset="0.226519" stop-color="#EAEAEA"/>
<stop offset="0.430939" stop-color="#949597"/>
<stop offset="0.668508" stop-color="#EFEFEF"/>
<stop offset="1" stop-color="#6F7778"/>
</linearGradient>
</defs>
</svg>
