<svg width="144" height="224" viewBox="0 0 144 224" fill="none" xmlns="http://www.w3.org/2000/svg">
<g filter="url(#filter0_d)">
<path d="M109.857 48.8768C110.982 48.4421 112.254 48.9986 112.547 50.1684C115.701 62.7357 128.649 126.137 72.9955 139.883C72.6914 139.958 72.3452 139.959 72.0408 139.885C15.5966 126.178 28.2434 63.0593 31.4285 50.2655C31.7288 49.0596 33.0517 48.5149 34.1975 48.9961C52.0487 56.4941 65.1383 44.2562 69.9649 38.6125C70.9448 37.4668 72.9315 37.5572 73.8345 38.7644C78.1261 44.5022 89.9871 56.5539 109.857 48.8768Z" fill="url(#paint0_angular)"/>
</g>
<path fill-rule="evenodd" clip-rule="evenodd" d="M72 120C89.6731 120 104 105.673 104 88C104 70.3269 89.6731 56 72 56C54.3269 56 40 70.3269 40 88C40 105.673 54.3269 120 72 120Z" fill="black"/>
<path d="M25.8099 163.297C25.9051 163.081 25.8926 162.835 25.8159 162.612C25.4658 161.593 25.6661 160.108 26.4405 158.699C27.5751 156.635 29.5123 155.517 30.7674 156.201C32.0225 156.886 32.1202 159.115 30.9857 161.179C30.1676 162.667 28.9323 163.663 27.8363 163.847C27.6612 163.876 27.5016 163.979 27.4312 164.141C27.3091 164.424 27.1919 164.715 27.0811 165.015C27.0669 165.053 27.1049 165.09 27.1429 165.075C29.3652 164.213 31.5878 164.591 32.1072 165.919C32.6265 167.248 31.246 169.024 29.0237 169.886C28.6257 170.04 28.2278 170.155 27.8396 170.232C26.9183 170.413 26.0718 171.14 26.1759 172.073C26.2395 172.643 26.3278 173.194 26.4382 173.725C26.5032 174.039 26.9433 174.083 27.1135 173.812C28.3789 171.798 30.489 170.842 31.8265 171.676C33.1641 172.51 33.2225 174.819 31.9571 176.833C31.1308 178.148 29.9442 179.012 28.8478 179.221C28.7784 179.235 28.7425 179.314 28.7817 179.373C28.8955 179.506 28.9915 179.644 29.0676 179.788C29.6225 180.565 30.2268 181.262 30.8565 181.882C31.1159 182.138 31.5556 181.951 31.6082 181.591C31.9517 179.24 33.3781 177.5 34.7942 177.705C36.2102 177.911 37.0797 179.983 36.7362 182.335C36.711 182.507 36.6799 182.677 36.6434 182.842C36.3654 184.104 36.784 185.642 37.7438 186.507C39.4757 188.07 40 190.023 40 191.101C40 191.597 39.5905 192 39.0854 192C38.5804 192 38.1709 191.597 38.1709 191.101C38.1709 190.736 38.0583 190.114 37.7186 189.426C37.56 189.105 37.1059 189.155 36.9263 189.464C36.2108 190.699 35.1285 191.411 34.5089 191.055C33.8892 190.698 33.9669 189.408 34.6824 188.174C34.7819 188.002 34.8885 187.84 35 187.69C35.2308 187.38 35.1772 186.915 34.8233 186.758C34.6215 186.669 34.3849 186.772 34.2748 186.964C33.7093 187.946 32.246 188.738 30.4684 188.908C28.0944 189.136 26.0588 188.17 25.9217 186.751C25.7847 185.332 27.598 183.997 29.972 183.769C30.0569 183.761 30.0935 183.654 30.0306 183.597C29.676 183.271 29.3269 182.926 28.9867 182.558C28.7206 182.271 28.275 182.238 27.9304 182.424C27.1288 182.856 26.0369 183.097 24.845 183.045C22.4624 182.939 20.5824 181.699 20.646 180.275C20.7095 178.851 22.6924 177.782 25.075 177.887C25.4357 177.903 25.717 177.53 25.5821 177.196C25.5794 177.189 25.5766 177.182 25.5739 177.175C25.454 176.876 25.0664 176.769 24.766 176.885C23.7278 177.286 22.1469 177.065 20.6634 176.212C18.598 175.024 17.5036 173.06 18.2191 171.825C18.9346 170.59 21.189 170.552 23.2544 171.741C23.5869 171.932 23.8942 172.143 24.1728 172.368C24.2503 172.431 24.3687 172.368 24.3577 172.269C24.3244 171.97 24.2996 171.675 24.2827 171.382C24.2233 170.349 23.4665 169.444 22.5902 168.894C22.076 168.571 21.5702 168.142 21.1136 167.62C19.5476 165.828 19.153 163.616 20.2322 162.68C21.3115 161.744 23.4559 162.437 25.0219 164.23C25.147 164.373 25.3858 164.335 25.4542 164.157C25.5679 163.862 25.6869 163.575 25.8099 163.297Z" fill="url(#paint1_linear)"/>
<path d="M118.19 163.297C118.095 163.081 118.107 162.835 118.184 162.612C118.534 161.593 118.334 160.108 117.559 158.699C116.425 156.635 114.488 155.517 113.233 156.201C111.978 156.886 111.88 159.115 113.014 161.179C113.832 162.667 115.068 163.663 116.164 163.847C116.339 163.876 116.498 163.979 116.569 164.141C116.691 164.424 116.808 164.715 116.919 165.015C116.933 165.053 116.895 165.09 116.857 165.075C114.635 164.213 112.412 164.591 111.893 165.919C111.373 167.248 112.754 169.024 114.976 169.886C115.374 170.04 115.772 170.155 116.16 170.232C117.082 170.413 117.928 171.14 117.824 172.073C117.761 172.643 117.672 173.194 117.562 173.725C117.497 174.039 117.057 174.083 116.886 173.812C115.621 171.798 113.511 170.842 112.173 171.676C110.836 172.51 110.777 174.819 112.043 176.833C112.869 178.148 114.056 179.012 115.152 179.221C115.222 179.235 115.258 179.314 115.218 179.373C115.105 179.506 115.009 179.644 114.932 179.788C114.378 180.565 113.773 181.262 113.143 181.882C112.884 182.138 112.444 181.951 112.392 181.591C112.048 179.24 110.622 177.5 109.206 177.705C107.79 177.911 106.92 179.983 107.264 182.335C107.289 182.507 107.32 182.677 107.357 182.842C107.635 184.104 107.216 185.642 106.256 186.507C104.524 188.07 104 190.023 104 191.101C104 191.597 104.409 192 104.915 192C105.42 192 105.829 191.597 105.829 191.101C105.829 190.736 105.942 190.114 106.281 189.426C106.44 189.105 106.894 189.155 107.074 189.464C107.789 190.699 108.872 191.411 109.491 191.055C110.111 190.698 110.033 189.408 109.318 188.174C109.218 188.002 109.111 187.84 109 187.69C108.769 187.38 108.823 186.915 109.177 186.758C109.379 186.669 109.615 186.772 109.725 186.964C110.291 187.946 111.754 188.738 113.532 188.908C115.906 189.136 117.941 188.17 118.078 186.751C118.215 185.332 116.402 183.997 114.028 183.769C113.943 183.761 113.906 183.654 113.969 183.597C114.324 183.271 114.673 182.926 115.013 182.558C115.279 182.271 115.725 182.238 116.07 182.424C116.871 182.856 117.963 183.097 119.155 183.045C121.538 182.939 123.418 181.699 123.354 180.275C123.291 178.851 121.308 177.782 118.925 177.887C118.564 177.903 118.283 177.53 118.418 177.196C118.421 177.189 118.423 177.182 118.426 177.175C118.546 176.876 118.934 176.769 119.234 176.885C120.272 177.286 121.853 177.065 123.337 176.212C125.402 175.024 126.496 173.06 125.781 171.825C125.065 170.59 122.811 170.552 120.746 171.741C120.413 171.932 120.106 172.143 119.827 172.368C119.75 172.431 119.631 172.368 119.642 172.269C119.676 171.97 119.7 171.675 119.717 171.382C119.777 170.349 120.533 169.444 121.41 168.894C121.924 168.571 122.43 168.142 122.886 167.62C124.452 165.828 124.847 163.616 123.768 162.68C122.689 161.744 120.544 162.437 118.978 164.23C118.853 164.373 118.614 164.335 118.546 164.157C118.432 163.862 118.313 163.575 118.19 163.297Z" fill="url(#paint2_linear)"/>
<path fill-rule="evenodd" clip-rule="evenodd" d="M72 192C89.6731 192 104 177.673 104 160C104 142.327 89.6731 128 72 128C54.3269 128 40 142.327 40 160C40 177.673 54.3269 192 72 192Z" fill="black"/>
<path fill-rule="evenodd" clip-rule="evenodd" d="M65.9067 181.173L71.1333 177.547C68.52 174.667 67.72 171.52 67.72 167.253V157.6H71.56H72.84H75.6667V167.093C75.6667 172.427 76.4133 178.24 81.64 181.173L86.8667 177.547C84.2533 174.667 83.4533 171.52 83.4533 167.253V157.6H88.5733L89.2667 151.84H83.4533V142.88L75.6667 143.84V151.84H73.5333H71.56H67.72V142.88L59.9333 143.84V151.84H55.8267V157.6H59.9333V167.093C59.9333 172.427 60.68 178.24 65.9067 181.173Z" fill="white"/>
<defs>
<filter id="filter0_d" x="-8" y="24" width="160" height="168" filterUnits="userSpaceOnUse" color-interpolation-filters="sRGB">
<feFlood flood-opacity="0" result="BackgroundImageFix"/>
<feColorMatrix in="SourceAlpha" type="matrix" values="0 0 0 0 0 0 0 0 0 0 0 0 0 0 0 0 0 0 127 0"/>
<feOffset dy="12"/>
<feGaussianBlur stdDeviation="12"/>
<feColorMatrix type="matrix" values="0 0 0 0 0.972549 0 0 0 0 0.741176 0 0 0 0 0.313726 0 0 0 0.32 0"/>
<feBlend mode="normal" in2="BackgroundImageFix" result="effect1_dropShadow"/>
<feBlend mode="normal" in="SourceGraphic" in2="effect1_dropShadow" result="shape"/>
</filter>
<radialGradient id="paint0_angular" cx="0" cy="0" r="1" gradientUnits="userSpaceOnUse" gradientTransform="translate(71.6946 454.3) rotate(0.640249) scale(253.278 523.096)">
<stop offset="0.713958" stop-color="#FFD880"/>
<stop offset="0.730488" stop-color="#F8C54D"/>
<stop offset="0.748222" stop-color="#FFE978"/>
<stop offset="0.769092" stop-color="#F7B94E"/>
<stop offset="0.791208" stop-color="#FFDD5F"/>
</radialGradient>
<linearGradient id="paint1_linear" x1="-11.5096" y1="202.573" x2="60.5192" y2="202.573" gradientUnits="userSpaceOnUse">
<stop stop-color="#F4C55C"/>
<stop offset="0.348578" stop-color="#FFE978"/>
<stop offset="0.499789" stop-color="#E9AD21"/>
<stop offset="0.711064" stop-color="#FFFB9B"/>
<stop offset="1" stop-color="#DBA120"/>
</linearGradient>
<linearGradient id="paint2_linear" x1="155.51" y1="202.573" x2="83.4808" y2="202.573" gradientUnits="userSpaceOnUse">
<stop stop-color="#F4C55C"/>
<stop offset="0.348578" stop-color="#FFE978"/>
<stop offset="0.499789" stop-color="#E9AD21"/>
<stop offset="0.711064" stop-color="#FFFB9B"/>
<stop offset="1" stop-color="#DBA120"/>
</linearGradient>
</defs>
</svg>
