<svg width="136" height="224" viewBox="0 0 136 224" fill="none" xmlns="http://www.w3.org/2000/svg">
<path fill-rule="evenodd" clip-rule="evenodd" d="M13.9781 68C12.8735 68 11.9758 68.9003 12.0005 70.0046C12.7196 102.181 30.5708 128.378 41.7469 131.655C42.9013 131.993 43.8463 130.946 43.6971 129.752L43.3165 126.708C33.0343 121.369 20.7165 100.264 20.0099 77.9999C19.9749 76.8959 20.8735 76 21.9781 76H36.9781L36.1971 69.7519C36.072 68.7511 35.2211 68 34.2125 68H13.9781ZM43.3165 126.708L36.9781 76H42.126C43.1711 76 44.04 76.8046 44.1201 77.8466L47.8124 125.847C47.9018 127.008 46.9706 128.005 45.8443 127.708C45.0212 127.49 44.176 127.154 43.3165 126.708Z" fill="white"/>
<path fill-rule="evenodd" clip-rule="evenodd" d="M121.978 68C123.083 68 123.98 68.9003 123.956 70.0046C123.236 102.181 105.385 128.378 94.2092 131.655C93.0548 131.993 92.1098 130.946 92.259 129.752L92.6395 126.708C102.922 121.369 115.24 100.264 115.946 77.9999C115.981 76.8959 115.083 76 113.978 76H98.978L99.759 69.7519C99.8841 68.7511 100.735 68 101.744 68H121.978ZM92.6395 126.708L98.978 76H93.8301C92.785 76 91.9161 76.8046 91.8359 77.8466L88.1436 125.847C88.0543 127.008 88.9854 128.005 90.1118 127.708C90.9348 127.49 91.7801 127.154 92.6395 126.708Z" fill="white"/>
<path d="M49.9149 141.93C49.9573 141.977 49.9951 142.023 50.0375 142.069C50.5193 142.6 54.1474 146 67.9785 146C81.8103 146 85.4381 142.599 85.9196 142.069C85.9619 142.023 85.9997 141.977 86.0421 141.93L95.6067 131.408C95.8494 131.141 96.0154 130.813 96.087 130.46L111.712 53.316C111.873 52.52 111.545 51.7142 110.846 51.2999C106.522 48.7349 90.1655 40 67.9785 40C46.0068 39.9876 29.4914 48.736 25.1214 51.3012C24.4173 51.7145 24.0847 52.5243 24.2468 53.3246L39.8681 130.46C39.9397 130.813 40.1057 131.141 40.3485 131.408L49.9149 141.93Z" fill="white"/>
<path fill-rule="evenodd" clip-rule="evenodd" d="M68 120C85.6731 120 100 105.673 100 88C100 70.3269 85.6731 56 68 56C50.3269 56 36 70.3269 36 88C36 105.673 50.3269 120 68 120Z" fill="black"/>
<path d="M17.9531 161.698C18.0668 161.429 18.052 161.125 17.9583 160.849C17.4979 159.489 17.749 157.492 18.7425 155.598C20.1865 152.846 22.652 151.355 24.2494 152.268C25.8468 153.182 25.9712 156.153 24.5272 158.905C23.4908 160.88 21.9282 162.206 20.5381 162.459C20.3046 162.502 20.0919 162.64 20.0015 162.86C19.8462 163.237 19.6971 163.625 19.5561 164.024C19.5388 164.074 19.5882 164.12 19.6364 164.1C22.4648 162.95 25.2936 163.454 25.9546 165.225C26.6156 166.997 24.8585 169.365 22.0301 170.515C21.529 170.718 21.0278 170.87 20.5388 170.972C19.3624 171.218 18.2743 172.146 18.3964 173.341C18.3994 173.371 18.4025 173.401 18.4057 173.43C18.487 174.194 18.6 174.932 18.7413 175.643C18.8211 176.045 19.3884 176.101 19.599 175.75C21.2095 173.064 23.8951 171.789 25.5974 172.901C27.2997 174.013 27.3741 177.092 25.7636 179.777C24.7134 181.528 23.2061 182.68 21.8124 182.961C21.7201 182.979 21.6715 183.085 21.7221 183.164C21.867 183.341 21.9891 183.526 22.0861 183.717C22.7862 184.744 23.5484 185.667 24.3425 186.489C24.6735 186.832 25.2537 186.593 25.3195 186.121C25.7567 182.986 27.5722 180.667 29.3744 180.941C31.1767 181.214 32.2832 183.978 31.846 187.113C31.7693 187.663 31.65 188.189 31.4958 188.679C31.118 189.881 31.508 191.344 32.4947 192.128C35.207 194.281 36 197.235 36 198.801C36 199.463 35.4789 200 34.836 200C34.1932 200 33.6721 199.463 33.6721 198.801C33.6721 198.316 33.5292 197.487 33.0981 196.571C32.9012 196.153 32.3118 196.215 32.088 196.619C31.1774 198.265 29.7999 199.215 29.0113 198.74C28.2227 198.264 28.3216 196.545 29.2322 194.898C29.3617 194.664 29.5006 194.444 29.646 194.24C29.94 193.828 29.8709 193.224 29.4115 193.011C29.1573 192.893 28.8548 193.024 28.7213 193.27C28.0074 194.587 26.1397 195.649 23.8689 195.877C20.8475 196.181 18.2567 194.893 18.0822 193.001C17.9077 191.109 20.2157 189.329 23.2371 189.025C23.3476 189.014 23.3963 188.877 23.3162 188.8C22.8754 188.377 22.4413 187.927 22.0179 187.45C21.6636 187.052 21.0513 187.005 20.5837 187.262C19.5688 187.82 18.2017 188.129 16.7119 188.06C13.6795 187.919 11.2867 186.265 11.3676 184.366C11.4484 182.467 13.9722 181.042 17.0046 181.183C17.4666 181.204 17.8321 180.732 17.6654 180.301C17.6598 180.286 17.6542 180.272 17.6486 180.257C17.4938 179.854 16.9672 179.71 16.5644 179.865C15.2426 180.374 13.2556 180.073 11.3898 178.949C8.76105 177.365 7.36825 174.746 8.27887 173.1C9.18949 171.454 12.0587 171.403 14.6874 172.987C15.1076 173.241 15.4962 173.52 15.8488 173.818C15.9485 173.902 16.1054 173.821 16.0916 173.692C16.0264 173.079 15.9868 172.477 15.9703 171.885C15.9418 170.858 15.1953 169.965 14.2964 169.467C13.4882 169.019 12.6781 168.35 11.9628 167.493C9.96963 165.103 9.46739 162.154 10.841 160.906C12.2146 159.658 14.9439 160.583 16.937 162.973C17.0927 163.159 17.4007 163.111 17.4846 162.883C17.6341 162.476 17.7909 162.081 17.9531 161.698Z" fill="white"/>
<path d="M118.047 161.698C117.933 161.429 117.948 161.125 118.042 160.849C118.502 159.489 118.251 157.492 117.257 155.598C115.814 152.846 113.348 151.355 111.751 152.268C110.153 153.182 110.029 156.153 111.473 158.905C112.509 160.88 114.072 162.206 115.462 162.459C115.695 162.502 115.908 162.64 115.999 162.86C116.154 163.237 116.303 163.625 116.444 164.024C116.461 164.074 116.412 164.12 116.364 164.1C113.535 162.95 110.706 163.454 110.045 165.225C109.384 166.997 111.141 169.365 113.97 170.515C114.471 170.718 114.972 170.87 115.461 170.972C116.638 171.218 117.726 172.146 117.604 173.341C117.601 173.371 117.598 173.401 117.594 173.43C117.513 174.194 117.4 174.932 117.259 175.643C117.179 176.045 116.612 176.101 116.401 175.75C114.79 173.064 112.105 171.789 110.403 172.901C108.7 174.013 108.626 177.092 110.236 179.777C111.287 181.528 112.794 182.68 114.188 182.961C114.28 182.979 114.328 183.085 114.278 183.164C114.133 183.341 114.011 183.526 113.914 183.717C113.214 184.744 112.452 185.667 111.658 186.489C111.327 186.832 110.746 186.593 110.68 186.121C110.243 182.986 108.428 180.667 106.626 180.941C104.823 181.214 103.717 183.978 104.154 187.113C104.231 187.663 104.35 188.189 104.504 188.679C104.882 189.881 104.492 191.344 103.505 192.128C100.793 194.281 100 197.235 100 198.801C100 199.463 100.521 200 101.164 200C101.807 200 102.328 199.463 102.328 198.801C102.328 198.316 102.471 197.487 102.902 196.571C103.099 196.153 103.688 196.215 103.912 196.619C104.823 198.265 106.2 199.215 106.989 198.74C107.777 198.264 107.678 196.545 106.768 194.898C106.638 194.664 106.499 194.444 106.354 194.24C106.06 193.828 106.129 193.224 106.588 193.011C106.843 192.893 107.145 193.024 107.279 193.27C107.993 194.587 109.86 195.649 112.131 195.877C115.153 196.181 117.743 194.893 117.918 193.001C118.092 191.109 115.784 189.329 112.763 189.025C112.652 189.014 112.604 188.877 112.684 188.8C113.125 188.377 113.559 187.927 113.982 187.45C114.336 187.052 114.949 187.005 115.416 187.262C116.431 187.82 117.798 188.129 119.288 188.06C122.321 187.919 124.713 186.265 124.632 184.366C124.552 182.467 122.028 181.042 118.995 181.183C118.533 181.204 118.168 180.732 118.335 180.301C118.34 180.286 118.346 180.272 118.351 180.257C118.506 179.854 119.033 179.71 119.436 179.865C120.757 180.374 122.744 180.073 124.61 178.949C127.239 177.365 128.632 174.746 127.721 173.1C126.811 171.454 123.941 171.403 121.313 172.987C120.892 173.241 120.504 173.52 120.151 173.818C120.052 173.902 119.895 173.821 119.908 173.692C119.974 173.079 120.013 172.477 120.03 171.885C120.058 170.858 120.805 169.965 121.704 169.467C122.512 169.019 123.322 168.35 124.037 167.493C126.03 165.103 126.533 162.154 125.159 160.906C123.785 159.658 121.056 160.583 119.063 162.973C118.907 163.159 118.599 163.111 118.515 162.883C118.366 162.476 118.209 162.081 118.047 161.698Z" fill="white"/>
<path fill-rule="evenodd" clip-rule="evenodd" d="M68 192C85.6731 192 100 177.673 100 160C100 142.327 85.6731 128 68 128C50.3269 128 36 142.327 36 160C36 177.673 50.3269 192 68 192Z" fill="black"/>
<path fill-rule="evenodd" clip-rule="evenodd" d="M61.9067 181.173L67.1334 177.547C64.5201 174.667 63.7201 171.52 63.7201 167.253V157.6H67.5601H68.8401H71.6667V167.093C71.6667 172.427 72.4134 178.24 77.6401 181.173L82.8667 177.547C80.2534 174.667 79.4534 171.52 79.4534 167.253V157.6H84.5734L85.2667 151.84H79.4534V142.88L71.6667 143.84V151.84H69.5334H67.5601H63.7201V142.88L55.9334 143.84V151.84H51.8267V157.6H55.9334V167.093C55.9334 172.427 56.6801 178.24 61.9067 181.173Z" fill="white"/>
</svg>
