<svg width="152" height="224" viewBox="0 0 152 224" fill="none" xmlns="http://www.w3.org/2000/svg">
<g filter="url(#filter0_d)">
<path fill-rule="evenodd" clip-rule="evenodd" d="M21.9781 68C20.8735 68 19.9758 68.9003 20.0005 70.0046C20.7196 102.181 38.5708 128.378 49.7469 131.655C50.9013 131.993 51.8463 130.946 51.6971 129.752L51.3165 126.708C41.0343 121.369 28.7165 100.264 28.01 77.9999C27.9749 76.8959 28.8735 76 29.9781 76H44.9781L44.1971 69.7519C44.072 68.7511 43.2212 68 42.2125 68H21.9781ZM51.3165 126.708L44.9781 76H50.126C51.1711 76 52.04 76.8046 52.1201 77.8466L55.8124 125.847C55.9018 127.008 54.9707 128.005 53.8443 127.708C53.0212 127.49 52.176 127.154 51.3165 126.708Z" fill="url(#paint0_angular)"/>
<path fill-rule="evenodd" clip-rule="evenodd" d="M129.978 68C131.083 68 131.98 68.9003 131.956 70.0046C131.236 102.181 113.385 128.378 102.209 131.655C101.055 131.993 100.11 130.946 100.259 129.752L100.64 126.708C110.922 121.369 123.24 100.264 123.946 77.9999C123.981 76.8959 123.083 76 121.978 76H106.978L107.759 69.7519C107.884 68.7511 108.735 68 109.744 68H129.978ZM100.64 126.708L106.978 76H101.83C100.785 76 99.9161 76.8046 99.8359 77.8466L96.1436 125.847C96.0543 127.008 96.9854 128.005 98.1118 127.708C98.9348 127.49 99.7801 127.154 100.64 126.708Z" fill="url(#paint1_angular)"/>
<path d="M57.9149 141.93C57.9573 141.977 57.9951 142.023 58.0375 142.069C58.5193 142.6 62.1474 146 75.9785 146C89.8103 146 93.4381 142.599 93.9196 142.069C93.9619 142.023 93.9997 141.977 94.0421 141.93L103.607 131.408C103.849 131.141 104.015 130.813 104.087 130.46L119.712 53.316C119.873 52.52 119.545 51.7142 118.846 51.2999C114.522 48.7349 98.1656 40 75.9785 40C54.0068 39.9876 37.4914 48.736 33.1214 51.3012C32.4173 51.7145 32.0847 52.5243 32.2468 53.3246L47.8681 130.46C47.9397 130.813 48.1057 131.141 48.3485 131.408L57.9149 141.93Z" fill="url(#paint2_angular)"/>
</g>
<path fill-rule="evenodd" clip-rule="evenodd" d="M76 120C93.6731 120 108 105.673 108 88C108 70.3269 93.6731 56 76 56C58.3269 56 44 70.3269 44 88C44 105.673 58.3269 120 76 120Z" fill="black"/>
<path d="M25.9531 161.698C26.0668 161.429 26.052 161.125 25.9583 160.849C25.4979 159.489 25.749 157.492 26.7425 155.598C28.1865 152.846 30.652 151.355 32.2494 152.268C33.8468 153.182 33.9712 156.153 32.5272 158.905C31.4908 160.88 29.9282 162.206 28.5381 162.459C28.3046 162.502 28.0919 162.64 28.0015 162.86C27.8462 163.237 27.6971 163.625 27.5561 164.024C27.5388 164.074 27.5882 164.12 27.6364 164.1V164.1C30.4648 162.95 33.2936 163.454 33.9546 165.225C34.6156 166.997 32.8585 169.365 30.0301 170.515C29.529 170.718 29.0278 170.87 28.5388 170.972C27.3624 171.218 26.2743 172.146 26.3964 173.341C26.3994 173.371 26.4025 173.401 26.4057 173.43C26.487 174.194 26.6 174.932 26.7413 175.643C26.8211 176.045 27.3884 176.101 27.599 175.75V175.75C29.2095 173.064 31.8951 171.789 33.5974 172.901C35.2997 174.013 35.3741 177.092 33.7636 179.777C32.7134 181.528 31.2061 182.68 29.8124 182.961C29.7201 182.979 29.6715 183.085 29.7221 183.164V183.164C29.867 183.341 29.9891 183.526 30.0861 183.717C30.7862 184.744 31.5484 185.667 32.3425 186.489C32.6735 186.832 33.2537 186.593 33.3195 186.121V186.121C33.7567 182.986 35.5722 180.667 37.3744 180.941C39.1767 181.214 40.2832 183.978 39.846 187.113C39.7693 187.663 39.65 188.189 39.4958 188.679C39.118 189.881 39.508 191.344 40.4947 192.128C43.207 194.281 44 197.235 44 198.801C44 199.463 43.4789 200 42.836 200C42.1932 200 41.6721 199.463 41.6721 198.801C41.6721 198.316 41.5292 197.487 41.0981 196.571C40.9012 196.153 40.3118 196.215 40.088 196.619V196.619C39.1774 198.265 37.7999 199.215 37.0113 198.74C36.2227 198.264 36.3216 196.545 37.2322 194.898C37.3617 194.664 37.5007 194.444 37.646 194.24C37.94 193.828 37.8709 193.224 37.4115 193.011V193.011V193.011C37.1573 192.893 36.8548 193.024 36.7213 193.27C36.0074 194.587 34.1397 195.649 31.8689 195.877C28.8475 196.181 26.2567 194.893 26.0822 193.001C25.9077 191.109 28.2157 189.329 31.2371 189.025V189.025C31.3476 189.014 31.3963 188.877 31.3162 188.8C30.8754 188.377 30.4413 187.927 30.0179 187.45C29.6636 187.052 29.0513 187.005 28.5837 187.262C27.5688 187.82 26.2017 188.129 24.7119 188.06C21.6795 187.919 19.2867 186.265 19.3676 184.366C19.4484 182.467 21.9722 181.042 25.0046 181.183V181.183C25.4666 181.204 25.8321 180.732 25.6654 180.301C25.6598 180.286 25.6542 180.272 25.6486 180.257C25.4938 179.854 24.9672 179.71 24.5644 179.865C23.2426 180.374 21.2556 180.073 19.3898 178.949C16.7611 177.365 15.3682 174.746 16.2789 173.1C17.1895 171.454 20.0587 171.403 22.6874 172.987C23.1076 173.241 23.4962 173.52 23.8488 173.818C23.9485 173.902 24.1054 173.821 24.0916 173.692V173.692C24.0264 173.079 23.9868 172.477 23.9703 171.885C23.9418 170.858 23.1953 169.965 22.2964 169.467C21.4882 169.019 20.6781 168.35 19.9628 167.493C17.9696 165.103 17.4674 162.154 18.841 160.906C20.2146 159.658 22.9439 160.583 24.937 162.973V162.973C25.0927 163.159 25.4007 163.111 25.4846 162.883C25.6341 162.476 25.7909 162.081 25.9531 161.698Z" fill="url(#paint3_linear)"/>
<path d="M126.047 161.698C125.933 161.429 125.948 161.125 126.042 160.849C126.502 159.489 126.251 157.492 125.257 155.598C123.814 152.846 121.348 151.355 119.751 152.268C118.153 153.182 118.029 156.153 119.473 158.905C120.509 160.88 122.072 162.206 123.462 162.459C123.695 162.502 123.908 162.64 123.999 162.86C124.154 163.237 124.303 163.625 124.444 164.024C124.461 164.074 124.412 164.12 124.364 164.1V164.1C121.535 162.95 118.706 163.454 118.045 165.225C117.384 166.997 119.141 169.365 121.97 170.515C122.471 170.718 122.972 170.87 123.461 170.972C124.638 171.218 125.726 172.146 125.604 173.341C125.601 173.371 125.598 173.401 125.594 173.43C125.513 174.194 125.4 174.932 125.259 175.643C125.179 176.045 124.612 176.101 124.401 175.75V175.75C122.79 173.064 120.105 171.789 118.403 172.901C116.7 174.013 116.626 177.092 118.236 179.777C119.287 181.528 120.794 182.68 122.188 182.961C122.28 182.979 122.328 183.085 122.278 183.164V183.164C122.133 183.341 122.011 183.526 121.914 183.717C121.214 184.744 120.452 185.667 119.658 186.489C119.327 186.832 118.746 186.593 118.68 186.121V186.121C118.243 182.986 116.428 180.667 114.626 180.941C112.823 181.214 111.717 183.978 112.154 187.113C112.231 187.663 112.35 188.189 112.504 188.679C112.882 189.881 112.492 191.344 111.505 192.128C108.793 194.281 108 197.235 108 198.801C108 199.463 108.521 200 109.164 200C109.807 200 110.328 199.463 110.328 198.801C110.328 198.316 110.471 197.487 110.902 196.571C111.099 196.153 111.688 196.215 111.912 196.619V196.619C112.823 198.265 114.2 199.215 114.989 198.74C115.777 198.264 115.678 196.545 114.768 194.898C114.638 194.664 114.499 194.444 114.354 194.24C114.06 193.828 114.129 193.224 114.588 193.011V193.011V193.011C114.843 192.893 115.145 193.024 115.279 193.27C115.993 194.587 117.86 195.649 120.131 195.877C123.153 196.181 125.743 194.893 125.918 193.001C126.092 191.109 123.784 189.329 120.763 189.025V189.025C120.652 189.014 120.604 188.877 120.684 188.8C121.125 188.377 121.559 187.927 121.982 187.45C122.336 187.052 122.949 187.005 123.416 187.262C124.431 187.82 125.798 188.129 127.288 188.06C130.321 187.919 132.713 186.265 132.632 184.366C132.552 182.467 130.028 181.042 126.995 181.183V181.183C126.533 181.204 126.168 180.732 126.335 180.301C126.34 180.286 126.346 180.272 126.351 180.257C126.506 179.854 127.033 179.71 127.436 179.865C128.757 180.374 130.744 180.073 132.61 178.949C135.239 177.365 136.632 174.746 135.721 173.1C134.811 171.454 131.941 171.403 129.313 172.987C128.892 173.241 128.504 173.52 128.151 173.818C128.052 173.902 127.895 173.821 127.908 173.692V173.692C127.974 173.079 128.013 172.477 128.03 171.885C128.058 170.858 128.805 169.965 129.704 169.467C130.512 169.019 131.322 168.35 132.037 167.493C134.03 165.103 134.533 162.154 133.159 160.906C131.785 159.658 129.056 160.583 127.063 162.973V162.973C126.907 163.159 126.599 163.111 126.515 162.883C126.366 162.476 126.209 162.081 126.047 161.698Z" fill="url(#paint4_linear)"/>
<path fill-rule="evenodd" clip-rule="evenodd" d="M76 192C93.6731 192 108 177.673 108 160C108 142.327 93.6731 128 76 128C58.3269 128 44 142.327 44 160C44 177.673 58.3269 192 76 192Z" fill="black"/>
<path fill-rule="evenodd" clip-rule="evenodd" d="M69.9067 181.173L75.1334 177.547C72.52 174.667 71.72 171.52 71.72 167.253V157.6H75.5601H76.84H79.6667V167.093C79.6667 172.427 80.4134 178.24 85.6401 181.173L90.8667 177.547C88.2534 174.667 87.4534 171.52 87.4534 167.253V157.6H92.5734L93.2667 151.84H87.4534V142.88L79.6667 143.84V151.84H77.5334H75.5601H71.72V142.88L63.9334 143.84V151.84H59.8267V157.6H63.9334V167.093C63.9334 172.427 64.68 178.24 69.9067 181.173Z" fill="white"/>
<defs>
<filter id="filter0_d" x="0" y="24" width="152" height="160" filterUnits="userSpaceOnUse" color-interpolation-filters="sRGB">
<feFlood flood-opacity="0" result="BackgroundImageFix"/>
<feColorMatrix in="SourceAlpha" type="matrix" values="0 0 0 0 0 0 0 0 0 0 0 0 0 0 0 0 0 0 127 0"/>
<feOffset dy="8"/>
<feGaussianBlur stdDeviation="10"/>
<feColorMatrix type="matrix" values="0 0 0 0 0.964706 0 0 0 0 0.756863 0 0 0 0 0.498039 0 0 0 0.22 0"/>
<feBlend mode="color-dodge" in2="BackgroundImageFix" result="effect1_dropShadow"/>
<feBlend mode="normal" in="SourceGraphic" in2="effect1_dropShadow" result="shape"/>
</filter>
<radialGradient id="paint0_angular" cx="0" cy="0" r="1" gradientUnits="userSpaceOnUse" gradientTransform="translate(38.0489 294.387) rotate(179.147) scale(102.944 283.089)">
<stop offset="0.709154" stop-color="#AC6847"/>
<stop offset="0.726281" stop-color="#FCC783"/>
<stop offset="0.748222" stop-color="#8B533A"/>
<stop offset="0.770045" stop-color="#FCC783"/>
<stop offset="0.789504" stop-color="#92583F"/>
</radialGradient>
<radialGradient id="paint1_angular" cx="0" cy="0" r="1" gradientUnits="userSpaceOnUse" gradientTransform="translate(113.907 294.387) rotate(0.852541) scale(102.944 283.089)">
<stop offset="0.709154" stop-color="#AC6847"/>
<stop offset="0.726281" stop-color="#FCC783"/>
<stop offset="0.748222" stop-color="#8B533A"/>
<stop offset="0.770045" stop-color="#FCC783"/>
<stop offset="0.789504" stop-color="#92583F"/>
</radialGradient>
<radialGradient id="paint2_angular" cx="0" cy="0" r="1" gradientUnits="userSpaceOnUse" gradientTransform="translate(75.6352 416.606) rotate(0.577288) scale(252.902 470.962)">
<stop offset="0.709154" stop-color="#AC6847"/>
<stop offset="0.726281" stop-color="#FCC783"/>
<stop offset="0.748222" stop-color="#8B533A"/>
<stop offset="0.770045" stop-color="#FCC783"/>
<stop offset="0.789504" stop-color="#92583F"/>
</radialGradient>
<linearGradient id="paint3_linear" x1="-9.17307" y1="200" x2="65.1346" y2="200" gradientUnits="userSpaceOnUse">
<stop offset="0.149171" stop-color="#AC6847"/>
<stop offset="0.226519" stop-color="#FCC783"/>
<stop offset="0.430939" stop-color="#8B533A"/>
<stop offset="0.668508" stop-color="#FCC783"/>
<stop offset="1" stop-color="#92583F"/>
</linearGradient>
<linearGradient id="paint4_linear" x1="161.173" y1="200" x2="86.8654" y2="200" gradientUnits="userSpaceOnUse">
<stop offset="0.149171" stop-color="#AC6847"/>
<stop offset="0.226519" stop-color="#FCC783"/>
<stop offset="0.430939" stop-color="#8B533A"/>
<stop offset="0.668508" stop-color="#FCC783"/>
<stop offset="1" stop-color="#92583F"/>
</linearGradient>
</defs>
</svg>
