<svg width="16" height="16" viewBox="0 0 16 16" fill="none" xmlns="http://www.w3.org/2000/svg">
<path d="M8 1.19376L9.68584 4.84865C9.83151 5.16446 10.1308 5.3819 10.4762 5.42285L14.4731 5.89675L11.5181 8.62951C11.2627 8.86564 11.1484 9.21747 11.2162 9.55858L12.0006 13.5064L8.48844 11.5404C8.18497 11.3705 7.81503 11.3705 7.51156 11.5404L3.99939 13.5064L4.78381 9.55858C4.85159 9.21747 4.73727 8.86564 4.48194 8.62951L1.52688 5.89676L5.52384 5.42285C5.86921 5.3819 6.16849 5.16446 6.31416 4.84865L8 1.19376Z" fill="url(#paint0_linear)"/>
<path d="M8 1.19376L9.68584 4.84865C9.83151 5.16446 10.1308 5.3819 10.4762 5.42285L14.4731 5.89675L11.5181 8.62951C11.2627 8.86564 11.1484 9.21747 11.2162 9.55858L12.0006 13.5064L8.48844 11.5404C8.18497 11.3705 7.81503 11.3705 7.51156 11.5404L3.99939 13.5064L4.78381 9.55858C4.85159 9.21747 4.73727 8.86564 4.48194 8.62951L1.52688 5.89676L5.52384 5.42285C5.86921 5.3819 6.16849 5.16446 6.31416 4.84865L8 1.19376Z" stroke="#4A4A4A" style="mix-blend-mode:overlay"/>
<defs>
<linearGradient id="paint0_linear" x1="-12.8025" y1="0" x2="-12.8025" y2="23.5" gradientUnits="userSpaceOnUse">
<stop stop-color="#F4C55C"/>
<stop offset="0.254763" stop-color="#FFE978"/>
<stop offset="0.501036" stop-color="#E9AD21"/>
<stop offset="0.756497" stop-color="#F6E194"/>
<stop offset="1" stop-color="#DCA13A"/>
</linearGradient>
</defs>
</svg>
