<svg width="104" height="36" viewBox="0 0 104 36" fill="none" xmlns="http://www.w3.org/2000/svg">
<path d="M52 11.1938L53.6858 14.8487C53.8315 15.1645 54.1308 15.3819 54.4762 15.4229L58.4731 15.8968L55.5181 18.6295C55.2627 18.8656 55.1484 19.2175 55.2162 19.5586L56.0006 23.5064L52.4884 21.5404C52.185 21.3705 51.815 21.3705 51.5116 21.5404L47.9994 23.5064L48.7838 19.5586C48.8516 19.2175 48.7373 18.8656 48.4819 18.6295L45.5269 15.8968L49.5238 15.4229C49.8692 15.3819 50.1685 15.1645 50.3142 14.8487L52 11.1938Z" fill="url(#paint0_linear)"/>
<path d="M52 11.1938L53.6858 14.8487C53.8315 15.1645 54.1308 15.3819 54.4762 15.4229L58.4731 15.8968L55.5181 18.6295C55.2627 18.8656 55.1484 19.2175 55.2162 19.5586L56.0006 23.5064L52.4884 21.5404C52.185 21.3705 51.815 21.3705 51.5116 21.5404L47.9994 23.5064L48.7838 19.5586C48.8516 19.2175 48.7373 18.8656 48.4819 18.6295L45.5269 15.8968L49.5238 15.4229C49.8692 15.3819 50.1685 15.1645 50.3142 14.8487L52 11.1938Z" stroke="#4A4A4A" style="mix-blend-mode:overlay"/>
<defs>
<linearGradient id="paint0_linear" x1="31.1975" y1="10" x2="31.1975" y2="33.5" gradientUnits="userSpaceOnUse">
<stop stop-color="#F4C55C"/>
<stop offset="0.254763" stop-color="#FFE978"/>
<stop offset="0.501036" stop-color="#E9AD21"/>
<stop offset="0.756497" stop-color="#F6E194"/>
<stop offset="1" stop-color="#DCA13A"/>
</linearGradient>
</defs>
</svg>
