<svg width="104" height="36" viewBox="0 0 104 36" fill="none" xmlns="http://www.w3.org/2000/svg">
<path d="M29.546 18.9843C29.7247 18.5969 30.2753 18.5969 30.454 18.9843L31.5756 21.4159C31.6484 21.5738 31.7981 21.6825 31.9708 21.703L34.6299 22.0183C35.0536 22.0685 35.2237 22.5922 34.9105 22.8819L32.9445 24.6999C32.8169 24.818 32.7597 24.9939 32.7936 25.1645L33.3155 27.7909C33.3986 28.2094 32.9531 28.533 32.5808 28.3246L30.2442 27.0167C30.0925 26.9318 29.9075 26.9318 29.7558 27.0167L27.4192 28.3246C27.0469 28.533 26.6014 28.2094 26.6845 27.7909L27.2064 25.1645C27.2403 24.9939 27.1831 24.818 27.0555 24.6999L25.0895 22.8819C24.7763 22.5922 24.9464 22.0685 25.3701 22.0183L28.0292 21.703C28.2019 21.6825 28.3516 21.5738 28.4244 21.4159L29.546 18.9843Z" fill="url(#paint0_linear)"/>
<path d="M73.546 18.9843C73.7247 18.5969 74.2753 18.5969 74.454 18.9843L75.5756 21.4159C75.6484 21.5738 75.7981 21.6825 75.9708 21.703L78.6299 22.0183C79.0536 22.0685 79.2237 22.5922 78.9105 22.8819L76.9445 24.6999C76.8169 24.818 76.7597 24.9939 76.7936 25.1645L77.3155 27.7909C77.3986 28.2094 76.9531 28.533 76.5808 28.3246L74.2442 27.0167C74.0925 26.9318 73.9075 26.9318 73.7558 27.0167L71.4192 28.3246C71.0469 28.533 70.6014 28.2094 70.6845 27.7909L71.2064 25.1645C71.2403 24.9939 71.1831 24.818 71.0555 24.6999L69.0895 22.8819C68.7763 22.5922 68.9464 22.0685 69.3701 22.0183L72.0292 21.703C72.2019 21.6825 72.3516 21.5738 72.4244 21.4159L73.546 18.9843Z" fill="url(#paint1_linear)"/>
<path d="M51.546 8.98433C51.7247 8.5969 52.2753 8.5969 52.454 8.98433L54.1399 12.6392C54.2127 12.7971 54.3623 12.9059 54.535 12.9263L58.532 13.4002C58.9557 13.4505 59.1258 13.9742 58.8126 14.2638L55.8575 16.9966C55.7299 17.1147 55.6727 17.2906 55.7066 17.4611L56.491 21.4089C56.5742 21.8274 56.1287 22.1511 55.7564 21.9427L52.2442 19.9767C52.0925 19.8918 51.9075 19.8918 51.7558 19.9767L48.2436 21.9427C47.8713 22.1511 47.4258 21.8274 47.509 21.4089L48.2934 17.4611C48.3273 17.2906 48.2701 17.1147 48.1425 16.9966L45.1874 14.2638C44.8742 13.9742 45.0443 13.4505 45.468 13.4002L49.465 12.9263C49.6377 12.9059 49.7873 12.7971 49.8601 12.6392L51.546 8.98433Z" fill="url(#paint2_linear)"/>
<defs>
<linearGradient id="paint0_linear" x1="14.3981" y1="18" x2="14.3981" y2="35.625" gradientUnits="userSpaceOnUse">
<stop stop-color="#F4C55C"/>
<stop offset="0.254763" stop-color="#FFE978"/>
<stop offset="0.501036" stop-color="#E9AD21"/>
<stop offset="0.756497" stop-color="#F6E194"/>
<stop offset="1" stop-color="#DCA13A"/>
</linearGradient>
<linearGradient id="paint1_linear" x1="58.3981" y1="18" x2="58.3981" y2="35.625" gradientUnits="userSpaceOnUse">
<stop stop-color="#F4C55C"/>
<stop offset="0.254763" stop-color="#FFE978"/>
<stop offset="0.501036" stop-color="#E9AD21"/>
<stop offset="0.756497" stop-color="#F6E194"/>
<stop offset="1" stop-color="#DCA13A"/>
</linearGradient>
<linearGradient id="paint2_linear" x1="31.1975" y1="8" x2="31.1975" y2="31.5" gradientUnits="userSpaceOnUse">
<stop stop-color="#F4C55C"/>
<stop offset="0.254763" stop-color="#FFE978"/>
<stop offset="0.501036" stop-color="#E9AD21"/>
<stop offset="0.756497" stop-color="#F6E194"/>
<stop offset="1" stop-color="#DCA13A"/>
</linearGradient>
</defs>
</svg>
