<svg width="104" height="36" viewBox="0 0 104 36" fill="none" xmlns="http://www.w3.org/2000/svg">
<path d="M39.546 12.9843C39.7247 12.5969 40.2753 12.5969 40.454 12.9843L41.5756 15.4159C41.6484 15.5738 41.7981 15.6825 41.9708 15.703L44.6299 16.0183C45.0536 16.0685 45.2237 16.5922 44.9105 16.8819L42.9445 18.6999C42.8169 18.818 42.7597 18.9939 42.7936 19.1645L43.3155 21.7909C43.3986 22.2094 42.9531 22.533 42.5808 22.3246L40.2442 21.0167C40.0925 20.9318 39.9075 20.9318 39.7558 21.0167L37.4192 22.3246C37.0469 22.533 36.6014 22.2094 36.6845 21.7909L37.2064 19.1645C37.2403 18.9939 37.1831 18.818 37.0555 18.6999L35.0895 16.8819C34.7763 16.5922 34.9464 16.0685 35.3701 16.0183L38.0292 15.703C38.2019 15.6825 38.3516 15.5738 38.4244 15.4159L39.546 12.9843Z" fill="white"/>
<path d="M63.546 12.9843C63.7247 12.5969 64.2753 12.5969 64.454 12.9843L65.5756 15.4159C65.6484 15.5738 65.7981 15.6825 65.9708 15.703L68.6299 16.0183C69.0536 16.0685 69.2237 16.5922 68.9105 16.8819L66.9445 18.6999C66.8169 18.818 66.7597 18.9939 66.7936 19.1645L67.3155 21.7909C67.3986 22.2094 66.9531 22.533 66.5808 22.3246L64.2442 21.0167C64.0925 20.9318 63.9075 20.9318 63.7558 21.0167L61.4192 22.3246C61.0469 22.533 60.6014 22.2094 60.6845 21.7909L61.2064 19.1645C61.2403 18.9939 61.1831 18.818 61.0555 18.6999L59.0895 16.8819C58.7763 16.5922 58.9464 16.0685 59.3701 16.0183L62.0292 15.703C62.2019 15.6825 62.3516 15.5738 62.4244 15.4159L63.546 12.9843Z" fill="white"/>
</svg>
