<svg width="104" height="36" viewBox="0 0 104 36" fill="none" xmlns="http://www.w3.org/2000/svg">
<path d="M51.546 10.9843C51.7247 10.5969 52.2753 10.5969 52.454 10.9843L54.1399 14.6392C54.2127 14.7971 54.3623 14.9059 54.535 14.9263L58.532 15.4002C58.9557 15.4505 59.1258 15.9742 58.8126 16.2638L55.8575 18.9966C55.7299 19.1147 55.6727 19.2906 55.7066 19.4611L56.491 23.4089C56.5742 23.8274 56.1287 24.1511 55.7564 23.9427L52.2442 21.9767C52.0925 21.8918 51.9075 21.8918 51.7558 21.9767L48.2436 23.9427C47.8713 24.1511 47.4258 23.8274 47.509 23.4089L48.2934 19.4611C48.3273 19.2906 48.2701 19.1147 48.1425 18.9966L45.1874 16.2638C44.8742 15.9742 45.0443 15.4505 45.468 15.4002L49.465 14.9263C49.6377 14.9059 49.7873 14.7971 49.8601 14.6392L51.546 10.9843Z" fill="url(#paint0_linear)"/>
<defs>
<linearGradient id="paint0_linear" x1="29.7894" y1="7" x2="29.7894" y2="36.5" gradientUnits="userSpaceOnUse">
<stop stop-color="#AC6847"/>
<stop offset="0.232302" stop-color="#FCC783"/>
<stop offset="0.489975" stop-color="#8B533A"/>
<stop offset="0.740374" stop-color="#FCC783"/>
<stop offset="1" stop-color="#92583F"/>
</linearGradient>
</defs>
</svg>
