<svg width="104" height="36" viewBox="0 0 104 36" fill="none" xmlns="http://www.w3.org/2000/svg">
<path d="M97.546 24.9843C97.7247 24.5969 98.2753 24.5969 98.454 24.9843L99.5756 27.4159C99.6484 27.5738 99.7981 27.6825 99.9708 27.703L102.63 28.0183C103.054 28.0685 103.224 28.5922 102.91 28.8819L100.945 30.6999C100.817 30.818 100.76 30.9939 100.794 31.1645L101.315 33.7909C101.399 34.2094 100.953 34.533 100.581 34.3246L98.2442 33.0167C98.0925 32.9318 97.9075 32.9318 97.7558 33.0167L95.4192 34.3246C95.0469 34.533 94.6014 34.2094 94.6845 33.7909L95.2064 31.1645C95.2403 30.9939 95.1831 30.818 95.0555 30.6999L93.0895 28.8819C92.7763 28.5922 92.9464 28.0685 93.3701 28.0183L96.0292 27.703C96.2019 27.6825 96.3516 27.5738 96.4244 27.4159L97.546 24.9843Z" fill="url(#paint0_linear)"/>
<path d="M5.54597 24.9843C5.72468 24.5969 6.27532 24.5969 6.45403 24.9843L7.5756 27.4159C7.64843 27.5738 7.79807 27.6825 7.97075 27.703L10.6299 28.0183C11.0536 28.0685 11.2237 28.5922 10.9105 28.8819L8.94452 30.6999C8.81686 30.818 8.7597 30.9939 8.79359 31.1645L9.31545 33.7909C9.3986 34.2094 8.95312 34.533 8.58082 34.3246L6.24422 33.0167C6.09248 32.9318 5.90752 32.9318 5.75578 33.0167L3.41918 34.3246C3.04687 34.533 2.6014 34.2094 2.68455 33.7909L3.20641 31.1645C3.2403 30.9939 3.18314 30.818 3.05548 30.6999L1.08951 28.8819C0.776263 28.5922 0.946422 28.0685 1.37012 28.0183L4.02925 27.703C4.20193 27.6825 4.35157 27.5738 4.4244 27.4159L5.54597 24.9843Z" fill="url(#paint1_linear)"/>
<path d="M79.546 10.9843C79.7247 10.5969 80.2753 10.5969 80.454 10.9843L82.1399 14.6392C82.2127 14.7971 82.3623 14.9059 82.535 14.9263L86.532 15.4002C86.9557 15.4505 87.1258 15.9742 86.8126 16.2638L83.8575 18.9966C83.7299 19.1147 83.6727 19.2906 83.7066 19.4611L84.491 23.4089C84.5742 23.8274 84.1287 24.1511 83.7564 23.9427L80.2442 21.9767C80.0925 21.8918 79.9075 21.8918 79.7558 21.9767L76.2436 23.9427C75.8713 24.1511 75.4258 23.8274 75.509 23.4089L76.2934 19.4611C76.3273 19.2906 76.2701 19.1147 76.1425 18.9966L73.1874 16.2638C72.8742 15.9742 73.0443 15.4505 73.468 15.4002L77.465 14.9263C77.6377 14.9059 77.7873 14.7971 77.8601 14.6392L79.546 10.9843Z" fill="url(#paint2_linear)"/>
<path d="M23.546 10.9843C23.7247 10.5969 24.2753 10.5969 24.454 10.9843L26.1399 14.6392C26.2127 14.7971 26.3623 14.9059 26.535 14.9263L30.532 15.4002C30.9557 15.4505 31.1258 15.9742 30.8126 16.2638L27.8575 18.9966C27.7299 19.1147 27.6727 19.2906 27.7066 19.4611L28.491 23.4089C28.5742 23.8274 28.1287 24.1511 27.7564 23.9427L24.2442 21.9767C24.0925 21.8918 23.9075 21.8918 23.7558 21.9767L20.2436 23.9427C19.8713 24.1511 19.4258 23.8274 19.509 23.4089L20.2934 19.4611C20.3273 19.2906 20.2701 19.1147 20.1425 18.9966L17.1874 16.2638C16.8742 15.9742 17.0443 15.4505 17.468 15.4002L21.465 14.9263C21.6377 14.9059 21.7873 14.7971 21.8601 14.6392L23.546 10.9843Z" fill="url(#paint3_linear)"/>
<path d="M51.546 0.984331C51.7247 0.596896 52.2753 0.596896 52.454 0.984332L55.2684 7.08592C55.3413 7.24382 55.4909 7.35254 55.6636 7.37302L62.3362 8.16416C62.7599 8.2144 62.9301 8.73809 62.6168 9.02778L57.6836 13.5899C57.5559 13.708 57.4987 13.8839 57.5326 14.0545L58.8422 20.645C58.9253 21.0635 58.4798 21.3871 58.1075 21.1787L52.2442 17.8967C52.0925 17.8118 51.9075 17.8118 51.7558 17.8967L45.8925 21.1787C45.5202 21.3871 45.0747 21.0635 45.1578 20.645L46.4674 14.0545C46.5013 13.8839 46.4441 13.708 46.3164 13.5899L41.3832 9.02778C41.0699 8.73809 41.2401 8.2144 41.6638 8.16416L48.3364 7.37302C48.5091 7.35254 48.6587 7.24382 48.7316 7.08592L51.546 0.984331Z" fill="url(#paint4_linear)"/>
<defs>
<linearGradient id="paint0_linear" x1="81.342" y1="23.1563" x2="81.342" y2="41.9063" gradientUnits="userSpaceOnUse">
<stop stop-color="#6F7778"/>
<stop offset="0.232302" stop-color="#EAEAEA"/>
<stop offset="0.489975" stop-color="#949597"/>
<stop offset="0.740374" stop-color="#EFEFEF"/>
<stop offset="1" stop-color="#6F7778"/>
</linearGradient>
<linearGradient id="paint1_linear" x1="-10.658" y1="23.1563" x2="-10.658" y2="41.9063" gradientUnits="userSpaceOnUse">
<stop stop-color="#6F7778"/>
<stop offset="0.232302" stop-color="#EAEAEA"/>
<stop offset="0.489975" stop-color="#949597"/>
<stop offset="0.740374" stop-color="#EFEFEF"/>
<stop offset="1" stop-color="#6F7778"/>
</linearGradient>
<linearGradient id="paint2_linear" x1="57.7894" y1="8.875" x2="57.7894" y2="33.875" gradientUnits="userSpaceOnUse">
<stop stop-color="#6F7778"/>
<stop offset="0.232302" stop-color="#EAEAEA"/>
<stop offset="0.489975" stop-color="#949597"/>
<stop offset="0.740374" stop-color="#EFEFEF"/>
<stop offset="1" stop-color="#6F7778"/>
</linearGradient>
<linearGradient id="paint3_linear" x1="1.78939" y1="8.875" x2="1.78939" y2="33.875" gradientUnits="userSpaceOnUse">
<stop stop-color="#6F7778"/>
<stop offset="0.232302" stop-color="#EAEAEA"/>
<stop offset="0.489975" stop-color="#949597"/>
<stop offset="0.740374" stop-color="#EFEFEF"/>
<stop offset="1" stop-color="#6F7778"/>
</linearGradient>
<linearGradient id="paint4_linear" x1="18.6841" y1="-1.6875" x2="18.6841" y2="35.8125" gradientUnits="userSpaceOnUse">
<stop stop-color="#6F7778"/>
<stop offset="0.232302" stop-color="#EAEAEA"/>
<stop offset="0.489975" stop-color="#949597"/>
<stop offset="0.740374" stop-color="#EFEFEF"/>
<stop offset="1" stop-color="#6F7778"/>
</linearGradient>
</defs>
</svg>
