<svg width="104" height="36" viewBox="0 0 104 36" fill="none" xmlns="http://www.w3.org/2000/svg">
<path d="M17.546 18.9843C17.7247 18.5969 18.2753 18.5969 18.454 18.9843L19.5756 21.4159C19.6484 21.5738 19.7981 21.6825 19.9708 21.703L22.6299 22.0183C23.0536 22.0685 23.2237 22.5922 22.9105 22.8819L20.9445 24.6999C20.8169 24.818 20.7597 24.9939 20.7936 25.1645L21.3155 27.7909C21.3986 28.2094 20.9531 28.533 20.5808 28.3246L18.2442 27.0167C18.0925 26.9318 17.9075 26.9318 17.7558 27.0167L15.4192 28.3246C15.0469 28.533 14.6014 28.2094 14.6845 27.7909L15.2064 25.1645C15.2403 24.9939 15.1831 24.818 15.0555 24.6999L13.0895 22.8819C12.7763 22.5922 12.9464 22.0685 13.3701 22.0183L16.0292 21.703C16.2019 21.6825 16.3516 21.5738 16.4244 21.4159L17.546 18.9843Z" fill="url(#paint0_linear)"/>
<path d="M85.546 18.9843C85.7247 18.5969 86.2753 18.5969 86.454 18.9843L87.5756 21.4159C87.6484 21.5738 87.7981 21.6825 87.9708 21.703L90.6299 22.0183C91.0536 22.0685 91.2237 22.5922 90.9105 22.8819L88.9445 24.6999C88.8169 24.818 88.7597 24.9939 88.7936 25.1645L89.3155 27.7909C89.3986 28.2094 88.9531 28.533 88.5808 28.3246L86.2442 27.0167C86.0925 26.9318 85.9075 26.9318 85.7558 27.0167L83.4192 28.3246C83.0469 28.533 82.6014 28.2094 82.6845 27.7909L83.2064 25.1645C83.2403 24.9939 83.1831 24.818 83.0555 24.6999L81.0895 22.8819C80.7763 22.5922 80.9464 22.0685 81.3701 22.0183L84.0292 21.703C84.2019 21.6825 84.3516 21.5738 84.4244 21.4159L85.546 18.9843Z" fill="url(#paint1_linear)"/>
<path d="M63.546 8.98433C63.7247 8.5969 64.2753 8.5969 64.454 8.98433L66.1399 12.6392C66.2127 12.7971 66.3623 12.9059 66.535 12.9263L70.532 13.4002C70.9557 13.4505 71.1258 13.9742 70.8126 14.2638L67.8575 16.9966C67.7299 17.1147 67.6727 17.2906 67.7066 17.4611L68.491 21.4089C68.5742 21.8274 68.1287 22.1511 67.7564 21.9427L64.2442 19.9767C64.0925 19.8918 63.9075 19.8918 63.7558 19.9767L60.2436 21.9427C59.8713 22.1511 59.4258 21.8274 59.509 21.4089L60.2934 17.4611C60.3273 17.2906 60.2701 17.1147 60.1425 16.9966L57.1874 14.2638C56.8742 13.9742 57.0443 13.4505 57.468 13.4002L61.465 12.9263C61.6377 12.9059 61.7873 12.7971 61.8601 12.6392L63.546 8.98433Z" fill="url(#paint2_linear)"/>
<path d="M39.546 8.98433C39.7247 8.5969 40.2753 8.5969 40.454 8.98433L42.1399 12.6392C42.2127 12.7971 42.3623 12.9059 42.535 12.9263L46.532 13.4002C46.9557 13.4505 47.1258 13.9742 46.8126 14.2638L43.8575 16.9966C43.7299 17.1147 43.6727 17.2906 43.7066 17.4611L44.491 21.4089C44.5742 21.8274 44.1287 22.1511 43.7564 21.9427L40.2442 19.9767C40.0925 19.8918 39.9075 19.8918 39.7558 19.9767L36.2436 21.9427C35.8713 22.1511 35.4258 21.8274 35.509 21.4089L36.2934 17.4611C36.3273 17.2906 36.2701 17.1147 36.1425 16.9966L33.1874 14.2638C32.8742 13.9742 33.0443 13.4505 33.468 13.4002L37.465 12.9263C37.6377 12.9059 37.7873 12.7971 37.8601 12.6392L39.546 8.98433Z" fill="url(#paint3_linear)"/>
<defs>
<linearGradient id="paint0_linear" x1="1.34204" y1="17.1563" x2="1.34204" y2="35.9063" gradientUnits="userSpaceOnUse">
<stop stop-color="#6F7778"/>
<stop offset="0.232302" stop-color="#EAEAEA"/>
<stop offset="0.489975" stop-color="#949597"/>
<stop offset="0.740374" stop-color="#EFEFEF"/>
<stop offset="1" stop-color="#6F7778"/>
</linearGradient>
<linearGradient id="paint1_linear" x1="69.342" y1="17.1563" x2="69.342" y2="35.9063" gradientUnits="userSpaceOnUse">
<stop stop-color="#6F7778"/>
<stop offset="0.232302" stop-color="#EAEAEA"/>
<stop offset="0.489975" stop-color="#949597"/>
<stop offset="0.740374" stop-color="#EFEFEF"/>
<stop offset="1" stop-color="#6F7778"/>
</linearGradient>
<linearGradient id="paint2_linear" x1="41.7894" y1="6.875" x2="41.7894" y2="31.875" gradientUnits="userSpaceOnUse">
<stop stop-color="#6F7778"/>
<stop offset="0.232302" stop-color="#EAEAEA"/>
<stop offset="0.489975" stop-color="#949597"/>
<stop offset="0.740374" stop-color="#EFEFEF"/>
<stop offset="1" stop-color="#6F7778"/>
</linearGradient>
<linearGradient id="paint3_linear" x1="17.7894" y1="6.875" x2="17.7894" y2="31.875" gradientUnits="userSpaceOnUse">
<stop stop-color="#6F7778"/>
<stop offset="0.232302" stop-color="#EAEAEA"/>
<stop offset="0.489975" stop-color="#949597"/>
<stop offset="0.740374" stop-color="#EFEFEF"/>
<stop offset="1" stop-color="#6F7778"/>
</linearGradient>
</defs>
</svg>
