<?xml version="1.0" encoding="UTF-8"?>
<svg width="28px" height="28px" viewBox="0 0 28 28" version="1.1" xmlns="http://www.w3.org/2000/svg" xmlns:xlink="http://www.w3.org/1999/xlink">
<g stroke="none" stroke-width="1" fill="none" fill-rule="evenodd"><g transform="translate(-1175.000000, -498.000000)" fill="#FFFFFF"><g transform="translate(1175.000000, 498.000000)"><path d="M27.2105455,25.0997239 C27.7792727,25.6672282 27.7792727,26.5845239 27.2105455,27.1520282 C26.9269091,27.4350545 26.5545455,27.5772935 26.1821818,27.5772935 C25.8098182,27.5772935 25.4374545,27.4350545 25.1538182,27.1520282 L13.8185455,15.8411324 L2.48327273,27.1520282 C2.19963636,27.4350545 1.82727273,27.5772935 1.45490909,27.5772935 C1.08254545,27.5772935 0.710181818,27.4350545 0.426545455,27.1520282 C-0.142181818,26.5845239 -0.142181818,25.6672282 0.426545455,25.0997239 L11.7618182,13.7888282 L0.426545455,2.47793236 C-0.142181818,1.91042815 -0.142181818,0.993132356 0.426545455,0.425628152 C0.995272727,-0.141876051 1.91454545,-0.141876051 2.48327273,0.425628152 L13.8185455,11.7365239 L25.1538182,0.425628152 C25.7225455,-0.141876051 26.6418182,-0.141876051 27.2105455,0.425628152 C27.7792727,0.993132356 27.7792727,1.91042815 27.2105455,2.47793236 L15.8752727,13.7888282 L27.2105455,25.0997239 Z"></path></g></g></g>
</svg>