<?xml version="1.0" encoding="UTF-8"?>
<svg width="12px" height="12px" viewBox="0 0 12 12" version="1.1" xmlns="http://www.w3.org/2000/svg" xmlns:xlink="http://www.w3.org/1999/xlink">
    <g id="Symbols" stroke="none" stroke-width="1" fill="none" fill-rule="evenodd">
        <g id="big_header" transform="translate(-16.000000, -50.000000)" fill="#9B9B9B" fill-rule="nonzero">
            <g id="header">
                <g id="summary" transform="translate(16.000000, 48.000000)">
                    <g id="mentions">
                        <g id="icons8-purchase_order" transform="translate(0.000000, 2.000000)">
                            <path d="M1.5,0 C0.6774686,0 0,0.6774686 0,1.5 L0,10.5 C0,11.322531 0.6774686,12 1.5,12 L8.5,12 C9.322531,12 10,11.322531 10,10.5 L10,1.5 C10,0.6774686 9.322531,0 8.5,0 L1.5,0 Z M1.5,1 L8.5,1 C8.781469,1 9,1.2185314 9,1.5 L9,10.5 C9,10.781469 8.781469,11 8.5,11 L1.5,11 C1.2185314,11 1,10.781469 1,10.5 L1,1.5 C1,1.2185314 1.2185314,1 1.5,1 Z M2,3 L2,4 L8,4 L8,3 L2,3 Z M2,6 L2,7 L3,7 L3,6 L2,6 Z M4,6 L4,7 L8,7 L8,6 L4,6 Z M2,8 L2,9 L3,9 L3,8 L2,8 Z M4,8 L4,9 L8,9 L8,8 L4,8 Z" id="Shape"></path>
                        </g>
                    </g>
                </g>
            </g>
        </g>
    </g>
</svg>