<?xml version="1.0" encoding="UTF-8"?>
<svg width="32px" height="32px" viewBox="0 0 32 32" version="1.1" xmlns="http://www.w3.org/2000/svg" xmlns:xlink="http://www.w3.org/1999/xlink">
<g stroke="none" stroke-width="1" fill="none" fill-rule="evenodd"><g transform="translate(-1208.000000, -96.000000)" fill="#FFFFFF" fill-rule="nonzero"><g transform="translate(1200.000000, 88.000000)"><path d="M8,8 L8,19.2 L11.2,19.2 L11.2,13.45 L18.55,20.8 L20.8,18.55 L13.45,11.2 L19.2,11.2 L19.2,8 L8,8 Z M28.8,8 L28.8,11.2 L34.55,11.2 L27.2,18.55 L29.45,20.8 L36.8,13.45 L36.8,19.2 L40,19.2 L40,8 L28.8,8 Z M18.55,27.2 L11.2,34.55 L11.2,28.8 L8,28.8 L8,40 L19.2,40 L19.2,36.8 L13.45,36.8 L20.8,29.45 L18.55,27.2 Z M29.45,27.2 L27.2,29.45 L34.55,36.8 L28.8,36.8 L28.8,40 L40,40 L40,28.8 L36.8,28.8 L36.8,34.55 L29.45,27.2 Z"></path></g></g></g>
</svg>