<?xml version="1.0" encoding="iso-8859-1"?>
<!-- Generator: Adobe Illustrator 19.0.0, SVG Export Plug-In . SVG Version: 6.00 Build 0)  -->
<svg version="1.1" id="Capa_1" xmlns="http://www.w3.org/2000/svg" xmlns:xlink="http://www.w3.org/1999/xlink" x="0px" y="0px"
	 viewBox="0 0 512 512" style="enable-background:new 0 0 512 512;" xml:space="preserve">
<g>
	<g>
		<path d="M469.333,320H448v-42.667c0-23.531-19.146-42.667-42.667-42.667h-128V192h21.333c23.521,0,42.667-19.135,42.667-42.667V64
			c0-23.531-19.146-42.667-42.667-42.667h-85.333c-23.521,0-42.667,19.135-42.667,42.667v85.333
			c0,23.531,19.146,42.667,42.667,42.667h21.333v42.667h-128C83.146,234.667,64,253.802,64,277.333V320H42.667
			C19.146,320,0,339.135,0,362.667V448c0,23.531,19.146,42.667,42.667,42.667H128c23.521,0,42.667-19.135,42.667-42.667v-85.333
			C170.667,339.135,151.521,320,128,320h-21.333v-42.667h298.667V320H384c-23.521,0-42.667,19.135-42.667,42.667V448
			c0,23.531,19.146,42.667,42.667,42.667h85.333C492.854,490.667,512,471.531,512,448v-85.333C512,339.135,492.854,320,469.333,320z
			"/>
	</g>
</g>
<g>
</g>
<g>
</g>
<g>
</g>
<g>
</g>
<g>
</g>
<g>
</g>
<g>
</g>
<g>
</g>
<g>
</g>
<g>
</g>
<g>
</g>
<g>
</g>
<g>
</g>
<g>
</g>
<g>
</g>
</svg>
