<?xml version="1.0" encoding="UTF-8" standalone="no"?>
<svg width="12px" height="11px" viewBox="0 0 12 11" version="1.1" xmlns="http://www.w3.org/2000/svg" xmlns:xlink="http://www.w3.org/1999/xlink"><g stroke="none" stroke-width="1" fill="none" fill-rule="evenodd"><g transform="translate(-775.000000, -139.000000)" fill-rule="nonzero" fill="#CCCCCC"><g transform="translate(208.000000, 134.000000)"><g transform="translate(562.000000, 0.000000)"><path d="M5.5,5 C5.22386906,5.00002761 5.00002761,5.22386906 5,5.5 L5,7.5 C5.00002761,7.77613094 5.22386906,7.99997239 5.5,8 L7.5,8 C7.77613094,7.99997239 7.99997239,7.77613094 8,7.5 L8,5.5 C7.99997239,5.22386906 7.77613094,5.00002761 7.5,5 L5.5,5 Z M6,6 L7,6 L7,7 L6,7 L6,6 Z M10,6 L10,7 L17,7 L17,6 L10,6 Z M5.5,9 C5.22386906,9.00002761 5.00002761,9.22386906 5,9.5 L5,11.5 C5.00002761,11.7761309 5.22386906,11.9999724 5.5,12 L7.5,12 C7.77613094,11.9999724 7.99997239,11.7761309 8,11.5 L8,9.5 C7.99997239,9.22386906 7.77613094,9.00002761 7.5,9 L5.5,9 Z M6,10 L7,10 L7,11 L6,11 L6,10 Z M10,10 L10,11 L17,11 L17,10 L10,10 Z M5.5,13 C5.22386906,13.0000276 5.00002761,13.2238691 5,13.5 L5,15.5 C5.00002761,15.7761309 5.22386906,15.9999724 5.5,16 L7.5,16 C7.77613094,15.9999724 7.99997239,15.7761309 8,15.5 L8,13.5 C7.99997239,13.2238691 7.77613094,13.0000276 7.5,13 L5.5,13 Z M6,14 L7,14 L7,15 L6,15 L6,14 Z M10,14 L10,15 L17,15 L17,14 L10,14 Z"></path></g></g></g></g>
</svg>