<?xml version="1.0" encoding="UTF-8" standalone="no"?>
<svg width="14px" height="11px" viewBox="0 0 14 11" version="1.1" xmlns="http://www.w3.org/2000/svg" xmlns:xlink="http://www.w3.org/1999/xlink"><g stroke="none" stroke-width="1" fill="none" fill-rule="evenodd"><g transform="translate(-752.000000, -139.000000)" fill-rule="nonzero" fill="#4A4A4A"><g transform="translate(208.000000, 134.000000)"><g transform="translate(540.000000, 0.000000)"><path d="M5.5,5 C4.6774686,5 4,5.6774686 4,6.5 L4,14.5 C4,15.322531 4.6774686,16 5.5,16 L16.5,16 C17.322531,16 18,15.322531 18,14.5 L18,6.5 C18,5.6774686 17.322531,5 16.5,5 L5.5,5 Z M5.5,6 L16.5,6 C16.781469,6 17,6.2185314 17,6.5 L17,14.5 C17,14.781469 16.781469,15 16.5,15 L5.5,15 C5.2185314,15 5,14.781469 5,14.5 L5,6.5 C5,6.2185314 5.2185314,6 5.5,6 Z M6.5,7 C6.22385763,7 6,7.22385763 6,7.5 C6,7.77614237 6.22385763,8 6.5,8 C6.77614237,8 7,7.77614237 7,7.5 C7,7.22385763 6.77614237,7 6.5,7 Z M8,7 L8,8 L10,8 L10,7 L8,7 Z M12.5,7 C12.2238576,7 12,7.22385763 12,7.5 C12,7.77614237 12.2238576,8 12.5,8 C12.7761424,8 13,7.77614237 13,7.5 C13,7.22385763 12.7761424,7 12.5,7 Z M14,7 L14,8 L16,8 L16,7 L14,7 Z M6.5,9 C6.22385763,9 6,9.22385763 6,9.5 C6,9.77614237 6.22385763,10 6.5,10 C6.77614237,10 7,9.77614237 7,9.5 C7,9.22385763 6.77614237,9 6.5,9 Z M8,9 L8,10 L10,10 L10,9 L8,9 Z M12.5,9 C12.2238576,9 12,9.22385763 12,9.5 C12,9.77614237 12.2238576,10 12.5,10 C12.7761424,10 13,9.77614237 13,9.5 C13,9.22385763 12.7761424,9 12.5,9 Z M14,9 L14,10 L16,10 L16,9 L14,9 Z M6.5,11 C6.22385763,11 6,11.2238576 6,11.5 C6,11.7761424 6.22385763,12 6.5,12 C6.77614237,12 7,11.7761424 7,11.5 C7,11.2238576 6.77614237,11 6.5,11 Z M8,11 L8,12 L10,12 L10,11 L8,11 Z M12.5,11 C12.2238576,11 12,11.2238576 12,11.5 C12,11.7761424 12.2238576,12 12.5,12 C12.7761424,12 13,11.7761424 13,11.5 C13,11.2238576 12.7761424,11 12.5,11 Z M14,11 L14,12 L16,12 L16,11 L14,11 Z M6.5,13 C6.22385763,13 6,13.2238576 6,13.5 C6,13.7761424 6.22385763,14 6.5,14 C6.77614237,14 7,13.7761424 7,13.5 C7,13.2238576 6.77614237,13 6.5,13 Z M8,13 L8,14 L10,14 L10,13 L8,13 Z M12.5,13 C12.2238576,13 12,13.2238576 12,13.5 C12,13.7761424 12.2238576,14 12.5,14 C12.7761424,14 13,13.7761424 13,13.5 C13,13.2238576 12.7761424,13 12.5,13 Z M14,13 L14,14 L16,14 L16,13 L14,13 Z"></path></g></g></g></g>
</svg>