<svg height="512pt" viewBox="0 0 512.016 512" width="512pt" xmlns="http://www.w3.org/2000/svg"><path d="m154.667969 426.675781h-96c-32.363281 0-58.667969-26.304687-58.667969-58.667969v-309.332031c0-32.363281 26.304688-58.6679685 58.667969-58.6679685h314.664062c32.363281 0 58.667969 26.3046875 58.667969 58.6679685v96c0 8.832031-7.167969 16-16 16s-16-7.167969-16-16v-96c0-14.699219-11.96875-26.667969-26.667969-26.667969h-314.664062c-14.699219 0-26.667969 11.96875-26.667969 26.667969v309.332031c0 14.699219 11.96875 26.667969 26.667969 26.667969h96c8.832031 0 16 7.167969 16 16s-7.167969 16-16 16zm0 0"/><path d="m320 448.007812c-70.59375 0-128-57.40625-128-128s57.40625-128 128-128 128 57.40625 128 128-57.40625 128-128 128zm0-224c-52.929688 0-96 43.070313-96 96 0 52.929688 43.070312 96 96 96s96-43.070312 96-96c0-52.929687-43.070312-96-96-96zm0 0"/><path d="m496 512.007812c-4.097656 0-8.191406-1.558593-11.308594-4.691406l-96.851562-96.855468c-6.25-6.25-6.25-16.382813 0-22.632813 6.25-6.253906 16.382812-6.253906 22.636718 0l96.851563 96.851563c6.25 6.25 6.25 16.382812 0 22.636718-3.136719 3.132813-7.230469 4.691406-11.328125 4.691406zm0 0"/></svg>