<?xml version="1.0" encoding="UTF-8"?>
<svg width="20px" height="18px" viewBox="0 0 20 18" version="1.1" xmlns="http://www.w3.org/2000/svg" xmlns:xlink="http://www.w3.org/1999/xlink">
<g stroke="none" stroke-width="1" fill="none" fill-rule="evenodd"><g transform="translate(-1062.000000, -949.000000)" fill="#9B9B9B" fill-rule="nonzero"><g transform="translate(400.000000, 588.000000)"><g transform="translate(448.000000, -170.000000)"><gtransform="translate(8.000000, 412.000000)"><gtransform="translate(192.000000, 104.000000)"><g transform="translate(14.000000, 15.000000)"><path d="M7,0 L5,2 L2,2 C0.898438,2 0,2.898438 0,4 L0,16 C0,17.101563 0.898438,18 2,18 L18,18 C19.101563,18 20,17.101563 20,16 L20,4 C20,2.898438 19.101563,2 18,2 L15,2 L13,0 L7,0 Z M10,5 C12.800781,5 15,7.199219 15,10 C15,12.800781 12.800781,15 10,15 C7.199219,15 5,12.800781 5,10 C5,7.199219 7.199219,5 10,5 Z M10,6.5 C8.066406,6.5 6.5,8.066406 6.5,10 C6.5,11.933594 8.066406,13.5 10,13.5 C11.933594,13.5 13.5,11.933594 13.5,10 C13.5,8.066406 11.933594,6.5 10,6.5 Z"></path></g></g></g></g></g></g></g>
</svg>