<?xml version="1.0" encoding="UTF-8"?>
<svg width="26px" height="20px" viewBox="0 0 26 20" version="1.1" xmlns="http://www.w3.org/2000/svg" xmlns:xlink="http://www.w3.org/1999/xlink">
<g stroke="none" stroke-width="1" fill="none" fill-rule="evenodd"><g transform="translate(-488.000000, -658.000000)" fill="#9B9B9B" fill-rule="nonzero"><g transform="translate(440.000000, 128.000000)"><g transform="translate(32.000000, 516.000000)"><g transform="translate(16.000000, 14.000000)"><path d="M10.236328,0 C9.478328,0 8.786266,0.4274688 8.447266,1.1054688 L8.052734,1.8945312 C7.7137344,2.5715313 7.0206719,3 6.2636719,3 L2,3 C0.895,3 0,3.895 0,5 L0,18 C0,19.105 0.895,20 2,20 L24,20 C25.105,20 26,19.105 26,18 L26,5 C26,3.895 25.105,3 24,3 L19.736328,3 C18.978328,3 18.286266,2.5725312 17.947266,1.8945312 L17.552734,1.1054688 C17.213734,0.4284687 16.520672,0 15.763672,0 L10.236328,0 Z M4,1 C3.448,1 3,1.448 3,2 L6,2 C6,1.448 5.552,1 5,1 L4,1 Z M13,4 C16.86,4 20,7.14 20,11 C20,14.86 16.86,18 13,18 C9.14,18 6,14.86 6,11 C6,7.14 9.14,4 13,4 Z M22,5 C22.552,5 23,5.448 23,6 C23,6.552 22.552,7 22,7 C21.448,7 21,6.552 21,6 C21,5.448 21.448,5 22,5 Z M13,6 C10.2385763,6 8,8.23857625 8,11 C8,13.7614237 10.2385763,16 13,16 C15.7614237,16 18,13.7614237 18,11 C18,8.23857625 15.7614237,6 13,6 Z" id="Shape"></path></g></g></g></g></g>
</svg>