<?xml version="1.0" encoding="UTF-8" standalone="no"?>
<svg width="16px" height="14px" viewBox="0 0 16 14" version="1.1" xmlns="http://www.w3.org/2000/svg" xmlns:xlink="http://www.w3.org/1999/xlink">
<g stroke="none" stroke-width="1" fill="none" fill-rule="evenodd"><g transform="translate(-560.000000, -1963.000000)" fill-rule="nonzero" fill="#9B9B9B"><g transform="translate(0.000000, 704.000000)"><g transform="translate(0.000000, 688.000000)"><g transform="translate(424.000000, 88.000000)"><g transform="translate(0.000000, 40.000000)"><g transform="translate(0.000000, 334.000000)"><g transform="translate(136.000000, 108.000000)"><g transform="translate(0.000000, 1.000000)"><path d="M14.4,1.55555556 L12,1.55555556 L10.4,0 L5.6,0 L4,1.55555556 L1.6,1.55555556 C0.72,1.55555556 0,2.25555556 0,3.11111111 L0,12.4444444 C0,13.3 0.72,14 1.6,14 L14.4,14 C15.28,14 16,13.3 16,12.4444444 L16,3.11111111 C16,2.25555556 15.28,1.55555556 14.4,1.55555556 Z M12,8.55555556 L8.8,8.55555556 L8.8,11.6666667 L7.2,11.6666667 L7.2,8.55555556 L4,8.55555556 L4,7 L7.2,7 L7.2,3.88888889 L8.8,3.88888889 L8.8,7 L12,7 L12,8.55555556 Z"></path></g></g></g></g></g></g></g></g></g>
</svg>