<?xml version="1.0" encoding="UTF-8"?>
<svg width="22px" height="20px" viewBox="0 0 22 20" version="1.1" xmlns="http://www.w3.org/2000/svg" xmlns:xlink="http://www.w3.org/1999/xlink">
<g stroke="none" stroke-width="1" fill="none" fill-rule="evenodd"><path d="M1.83333333,0 C0.820416667,0 0,0.813636364 0,1.81818182 L0,9.09090909 C0,10.0954545 0.820416667,10.9090909 1.83333333,10.9090909 L5.53759763,10.9090909 C5.56045197,12.5329318 5.40028234,16.0123773 3.81526695,18.59375 C3.81584491,18.5938382 3.81647906,18.5936627 3.81705729,18.59375 C3.57564231,18.9629064 3.63532833,19.4505168 3.95879231,19.7516672 C4.2822563,20.0528176 4.77671642,20.0811266 5.13297528,19.8188918 C5.13297528,19.8188918 9.16666667,16.7676764 9.16666667,10.9090909 L9.16666667,1.81818182 C9.16666667,0.813636364 8.34625,0 7.33333333,0 L1.83333333,0 Z M14.6666667,0 C13.65375,0 12.8333333,0.813636364 12.8333333,1.81818182 L12.8333333,9.09090909 C12.8333333,10.0954545 13.65375,10.9090909 14.6666667,10.9090909 L18.3709313,10.9090909 C18.3937857,12.5329318 18.2336156,16.0123773 16.6485999,18.59375 C16.6485999,18.59375 16.6503902,18.59375 16.6503902,18.59375 C16.4089745,18.9629063 16.4686603,19.4505173 16.7921245,19.751668 C17.1155888,20.0528186 17.6100494,20.0811273 17.9663083,19.8188918 C17.9663083,19.8188918 22,16.7676764 22,10.9090909 L22,1.81818182 C22,0.813636364 21.1795833,0 20.1666667,0 L14.6666667,0 Z" fill="#4A4A4A" fill-rule="nonzero"></path></g>
</svg>