<?xml version="1.0" encoding="UTF-8"?>
<svg width="24px" height="24px" viewBox="0 0 24 24" version="1.1" xmlns="http://www.w3.org/2000/svg" xmlns:xlink="http://www.w3.org/1999/xlink">
<g stroke="none" stroke-width="1" fill="none" fill-rule="evenodd"><g transform="translate(-608.000000, -172.000000)" fill="#9B9B9B"><g transform="translate(256.000000, 128.000000)"><g transform="translate(340.000000, 32.000000)"><g transform="translate(12.000000, 12.000000)"><path d="M10.052356,0 C4.52440662,0 0,4.500842 0,10 C0,15.499158 4.52440662,20 10.052356,20 C12.0439127,20 13.889091,19.442088 15.4554974,18.4375 L21.2356021,24 L24,21.125 L18.3455497,15.625 C19.4624027,14.014262 20.104712,12.093174 20.104712,10 C20.104712,4.500842 15.5803054,0 10.052356,0 Z M10.052356,4 C13.4072273,4 16.0837696,6.662602 16.0837696,10 C16.0837696,13.337398 13.4072273,16 10.052356,16 C6.69748473,16 4.02094241,13.337398 4.02094241,10 C4.02094241,6.662602 6.69748473,4 10.052356,4 Z"></path></g></g></g></g></g>
</svg>