<?xml version="1.0" encoding="UTF-8"?>
<svg width="4px" height="16px" viewBox="0 0 4 16" version="1.1" xmlns="http://www.w3.org/2000/svg" xmlns:xlink="http://www.w3.org/1999/xlink">
<g stroke="none" stroke-width="1" fill="none" fill-rule="evenodd"><g transform="translate(-350.000000, -488.000000)" fill="#9B9B9B" fill-rule="nonzero"><g transform="translate(64.000000, 480.000000)"><g transform="translate(272.000000, 0.000000)"><g transform="translate(14.000000, 8.000000)"><path d="M2,0 C0.895431,0 0,0.8954305 0,2 C0,3.1045695 0.895431,4 2,4 C3.104569,4 4,3.1045695 4,2 C4,0.8954305 3.104569,0 2,0 Z M2,6 C0.895431,6 0,6.895431 0,8 C0,9.104569 0.895431,10 2,10 C3.104569,10 4,9.104569 4,8 C4,6.895431 3.104569,6 2,6 Z M2,12 C0.895431,12 0,12.895431 0,14 C0,15.104569 0.895431,16 2,16 C3.104569,16 4,15.104569 4,14 C4,12.895431 3.104569,12 2,12 Z"></path></g></g></g></g></g>
</svg>