<?xml version="1.0" encoding="UTF-8" standalone="no"?>
<svg width="15px" height="16px" viewBox="0 0 15 16" version="1.1" xmlns="http://www.w3.org/2000/svg" xmlns:xlink="http://www.w3.org/1999/xlink">
<g stroke="none" stroke-width="1" fill="none" fill-rule="evenodd"><g transform="translate(-541.000000, -420.000000)" fill-rule="nonzero" fill="#9B9B9B"><g transform="translate(200.000000, 168.000000)"><g transform="translate(64.000000, 120.000000)"><g transform="translate(8.000000, 48.000000)"><g transform="translate(265.000000, 80.000000)"><g transform="translate(4.000000, 4.000000)"><path d="M12,0 C10.6745168,0 9.6,1.07451664 9.6,2.4 C9.6,2.55706072 9.621196,2.70135688 9.65,2.85 L3.95,6.175 C3.53133224,5.81907488 2.99256904,5.6 2.4,5.6 C1.07451664,5.6 0,6.6745168 0,8 C0,9.3254832 1.07451664,10.4 2.4,10.4 C2.99256904,10.4 3.53133224,10.1809248 3.95,9.825 L9.65,13.15 C9.621196,13.2986432 9.6,13.4429392 9.6,13.6 C9.6,14.9254832 10.6745168,16 12,16 C13.3254832,16 14.4,14.9254832 14.4,13.6 C14.4,12.2745168 13.3254832,11.2 12,11.2 C11.4074312,11.2 10.868668,11.4190752 10.45,11.775 L4.75,8.45 C4.7788036,8.3013568 4.8,8.1570608 4.8,8 C4.8,7.8429392 4.7788036,7.6986432 4.75,7.55 L10.45,4.225 C10.868668,4.58092512 11.4074312,4.8 12,4.8 C13.3254832,4.8 14.4,3.72548336 14.4,2.4 C14.4,1.07451664 13.3254832,0 12,0 Z"></path></g></g></g></g></g></g></g>
</svg>