<?xml version="1.0" encoding="iso-8859-1"?>
<svg version="1.1" xmlns="http://www.w3.org/2000/svg" xmlns:xlink="http://www.w3.org/1999/xlink" x="0px" y="0px"
	 width="516.375px" height="516.375px" viewBox="0 0 516.375 516.375" style="enable-background:new 0 0 516.375 516.375;"
	 xml:space="preserve">
<g>
<path d="M162.562,76.5c-26.775,0-47.812,21.038-47.812,47.812s21.038,47.812,47.812,47.812s47.812-21.038,47.812-47.812
	S189.337,76.5,162.562,76.5z M162.562,153c-15.3,0-28.688-13.388-28.688-28.688s13.388-28.688,28.688-28.688
	s28.688,13.388,28.688,28.688S177.862,153,162.562,153z"/>
<path d="M504.9,275.4L248.625,19.125h-153c-13.388,0-26.775,7.65-32.513,19.125H38.25C17.212,38.25,0,55.462,0,76.5v153
	l256.275,256.275c15.3,15.3,40.162,15.3,53.55,0l13.388-13.388c15.3,7.649,32.512,5.737,43.987-5.737l137.7-137.7
	C520.2,313.65,520.2,290.7,504.9,275.4z M296.438,472.388c-7.65,7.649-19.125,7.649-26.775,0L19.125,219.938V76.5
	c0-11.475,9.562-19.125,19.125-19.125h19.125v153l250.537,250.537L296.438,472.388z M491.513,315.562l-137.7,137.7
	c-7.65,7.649-19.125,7.649-26.775,0L76.5,200.812V57.375c0-11.475,9.562-19.125,19.125-19.125h143.438l252.45,250.537
	C499.162,294.525,499.162,307.912,491.513,315.562z"/>
</g>
</svg>
