<svg height="512" viewBox="0 0 192 192" width="512" xmlns="http://www.w3.org/2000/svg"><path d="m187.831 120.977-26.776-14.605c5.883-8.464 6.945-14.223 6.945-18.372v-64a8 8 0 0 0 -8-8c-22.165 0-60.644-15.274-61.03-15.428a8 8 0 0 0 -5.941 0c-.385.155-38.829 15.428-61.029 15.428a8 8 0 0 0 -8 8v64c0 4.149 1.062 9.908 6.945 18.372l-26.776 14.605a8 8 0 0 0 1.3 14.612l15.25 5.083-11.874 23.75a8 8 0 0 0 10.733 10.733l55.679-27.839c9.144 6.7 15.967 11.122 16.4 11.4a8.066 8.066 0 0 0 8.686 0c.416-.269 6.734-4.366 15.343-10.63l48.429 26.905a8.068 8.068 0 0 0 11.646-8.933l-6.2-24.813 16.972-5.658a8 8 0 0 0 1.3-14.612zm-91.831 31.023a385.37 385.37 0 0 1 -32-23.515c-21.233-17.48-32-31.101-32-40.485v-64c23.729 0 62.367-15.347 64-16 1.641.655 40.37 16 64 16v64c0 9.384-10.767 23-32 40.485a385.115 385.115 0 0 1 -32 23.515z"/><path d="m152 88v-56.441c-20.92-2.14-46.875-11.491-56-14.974-9.116 3.485-35.056 12.837-56 14.976v56.439c0 2.432 2.1 12.092 29.083 34.309 10.679 8.79 21.211 16.2 26.918 20.077 5.7-3.874 16.221-11.274 26.914-20.077 26.985-22.217 29.085-31.877 29.085-34.309zm-48 16h-16v-36.687l-10.343 10.344-11.314-11.314 24-24c4.941-4.937 13.657-1.308 13.657 5.657z"/></svg>