<?xml version="1.0" encoding="UTF-8" standalone="no"?>
<svg width="16px" height="12px" viewBox="0 0 16 12" version="1.1" xmlns="http://www.w3.org/2000/svg" xmlns:xlink="http://www.w3.org/1999/xlink">
<g stroke="none" stroke-width="1" fill="none" fill-rule="evenodd"><g transform="translate(-716.000000, -1964.000000)" fill-rule="nonzero" fill="#9B9B9B"><g transform="translate(0.000000, 704.000000)"><g transform="translate(0.000000, 688.000000)"><g transform="translate(424.000000, 88.000000)"><g transform="translate(0.000000, 40.000000)"><g transform="translate(0.000000, 334.000000)"><g transform="translate(292.000000, 108.000000)"><g transform="translate(0.000000, 2.000000)"><path d="M8,0 C10.3176,0 12.3754,0.244125 13.625,0.421875 C14.6578,0.568875 15.4854,1.3153125 15.675,2.3203125 C15.8374,3.1768125 16,4.43625 16,6 C16,7.563 15.8366,8.8231875 15.675,9.6796875 C15.4854,10.6854375 14.6586,11.431875 13.625,11.578125 C12.3706,11.755875 10.3056,12 8,12 C5.6944,12 3.6286,11.755875 2.375,11.578125 C1.3422,11.431875 0.5154,10.6846875 0.325,9.6796875 C0.1626,8.8239375 0,7.56675 0,6 C0,4.4325 0.1626,3.1760625 0.325,2.3203125 C0.5146,1.3153125 1.3422,0.568875 2.375,0.421875 C3.6246,0.244125 5.6816,0 8,0 Z M5.6,3 L5.6,9 L11.2,6 L5.6,3 Z"></path></g></g></g></g></g></g></g></g></g></svg>