<?xml version="1.0" encoding="UTF-8"?>
<svg width="18px" height="18px" viewBox="0 0 18 18" version="1.1" xmlns="http://www.w3.org/2000/svg" xmlns:xlink="http://www.w3.org/1999/xlink">
<g stroke="none" stroke-width="1" fill="none" fill-rule="evenodd"><g transform="translate(-1119.000000, -949.000000)" fill="#9B9B9B" fill-rule="nonzero"><g transform="translate(400.000000, 588.000000)"><g transform="translate(448.000000, -170.000000)"><g transform="translate(8.000000, 412.000000)"><g transform="translate(248.000000, 104.000000)"><g transform="translate(15.000000, 15.000000)"><path d="M16.1052632,0 L16.1052632,0.9 L14.2105263,0.9 L14.2105263,0 L3.78947368,0 L3.78947368,0.9 L1.89473684,0.9 L1.89473684,0 L0,0 L0,18 L1.89473684,18 L1.89473684,17.1 L3.78947368,17.1 L3.78947368,18 L14.2105263,18 L14.2105263,17.1 L16.1052632,17.1 L16.1052632,18 L18,18 L18,0 L16.1052632,0 Z M3.78947368,14.4 L1.89473684,14.4 L1.89473684,12.6 L3.78947368,12.6 L3.78947368,14.4 Z M3.78947368,9.9 L1.89473684,9.9 L1.89473684,8.1 L3.78947368,8.1 L3.78947368,9.9 Z M3.78947368,5.4 L1.89473684,5.4 L1.89473684,3.6 L3.78947368,3.6 L3.78947368,5.4 Z M16.1052632,14.4 L14.2105263,14.4 L14.2105263,12.6 L16.1052632,12.6 L16.1052632,14.4 Z M16.1052632,9.9 L14.2105263,9.9 L14.2105263,8.1 L16.1052632,8.1 L16.1052632,9.9 Z M16.1052632,5.4 L14.2105263,5.4 L14.2105263,3.6 L16.1052632,3.6 L16.1052632,5.4 Z"></path></g></g></g></g></g></g></g>
</svg>