<?xml version="1.0" encoding="UTF-8"?>
<svg width="216px" height="48px" viewBox="0 0 216 48" version="1.1" xmlns="http://www.w3.org/2000/svg" xmlns:xlink="http://www.w3.org/1999/xlink">
    <!-- Generator: Sketch 53.2 (72643) - https://sketchapp.com -->
    <title>logo-ecosystem</title>
    <desc>Created with Sketch.</desc>
    <g id="Page-1" stroke="none" stroke-width="1" fill="none" fill-rule="evenodd">
        <g id="logo-ecosystem" fill-rule="nonzero">
            <path d="M66.1574994,11.8872591 L63.8182816,23.5504644 L59.6644762,23.5504644 L55.2476871,7.155399 L59.2820355,6.6056393 L61.8369891,19.3679177 L64.2952182,7.059905 L67.876254,6.6056393 L70.5979125,19.3679177 L72.8898823,6.6056393 L76.7334561,6.9880614 L72.555581,23.5504644 L68.5689263,23.5504644 L66.1574994,11.8872591 Z M84.9937298,23.5503305 L84.9937298,16.595335 C84.9937298,14.4449357 84.5640412,13.4886573 83.2032119,13.4886573 C81.9618397,13.4886573 81.412694,13.9902238 80.8635484,14.9701526 L80.8635484,23.5503305 L77.3783456,23.5503305 L77.3783456,6.82059 L80.8635484,6.3904209 L80.8635484,12.3891379 C81.5085271,11.1463776 82.5827486,10.6443649 84.3251271,10.6443649 C88.0015502,10.6443649 88.4789325,13.5364043 88.4789325,16.1178651 L88.4789325,23.5503305 L84.9937298,23.5503305 Z M98.434159,23.8132067 C98.19569,23.2157 97.9804,22.5704463 97.837319,21.948843 C97.145093,23.120206 96.070871,23.8373033 94.184966,23.8373033 C91.0099947,23.8373033 89.7681767,22.3076148 89.7681767,19.9416847 C89.7681767,17.4798144 91.248463,16.1652105 97.336313,15.806885 C97.24048,13.9902684 96.333409,13.5364489 94.948956,13.5364489 C93.755277,13.5364489 92.561599,13.8470274 91.4633073,14.3967871 L90.4131554,11.8398691 C91.9170656,10.9790847 93.612196,10.6444095 95.498101,10.6444095 C98.816153,10.6444095 100.821516,12.6047133 100.821516,15.6158971 L100.821516,18.723021 C100.821516,20.1804196 100.845585,21.7101081 101.155817,23.1443026 L98.434159,23.8132067 Z M97.336313,18.1014177 C94.328047,18.2687553 93.253825,18.7944184 93.253825,19.8216479 C93.253825,20.7538297 93.707138,21.1366981 95.067967,21.1366981 C96.262091,21.1366981 96.858931,20.4909982 97.336313,19.4637686 L97.336313,18.1014177 Z M106.312393,24.0763059 C103.972729,22.761702 103.638874,20.1565908 103.638874,17.7665641 L103.638874,13.51262 L101.800662,13.51262 L101.800662,10.9311592 L103.638874,10.9311592 L103.638874,7.3465654 L107.124076,6.9163963 L107.124076,10.9311592 L109.726278,10.9311592 L109.416046,13.51262 L107.124076,13.51262 L107.124076,17.8384077 C107.124076,19.7505183 107.482002,21.1606162 108.652056,22.4506773 L106.312393,24.0763059 Z M114.527157,21.1365642 C115.529615,21.1365642 116.222287,20.8737327 116.222287,20.085238 C116.222287,19.2722006 115.291147,19.009369 114.097468,18.6510435 C112.211563,18.1012839 109.943663,17.4082832 109.943663,14.5403404 C109.943663,12.1266634 111.900886,10.6442757 114.551226,10.6442757 C116.222287,10.6442757 117.702128,10.8357098 119.134721,11.6964943 L118.17951,14.1574721 C117.153428,13.6800022 116.126454,13.4408211 114.885082,13.4408211 C114.001635,13.4408211 113.285785,13.7036526 113.285785,14.4921472 C113.285785,15.2810881 114.168786,15.5439196 115.505545,15.9263417 C117.46366,16.4761014 119.611657,17.1931987 119.611657,19.8938039 C119.611657,22.5703125 117.773891,23.8371694 114.861458,23.8371694 C112.688945,23.8371694 111.041954,23.4547473 109.681125,22.6421561 L110.588196,20.1566354 C111.900886,20.7777924 113.285785,21.1365642 114.527157,21.1365642 Z M120.75782,7.2032352 C122.237661,6.8685601 124.195329,6.5338849 126.033541,6.5338849 C129.49512,6.5338849 132.717784,7.5615607 132.717784,11.408986 C132.717784,13.3929402 131.548176,14.7075441 130.044265,14.9944723 C131.572245,15.1618098 133.481774,16.2849796 133.481774,18.8423438 C133.481774,22.1163591 131.524106,23.5501074 127.442064,23.5501074 L120.75782,23.5501074 L120.75782,7.2032352 Z M125.86639,20.6585142 C128.587603,20.6585142 129.66227,20.3238391 129.66227,18.5554157 C129.66227,16.8347393 128.635742,16.4518709 126.63038,16.4518709 L124.410174,16.4518709 L124.410174,20.6585142 L125.86639,20.6585142 Z M126.224761,13.7994589 C128.014833,13.7994589 129.184442,13.6798684 129.184442,11.6963604 C129.184442,10.0229847 127.824059,9.4736713 126.391912,9.4736713 C125.69924,9.4736713 125.007013,9.5455149 124.410174,9.6646592 L124.410174,13.7994589 L126.224761,13.7994589 Z M140.190444,23.837214 C136.34687,23.837214 134.150288,22.2120316 134.150288,17.2887373 C134.150288,12.1981054 136.394564,10.6443203 139.832073,10.6443203 C143.222334,10.6443203 145.251321,11.9352738 145.251321,18.1013285 L137.755393,18.8898231 C137.970238,20.4190653 138.686534,21.0170182 140.142751,21.0170182 C141.455886,21.0170182 142.625495,20.7537405 143.842798,20.0370894 L144.893395,22.4507665 C143.532566,23.3829483 142.028656,23.837214 140.190444,23.837214 Z M141.861505,16.0218803 C141.813811,14.1575167 141.121585,13.4408657 139.832073,13.4408657 C138.376302,13.4408657 137.612312,14.3489509 137.612312,16.3324588 L137.612312,16.6912306 L141.861505,16.0218803 Z M159.695277,13.5127093 L157.403307,13.5127093 L157.403307,17.8380507 C157.403307,19.7506075 157.761233,21.1607054 158.931287,22.4507665 L156.591624,24.0763952 C154.25196,22.7617913 153.917659,20.15668 153.917659,17.7666533 L153.917659,13.5127093 L151.124683,13.5127093 L151.124683,17.8380507 C151.124683,19.7506075 151.482608,21.1607054 152.652663,22.4507665 L150.312999,24.0763952 C147.973336,22.7617913 147.639034,20.15668 147.639034,17.7666533 L147.639034,13.5127093 L145.800823,13.5127093 L145.800823,10.9312484 L147.639034,10.9312484 L147.639034,7.3466546 L151.124683,6.9164855 L151.124683,10.9312484 L153.917659,10.9312484 L153.917659,7.3466546 L157.403307,6.9164855 L157.403307,10.9312484 L160.005509,10.9312484 L159.695277,13.5127093 Z M166.033497,23.837214 C162.189923,23.837214 159.99334,22.2120316 159.99334,17.2887373 C159.99334,12.1981054 162.237617,10.6443203 165.675126,10.6443203 C169.065387,10.6443203 171.094373,11.9352738 171.094373,18.1013285 L163.598446,18.8898231 C163.81329,20.4190653 164.529586,21.0170182 165.985803,21.0170182 C167.298939,21.0170182 168.468547,20.7537405 169.68585,20.0370894 L170.736448,22.4507665 C169.375618,23.3829483 167.871708,23.837214 166.033497,23.837214 Z M167.704558,16.0218803 C167.656864,14.1575167 166.964637,13.4408657 165.675126,13.4408657 C164.219355,13.4408657 163.455365,14.3489509 163.455365,16.3324588 L163.455365,16.6912306 L167.704558,16.0218803 Z M172.503163,23.5503305 L172.503163,15.7590934 C172.503163,14.3008023 172.479094,12.7715601 172.168862,11.3378118 L174.890075,10.6684615 C175.176682,11.3619084 175.439666,12.150403 175.630441,12.8911506 C176.274974,11.7197877 177.325126,10.8357991 179.28324,10.6443649 L179.736998,14.2775981 L179.378627,14.2775981 C177.659427,14.2775981 176.681038,14.802815 175.988366,16.1410693 L175.988366,23.5503305 L172.503163,23.5503305 Z M179.139579,21.6381307 C179.139579,20.2525756 179.8795,19.5350321 181.264399,19.5350321 C182.648852,19.5350321 183.388772,20.2525756 183.388772,21.6381307 C183.388772,23.0241319 182.648852,23.7416754 181.264399,23.7416754 C179.8795,23.7416754 179.139579,23.0241319 179.139579,21.6381307 Z M200.123941,23.5503305 L200.123941,16.595335 C200.123941,14.4449357 199.718322,13.4886573 198.405632,13.4886573 C197.211954,13.4886573 196.686432,13.9902238 196.16091,14.9701526 L196.16091,23.5503305 L192.675707,23.5503305 L192.675707,15.3530209 C192.675707,14.2294049 192.102938,13.4886573 190.956953,13.4886573 C189.763274,13.4886573 189.238198,13.9902238 188.712677,14.9701526 L188.712677,23.5503305 L185.227474,23.5503305 L185.227474,15.7590934 C185.227474,14.3008023 185.203404,12.7715601 184.893173,11.3378118 L187.614831,10.6684615 C187.853745,11.2659682 188.068144,11.9112218 188.211225,12.5328251 C188.879827,11.3619084 189.930425,10.6443649 191.81633,10.6443649 C193.941149,10.6443649 195.063065,11.4810527 195.61221,12.6278729 C196.280813,11.3619084 197.378659,10.6443649 199.264564,10.6443649 C203.275288,10.6443649 203.609589,13.5364043 203.609589,16.1178651 L203.609589,23.5503305 L200.123941,23.5503305 Z M210.939124,23.837214 C207.09555,23.837214 204.898967,22.2120316 204.898967,17.2887373 C204.898967,12.1981054 207.143244,10.6443203 210.580753,10.6443203 C213.971014,10.6443203 216,11.9352738 216,18.1013285 L208.504073,18.8898231 C208.718917,20.4190653 209.435213,21.0170182 210.89143,21.0170182 C212.204566,21.0170182 213.374175,20.7537405 214.591477,20.0370894 L215.642075,22.4507665 C214.281245,23.3829483 212.777335,23.837214 210.939124,23.837214 Z M212.610185,16.0218803 C212.562491,14.1575167 211.870264,13.4408657 210.580753,13.4408657 C209.124982,13.4408657 208.360992,14.3489509 208.360992,16.3324588 L208.360992,16.6912306 L212.610185,16.0218803 Z M0,24.0006694 C0,10.7453029 10.7333012,0 23.9725251,0 C37.2130862,0 47.9463873,10.7453029 47.9463873,24.0006694 C47.9463873,37.2551433 37.2130862,48 23.9725251,48 C10.7333012,48 0,37.2551433 0,24.0006694 Z M34.3902458,21.8917698 L34.8297406,18.2795095 L31.1435113,18.2795095 L31.1435113,12.6605372 L26.2056579,13.2625062 L26.2056579,18.2795095 L20.6553645,18.2795095 L20.6553645,12.6605372 L15.717511,13.2625062 L15.717511,18.2795095 L13.1139723,18.2795095 L13.1139723,21.8917698 L15.717511,21.8917698 L15.717511,27.8454173 C15.717511,31.1899374 16.1913274,34.8361114 19.5058136,36.6759322 L22.8198541,34.40148 C21.1630567,32.5951268 20.6553645,30.6209897 20.6553645,27.9453736 L20.6553645,21.8917698 L26.2056579,21.8917698 L26.2056579,27.8454173 C26.2056579,31.1899374 26.67992,34.8361114 29.9939605,36.6759322 L33.308001,34.40148 C31.6507579,32.5951268 31.1435113,30.6209897 31.1435113,27.9453736 L31.1435113,21.8917698 L34.3902458,21.8917698 Z" id="Combined-Shape" fill="#000000"></path>
            <g id="Group">
                <ellipse id="Oval" fill="#000000" cx="24.0254507" cy="24" rx="24.0254507" ry="24"></ellipse>
                <path d="M25.1766702,17.88 L26.7783669,17.88 L26.7783669,11.88 L32.6245599,11.16 L32.6245599,17.88 L36.9891835,17.88 L36.468632,22.2 L32.6245599,22.2 L32.6245599,29.44 C32.6245599,32.64 33.2251962,35 35.1872747,37.16 L31.2631177,39.88 C27.3389608,37.68 26.7783669,33.32 26.7783669,29.32 L26.7783669,22.2 L24.6561188,22.2 L20.8120467,22.2 L20.8120467,29.44 C20.8120467,32.64 21.4126829,35 23.3747614,37.16 L19.4506045,39.88 C15.5264475,37.68 14.9658537,33.32 14.9658537,29.32 L14.9658537,22.2 L11.8825875,22.2 L11.8825875,17.88 L14.9658537,17.88 L14.9658537,11.88 L20.8120467,11.16 L20.8120467,17.88 L25.1766702,17.88 Z" id="Path" fill="#FFFFFF"></path>
            </g>
            <path d="M58.97,32.445 C59.3950021,32.0249979 59.9137469,31.6850013 60.52625,31.425 C61.1387531,31.1649987 61.839996,31.035 62.63,31.035 C63.425004,31.035 64.1512467,31.1712486 64.80875,31.44375 C65.4662533,31.7162514 66.0312476,32.0974975 66.50375,32.5875 C66.9762524,33.0775024 67.3424987,33.6612466 67.6025,34.33875 C67.8625013,35.0162534 67.9925,35.7624959 67.9925,36.5775 C67.9925,37.382504 67.8700012,38.1249966 67.625,38.805 C67.3799988,39.4850034 67.0312523,40.0699976 66.57875,40.56 C66.1262477,41.0500025 65.5775032,41.4324986 64.9325,41.7075 C64.2874968,41.9825014 63.565004,42.12 62.765,42.12 C61.8699955,42.12 61.0987532,41.9750015 60.45125,41.685 C59.8037468,41.3949985 59.2600022,40.9775027 58.82,40.4325 L59.6225,39.57 C59.7025004,39.4849996 59.7974994,39.4425 59.9075,39.4425 C60.0175005,39.4425 60.1299994,39.4924995 60.245,39.5925 C60.4100008,39.7425008 60.5762492,39.8687495 60.74375,39.97125 C60.9112508,40.0737505 61.0887491,40.1574997 61.27625,40.2225 C61.4637509,40.2875003 61.6687489,40.3349999 61.89125,40.365 C62.1137511,40.3950002 62.3624986,40.41 62.6375,40.41 C63.0525021,40.41 63.4437482,40.3400007 63.81125,40.2 C64.1787518,40.0599993 64.5062486,39.8550014 64.79375,39.585 C65.0812514,39.3149986 65.321249,38.983752 65.51375,38.59125 C65.706251,38.198748 65.8324997,37.7500025 65.8925,37.245 L60.8675,37.245 L60.8675,35.745 L65.87,35.745 C65.7999996,35.2699976 65.6725009,34.8462519 65.4875,34.47375 C65.3024991,34.1012481 65.0700014,33.7875013 64.79,33.5325 C64.5099986,33.2774987 64.1887518,33.0837507 63.82625,32.95125 C63.4637482,32.8187493 63.0700021,32.7525 62.645,32.7525 C62.2149978,32.7525 61.8600014,32.7974995 61.58,32.8875 C61.2999986,32.9775005 61.0662509,33.0749995 60.87875,33.18 C60.6912491,33.2850005 60.5350006,33.3824995 60.41,33.4725 C60.2849994,33.5625005 60.1675005,33.6075 60.0575,33.6075 C59.9474994,33.6075 59.8612503,33.5850002 59.79875,33.54 C59.7362497,33.4949998 59.6825002,33.4425003 59.6375,33.3825 L58.97,32.445 Z M74.075,34.7925 C74.1650004,34.6474993 74.2874992,34.5300005 74.4425,34.44 C74.5975008,34.3499995 74.7624991,34.305 74.9375,34.305 L76.3925,34.305 L74.6,37.1625 C74.4749994,37.362501 74.3475006,37.5237494 74.2175,37.64625 C74.0874993,37.7687506 73.9300009,37.8649997 73.745,37.935 C73.9950012,38.0100004 74.1999992,38.1212493 74.36,38.26875 C74.5200008,38.4162507 74.6649993,38.6024989 74.795,38.8275 L76.595,42 L75.3125,42 C74.9874984,42 74.7350009,41.9450006 74.555,41.835 C74.3749991,41.7249994 74.2225006,41.567501 74.0975,41.3625 L72.965,39.2325 C72.8649995,39.0474991 72.7362508,38.9100004 72.57875,38.82 C72.4212492,38.7299996 72.237501,38.685 72.0275,38.685 L71.33,38.685 L71.33,42 L69.4775,42 L69.4775,34.305 L71.33,34.305 L71.33,37.4775 L71.93,37.4775 C72.140001,37.4775 72.3087494,37.4387504 72.43625,37.36125 C72.5637506,37.2837496 72.6724995,37.1650008 72.7625,37.005 L74.075,34.7925 Z M81.0275,34.185 C81.5975028,34.185 82.1162477,34.2774991 82.58375,34.4625 C83.0512523,34.6475009 83.4512483,34.9099983 83.78375,35.25 C84.1162517,35.5900017 84.3724991,36.0049975 84.5525,36.495 C84.7325009,36.9850025 84.8225,37.532497 84.8225,38.1375 C84.8225,38.7475031 84.7325009,39.2974976 84.5525,39.7875 C84.3724991,40.2775025 84.1162517,40.6949983 83.78375,41.04 C83.4512483,41.3850017 83.0512523,41.6499991 82.58375,41.835 C82.1162477,42.0200009 81.5975028,42.1125 81.0275,42.1125 C80.4524971,42.1125 79.9300023,42.0200009 79.46,41.835 C78.9899976,41.6499991 78.5887517,41.3850017 78.25625,41.04 C77.9237483,40.6949983 77.6662509,40.2775025 77.48375,39.7875 C77.3012491,39.2974976 77.21,38.7475031 77.21,38.1375 C77.21,37.532497 77.3012491,36.9850025 77.48375,36.495 C77.6662509,36.0049975 77.9237483,35.5900017 78.25625,35.25 C78.5887517,34.9099983 78.9899976,34.6475009 79.46,34.4625 C79.9300023,34.2774991 80.4524971,34.185 81.0275,34.185 Z M81.0275,40.6875 C81.6675032,40.6875 82.1412485,40.4725021 82.44875,40.0425 C82.7562515,39.6124978 82.91,38.9825042 82.91,38.1525 C82.91,37.3224959 82.7562515,36.6900022 82.44875,36.255 C82.1412485,35.8199978 81.6675032,35.6025 81.0275,35.6025 C80.3774967,35.6025 79.8962516,35.8212478 79.58375,36.25875 C79.2712484,36.6962522 79.115,37.3274959 79.115,38.1525 C79.115,38.9775041 79.2712484,39.6062478 79.58375,40.03875 C79.8962516,40.4712522 80.3774967,40.6875 81.0275,40.6875 Z M91.7525,35.9325 C91.6974997,36.0025003 91.6437503,36.0574998 91.59125,36.0975 C91.5387497,36.1375002 91.4625005,36.1575 91.3625,36.1575 C91.2674995,36.1575 91.1750004,36.1287503 91.085,36.07125 C90.9949995,36.0137497 90.8875006,35.9487504 90.7625,35.87625 C90.6374994,35.8037496 90.4887509,35.7387503 90.31625,35.68125 C90.1437491,35.6237497 89.9300013,35.595 89.675,35.595 C89.3499984,35.595 89.0650012,35.6537494 88.82,35.77125 C88.5749988,35.8887506 88.3712508,36.0574989 88.20875,36.2775 C88.0462492,36.4975011 87.9250004,36.7637484 87.845,37.07625 C87.7649996,37.3887516 87.725,37.742498 87.725,38.1375 C87.725,38.547502 87.7687496,38.9124984 87.85625,39.2325 C87.9437504,39.5525016 88.0699992,39.8212489 88.235,40.03875 C88.4000008,40.2562511 88.5999988,40.4212494 88.835,40.53375 C89.0700012,40.6462506 89.3349985,40.7025 89.63,40.7025 C89.9250015,40.7025 90.1637491,40.6662504 90.34625,40.59375 C90.5287509,40.5212496 90.6824994,40.4412504 90.8075,40.35375 C90.9325006,40.2662496 91.0412495,40.1862504 91.13375,40.11375 C91.2262505,40.0412496 91.3299994,40.005 91.445,40.005 C91.5950007,40.005 91.7074996,40.0624994 91.7825,40.1775 L92.315,40.8525 C92.109999,41.0925012 91.8875012,41.2937492 91.6475,41.45625 C91.4074988,41.6187508 91.1587513,41.7487495 90.90125,41.84625 C90.6437487,41.9437505 90.3787514,42.0124998 90.10625,42.0525 C89.8337486,42.0925002 89.5625013,42.1125 89.2925,42.1125 C88.8174976,42.1125 88.3700021,42.0237509 87.95,41.84625 C87.5299979,41.6687491 87.1625016,41.4100017 86.8475,41.07 C86.5324984,40.7299983 86.2837509,40.3137525 86.10125,39.82125 C85.9187491,39.3287475 85.8275,38.7675032 85.8275,38.1375 C85.8275,37.5724972 85.9087492,37.0487524 86.07125,36.56625 C86.2337508,36.0837476 86.4724984,35.6662518 86.7875,35.31375 C87.1025016,34.9612482 87.4924977,34.685001 87.9575,34.485 C88.4225023,34.284999 88.957497,34.185 89.5625,34.185 C90.1375029,34.185 90.6412478,34.2774991 91.07375,34.4625 C91.5062522,34.6475009 91.8949983,34.9124983 92.24,35.2575 L91.7525,35.9325 Z M100.385,34.305 L100.385,42 L98.5325,42 L98.5325,37.5075 C98.5325,37.3924994 98.5387499,37.2662507 98.55125,37.12875 C98.5637501,36.9912493 98.5799999,36.8525007 98.6,36.7125 C98.4999995,36.9425011 98.3900006,37.1449991 98.27,37.32 C98.2599999,37.3300001 98.2100004,37.3987494 98.12,37.52625 C98.0299995,37.6537506 97.9137507,37.817499 97.77125,38.0175 C97.6287493,38.217501 97.4675009,38.4437487 97.2875,38.69625 C97.1074991,38.9487513 96.9250009,39.2049987 96.74,39.465 C96.3049978,40.0800031 95.8125027,40.7749961 95.2625,41.55 C95.1924996,41.6550005 95.1012506,41.7574995 94.98875,41.8575 C94.8762494,41.9575005 94.7475007,42.0075 94.6025,42.0075 L93.47,42.0075 L93.47,34.3125 L95.3225,34.3125 L95.3225,38.805 C95.3225,38.9200006 95.3162501,39.0462493 95.30375,39.18375 C95.2912499,39.3212507 95.2750001,39.4599993 95.255,39.6 C95.3650005,39.3549988 95.4749994,39.1525008 95.585,38.9925 C95.59,38.9825 95.6374995,38.9150006 95.7275,38.79 C95.8175004,38.6649994 95.9337493,38.502501 96.07625,38.3025 C96.2187507,38.102499 96.3799991,37.8762513 96.56,37.62375 C96.7400009,37.3712487 96.9224991,37.1125013 97.1075,36.8475 C97.5425022,36.2324969 98.0374972,35.5375039 98.5925,34.7625 C98.6625003,34.6524995 98.7549994,34.5487505 98.87,34.45125 C98.9850006,34.3537495 99.1149993,34.305 99.26,34.305 L100.385,34.305 Z M107.7275,35.9325 C107.6725,36.0025003 107.61875,36.0574998 107.56625,36.0975 C107.51375,36.1375002 107.4375,36.1575 107.3375,36.1575 C107.2425,36.1575 107.15,36.1287503 107.06,36.07125 C106.97,36.0137497 106.862501,35.9487504 106.7375,35.87625 C106.612499,35.8037496 106.463751,35.7387503 106.29125,35.68125 C106.118749,35.6237497 105.905001,35.595 105.65,35.595 C105.324998,35.595 105.040001,35.6537494 104.795,35.77125 C104.549999,35.8887506 104.346251,36.0574989 104.18375,36.2775 C104.021249,36.4975011 103.9,36.7637484 103.82,37.07625 C103.74,37.3887516 103.7,37.742498 103.7,38.1375 C103.7,38.547502 103.74375,38.9124984 103.83125,39.2325 C103.91875,39.5525016 104.044999,39.8212489 104.21,40.03875 C104.375001,40.2562511 104.574999,40.4212494 104.81,40.53375 C105.045001,40.6462506 105.309999,40.7025 105.605,40.7025 C105.900001,40.7025 106.138749,40.6662504 106.32125,40.59375 C106.503751,40.5212496 106.657499,40.4412504 106.7825,40.35375 C106.907501,40.2662496 107.01625,40.1862504 107.10875,40.11375 C107.20125,40.0412496 107.304999,40.005 107.42,40.005 C107.570001,40.005 107.6825,40.0624994 107.7575,40.1775 L108.29,40.8525 C108.084999,41.0925012 107.862501,41.2937492 107.6225,41.45625 C107.382499,41.6187508 107.133751,41.7487495 106.87625,41.84625 C106.618749,41.9437505 106.353751,42.0124998 106.08125,42.0525 C105.808749,42.0925002 105.537501,42.1125 105.2675,42.1125 C104.792498,42.1125 104.345002,42.0237509 103.925,41.84625 C103.504998,41.6687491 103.137502,41.4100017 102.8225,41.07 C102.507498,40.7299983 102.258751,40.3137525 102.07625,39.82125 C101.893749,39.3287475 101.8025,38.7675032 101.8025,38.1375 C101.8025,37.5724972 101.883749,37.0487524 102.04625,36.56625 C102.208751,36.0837476 102.447498,35.6662518 102.7625,35.31375 C103.077502,34.9612482 103.467498,34.685001 103.9325,34.485 C104.397502,34.284999 104.932497,34.185 105.5375,34.185 C106.112503,34.185 106.616248,34.2774991 107.04875,34.4625 C107.481252,34.6475009 107.869998,34.9124983 108.215,35.2575 L107.7275,35.9325 Z M116.045,35.6775 L113.3,35.6775 L113.3,42 L111.4475,42 L111.4475,35.6775 L108.71,35.6775 L108.71,34.305 L116.045,34.305 L116.045,35.6775 Z M122.0975,37.2675 C122.0975,37.0274988 122.06375,36.8012511 121.99625,36.58875 C121.92875,36.3762489 121.827501,36.1900008 121.6925,36.03 C121.557499,35.8699992 121.386251,35.7437505 121.17875,35.65125 C120.971249,35.5587495 120.730001,35.5125 120.455,35.5125 C119.919997,35.5125 119.498752,35.6649985 119.19125,35.97 C118.883748,36.2750015 118.6875,36.7074972 118.6025,37.2675 L122.0975,37.2675 Z M118.565,38.385 C118.595,38.780002 118.664999,39.1212486 118.775,39.40875 C118.885001,39.6962514 119.029999,39.9337491 119.21,40.12125 C119.390001,40.3087509 119.603749,40.4487495 119.85125,40.54125 C120.098751,40.6337505 120.372498,40.68 120.6725,40.68 C120.972501,40.68 121.231249,40.6450004 121.44875,40.575 C121.666251,40.5049997 121.856249,40.4275004 122.01875,40.3425 C122.181251,40.2574996 122.323749,40.1800004 122.44625,40.11 C122.568751,40.0399996 122.687499,40.005 122.8025,40.005 C122.957501,40.005 123.0725,40.0624994 123.1475,40.1775 L123.68,40.8525 C123.474999,41.0925012 123.245001,41.2937492 122.99,41.45625 C122.734999,41.6187508 122.468751,41.7487495 122.19125,41.84625 C121.913749,41.9437505 121.631251,42.0124998 121.34375,42.0525 C121.056249,42.0925002 120.777501,42.1125 120.5075,42.1125 C119.972497,42.1125 119.475002,42.0237509 119.015,41.84625 C118.554998,41.6687491 118.155002,41.4062517 117.815,41.05875 C117.474998,40.7112483 117.207501,40.2812526 117.0125,39.76875 C116.817499,39.2562474 116.72,38.6625034 116.72,37.9875 C116.72,37.4624974 116.804999,36.9687523 116.975,36.50625 C117.145001,36.0437477 117.388748,35.6412517 117.70625,35.29875 C118.023752,34.9562483 118.411248,34.685001 118.86875,34.485 C119.326252,34.284999 119.842497,34.185 120.4175,34.185 C120.902502,34.185 121.349998,34.2624992 121.76,34.4175 C122.170002,34.5725008 122.522499,34.7987485 122.8175,35.09625 C123.112501,35.3937515 123.343749,35.7587478 123.51125,36.19125 C123.678751,36.6237522 123.7625,37.1174972 123.7625,37.6725 C123.7625,37.9525014 123.7325,38.1412495 123.6725,38.23875 C123.6125,38.3362505 123.497501,38.385 123.3275,38.385 L118.565,38.385 Z M134.0675,34.29 L134.0675,42 L132.395,42 L132.395,37.71 C132.395,37.5349991 132.40375,37.3375011 132.42125,37.1175 C132.43875,36.8974989 132.4675,36.6925009 132.5075,36.5025 L130.2425,40.6575 C130.132499,40.8725011 129.957501,40.98 129.7175,40.98 L129.5225,40.98 C129.282499,40.98 129.107501,40.8725011 128.9975,40.6575 L126.7025,36.48 C126.7375,36.670001 126.76625,36.8774989 126.78875,37.1025 C126.81125,37.3275011 126.8225,37.5299991 126.8225,37.71 L126.8225,42 L125.15,42 L125.15,34.29 L126.68,34.29 C126.810001,34.29 126.938749,34.3174997 127.06625,34.3725 C127.193751,34.4275003 127.3,34.5374992 127.385,34.7025 L129.2,37.9425 C129.28,38.0925007 129.355,38.2512492 129.425,38.41875 C129.495,38.5862508 129.56,38.7549991 129.62,38.925 C129.68,38.7549991 129.74375,38.5850009 129.81125,38.415 C129.87875,38.2449991 129.9525,38.0875007 130.0325,37.9425 L131.8325,34.7025 C131.9225,34.5324991 132.029999,34.4212503 132.155,34.36875 C132.280001,34.3162497 132.407499,34.29 132.5375,34.29 L134.0675,34.29 Z M139.9625,38.715 C139.427497,38.7400001 138.977502,38.7862497 138.6125,38.85375 C138.247498,38.9212503 137.955001,39.0074995 137.735,39.1125 C137.514999,39.2175005 137.3575,39.3399993 137.2625,39.48 C137.1675,39.6200007 137.12,39.7724992 137.12,39.9375 C137.12,40.2625016 137.216249,40.4949993 137.40875,40.635 C137.601251,40.7750007 137.852498,40.845 138.1625,40.845 C138.542502,40.845 138.871249,40.7762507 139.14875,40.63875 C139.426251,40.5012493 139.697499,40.2925014 139.9625,40.0125 L139.9625,38.715 Z M135.7175,35.3775 C136.602504,34.567496 137.667494,34.1625 138.9125,34.1625 C139.362502,34.1625 139.764998,34.2362493 140.12,34.38375 C140.475002,34.5312507 140.774999,34.7362487 141.02,34.99875 C141.265001,35.2612513 141.451249,35.5749982 141.57875,35.94 C141.706251,36.3050018 141.77,36.7049978 141.77,37.14 L141.77,42 L140.93,42 C140.754999,42 140.62,41.9737503 140.525,41.92125 C140.43,41.8687497 140.355,41.7625008 140.3,41.6025 L140.135,41.0475 C139.939999,41.2225009 139.750001,41.3762493 139.565,41.50875 C139.379999,41.6412507 139.187501,41.7524996 138.9875,41.8425 C138.787499,41.9325004 138.573751,42.0012498 138.34625,42.04875 C138.118749,42.0962502 137.867501,42.12 137.5925,42.12 C137.267498,42.12 136.967501,42.0762504 136.6925,41.98875 C136.417499,41.9012496 136.180001,41.7700009 135.98,41.595 C135.779999,41.4199991 135.625001,41.2025013 135.515,40.9425 C135.404999,40.6824987 135.35,40.3800017 135.35,40.035 C135.35,39.839999 135.3825,39.646251 135.4475,39.45375 C135.5125,39.261249 135.618749,39.0775009 135.76625,38.9025 C135.913751,38.7274991 136.104999,38.5625008 136.34,38.4075 C136.575001,38.2524992 136.863748,38.1175006 137.20625,38.0025 C137.548752,37.8874994 137.947498,37.7937504 138.4025,37.72125 C138.857502,37.6487496 139.377497,37.6050001 139.9625,37.59 L139.9625,37.14 C139.9625,36.6249974 139.852501,36.2437512 139.6325,35.99625 C139.412499,35.7487488 139.095002,35.625 138.68,35.625 C138.379998,35.625 138.131251,35.6599997 137.93375,35.73 C137.736249,35.8000003 137.562501,35.8787496 137.4125,35.96625 C137.262499,36.0537504 137.126251,36.1324996 137.00375,36.2025 C136.881249,36.2725004 136.745001,36.3075 136.595,36.3075 C136.464999,36.3075 136.355,36.2737503 136.265,36.20625 C136.175,36.1387497 136.1025,36.0600005 136.0475,35.97 L135.7175,35.3775 Z M149.0075,40.005 C149.217501,40.2600013 149.446249,40.4399995 149.69375,40.545 C149.941251,40.6500005 150.209999,40.7025 150.5,40.7025 C150.780001,40.7025 151.032499,40.6500005 151.2575,40.545 C151.482501,40.4399995 151.673749,40.2800011 151.83125,40.065 C151.988751,39.8499989 152.11,39.5787516 152.195,39.25125 C152.28,38.9237484 152.3225,38.5375022 152.3225,38.0925 C152.3225,37.6424978 152.28625,37.2612516 152.21375,36.94875 C152.14125,36.6362484 152.037501,36.382501 151.9025,36.1875 C151.767499,35.992499 151.603751,35.8500005 151.41125,35.76 C151.218749,35.6699995 151.000001,35.625 150.755,35.625 C150.369998,35.625 150.042501,35.7062492 149.7725,35.86875 C149.502499,36.0312508 149.247501,36.2599985 149.0075,36.555 L149.0075,40.005 Z M148.91,35.355 C149.225002,34.9999982 149.582498,34.7125011 149.9825,34.4925 C150.382502,34.2724989 150.852497,34.1625 151.3925,34.1625 C151.812502,34.1625 152.196248,34.2499991 152.54375,34.425 C152.891252,34.6000009 153.191249,34.8537483 153.44375,35.18625 C153.696251,35.5187517 153.891249,35.9287476 154.02875,36.41625 C154.166251,36.9037524 154.235,37.4624969 154.235,38.0925 C154.235,38.6675029 154.157501,39.1999975 154.0025,39.69 C153.847499,40.1800024 153.626251,40.6049982 153.33875,40.965 C153.051249,41.3250018 152.703752,41.606249 152.29625,41.80875 C151.888748,42.011251 151.432503,42.1125 150.9275,42.1125 C150.497498,42.1125 150.130002,42.0462507 149.825,41.91375 C149.519998,41.7812493 149.247501,41.5975012 149.0075,41.3625 L149.0075,44.5125 L147.155,44.5125 L147.155,34.305 L148.2875,34.305 C148.527501,34.305 148.685,34.4174989 148.76,34.6425 L148.91,35.355 Z M159.7325,38.715 C159.197497,38.7400001 158.747502,38.7862497 158.3825,38.85375 C158.017498,38.9212503 157.725001,39.0074995 157.505,39.1125 C157.284999,39.2175005 157.1275,39.3399993 157.0325,39.48 C156.9375,39.6200007 156.89,39.7724992 156.89,39.9375 C156.89,40.2625016 156.986249,40.4949993 157.17875,40.635 C157.371251,40.7750007 157.622498,40.845 157.9325,40.845 C158.312502,40.845 158.641249,40.7762507 158.91875,40.63875 C159.196251,40.5012493 159.467499,40.2925014 159.7325,40.0125 L159.7325,38.715 Z M155.4875,35.3775 C156.372504,34.567496 157.437494,34.1625 158.6825,34.1625 C159.132502,34.1625 159.534998,34.2362493 159.89,34.38375 C160.245002,34.5312507 160.544999,34.7362487 160.79,34.99875 C161.035001,35.2612513 161.221249,35.5749982 161.34875,35.94 C161.476251,36.3050018 161.54,36.7049978 161.54,37.14 L161.54,42 L160.7,42 C160.524999,42 160.39,41.9737503 160.295,41.92125 C160.2,41.8687497 160.125,41.7625008 160.07,41.6025 L159.905,41.0475 C159.709999,41.2225009 159.520001,41.3762493 159.335,41.50875 C159.149999,41.6412507 158.957501,41.7524996 158.7575,41.8425 C158.557499,41.9325004 158.343751,42.0012498 158.11625,42.04875 C157.888749,42.0962502 157.637501,42.12 157.3625,42.12 C157.037498,42.12 156.737501,42.0762504 156.4625,41.98875 C156.187499,41.9012496 155.950001,41.7700009 155.75,41.595 C155.549999,41.4199991 155.395001,41.2025013 155.285,40.9425 C155.174999,40.6824987 155.12,40.3800017 155.12,40.035 C155.12,39.839999 155.1525,39.646251 155.2175,39.45375 C155.2825,39.261249 155.388749,39.0775009 155.53625,38.9025 C155.683751,38.7274991 155.874999,38.5625008 156.11,38.4075 C156.345001,38.2524992 156.633748,38.1175006 156.97625,38.0025 C157.318752,37.8874994 157.717498,37.7937504 158.1725,37.72125 C158.627502,37.6487496 159.147497,37.6050001 159.7325,37.59 L159.7325,37.14 C159.7325,36.6249974 159.622501,36.2437512 159.4025,35.99625 C159.182499,35.7487488 158.865002,35.625 158.45,35.625 C158.149998,35.625 157.901251,35.6599997 157.70375,35.73 C157.506249,35.8000003 157.332501,35.8787496 157.1825,35.96625 C157.032499,36.0537504 156.896251,36.1324996 156.77375,36.2025 C156.651249,36.2725004 156.515001,36.3075 156.365,36.3075 C156.234999,36.3075 156.125,36.2737503 156.035,36.20625 C155.945,36.1387497 155.8725,36.0600005 155.8175,35.97 L155.4875,35.3775 Z M162.83,35.1375 C163.120001,34.8574986 163.479998,34.6287509 163.91,34.45125 C164.340002,34.2737491 164.854997,34.185 165.455,34.185 C165.930002,34.185 166.352498,34.2412494 166.7225,34.35375 C167.092502,34.4662506 167.403749,34.618749 167.65625,34.81125 C167.908751,35.003751 168.101249,35.2237488 168.23375,35.47125 C168.366251,35.7187512 168.4325,35.9774987 168.4325,36.2475 C168.4325,36.3925007 168.41125,36.5437492 168.36875,36.70125 C168.32625,36.8587508 168.25625,37.0124993 168.15875,37.1625 C168.06125,37.3125007 167.932501,37.4512494 167.7725,37.57875 C167.612499,37.7062506 167.415001,37.8149996 167.18,37.905 C167.600002,38.0650008 167.938749,38.2999985 168.19625,38.61 C168.453751,38.9200016 168.5825,39.3024977 168.5825,39.7575 C168.5825,40.1325019 168.496251,40.4649986 168.32375,40.755 C168.151249,41.0450015 167.922501,41.291249 167.6375,41.49375 C167.352499,41.696251 167.026252,41.8499995 166.65875,41.955 C166.291248,42.0600005 165.912502,42.1125 165.5225,42.1125 C165.302499,42.1125 165.066251,42.0925002 164.81375,42.0525 C164.561249,42.0124998 164.307501,41.9437505 164.0525,41.84625 C163.797499,41.7487495 163.547501,41.6187508 163.3025,41.45625 C163.057499,41.2937492 162.835001,41.0925012 162.635,40.8525 L163.1675,40.1775 C163.2425,40.0624994 163.354999,40.005 163.505,40.005 C163.620001,40.005 163.729999,40.0412496 163.835,40.11375 C163.940001,40.1862504 164.061249,40.2662496 164.19875,40.35375 C164.336251,40.4412504 164.499999,40.5212496 164.69,40.59375 C164.880001,40.6662504 165.117499,40.7025 165.4025,40.7025 C165.867502,40.7025 166.219999,40.597501 166.46,40.3875 C166.700001,40.177499 166.82,39.9150016 166.82,39.6 C166.82,39.2899984 166.696251,39.0475009 166.44875,38.8725 C166.201249,38.6974991 165.800003,38.61 165.245,38.61 L164.375,38.61 L164.375,37.4025 L165.245,37.4025 C165.730002,37.4025 166.102499,37.3175009 166.3625,37.1475 C166.622501,36.9774991 166.7525,36.7525014 166.7525,36.4725 C166.7525,36.2174987 166.638751,36.0075008 166.41125,35.8425 C166.183749,35.6774992 165.847502,35.595 165.4025,35.595 C165.137499,35.595 164.912501,35.6224997 164.7275,35.6775 C164.542499,35.7325003 164.383751,35.7912497 164.25125,35.85375 C164.118749,35.9162503 164.0075,35.9749997 163.9175,36.03 C163.8275,36.0850003 163.7425,36.1125 163.6625,36.1125 C163.5775,36.1125 163.505,36.0962502 163.445,36.06375 C163.385,36.0312498 163.32,35.9600006 163.25,35.85 L162.83,35.1375 Z M173.18,40.7325 C173.570002,40.7325 173.878749,40.637501 174.10625,40.4475 C174.333751,40.257499 174.4475,39.9975016 174.4475,39.6675 C174.4475,39.5274993 174.42875,39.3962506 174.39125,39.27375 C174.35375,39.1512494 174.2875,39.0450005 174.1925,38.955 C174.0975,38.8649996 173.968751,38.7950003 173.80625,38.745 C173.643749,38.6949998 173.437501,38.67 173.1875,38.67 L171.8,38.67 L171.8,40.7325 L173.18,40.7325 Z M171.8,35.5125 L171.8,37.53 L173.015,37.53 C173.195001,37.53 173.359999,37.5037503 173.51,37.45125 C173.660001,37.3987497 173.789999,37.3237505 173.9,37.22625 C174.010001,37.1287495 174.095,37.0137507 174.155,36.88125 C174.215,36.7487493 174.245,36.6025008 174.245,36.4425 C174.245,36.3274994 174.225,36.2137506 174.185,36.10125 C174.145,35.9887494 174.0775,35.8887504 173.9825,35.80125 C173.8875,35.7137496 173.761251,35.6437503 173.60375,35.59125 C173.446249,35.5387497 173.250001,35.5125 173.015,35.5125 L171.8,35.5125 Z M173.0675,34.305 C173.552502,34.305 173.971248,34.3524995 174.32375,34.4475 C174.676252,34.5425005 174.967499,34.6724992 175.1975,34.8375 C175.427501,35.0025008 175.597499,35.1987489 175.7075,35.42625 C175.817501,35.6537511 175.8725,35.8999987 175.8725,36.165 C175.8725,36.3300008 175.85125,36.5012491 175.80875,36.67875 C175.76625,36.8562509 175.691251,37.0274992 175.58375,37.1925 C175.476249,37.3575008 175.330001,37.5074993 175.145,37.6425 C174.959999,37.7775007 174.725001,37.8824996 174.44,37.9575 C174.695001,38.0125003 174.927499,38.0887495 175.1375,38.18625 C175.347501,38.2837505 175.527499,38.4062493 175.6775,38.55375 C175.827501,38.7012507 175.94375,38.873749 176.02625,39.07125 C176.10875,39.268751 176.15,39.4899988 176.15,39.735 C176.15,40.1250019 176.068751,40.4624986 175.90625,40.7475 C175.743749,41.0325014 175.526251,41.2674991 175.25375,41.4525 C174.981249,41.6375009 174.666252,41.7749995 174.30875,41.865 C173.951248,41.9550005 173.577502,42 173.1875,42 L170.0375,42 L170.0375,34.305 L173.0675,34.305 Z M184.49,34.305 L184.49,42 L182.6375,42 L182.6375,37.5075 C182.6375,37.3924994 182.64375,37.2662507 182.65625,37.12875 C182.66875,36.9912493 182.685,36.8525007 182.705,36.7125 C182.604999,36.9425011 182.495001,37.1449991 182.375,37.32 C182.365,37.3300001 182.315,37.3987494 182.225,37.52625 C182.135,37.6537506 182.018751,37.817499 181.87625,38.0175 C181.733749,38.217501 181.572501,38.4437487 181.3925,38.69625 C181.212499,38.9487513 181.030001,39.2049987 180.845,39.465 C180.409998,40.0800031 179.917503,40.7749961 179.3675,41.55 C179.2975,41.6550005 179.206251,41.7574995 179.09375,41.8575 C178.981249,41.9575005 178.852501,42.0075 178.7075,42.0075 L177.575,42.0075 L177.575,34.3125 L179.4275,34.3125 L179.4275,38.805 C179.4275,38.9200006 179.42125,39.0462493 179.40875,39.18375 C179.39625,39.3212507 179.38,39.4599993 179.36,39.6 C179.470001,39.3549988 179.579999,39.1525008 179.69,38.9925 C179.695,38.9825 179.7425,38.9150006 179.8325,38.79 C179.9225,38.6649994 180.038749,38.502501 180.18125,38.3025 C180.323751,38.102499 180.484999,37.8762513 180.665,37.62375 C180.845001,37.3712487 181.027499,37.1125013 181.2125,36.8475 C181.647502,36.2324969 182.142497,35.5375039 182.6975,34.7625 C182.7675,34.6524995 182.859999,34.5487505 182.975,34.45125 C183.090001,34.3537495 183.219999,34.305 183.365,34.305 L184.49,34.305 Z M192.92,35.6775 L190.175,35.6775 L190.175,42 L188.3225,42 L188.3225,35.6775 L185.585,35.6775 L185.585,34.305 L192.92,34.305 L192.92,35.6775 Z M200.93,34.305 L200.93,42 L199.0775,42 L199.0775,37.5075 C199.0775,37.3924994 199.08375,37.2662507 199.09625,37.12875 C199.10875,36.9912493 199.125,36.8525007 199.145,36.7125 C199.044999,36.9425011 198.935001,37.1449991 198.815,37.32 C198.805,37.3300001 198.755,37.3987494 198.665,37.52625 C198.575,37.6537506 198.458751,37.817499 198.31625,38.0175 C198.173749,38.217501 198.012501,38.4437487 197.8325,38.69625 C197.652499,38.9487513 197.470001,39.2049987 197.285,39.465 C196.849998,40.0800031 196.357503,40.7749961 195.8075,41.55 C195.7375,41.6550005 195.646251,41.7574995 195.53375,41.8575 C195.421249,41.9575005 195.292501,42.0075 195.1475,42.0075 L194.015,42.0075 L194.015,34.3125 L195.8675,34.3125 L195.8675,38.805 C195.8675,38.9200006 195.86125,39.0462493 195.84875,39.18375 C195.83625,39.3212507 195.82,39.4599993 195.8,39.6 C195.910001,39.3549988 196.019999,39.1525008 196.13,38.9925 C196.135,38.9825 196.1825,38.9150006 196.2725,38.79 C196.3625,38.6649994 196.478749,38.502501 196.62125,38.3025 C196.763751,38.102499 196.924999,37.8762513 197.105,37.62375 C197.285001,37.3712487 197.467499,37.1125013 197.6525,36.8475 C198.087502,36.2324969 198.582497,35.5375039 199.1375,34.7625 C199.2075,34.6524995 199.299999,34.5487505 199.415,34.45125 C199.530001,34.3537495 199.659999,34.305 199.805,34.305 L200.93,34.305 Z M206.7725,37.77 L206.7725,35.5125 L205.7675,35.5125 C205.532499,35.5125 205.337501,35.5462497 205.1825,35.61375 C205.027499,35.6812503 204.90125,35.7687495 204.80375,35.87625 C204.70625,35.9837505 204.6375,36.1049993 204.5975,36.24 C204.5575,36.3750007 204.5375,36.5074994 204.5375,36.6375 C204.5375,36.9925018 204.656249,37.269999 204.89375,37.47 C205.131251,37.670001 205.449998,37.77 205.85,37.77 L206.7725,37.77 Z M208.535,34.305 L208.535,42 L206.7725,42 L206.7725,38.91 L206.45,38.91 C206.299999,38.91 206.17625,38.9237499 206.07875,38.95125 C205.98125,38.9787501 205.89875,39.0162498 205.83125,39.06375 C205.76375,39.1112502 205.70625,39.1699997 205.65875,39.24 C205.61125,39.3100004 205.5625,39.3874996 205.5125,39.4725 L204.2825,41.3625 C204.2225,41.4675005 204.15875,41.5599996 204.09125,41.64 C204.02375,41.7200004 203.94625,41.7862497 203.85875,41.83875 C203.77125,41.8912503 203.668751,41.9312499 203.55125,41.95875 C203.433749,41.9862501 203.292501,42 203.1275,42 L201.845,42 L203.7875,39.285 C203.892501,39.094999 204.014999,38.9425006 204.155,38.8275 C204.295001,38.7124994 204.459999,38.6200003 204.65,38.55 C204.289998,38.4849997 203.983751,38.3837507 203.73125,38.24625 C203.478749,38.1087493 203.275001,37.9487509 203.12,37.76625 C202.964999,37.5837491 202.8525,37.387501 202.7825,37.1775 C202.7125,36.9674989 202.6775,36.760001 202.6775,36.555 C202.6775,36.2699986 202.733749,35.9925013 202.84625,35.7225 C202.958751,35.4524987 203.137499,35.2125011 203.3825,35.0025 C203.627501,34.792499 203.942498,34.6237506 204.3275,34.49625 C204.712502,34.3687494 205.174997,34.305 205.715,34.305 L208.535,34.305 Z" id="Экосистемаразвития" fill="#000000"></path>
        </g>
    </g>
</svg>