<?xml version="1.0" encoding="UTF-8" standalone="no"?>
<svg width="145px" height="33px" viewBox="0 0 145 33" version="1.1" xmlns="http://www.w3.org/2000/svg" xmlns:xlink="http://www.w3.org/1999/xlink">
    <g id="widget-production" stroke="none" stroke-width="1" fill="none" fill-rule="evenodd">
        <g id="widget-3.1" transform="translate(-392.000000, -175.000000)">
            <g id="popover" transform="translate(217.000000, 160.000000)">
                <g id="Group-3" transform="translate(175.000000, 15.000000)">
                    <g id="sign">
                        <path d="M31.9998829,16.3902095 C31.9998829,25.2264746 24.8363478,32.3900098 15.9996832,32.3900098 C7.16341805,32.3900098 -0.00011707317,25.2264746 -0.00011707317,16.3902095 C-0.00011707317,7.55354488 7.16341805,0.390009756 15.9996832,0.390009756 C24.8363478,0.390009756 31.9998829,7.55354488 31.9998829,16.3902095" id="Fill-29" fill="#1D1C1B"></path>
                        <path d="M13.4886582,24.310798 C11.4489834,23.1660826 11.157185,20.8970485 11.157185,18.8157476 L11.157185,15.1106159 L9.55499967,15.1106159 L9.55499967,12.8628111 L11.157185,12.8628111 L11.157185,9.74085984 L14.1963005,9.36622569 L14.1963005,12.8628111 L16.4649184,12.8628111 L16.1943493,15.1106159 L14.1963005,15.1106159 L14.1963005,18.8781867 C14.1963005,20.5432273 14.5084956,21.7716111 15.528333,22.8955135 L13.4886582,24.310798 Z" id="Fill-32" fill="#FEFEFE"></path>
                        <path d="M19.7780995,24.310798 C17.7384247,23.1660826 17.4466263,20.8970485 17.4466263,18.8157476 L17.4466263,15.1106159 L15.844441,15.1106159 L15.844441,12.8628111 L17.4466263,12.8628111 L17.4466263,9.74085984 L20.4857418,9.36622569 L20.4857418,12.8628111 L22.7543597,12.8628111 L22.4837906,15.1106159 L20.4857418,15.1106159 L20.4857418,18.8781867 C20.4857418,20.5432273 20.7979369,21.7716111 21.8177743,22.8955135 L19.7780995,24.310798 Z" id="Fill-34" fill="#FEFEFE"></path>
                    </g>
                    <g id="logo" transform="translate(35.000000, 5.000000)" fill="#000000">
                        <text id="Проверено-друзьями" font-family="Ubuntu-Medium, Ubuntu" font-size="10" font-weight="400" line-spacing="10">
                            <tspan x="2" y="25">Проверено друзьями</tspan>
                        </text>
                        <g id="WhatsBetter.me">
                            <path d="M9.136,12 L11.808,12 L14.608,0.912 L12.032,0.656 L10.496,9.2 L8.672,0.656 L6.272,0.96 L4.624,9.2 L2.912,0.656 L0.208,1.024 L3.168,12 L5.952,12 L7.52,4.192 L9.136,12 Z M22.716,12 L22.716,7.024 C22.716,5.296 22.396,3.36 19.932,3.36 C18.764,3.36 18.044,3.696 17.612,4.528 L17.612,0.512 L15.276,0.8 L15.276,12 L17.612,12 L17.612,6.256 C17.98,5.6 18.348,5.264 19.18,5.264 C20.092,5.264 20.38,5.904 20.38,7.344 L20.38,12 L22.716,12 Z M28.84,9.264 L28.84,8.352 C26.824,8.464 26.104,8.816 26.104,9.504 C26.104,10.128 26.408,10.384 27.32,10.384 C28.12,10.384 28.52,9.952 28.84,9.264 Z M31.4,11.728 L29.576,12.176 C29.416,11.776 29.272,11.344 29.176,10.928 C28.712,11.712 27.992,12.192 26.728,12.192 C24.6,12.192 23.768,11.168 23.768,9.584 C23.768,7.936 24.76,7.056 28.84,6.816 C28.776,5.6 28.168,5.296 27.24,5.296 C26.44,5.296 25.64,5.504 24.904,5.872 L24.2,4.16 C25.208,3.584 26.344,3.36 27.608,3.36 C29.832,3.36 31.176,4.672 31.176,6.688 L31.176,8.768 C31.176,9.744 31.192,10.768 31.4,11.728 Z M36.532,11.264 C35.748,10.4 35.508,9.456 35.508,8.176 L35.508,5.28 L37.044,5.28 L37.252,3.552 L35.508,3.552 L35.508,0.864 L33.172,1.152 L33.172,3.552 L31.94,3.552 L31.94,5.28 L33.172,5.28 L33.172,8.128 C33.172,9.728 33.396,11.472 34.964,12.352 L36.532,11.264 Z M38.08,9.728 L37.472,11.392 C38.384,11.936 39.488,12.192 40.944,12.192 C42.896,12.192 44.128,11.344 44.128,9.552 C44.128,7.744 42.688,7.264 41.376,6.896 C40.48,6.64 39.888,6.464 39.888,5.936 C39.888,5.408 40.368,5.232 40.96,5.232 C41.792,5.232 42.48,5.392 43.168,5.712 L43.808,4.064 C42.848,3.488 41.856,3.36 40.736,3.36 C38.96,3.36 37.648,4.352 37.648,5.968 C37.648,7.888 39.168,8.352 40.432,8.72 C41.232,8.96 41.856,9.136 41.856,9.68 C41.856,10.208 41.392,10.384 40.72,10.384 C39.888,10.384 38.96,10.144 38.08,9.728 Z M47.452,5.472 L48.668,5.472 C49.868,5.472 50.652,5.392 50.652,4.064 C50.652,2.944 49.74,2.576 48.78,2.576 C48.316,2.576 47.852,2.624 47.452,2.704 L47.452,5.472 Z M47.452,10.064 L48.428,10.064 C50.252,10.064 50.972,9.84 50.972,8.656 C50.972,7.504 50.284,7.248 48.94,7.248 L47.452,7.248 L47.452,10.064 Z M45.004,12 L45.004,1.056 C45.996,0.832 47.308,0.608 48.54,0.608 C50.86,0.608 53.02,1.296 53.02,3.872 C53.02,5.2 52.236,6.08 51.228,6.272 C52.252,6.384 53.532,7.136 53.532,8.848 C53.532,11.04 52.22,12 49.484,12 L45.004,12 Z M61.272,11.264 C60.36,11.888 59.352,12.192 58.12,12.192 C55.544,12.192 54.072,11.104 54.072,7.808 C54.072,4.4 55.576,3.36 57.88,3.36 C60.152,3.36 61.512,4.224 61.512,8.352 L56.488,8.88 C56.632,9.904 57.112,10.304 58.088,10.304 C58.968,10.304 59.752,10.128 60.568,9.648 L61.272,11.264 Z M66.75,5.28 L65.556,5.28 L65.556,8.176 C65.556,9.456 65.796,10.4 66.58,11.264 L65.012,12.352 C63.444,11.472 63.22,9.728 63.22,8.128 L63.22,5.28 L61.988,5.28 L61.988,3.552 L63.22,3.552 L63.22,1.152 L65.556,0.864 L65.556,3.552 L66.854,3.552 L67.64,3.552 L67.64,1.152 L69.976,0.864 L69.976,3.552 L71.72,3.552 L71.512,5.28 L69.976,5.28 L69.976,8.176 C69.976,9.456 70.216,10.4 71,11.264 L69.432,12.352 C67.864,11.472 67.64,9.728 67.64,8.128 L67.64,5.28 L66.75,5.28 Z M56.392,7.408 L59.24,6.96 C59.208,5.712 58.744,5.232 57.88,5.232 C56.904,5.232 56.392,5.84 56.392,7.168 L56.392,7.408 Z M79.172,11.264 C78.26,11.888 77.252,12.192 76.02,12.192 C73.444,12.192 71.972,11.104 71.972,7.808 C71.972,4.4 73.476,3.36 75.78,3.36 C78.052,3.36 79.412,4.224 79.412,8.352 L74.388,8.88 C74.532,9.904 75.012,10.304 75.988,10.304 C76.868,10.304 77.652,10.128 78.468,9.648 L79.172,11.264 Z M74.292,7.408 L77.14,6.96 C77.108,5.712 76.644,5.232 75.78,5.232 C74.804,5.232 74.292,5.84 74.292,7.168 L74.292,7.408 Z M82.784,12 L80.448,12 L80.448,6.784 C80.448,5.808 80.432,4.784 80.224,3.824 L82.048,3.376 C82.24,3.84 82.416,4.368 82.544,4.864 C82.976,4.08 83.68,3.488 84.992,3.36 L85.296,5.792 L85.056,5.792 C83.904,5.792 83.248,6.144 82.784,7.04 L82.784,12 Z M86.396,12.128 C85.468,12.128 84.972,11.648 84.972,10.72 C84.972,9.792 85.468,9.312 86.396,9.312 C87.324,9.312 87.82,9.792 87.82,10.72 C87.82,11.648 87.324,12.128 86.396,12.128 Z M101.464,12 L101.464,7.024 C101.464,5.296 101.24,3.36 98.552,3.36 C97.288,3.36 96.552,3.84 96.104,4.688 C95.736,3.92 94.984,3.36 93.56,3.36 C92.296,3.36 91.592,3.84 91.144,4.624 C91.048,4.208 90.904,3.776 90.744,3.376 L88.92,3.824 C89.128,4.784 89.144,5.808 89.144,6.784 L89.144,12 L91.48,12 L91.48,6.256 C91.832,5.6 92.184,5.264 92.984,5.264 C93.752,5.264 94.136,5.76 94.136,6.512 L94.136,12 L96.472,12 L96.472,6.256 C96.824,5.6 97.176,5.264 97.976,5.264 C98.856,5.264 99.128,5.904 99.128,7.344 L99.128,12 L101.464,12 Z M109.716,11.264 C108.804,11.888 107.796,12.192 106.564,12.192 C103.988,12.192 102.516,11.104 102.516,7.808 C102.516,4.4 104.02,3.36 106.324,3.36 C108.596,3.36 109.956,4.224 109.956,8.352 L104.932,8.88 C105.076,9.904 105.556,10.304 106.532,10.304 C107.412,10.304 108.196,10.128 109.012,9.648 L109.716,11.264 Z M104.836,7.408 L107.684,6.96 C107.652,5.712 107.188,5.232 106.324,5.232 C105.348,5.232 104.836,5.84 104.836,7.168 L104.836,7.408 Z"></path>
                        </g>
                    </g>
                </g>
            </g>
        </g>
    </g>
</svg>