<?xml version="1.0" encoding="UTF-8"?>
<svg width="223px" height="48px" viewBox="0 0 223 48" version="1.1" xmlns="http://www.w3.org/2000/svg" xmlns:xlink="http://www.w3.org/1999/xlink">
    <g stroke="none" stroke-width="1" fill="none" fill-rule="evenodd">
        <g transform="translate(-8.000000, -8.000000)">
            <g>
                <path d="M74.1574994,19.8872591 L71.8182816,31.5504644 L67.6644762,31.5504644 L63.2476871,15.155399 L67.2820355,14.6056393 L69.8369891,27.3679177 L72.2952182,15.059905 L75.876254,14.6056393 L78.5979125,27.3679177 L80.8898823,14.6056393 L84.7334561,14.9880614 L80.555581,31.5504644 L76.5689263,31.5504644 L74.1574994,19.8872591 Z M92.9937298,31.5503305 L92.9937298,24.595335 C92.9937298,22.4449357 92.5640412,21.4886573 91.2032119,21.4886573 C89.9618397,21.4886573 89.412694,21.9902238 88.8635484,22.9701526 L88.8635484,31.5503305 L85.3783456,31.5503305 L85.3783456,14.82059 L88.8635484,14.3904209 L88.8635484,20.3891379 C89.5085271,19.1463776 90.5827486,18.6443649 92.3251271,18.6443649 C96.0015502,18.6443649 96.4789325,21.5364043 96.4789325,24.1178651 L96.4789325,31.5503305 L92.9937298,31.5503305 Z M106.434159,31.8132067 C106.19569,31.2157 105.9804,30.5704463 105.837319,29.948843 C105.145093,31.120206 104.070871,31.8373033 102.184966,31.8373033 C99.0099947,31.8373033 97.7681767,30.3076148 97.7681767,27.9416847 C97.7681767,25.4798144 99.248463,24.1652105 105.336313,23.806885 C105.24048,21.9902684 104.333409,21.5364489 102.948956,21.5364489 C101.755277,21.5364489 100.561599,21.8470274 99.4633073,22.3967871 L98.4131554,19.8398691 C99.9170656,18.9790847 101.612196,18.6444095 103.498101,18.6444095 C106.816153,18.6444095 108.821516,20.6047133 108.821516,23.6158971 L108.821516,26.723021 C108.821516,28.1804196 108.845585,29.7101081 109.155817,31.1443026 L106.434159,31.8132067 Z M105.336313,26.1014177 C102.328047,26.2687553 101.253825,26.7944184 101.253825,27.8216479 C101.253825,28.7538297 101.707138,29.1366981 103.067967,29.1366981 C104.262091,29.1366981 104.858931,28.4909982 105.336313,27.4637686 L105.336313,26.1014177 Z M114.312393,32.0763059 C111.972729,30.761702 111.638874,28.1565908 111.638874,25.7665641 L111.638874,21.51262 L109.800662,21.51262 L109.800662,18.9311592 L111.638874,18.9311592 L111.638874,15.3465654 L115.124076,14.9163963 L115.124076,18.9311592 L117.726278,18.9311592 L117.416046,21.51262 L115.124076,21.51262 L115.124076,25.8384077 C115.124076,27.7505183 115.482002,29.1606162 116.652056,30.4506773 L114.312393,32.0763059 Z M122.527157,29.1365642 C123.529615,29.1365642 124.222287,28.8737327 124.222287,28.085238 C124.222287,27.2722006 123.291147,27.009369 122.097468,26.6510435 C120.211563,26.1012839 117.943663,25.4082832 117.943663,22.5403404 C117.943663,20.1266634 119.900886,18.6442757 122.551226,18.6442757 C124.222287,18.6442757 125.702128,18.8357098 127.134721,19.6964943 L126.17951,22.1574721 C125.153428,21.6800022 124.126454,21.4408211 122.885082,21.4408211 C122.001635,21.4408211 121.285785,21.7036526 121.285785,22.4921472 C121.285785,23.2810881 122.168786,23.5439196 123.505545,23.9263417 C125.46366,24.4761014 127.611657,25.1931987 127.611657,27.8938039 C127.611657,30.5703125 125.773891,31.8371694 122.861458,31.8371694 C120.688945,31.8371694 119.041954,31.4547473 117.681125,30.6421561 L118.588196,28.1566354 C119.900886,28.7777924 121.285785,29.1365642 122.527157,29.1365642 Z M128.75782,15.2032352 C130.237661,14.8685601 132.195329,14.5338849 134.033541,14.5338849 C137.49512,14.5338849 140.717784,15.5615607 140.717784,19.408986 C140.717784,21.3929402 139.548176,22.7075441 138.044265,22.9944723 C139.572245,23.1618098 141.481774,24.2849796 141.481774,26.8423438 C141.481774,30.1163591 139.524106,31.5501074 135.442064,31.5501074 L128.75782,31.5501074 L128.75782,15.2032352 Z M133.86639,28.6585142 C136.587603,28.6585142 137.66227,28.3238391 137.66227,26.5554157 C137.66227,24.8347393 136.635742,24.4518709 134.63038,24.4518709 L132.410174,24.4518709 L132.410174,28.6585142 L133.86639,28.6585142 Z M134.224761,21.7994589 C136.014833,21.7994589 137.184442,21.6798684 137.184442,19.6963604 C137.184442,18.0229847 135.824059,17.4736713 134.391912,17.4736713 C133.69924,17.4736713 133.007013,17.5455149 132.410174,17.6646592 L132.410174,21.7994589 L134.224761,21.7994589 Z M148.190444,31.837214 C144.34687,31.837214 142.150288,30.2120316 142.150288,25.2887373 C142.150288,20.1981054 144.394564,18.6443203 147.832073,18.6443203 C151.222334,18.6443203 153.251321,19.9352738 153.251321,26.1013285 L145.755393,26.8898231 C145.970238,28.4190653 146.686534,29.0170182 148.142751,29.0170182 C149.455886,29.0170182 150.625495,28.7537405 151.842798,28.0370894 L152.893395,30.4507665 C151.532566,31.3829483 150.028656,31.837214 148.190444,31.837214 Z M149.861505,24.0218803 C149.813811,22.1575167 149.121585,21.4408657 147.832073,21.4408657 C146.376302,21.4408657 145.612312,22.3489509 145.612312,24.3324588 L145.612312,24.6912306 L149.861505,24.0218803 Z M167.695277,21.5127093 L165.403307,21.5127093 L165.403307,25.8380507 C165.403307,27.7506075 165.761233,29.1607054 166.931287,30.4507665 L164.591624,32.0763952 C162.25196,30.7617913 161.917659,28.15668 161.917659,25.7666533 L161.917659,21.5127093 L159.124683,21.5127093 L159.124683,25.8380507 C159.124683,27.7506075 159.482608,29.1607054 160.652663,30.4507665 L158.312999,32.0763952 C155.973336,30.7617913 155.639034,28.15668 155.639034,25.7666533 L155.639034,21.5127093 L153.800823,21.5127093 L153.800823,18.9312484 L155.639034,18.9312484 L155.639034,15.3466546 L159.124683,14.9164855 L159.124683,18.9312484 L161.917659,18.9312484 L161.917659,15.3466546 L165.403307,14.9164855 L165.403307,18.9312484 L168.005509,18.9312484 L167.695277,21.5127093 Z M174.033497,31.837214 C170.189923,31.837214 167.99334,30.2120316 167.99334,25.2887373 C167.99334,20.1981054 170.237617,18.6443203 173.675126,18.6443203 C177.065387,18.6443203 179.094373,19.9352738 179.094373,26.1013285 L171.598446,26.8898231 C171.81329,28.4190653 172.529586,29.0170182 173.985803,29.0170182 C175.298939,29.0170182 176.468547,28.7537405 177.68585,28.0370894 L178.736448,30.4507665 C177.375618,31.3829483 175.871708,31.837214 174.033497,31.837214 Z M175.704558,24.0218803 C175.656864,22.1575167 174.964637,21.4408657 173.675126,21.4408657 C172.219355,21.4408657 171.455365,22.3489509 171.455365,24.3324588 L171.455365,24.6912306 L175.704558,24.0218803 Z M180.503163,31.5503305 L180.503163,23.7590934 C180.503163,22.3008023 180.479094,20.7715601 180.168862,19.3378118 L182.890075,18.6684615 C183.176682,19.3619084 183.439666,20.150403 183.630441,20.8911506 C184.274974,19.7197877 185.325126,18.8357991 187.28324,18.6443649 L187.736998,22.2775981 L187.378627,22.2775981 C185.659427,22.2775981 184.681038,22.802815 183.988366,24.1410693 L183.988366,31.5503305 L180.503163,31.5503305 Z M187.139579,29.6381307 C187.139579,28.2525756 187.8795,27.5350321 189.264399,27.5350321 C190.648852,27.5350321 191.388772,28.2525756 191.388772,29.6381307 C191.388772,31.0241319 190.648852,31.7416754 189.264399,31.7416754 C187.8795,31.7416754 187.139579,31.0241319 187.139579,29.6381307 Z M208.123941,31.5503305 L208.123941,24.595335 C208.123941,22.4449357 207.718322,21.4886573 206.405632,21.4886573 C205.211954,21.4886573 204.686432,21.9902238 204.16091,22.9701526 L204.16091,31.5503305 L200.675707,31.5503305 L200.675707,23.3530209 C200.675707,22.2294049 200.102938,21.4886573 198.956953,21.4886573 C197.763274,21.4886573 197.238198,21.9902238 196.712677,22.9701526 L196.712677,31.5503305 L193.227474,31.5503305 L193.227474,23.7590934 C193.227474,22.3008023 193.203404,20.7715601 192.893173,19.3378118 L195.614831,18.6684615 C195.853745,19.2659682 196.068144,19.9112218 196.211225,20.5328251 C196.879827,19.3619084 197.930425,18.6443649 199.81633,18.6443649 C201.941149,18.6443649 203.063065,19.4810527 203.61221,20.6278729 C204.280813,19.3619084 205.378659,18.6443649 207.264564,18.6443649 C211.275288,18.6443649 211.609589,21.5364043 211.609589,24.1178651 L211.609589,31.5503305 L208.123941,31.5503305 Z M218.939124,31.837214 C215.09555,31.837214 212.898967,30.2120316 212.898967,25.2887373 C212.898967,20.1981054 215.143244,18.6443203 218.580753,18.6443203 C221.971014,18.6443203 224,19.9352738 224,26.1013285 L216.504073,26.8898231 C216.718917,28.4190653 217.435213,29.0170182 218.89143,29.0170182 C220.204566,29.0170182 221.374175,28.7537405 222.591477,28.0370894 L223.642075,30.4507665 C222.281245,31.3829483 220.777335,31.837214 218.939124,31.837214 Z M220.610185,24.0218803 C220.562491,22.1575167 219.870264,21.4408657 218.580753,21.4408657 C217.124982,21.4408657 216.360992,22.3489509 216.360992,24.3324588 L216.360992,24.6912306 L220.610185,24.0218803 Z M8,32.0006694 C8,18.7453029 18.7333012,8 31.9725251,8 C45.2130862,8 55.9463873,18.7453029 55.9463873,32.0006694 C55.9463873,45.2551433 45.2130862,56 31.9725251,56 C18.7333012,56 8,45.2551433 8,32.0006694 Z M42.3902458,29.8917698 L42.8297406,26.2795095 L39.1435113,26.2795095 L39.1435113,20.6605372 L34.2056579,21.2625062 L34.2056579,26.2795095 L28.6553645,26.2795095 L28.6553645,20.6605372 L23.717511,21.2625062 L23.717511,26.2795095 L21.1139723,26.2795095 L21.1139723,29.8917698 L23.717511,29.8917698 L23.717511,35.8454173 C23.717511,39.1899374 24.1913274,42.8361114 27.5058136,44.6759322 L30.8198541,42.40148 C29.1630567,40.5951268 28.6553645,38.6209897 28.6553645,35.9453736 L28.6553645,29.8917698 L34.2056579,29.8917698 L34.2056579,35.8454173 C34.2056579,39.1899374 34.67992,42.8361114 37.9939605,44.6759322 L41.308001,42.40148 C39.6507579,40.5951268 39.1435113,38.6209897 39.1435113,35.9453736 L39.1435113,29.8917698 L42.3902458,29.8917698 Z" id="Combined-Shape" fill="#000000"></path>
                <g transform="translate(8.000000, 8.000000)">
                    <ellipse fill="#000000" cx="24.0254507" cy="24" rx="24.0254507" ry="24"></ellipse>
                    <path d="M25.1766702,17.88 L26.7783669,17.88 L26.7783669,11.88 L32.6245599,11.16 L32.6245599,17.88 L36.9891835,17.88 L36.468632,22.2 L32.6245599,22.2 L32.6245599,29.44 C32.6245599,32.64 33.2251962,35 35.1872747,37.16 L31.2631177,39.88 C27.3389608,37.68 26.7783669,33.32 26.7783669,29.32 L26.7783669,22.2 L24.6561188,22.2 L20.8120467,22.2 L20.8120467,29.44 C20.8120467,32.64 21.4126829,35 23.3747614,37.16 L19.4506045,39.88 C15.5264475,37.68 14.9658537,33.32 14.9658537,29.32 L14.9658537,22.2 L11.8825875,22.2 L11.8825875,17.88 L14.9658537,17.88 L14.9658537,11.88 L20.8120467,11.16 L20.8120467,17.88 L25.1766702,17.88 Z" id="tt-logo" fill="#FFFFFF"></path>
                </g>
                <text font-family="Lato-Bold, Lato" font-size="15" font-weight="bold" fill="#000000">
                    <tspan x="61.91125" y="50">Социальная экосистема</tspan>
                </text>
            </g>
        </g>
    </g>
</svg>