<?xml version="1.0" encoding="UTF-8"?>
<svg width="223px" height="48px" viewBox="0 0 223 48" version="1.1" xmlns="http://www.w3.org/2000/svg" xmlns:xlink="http://www.w3.org/1999/xlink">
    <g stroke="none" stroke-width="1" fill="none" fill-rule="evenodd">
        <g transform="translate(-8.000000, -8.000000)">
            <g>
                <path d="M74.1574994,19.8872591 L71.8182816,31.5504644 L67.6644762,31.5504644 L63.2476871,15.155399 L67.2820355,14.6056393 L69.8369891,27.3679177 L72.2952182,15.059905 L75.876254,14.6056393 L78.5979125,27.3679177 L80.8898823,14.6056393 L84.7334561,14.9880614 L80.555581,31.5504644 L76.5689263,31.5504644 L74.1574994,19.8872591 Z M92.9937298,31.5503305 L92.9937298,24.595335 C92.9937298,22.4449357 92.5640412,21.4886573 91.2032119,21.4886573 C89.9618397,21.4886573 89.412694,21.9902238 88.8635484,22.9701526 L88.8635484,31.5503305 L85.3783456,31.5503305 L85.3783456,14.82059 L88.8635484,14.3904209 L88.8635484,20.3891379 C89.5085271,19.1463776 90.5827486,18.6443649 92.3251271,18.6443649 C96.0015502,18.6443649 96.4789325,21.5364043 96.4789325,24.1178651 L96.4789325,31.5503305 L92.9937298,31.5503305 Z M106.434159,31.8132067 C106.19569,31.2157 105.9804,30.5704463 105.837319,29.948843 C105.145093,31.120206 104.070871,31.8373033 102.184966,31.8373033 C99.0099947,31.8373033 97.7681767,30.3076148 97.7681767,27.9416847 C97.7681767,25.4798144 99.248463,24.1652105 105.336313,23.806885 C105.24048,21.9902684 104.333409,21.5364489 102.948956,21.5364489 C101.755277,21.5364489 100.561599,21.8470274 99.4633073,22.3967871 L98.4131554,19.8398691 C99.9170656,18.9790847 101.612196,18.6444095 103.498101,18.6444095 C106.816153,18.6444095 108.821516,20.6047133 108.821516,23.6158971 L108.821516,26.723021 C108.821516,28.1804196 108.845585,29.7101081 109.155817,31.1443026 L106.434159,31.8132067 Z M105.336313,26.1014177 C102.328047,26.2687553 101.253825,26.7944184 101.253825,27.8216479 C101.253825,28.7538297 101.707138,29.1366981 103.067967,29.1366981 C104.262091,29.1366981 104.858931,28.4909982 105.336313,27.4637686 L105.336313,26.1014177 Z M114.312393,32.0763059 C111.972729,30.761702 111.638874,28.1565908 111.638874,25.7665641 L111.638874,21.51262 L109.800662,21.51262 L109.800662,18.9311592 L111.638874,18.9311592 L111.638874,15.3465654 L115.124076,14.9163963 L115.124076,18.9311592 L117.726278,18.9311592 L117.416046,21.51262 L115.124076,21.51262 L115.124076,25.8384077 C115.124076,27.7505183 115.482002,29.1606162 116.652056,30.4506773 L114.312393,32.0763059 Z M122.527157,29.1365642 C123.529615,29.1365642 124.222287,28.8737327 124.222287,28.085238 C124.222287,27.2722006 123.291147,27.009369 122.097468,26.6510435 C120.211563,26.1012839 117.943663,25.4082832 117.943663,22.5403404 C117.943663,20.1266634 119.900886,18.6442757 122.551226,18.6442757 C124.222287,18.6442757 125.702128,18.8357098 127.134721,19.6964943 L126.17951,22.1574721 C125.153428,21.6800022 124.126454,21.4408211 122.885082,21.4408211 C122.001635,21.4408211 121.285785,21.7036526 121.285785,22.4921472 C121.285785,23.2810881 122.168786,23.5439196 123.505545,23.9263417 C125.46366,24.4761014 127.611657,25.1931987 127.611657,27.8938039 C127.611657,30.5703125 125.773891,31.8371694 122.861458,31.8371694 C120.688945,31.8371694 119.041954,31.4547473 117.681125,30.6421561 L118.588196,28.1566354 C119.900886,28.7777924 121.285785,29.1365642 122.527157,29.1365642 Z M128.75782,15.2032352 C130.237661,14.8685601 132.195329,14.5338849 134.033541,14.5338849 C137.49512,14.5338849 140.717784,15.5615607 140.717784,19.408986 C140.717784,21.3929402 139.548176,22.7075441 138.044265,22.9944723 C139.572245,23.1618098 141.481774,24.2849796 141.481774,26.8423438 C141.481774,30.1163591 139.524106,31.5501074 135.442064,31.5501074 L128.75782,31.5501074 L128.75782,15.2032352 Z M133.86639,28.6585142 C136.587603,28.6585142 137.66227,28.3238391 137.66227,26.5554157 C137.66227,24.8347393 136.635742,24.4518709 134.63038,24.4518709 L132.410174,24.4518709 L132.410174,28.6585142 L133.86639,28.6585142 Z M134.224761,21.7994589 C136.014833,21.7994589 137.184442,21.6798684 137.184442,19.6963604 C137.184442,18.0229847 135.824059,17.4736713 134.391912,17.4736713 C133.69924,17.4736713 133.007013,17.5455149 132.410174,17.6646592 L132.410174,21.7994589 L134.224761,21.7994589 Z M148.190444,31.837214 C144.34687,31.837214 142.150288,30.2120316 142.150288,25.2887373 C142.150288,20.1981054 144.394564,18.6443203 147.832073,18.6443203 C151.222334,18.6443203 153.251321,19.9352738 153.251321,26.1013285 L145.755393,26.8898231 C145.970238,28.4190653 146.686534,29.0170182 148.142751,29.0170182 C149.455886,29.0170182 150.625495,28.7537405 151.842798,28.0370894 L152.893395,30.4507665 C151.532566,31.3829483 150.028656,31.837214 148.190444,31.837214 Z M149.861505,24.0218803 C149.813811,22.1575167 149.121585,21.4408657 147.832073,21.4408657 C146.376302,21.4408657 145.612312,22.3489509 145.612312,24.3324588 L145.612312,24.6912306 L149.861505,24.0218803 Z M167.695277,21.5127093 L165.403307,21.5127093 L165.403307,25.8380507 C165.403307,27.7506075 165.761233,29.1607054 166.931287,30.4507665 L164.591624,32.0763952 C162.25196,30.7617913 161.917659,28.15668 161.917659,25.7666533 L161.917659,21.5127093 L159.124683,21.5127093 L159.124683,25.8380507 C159.124683,27.7506075 159.482608,29.1607054 160.652663,30.4507665 L158.312999,32.0763952 C155.973336,30.7617913 155.639034,28.15668 155.639034,25.7666533 L155.639034,21.5127093 L153.800823,21.5127093 L153.800823,18.9312484 L155.639034,18.9312484 L155.639034,15.3466546 L159.124683,14.9164855 L159.124683,18.9312484 L161.917659,18.9312484 L161.917659,15.3466546 L165.403307,14.9164855 L165.403307,18.9312484 L168.005509,18.9312484 L167.695277,21.5127093 Z M174.033497,31.837214 C170.189923,31.837214 167.99334,30.2120316 167.99334,25.2887373 C167.99334,20.1981054 170.237617,18.6443203 173.675126,18.6443203 C177.065387,18.6443203 179.094373,19.9352738 179.094373,26.1013285 L171.598446,26.8898231 C171.81329,28.4190653 172.529586,29.0170182 173.985803,29.0170182 C175.298939,29.0170182 176.468547,28.7537405 177.68585,28.0370894 L178.736448,30.4507665 C177.375618,31.3829483 175.871708,31.837214 174.033497,31.837214 Z M175.704558,24.0218803 C175.656864,22.1575167 174.964637,21.4408657 173.675126,21.4408657 C172.219355,21.4408657 171.455365,22.3489509 171.455365,24.3324588 L171.455365,24.6912306 L175.704558,24.0218803 Z M180.503163,31.5503305 L180.503163,23.7590934 C180.503163,22.3008023 180.479094,20.7715601 180.168862,19.3378118 L182.890075,18.6684615 C183.176682,19.3619084 183.439666,20.150403 183.630441,20.8911506 C184.274974,19.7197877 185.325126,18.8357991 187.28324,18.6443649 L187.736998,22.2775981 L187.378627,22.2775981 C185.659427,22.2775981 184.681038,22.802815 183.988366,24.1410693 L183.988366,31.5503305 L180.503163,31.5503305 Z M187.139579,29.6381307 C187.139579,28.2525756 187.8795,27.5350321 189.264399,27.5350321 C190.648852,27.5350321 191.388772,28.2525756 191.388772,29.6381307 C191.388772,31.0241319 190.648852,31.7416754 189.264399,31.7416754 C187.8795,31.7416754 187.139579,31.0241319 187.139579,29.6381307 Z M208.123941,31.5503305 L208.123941,24.595335 C208.123941,22.4449357 207.718322,21.4886573 206.405632,21.4886573 C205.211954,21.4886573 204.686432,21.9902238 204.16091,22.9701526 L204.16091,31.5503305 L200.675707,31.5503305 L200.675707,23.3530209 C200.675707,22.2294049 200.102938,21.4886573 198.956953,21.4886573 C197.763274,21.4886573 197.238198,21.9902238 196.712677,22.9701526 L196.712677,31.5503305 L193.227474,31.5503305 L193.227474,23.7590934 C193.227474,22.3008023 193.203404,20.7715601 192.893173,19.3378118 L195.614831,18.6684615 C195.853745,19.2659682 196.068144,19.9112218 196.211225,20.5328251 C196.879827,19.3619084 197.930425,18.6443649 199.81633,18.6443649 C201.941149,18.6443649 203.063065,19.4810527 203.61221,20.6278729 C204.280813,19.3619084 205.378659,18.6443649 207.264564,18.6443649 C211.275288,18.6443649 211.609589,21.5364043 211.609589,24.1178651 L211.609589,31.5503305 L208.123941,31.5503305 Z M218.939124,31.837214 C215.09555,31.837214 212.898967,30.2120316 212.898967,25.2887373 C212.898967,20.1981054 215.143244,18.6443203 218.580753,18.6443203 C221.971014,18.6443203 224,19.9352738 224,26.1013285 L216.504073,26.8898231 C216.718917,28.4190653 217.435213,29.0170182 218.89143,29.0170182 C220.204566,29.0170182 221.374175,28.7537405 222.591477,28.0370894 L223.642075,30.4507665 C222.281245,31.3829483 220.777335,31.837214 218.939124,31.837214 Z M220.610185,24.0218803 C220.562491,22.1575167 219.870264,21.4408657 218.580753,21.4408657 C217.124982,21.4408657 216.360992,22.3489509 216.360992,24.3324588 L216.360992,24.6912306 L220.610185,24.0218803 Z M8,32.0006694 C8,18.7453029 18.7333012,8 31.9725251,8 C45.2130862,8 55.9463873,18.7453029 55.9463873,32.0006694 C55.9463873,45.2551433 45.2130862,56 31.9725251,56 C18.7333012,56 8,45.2551433 8,32.0006694 Z M42.3902458,29.8917698 L42.8297406,26.2795095 L39.1435113,26.2795095 L39.1435113,20.6605372 L34.2056579,21.2625062 L34.2056579,26.2795095 L28.6553645,26.2795095 L28.6553645,20.6605372 L23.717511,21.2625062 L23.717511,26.2795095 L21.1139723,26.2795095 L21.1139723,29.8917698 L23.717511,29.8917698 L23.717511,35.8454173 C23.717511,39.1899374 24.1913274,42.8361114 27.5058136,44.6759322 L30.8198541,42.40148 C29.1630567,40.5951268 28.6553645,38.6209897 28.6553645,35.9453736 L28.6553645,29.8917698 L34.2056579,29.8917698 L34.2056579,35.8454173 C34.2056579,39.1899374 34.67992,42.8361114 37.9939605,44.6759322 L41.308001,42.40148 C39.6507579,40.5951268 39.1435113,38.6209897 39.1435113,35.9453736 L39.1435113,29.8917698 L42.3902458,29.8917698 Z" id="Combined-Shape" fill="#000000"></path>
                <g transform="translate(8.000000, 8.000000)">
                    <ellipse fill="#000000" cx="24.0254507" cy="24" rx="24.0254507" ry="24"></ellipse>
                    <path d="M25.1766702,17.88 L26.7783669,17.88 L26.7783669,11.88 L32.6245599,11.16 L32.6245599,17.88 L36.9891835,17.88 L36.468632,22.2 L32.6245599,22.2 L32.6245599,29.44 C32.6245599,32.64 33.2251962,35 35.1872747,37.16 L31.2631177,39.88 C27.3389608,37.68 26.7783669,33.32 26.7783669,29.32 L26.7783669,22.2 L24.6561188,22.2 L20.8120467,22.2 L20.8120467,29.44 C20.8120467,32.64 21.4126829,35 23.3747614,37.16 L19.4506045,39.88 C15.5264475,37.68 14.9658537,33.32 14.9658537,29.32 L14.9658537,22.2 L11.8825875,22.2 L11.8825875,17.88 L14.9658537,17.88 L14.9658537,11.88 L20.8120467,11.16 L20.8120467,17.88 L25.1766702,17.88 Z" fill="#FFFFFF"></path>
                </g>
                <path d="M70.56625,47.4425 C70.6762505,47.4425 70.7737496,47.4849996 70.85875,47.57 L71.65375,48.4325 C71.2137478,48.9775027 70.6725032,49.3949985 70.03,49.685 C69.3874968,49.9750015 68.6162545,50.12 67.71625,50.12 C66.911246,50.12 66.1875032,49.9825014 65.545,49.7075 C64.9024968,49.4324986 64.3537523,49.0500025 63.89875,48.56 C63.4437477,48.0699975 63.0950012,47.4850034 62.8525,46.805 C62.6099988,46.1249966 62.48875,45.382504 62.48875,44.5775 C62.48875,43.7624959 62.6187487,43.0162534 62.87875,42.33875 C63.1387513,41.6612466 63.5049976,41.0775024 63.9775,40.5875 C64.4500024,40.0974975 65.0137467,39.7162514 65.66875,39.44375 C66.3237533,39.1712486 67.048746,39.035 67.84375,39.035 C68.6337539,39.035 69.3349969,39.1649987 69.9475,39.425 C70.5600031,39.6850013 71.0812478,40.0249979 71.51125,40.445 L70.83625,41.3825 C70.7962498,41.4425003 70.7450003,41.4949998 70.6825,41.54 C70.6199997,41.5850002 70.5337505,41.6075 70.42375,41.6075 C70.3487496,41.6075 70.2712504,41.5862502 70.19125,41.54375 C70.1112496,41.5012498 70.0237505,41.4487503 69.92875,41.38625 C69.8337495,41.3237497 69.7237506,41.2550004 69.59875,41.18 C69.4737494,41.1049996 69.3287508,41.0362503 69.16375,40.97375 C68.9987492,40.9112497 68.8075011,40.8587502 68.59,40.81625 C68.3724989,40.7737498 68.1212514,40.7525 67.83625,40.7525 C67.3512476,40.7525 66.907502,40.8387491 66.505,41.01125 C66.102498,41.1837509 65.7562514,41.4337484 65.46625,41.76125 C65.1762485,42.0887516 64.9512508,42.4887476 64.79125,42.96125 C64.6312492,43.4337524 64.55125,43.972497 64.55125,44.5775 C64.55125,45.1875031 64.6374991,45.7299976 64.81,46.205 C64.9825009,46.6800024 65.2162485,47.0799984 65.51125,47.405 C65.8062515,47.7300016 66.153748,47.9787491 66.55375,48.15125 C66.953752,48.3237509 67.3837477,48.41 67.84375,48.41 C68.1187514,48.41 68.3674989,48.3950002 68.59,48.365 C68.8125011,48.3349999 69.0174991,48.2875003 69.205,48.2225 C69.3925009,48.1574997 69.5699992,48.0737505 69.7375,47.97125 C69.9050008,47.8687495 70.0712492,47.7425007 70.23625,47.5925 C70.2862502,47.5474998 70.3387497,47.5112501 70.39375,47.48375 C70.4487503,47.4562499 70.5062497,47.4425 70.56625,47.4425 Z M76.15375,42.185 C76.7237528,42.185 77.2424977,42.2774991 77.71,42.4625 C78.1775023,42.6475009 78.5774983,42.9099983 78.91,43.25 C79.2425017,43.5900017 79.4987491,44.0049975 79.67875,44.495 C79.8587509,44.9850025 79.94875,45.532497 79.94875,46.1375 C79.94875,46.747503 79.8587509,47.2974976 79.67875,47.7875 C79.4987491,48.2775025 79.2425017,48.6949983 78.91,49.04 C78.5774983,49.3850017 78.1775023,49.6499991 77.71,49.835 C77.2424977,50.0200009 76.7237528,50.1125 76.15375,50.1125 C75.5787471,50.1125 75.0562523,50.0200009 74.58625,49.835 C74.1162476,49.6499991 73.7150017,49.3850017 73.3825,49.04 C73.0499983,48.6949983 72.7925009,48.2775025 72.61,47.7875 C72.4274991,47.2974976 72.33625,46.747503 72.33625,46.1375 C72.33625,45.532497 72.4274991,44.9850025 72.61,44.495 C72.7925009,44.0049975 73.0499983,43.5900017 73.3825,43.25 C73.7150017,42.9099983 74.1162476,42.6475009 74.58625,42.4625 C75.0562523,42.2774991 75.5787471,42.185 76.15375,42.185 Z M76.15375,48.6875 C76.7937532,48.6875 77.2674985,48.4725021 77.575,48.0425 C77.8825015,47.6124978 78.03625,46.9825041 78.03625,46.1525 C78.03625,45.3224958 77.8825015,44.6900022 77.575,44.255 C77.2674985,43.8199978 76.7937532,43.6025 76.15375,43.6025 C75.5037467,43.6025 75.0225016,43.8212478 74.71,44.25875 C74.3974984,44.6962522 74.24125,45.3274959 74.24125,46.1525 C74.24125,46.9775041 74.3974984,47.6062478 74.71,48.03875 C75.0225016,48.4712522 75.5037467,48.6875 76.15375,48.6875 Z M89.48875,48.6275 L89.48875,52.025 C89.48875,52.1950008 89.4387505,52.3299995 89.33875,52.43 C89.2387495,52.5300005 89.1112508,52.58 88.95625,52.58 L87.80125,52.58 L87.80125,50 L81.36625,50 L81.36625,42.305 L83.21875,42.305 L83.21875,48.6275 L86.21875,48.6275 L86.21875,42.305 L88.07125,42.305 L88.07125,48.6275 L89.48875,48.6275 Z M97.56625,42.305 L97.56625,50 L95.71375,50 L95.71375,45.5075 C95.71375,45.3924994 95.7199999,45.2662507 95.7325,45.12875 C95.7450001,44.9912493 95.7612499,44.8525007 95.78125,44.7125 C95.6812495,44.9425011 95.5712506,45.1449991 95.45125,45.32 C95.4412499,45.33 95.3912505,45.3987494 95.30125,45.52625 C95.2112495,45.6537506 95.0950007,45.817499 94.9525,46.0175 C94.8099993,46.217501 94.6487509,46.4437487 94.46875,46.69625 C94.2887491,46.9487513 94.1062509,47.2049987 93.92125,47.465 C93.4862478,48.0800031 92.9937527,48.7749961 92.44375,49.55 C92.3737497,49.6550005 92.2825006,49.7574995 92.17,49.8575 C92.0574994,49.9575005 91.9287507,50.0075 91.78375,50.0075 L90.65125,50.0075 L90.65125,42.3125 L92.50375,42.3125 L92.50375,46.805 C92.50375,46.9200006 92.4975001,47.0462493 92.485,47.18375 C92.4724999,47.3212507 92.4562501,47.4599993 92.43625,47.6 C92.5462505,47.3549988 92.6562495,47.1525008 92.76625,46.9925 C92.77125,46.9824999 92.8187496,46.9150006 92.90875,46.79 C92.9987504,46.6649994 93.1149993,46.502501 93.2575,46.3025 C93.4000007,46.102499 93.5612491,45.8762513 93.74125,45.62375 C93.9212509,45.3712487 94.1037491,45.1125013 94.28875,44.8475 C94.7237522,44.2324969 95.2187472,43.5375039 95.77375,42.7625 C95.8437503,42.6524995 95.9362494,42.5487505 96.05125,42.45125 C96.1662506,42.3537495 96.2962493,42.305 96.44125,42.305 L97.56625,42.305 Z M103.46125,46.715 C102.926247,46.7400001 102.476252,46.7862497 102.11125,46.85375 C101.746248,46.9212503 101.453751,47.0074995 101.23375,47.1125 C101.013749,47.2175005 100.85625,47.3399993 100.76125,47.48 C100.66625,47.6200007 100.61875,47.7724992 100.61875,47.9375 C100.61875,48.2625016 100.714999,48.4949993 100.9075,48.635 C101.100001,48.7750007 101.351248,48.845 101.66125,48.845 C102.041252,48.845 102.369999,48.7762507 102.6475,48.63875 C102.925001,48.5012493 103.196249,48.2925014 103.46125,48.0125 L103.46125,46.715 Z M99.21625,43.3775 C100.101254,42.567496 101.166244,42.1625 102.41125,42.1625 C102.861252,42.1625 103.263748,42.2362493 103.61875,42.38375 C103.973752,42.5312507 104.273749,42.7362487 104.51875,42.99875 C104.763751,43.2612513 104.949999,43.5749982 105.0775,43.94 C105.205001,44.3050018 105.26875,44.7049978 105.26875,45.14 L105.26875,50 L104.42875,50 C104.253749,50 104.11875,49.9737503 104.02375,49.92125 C103.92875,49.8687497 103.85375,49.7625008 103.79875,49.6025 L103.63375,49.0475 C103.438749,49.2225009 103.248751,49.3762493 103.06375,49.50875 C102.878749,49.6412507 102.686251,49.7524995 102.48625,49.8425 C102.286249,49.9325004 102.072501,50.0012498 101.845,50.04875 C101.617499,50.0962502 101.366251,50.12 101.09125,50.12 C100.766248,50.12 100.466251,50.0762504 100.19125,49.98875 C99.9162486,49.9012496 99.678751,49.7700009 99.47875,49.595 C99.278749,49.4199991 99.1237505,49.2025013 99.01375,48.9425 C98.9037494,48.6824987 98.84875,48.3800017 98.84875,48.035 C98.84875,47.839999 98.8812497,47.646251 98.94625,47.45375 C99.0112503,47.261249 99.1174993,47.0775009 99.265,46.9025 C99.4125007,46.7274991 99.6037488,46.5625008 99.83875,46.4075 C100.073751,46.2524992 100.362498,46.1175006 100.705,46.0025 C101.047502,45.8874994 101.446248,45.7937504 101.90125,45.72125 C102.356252,45.6487496 102.876247,45.6050001 103.46125,45.59 L103.46125,45.14 C103.46125,44.6249974 103.351251,44.2437512 103.13125,43.99625 C102.911249,43.7487488 102.593752,43.625 102.17875,43.625 C101.878749,43.625 101.630001,43.6599997 101.4325,43.73 C101.234999,43.8000004 101.061251,43.8787496 100.91125,43.96625 C100.761249,44.0537504 100.625001,44.1324996 100.5025,44.2025 C100.379999,44.2725004 100.243751,44.3075 100.09375,44.3075 C99.9637494,44.3075 99.8537504,44.2737503 99.76375,44.20625 C99.6737495,44.1387497 99.6012503,44.0600005 99.54625,43.97 L99.21625,43.3775 Z M114.14875,50 L112.29625,50 L112.29625,43.7225 L110.40625,43.7225 C110.34625,44.6675047 110.253751,45.4812466 110.12875,46.16375 C110.003749,46.8462534 109.855001,47.4249976 109.6825,47.9 C109.509999,48.3750024 109.317501,48.7562486 109.105,49.04375 C108.892499,49.3312514 108.666251,49.5549992 108.42625,49.715 C108.186249,49.8750008 107.938751,49.9812497 107.68375,50.03375 C107.428749,50.0862503 107.171251,50.1125 106.91125,50.1125 C106.636249,50.1125 106.435001,50.0887502 106.3075,50.04125 C106.179999,49.9937498 106.11625,49.9275004 106.11625,49.8425 L106.11625,48.6875 L106.55875,48.6875 C106.723751,48.6875 106.888749,48.6625003 107.05375,48.6125 C107.218751,48.5624998 107.378749,48.4600008 107.53375,48.305 C107.688751,48.1499992 107.836249,47.9287514 107.97625,47.64125 C108.116251,47.3537486 108.244999,46.9737524 108.3625,46.50125 C108.480001,46.0287476 108.58375,45.4500034 108.67375,44.765 C108.76375,44.0799966 108.83375,43.2600048 108.88375,42.305 L114.14875,42.305 L114.14875,50 Z M119.12125,48.6725 C119.541252,48.6725 119.854999,48.5675011 120.0625,48.3575 C120.270001,48.1474989 120.37375,47.8775016 120.37375,47.5475 C120.37375,47.4074993 120.35,47.2725006 120.3025,47.1425 C120.255,47.0124993 120.18125,46.8975005 120.08125,46.7975 C119.981249,46.6974995 119.851251,46.6187503 119.69125,46.56125 C119.531249,46.5037497 119.338751,46.475 119.11375,46.475 L117.74125,46.475 L117.74125,48.6725 L119.12125,48.6725 Z M119.10625,45.155 C119.641253,45.155 120.093748,45.2199994 120.46375,45.35 C120.833752,45.4800007 121.133749,45.6549989 121.36375,45.875 C121.593751,46.0950011 121.759999,46.3487486 121.8625,46.63625 C121.965001,46.9237514 122.01625,47.2249984 122.01625,47.54 C122.01625,47.9000018 121.952501,48.2312485 121.825,48.53375 C121.697499,48.8362515 121.510001,49.0962489 121.2625,49.31375 C121.014999,49.5312511 120.712502,49.6999994 120.355,49.82 C119.997498,49.9400006 119.588752,50 119.12875,50 L115.97875,50 L115.97875,42.305 L117.74125,42.305 L117.74125,45.155 L119.10625,45.155 Z M129.95875,42.305 L129.95875,50 L128.10625,50 L128.10625,46.595 L125.10625,46.595 L125.10625,50 L123.25375,50 L123.25375,42.305 L125.10625,42.305 L125.10625,45.2225 L128.10625,45.2225 L128.10625,42.305 L129.95875,42.305 Z M135.86125,46.715 C135.326247,46.7400001 134.876252,46.7862497 134.51125,46.85375 C134.146248,46.9212503 133.853751,47.0074995 133.63375,47.1125 C133.413749,47.2175005 133.25625,47.3399993 133.16125,47.48 C133.06625,47.6200007 133.01875,47.7724992 133.01875,47.9375 C133.01875,48.2625016 133.114999,48.4949993 133.3075,48.635 C133.500001,48.7750007 133.751248,48.845 134.06125,48.845 C134.441252,48.845 134.769999,48.7762507 135.0475,48.63875 C135.325001,48.5012493 135.596249,48.2925014 135.86125,48.0125 L135.86125,46.715 Z M131.61625,43.3775 C132.501254,42.567496 133.566244,42.1625 134.81125,42.1625 C135.261252,42.1625 135.663748,42.2362493 136.01875,42.38375 C136.373752,42.5312507 136.673749,42.7362487 136.91875,42.99875 C137.163751,43.2612513 137.349999,43.5749982 137.4775,43.94 C137.605001,44.3050018 137.66875,44.7049978 137.66875,45.14 L137.66875,50 L136.82875,50 C136.653749,50 136.51875,49.9737503 136.42375,49.92125 C136.32875,49.8687497 136.25375,49.7625008 136.19875,49.6025 L136.03375,49.0475 C135.838749,49.2225009 135.648751,49.3762493 135.46375,49.50875 C135.278749,49.6412507 135.086251,49.7524995 134.88625,49.8425 C134.686249,49.9325004 134.472501,50.0012498 134.245,50.04875 C134.017499,50.0962502 133.766251,50.12 133.49125,50.12 C133.166248,50.12 132.866251,50.0762504 132.59125,49.98875 C132.316249,49.9012496 132.078751,49.7700009 131.87875,49.595 C131.678749,49.4199991 131.523751,49.2025013 131.41375,48.9425 C131.303749,48.6824987 131.24875,48.3800017 131.24875,48.035 C131.24875,47.839999 131.28125,47.646251 131.34625,47.45375 C131.41125,47.261249 131.517499,47.0775009 131.665,46.9025 C131.812501,46.7274991 132.003749,46.5625008 132.23875,46.4075 C132.473751,46.2524992 132.762498,46.1175006 133.105,46.0025 C133.447502,45.8874994 133.846248,45.7937504 134.30125,45.72125 C134.756252,45.6487496 135.276247,45.6050001 135.86125,45.59 L135.86125,45.14 C135.86125,44.6249974 135.751251,44.2437512 135.53125,43.99625 C135.311249,43.7487488 134.993752,43.625 134.57875,43.625 C134.278749,43.625 134.030001,43.6599997 133.8325,43.73 C133.634999,43.8000004 133.461251,43.8787496 133.31125,43.96625 C133.161249,44.0537504 133.025001,44.1324996 132.9025,44.2025 C132.779999,44.2725004 132.643751,44.3075 132.49375,44.3075 C132.363749,44.3075 132.25375,44.2737503 132.16375,44.20625 C132.07375,44.1387497 132.00125,44.0600005 131.94625,43.97 L131.61625,43.3775 Z M143.42125,45.77 L143.42125,43.5125 L142.41625,43.5125 C142.181249,43.5125 141.986251,43.5462497 141.83125,43.61375 C141.676249,43.6812503 141.55,43.7687495 141.4525,43.87625 C141.355,43.9837505 141.28625,44.1049993 141.24625,44.24 C141.20625,44.3750007 141.18625,44.5074994 141.18625,44.6375 C141.18625,44.9925018 141.304999,45.269999 141.5425,45.47 C141.780001,45.670001 142.098748,45.77 142.49875,45.77 L143.42125,45.77 Z M145.18375,42.305 L145.18375,50 L143.42125,50 L143.42125,46.91 L143.09875,46.91 C142.948749,46.91 142.825,46.9237499 142.7275,46.95125 C142.63,46.9787501 142.5475,47.0162498 142.48,47.06375 C142.4125,47.1112502 142.355,47.1699997 142.3075,47.24 C142.26,47.3100004 142.21125,47.3874996 142.16125,47.4725 L140.93125,49.3625 C140.87125,49.4675005 140.8075,49.5599996 140.74,49.64 C140.6725,49.7200004 140.595,49.7862497 140.5075,49.83875 C140.42,49.8912503 140.317501,49.9312499 140.2,49.95875 C140.082499,49.9862501 139.941251,50 139.77625,50 L138.49375,50 L140.43625,47.285 C140.541251,47.094999 140.663749,46.9425006 140.80375,46.8275 C140.943751,46.7124994 141.108749,46.6200003 141.29875,46.55 C140.938748,46.4849997 140.632501,46.3837507 140.38,46.24625 C140.127499,46.1087493 139.923751,45.9487509 139.76875,45.76625 C139.613749,45.5837491 139.50125,45.387501 139.43125,45.1775 C139.36125,44.9674989 139.32625,44.760001 139.32625,44.555 C139.32625,44.2699986 139.382499,43.9925013 139.495,43.7225 C139.607501,43.4524986 139.786249,43.2125011 140.03125,43.0025 C140.276251,42.7924989 140.591248,42.6237506 140.97625,42.49625 C141.361252,42.3687494 141.823747,42.305 142.36375,42.305 L145.18375,42.305 Z M150.14125,43.2575 C150.486252,42.9124983 150.874998,42.6475009 151.3075,42.4625 C151.740002,42.2774991 152.243747,42.185 152.81875,42.185 C153.423753,42.185 153.958748,42.284999 154.42375,42.485 C154.888752,42.685001 155.279998,42.9612482 155.5975,43.31375 C155.915002,43.6662518 156.154999,44.0837476 156.3175,44.56625 C156.480001,45.0487524 156.56125,45.5724972 156.56125,46.1375 C156.56125,46.7675031 156.470001,47.3287475 156.2875,47.82125 C156.104999,48.3137525 155.856252,48.7299983 155.54125,49.07 C155.226248,49.4100017 154.858752,49.6687491 154.43875,49.84625 C154.018748,50.0237509 153.571252,50.1125 153.09625,50.1125 C152.826249,50.1125 152.553751,50.0925002 152.27875,50.0525 C152.003749,50.0124998 151.737501,49.9437505 151.48,49.84625 C151.222499,49.7487495 150.973751,49.6187508 150.73375,49.45625 C150.493749,49.2937492 150.271251,49.0925012 150.06625,48.8525 L150.56875,48.23 C150.64875,48.1199995 150.763749,48.065 150.91375,48.065 C150.98875,48.065 151.05875,48.0812498 151.12375,48.11375 C151.18875,48.1462502 151.2575,48.1849998 151.33,48.23 C151.4025,48.2750002 151.48,48.3262497 151.5625,48.38375 C151.645,48.4412503 151.741249,48.4924998 151.85125,48.5375 C151.961251,48.5825002 152.088749,48.6212498 152.23375,48.65375 C152.378751,48.6862502 152.551249,48.7025 152.75125,48.7025 C153.266253,48.7025 153.696248,48.5312517 154.04125,48.18875 C154.386252,47.8462483 154.59875,47.3500033 154.67875,46.7 L151.41625,46.7 L151.41625,45.44 L154.66375,45.44 C154.56875,44.8599971 154.357502,44.4075016 154.03,44.0825 C153.702498,43.7574984 153.261253,43.595 152.70625,43.595 C152.451249,43.595 152.236251,43.6212497 152.06125,43.67375 C151.886249,43.7262503 151.735001,43.7837497 151.6075,43.84625 C151.479999,43.9087503 151.37,43.9662497 151.2775,44.01875 C151.185,44.0712503 151.09125,44.0975 150.99625,44.0975 C150.896249,44.0975 150.82,44.0775002 150.7675,44.0375 C150.715,43.9974998 150.66125,43.9425004 150.60625,43.8725 L150.14125,43.2575 Z M162.56875,42.7925 C162.65875,42.6474993 162.781249,42.5300005 162.93625,42.44 C163.091251,42.3499995 163.256249,42.305 163.43125,42.305 L164.88625,42.305 L163.09375,45.1625 C162.968749,45.362501 162.841251,45.5237494 162.71125,45.64625 C162.581249,45.7687506 162.423751,45.8649997 162.23875,45.935 C162.488751,46.0100004 162.693749,46.1212493 162.85375,46.26875 C163.013751,46.4162507 163.158749,46.6024989 163.28875,46.8275 L165.08875,50 L163.80625,50 C163.481248,50 163.228751,49.9450006 163.04875,49.835 C162.868749,49.7249994 162.716251,49.567501 162.59125,49.3625 L161.45875,47.2325 C161.358749,47.0474991 161.230001,46.9100004 161.0725,46.82 C160.914999,46.7299996 160.731251,46.685 160.52125,46.685 L159.82375,46.685 L159.82375,50 L157.97125,50 L157.97125,42.305 L159.82375,42.305 L159.82375,45.4775 L160.42375,45.4775 C160.633751,45.4775 160.802499,45.4387504 160.93,45.36125 C161.057501,45.2837496 161.16625,45.1650008 161.25625,45.005 L162.56875,42.7925 Z M169.52125,42.185 C170.091253,42.185 170.609998,42.2774991 171.0775,42.4625 C171.545002,42.6475009 171.944998,42.9099983 172.2775,43.25 C172.610002,43.5900017 172.866249,44.0049975 173.04625,44.495 C173.226251,44.9850025 173.31625,45.532497 173.31625,46.1375 C173.31625,46.747503 173.226251,47.2974976 173.04625,47.7875 C172.866249,48.2775025 172.610002,48.6949983 172.2775,49.04 C171.944998,49.3850017 171.545002,49.6499991 171.0775,49.835 C170.609998,50.0200009 170.091253,50.1125 169.52125,50.1125 C168.946247,50.1125 168.423752,50.0200009 167.95375,49.835 C167.483748,49.6499991 167.082502,49.3850017 166.75,49.04 C166.417498,48.6949983 166.160001,48.2775025 165.9775,47.7875 C165.794999,47.2974976 165.70375,46.747503 165.70375,46.1375 C165.70375,45.532497 165.794999,44.9850025 165.9775,44.495 C166.160001,44.0049975 166.417498,43.5900017 166.75,43.25 C167.082502,42.9099983 167.483748,42.6475009 167.95375,42.4625 C168.423752,42.2774991 168.946247,42.185 169.52125,42.185 Z M169.52125,48.6875 C170.161253,48.6875 170.634998,48.4725021 170.9425,48.0425 C171.250002,47.6124978 171.40375,46.9825041 171.40375,46.1525 C171.40375,45.3224958 171.250002,44.6900022 170.9425,44.255 C170.634998,43.8199978 170.161253,43.6025 169.52125,43.6025 C168.871247,43.6025 168.390002,43.8212478 168.0775,44.25875 C167.764998,44.6962522 167.60875,45.3274959 167.60875,46.1525 C167.60875,46.9775041 167.764998,47.6062478 168.0775,48.03875 C168.390002,48.4712522 168.871247,48.6875 169.52125,48.6875 Z M180.24625,43.9325 C180.19125,44.0025004 180.1375,44.0574998 180.085,44.0975 C180.0325,44.1375002 179.95625,44.1575 179.85625,44.1575 C179.76125,44.1575 179.66875,44.1287503 179.57875,44.07125 C179.48875,44.0137497 179.381251,43.9487504 179.25625,43.87625 C179.131249,43.8037496 178.982501,43.7387503 178.81,43.68125 C178.637499,43.6237497 178.423751,43.595 178.16875,43.595 C177.843748,43.595 177.558751,43.6537494 177.31375,43.77125 C177.068749,43.8887506 176.865001,44.0574989 176.7025,44.2775 C176.539999,44.4975011 176.41875,44.7637484 176.33875,45.07625 C176.25875,45.3887516 176.21875,45.742498 176.21875,46.1375 C176.21875,46.547502 176.2625,46.9124984 176.35,47.2325 C176.4375,47.5525016 176.563749,47.8212489 176.72875,48.03875 C176.893751,48.2562511 177.093749,48.4212494 177.32875,48.53375 C177.563751,48.6462506 177.828749,48.7025 178.12375,48.7025 C178.418751,48.7025 178.657499,48.6662504 178.84,48.59375 C179.022501,48.5212496 179.176249,48.4412504 179.30125,48.35375 C179.426251,48.2662496 179.535,48.1862504 179.6275,48.11375 C179.72,48.0412496 179.823749,48.005 179.93875,48.005 C180.088751,48.005 180.20125,48.0624994 180.27625,48.1775 L180.80875,48.8525 C180.603749,49.0925012 180.381251,49.2937492 180.14125,49.45625 C179.901249,49.6187508 179.652501,49.7487495 179.395,49.84625 C179.137499,49.9437505 178.872501,50.0124998 178.6,50.0525 C178.327499,50.0925002 178.056251,50.1125 177.78625,50.1125 C177.311248,50.1125 176.863752,50.0237509 176.44375,49.84625 C176.023748,49.6687491 175.656252,49.4100017 175.34125,49.07 C175.026248,48.7299983 174.777501,48.3137525 174.595,47.82125 C174.412499,47.3287475 174.32125,46.7675031 174.32125,46.1375 C174.32125,45.5724972 174.402499,45.0487524 174.565,44.56625 C174.727501,44.0837476 174.966248,43.6662518 175.28125,43.31375 C175.596252,42.9612482 175.986248,42.685001 176.45125,42.485 C176.916252,42.284999 177.451247,42.185 178.05625,42.185 C178.631253,42.185 179.134998,42.2774991 179.5675,42.4625 C180.000002,42.6475009 180.388748,42.9124983 180.73375,43.2575 L180.24625,43.9325 Z M188.87875,42.305 L188.87875,50 L187.02625,50 L187.02625,45.5075 C187.02625,45.3924994 187.0325,45.2662507 187.045,45.12875 C187.0575,44.9912493 187.07375,44.8525007 187.09375,44.7125 C186.993749,44.9425011 186.883751,45.1449991 186.76375,45.32 C186.75375,45.33 186.70375,45.3987494 186.61375,45.52625 C186.52375,45.6537506 186.407501,45.817499 186.265,46.0175 C186.122499,46.217501 185.961251,46.4437487 185.78125,46.69625 C185.601249,46.9487513 185.418751,47.2049987 185.23375,47.465 C184.798748,48.0800031 184.306253,48.7749961 183.75625,49.55 C183.68625,49.6550005 183.595001,49.7574995 183.4825,49.8575 C183.369999,49.9575005 183.241251,50.0075 183.09625,50.0075 L181.96375,50.0075 L181.96375,42.3125 L183.81625,42.3125 L183.81625,46.805 C183.81625,46.9200006 183.81,47.0462493 183.7975,47.18375 C183.785,47.3212507 183.76875,47.4599993 183.74875,47.6 C183.858751,47.3549988 183.968749,47.1525008 184.07875,46.9925 C184.08375,46.9824999 184.13125,46.9150006 184.22125,46.79 C184.31125,46.6649994 184.427499,46.502501 184.57,46.3025 C184.712501,46.102499 184.873749,45.8762513 185.05375,45.62375 C185.233751,45.3712487 185.416249,45.1125013 185.60125,44.8475 C186.036252,44.2324969 186.531247,43.5375039 187.08625,42.7625 C187.15625,42.6524995 187.248749,42.5487505 187.36375,42.45125 C187.478751,42.3537495 187.608749,42.305 187.75375,42.305 L188.87875,42.305 Z M196.22125,43.9325 C196.16625,44.0025004 196.1125,44.0574998 196.06,44.0975 C196.0075,44.1375002 195.93125,44.1575 195.83125,44.1575 C195.73625,44.1575 195.64375,44.1287503 195.55375,44.07125 C195.46375,44.0137497 195.356251,43.9487504 195.23125,43.87625 C195.106249,43.8037496 194.957501,43.7387503 194.785,43.68125 C194.612499,43.6237497 194.398751,43.595 194.14375,43.595 C193.818748,43.595 193.533751,43.6537494 193.28875,43.77125 C193.043749,43.8887506 192.840001,44.0574989 192.6775,44.2775 C192.514999,44.4975011 192.39375,44.7637484 192.31375,45.07625 C192.23375,45.3887516 192.19375,45.742498 192.19375,46.1375 C192.19375,46.547502 192.2375,46.9124984 192.325,47.2325 C192.4125,47.5525016 192.538749,47.8212489 192.70375,48.03875 C192.868751,48.2562511 193.068749,48.4212494 193.30375,48.53375 C193.538751,48.6462506 193.803749,48.7025 194.09875,48.7025 C194.393751,48.7025 194.632499,48.6662504 194.815,48.59375 C194.997501,48.5212496 195.151249,48.4412504 195.27625,48.35375 C195.401251,48.2662496 195.51,48.1862504 195.6025,48.11375 C195.695,48.0412496 195.798749,48.005 195.91375,48.005 C196.063751,48.005 196.17625,48.0624994 196.25125,48.1775 L196.78375,48.8525 C196.578749,49.0925012 196.356251,49.2937492 196.11625,49.45625 C195.876249,49.6187508 195.627501,49.7487495 195.37,49.84625 C195.112499,49.9437505 194.847501,50.0124998 194.575,50.0525 C194.302499,50.0925002 194.031251,50.1125 193.76125,50.1125 C193.286248,50.1125 192.838752,50.0237509 192.41875,49.84625 C191.998748,49.6687491 191.631252,49.4100017 191.31625,49.07 C191.001248,48.7299983 190.752501,48.3137525 190.57,47.82125 C190.387499,47.3287475 190.29625,46.7675031 190.29625,46.1375 C190.29625,45.5724972 190.377499,45.0487524 190.54,44.56625 C190.702501,44.0837476 190.941248,43.6662518 191.25625,43.31375 C191.571252,42.9612482 191.961248,42.685001 192.42625,42.485 C192.891252,42.284999 193.426247,42.185 194.03125,42.185 C194.606253,42.185 195.109998,42.2774991 195.5425,42.4625 C195.975002,42.6475009 196.363748,42.9124983 196.70875,43.2575 L196.22125,43.9325 Z M204.53875,43.6775 L201.79375,43.6775 L201.79375,50 L199.94125,50 L199.94125,43.6775 L197.20375,43.6775 L197.20375,42.305 L204.53875,42.305 L204.53875,43.6775 Z M210.59125,45.2675 C210.59125,45.0274988 210.5575,44.8012511 210.49,44.58875 C210.4225,44.3762489 210.321251,44.1900008 210.18625,44.03 C210.051249,43.8699992 209.880001,43.7437505 209.6725,43.65125 C209.464999,43.5587495 209.223751,43.5125 208.94875,43.5125 C208.413747,43.5125 207.992502,43.6649985 207.685,43.97 C207.377498,44.2750015 207.18125,44.7074972 207.09625,45.2675 L210.59125,45.2675 Z M207.05875,46.385 C207.08875,46.780002 207.158749,47.1212486 207.26875,47.40875 C207.378751,47.6962514 207.523749,47.9337491 207.70375,48.12125 C207.883751,48.3087509 208.097499,48.4487495 208.345,48.54125 C208.592501,48.6337505 208.866248,48.68 209.16625,48.68 C209.466251,48.68 209.724999,48.6450004 209.9425,48.575 C210.160001,48.5049997 210.349999,48.4275004 210.5125,48.3425 C210.675001,48.2574996 210.817499,48.1800004 210.94,48.11 C211.062501,48.0399996 211.181249,48.005 211.29625,48.005 C211.451251,48.005 211.56625,48.0624994 211.64125,48.1775 L212.17375,48.8525 C211.968749,49.0925012 211.738751,49.2937492 211.48375,49.45625 C211.228749,49.6187508 210.962501,49.7487495 210.685,49.84625 C210.407499,49.9437505 210.125001,50.0124998 209.8375,50.0525 C209.549999,50.0925002 209.271251,50.1125 209.00125,50.1125 C208.466247,50.1125 207.968752,50.0237509 207.50875,49.84625 C207.048748,49.6687491 206.648752,49.4062517 206.30875,49.05875 C205.968748,48.7112483 205.701251,48.2812526 205.50625,47.76875 C205.311249,47.2562474 205.21375,46.6625034 205.21375,45.9875 C205.21375,45.4624974 205.298749,44.9687523 205.46875,44.50625 C205.638751,44.0437477 205.882498,43.6412517 206.2,43.29875 C206.517502,42.9562483 206.904998,42.685001 207.3625,42.485 C207.820002,42.284999 208.336247,42.185 208.91125,42.185 C209.396252,42.185 209.843748,42.2624992 210.25375,42.4175 C210.663752,42.5725008 211.016249,42.7987485 211.31125,43.09625 C211.606251,43.3937515 211.837499,43.7587478 212.005,44.19125 C212.172501,44.6237522 212.25625,45.1174972 212.25625,45.6725 C212.25625,45.9525014 212.22625,46.1412495 212.16625,46.23875 C212.10625,46.3362505 211.991251,46.385 211.82125,46.385 L207.05875,46.385 Z M222.56125,42.29 L222.56125,50 L220.88875,50 L220.88875,45.71 C220.88875,45.5349991 220.8975,45.3375011 220.915,45.1175 C220.9325,44.8974989 220.96125,44.692501 221.00125,44.5025 L218.73625,48.6575 C218.626249,48.8725011 218.451251,48.98 218.21125,48.98 L218.01625,48.98 C217.776249,48.98 217.601251,48.8725011 217.49125,48.6575 L215.19625,44.48 C215.23125,44.670001 215.26,44.8774989 215.2825,45.1025 C215.305,45.3275011 215.31625,45.5299991 215.31625,45.71 L215.31625,50 L213.64375,50 L213.64375,42.29 L215.17375,42.29 C215.303751,42.29 215.432499,42.3174997 215.56,42.3725 C215.687501,42.4275003 215.79375,42.5374992 215.87875,42.7025 L217.69375,45.9425 C217.77375,46.0925007 217.84875,46.2512492 217.91875,46.41875 C217.98875,46.5862508 218.05375,46.7549992 218.11375,46.925 C218.17375,46.7549992 218.2375,46.5850009 218.305,46.415 C218.3725,46.2449991 218.44625,46.0875007 218.52625,45.9425 L220.32625,42.7025 C220.41625,42.5324991 220.523749,42.4212503 220.64875,42.36875 C220.773751,42.3162497 220.901249,42.29 221.03125,42.29 L222.56125,42.29 Z M228.45625,46.715 C227.921247,46.7400001 227.471252,46.7862497 227.10625,46.85375 C226.741248,46.9212503 226.448751,47.0074995 226.22875,47.1125 C226.008749,47.2175005 225.85125,47.3399993 225.75625,47.48 C225.66125,47.6200007 225.61375,47.7724992 225.61375,47.9375 C225.61375,48.2625016 225.709999,48.4949993 225.9025,48.635 C226.095001,48.7750007 226.346248,48.845 226.65625,48.845 C227.036252,48.845 227.364999,48.7762507 227.6425,48.63875 C227.920001,48.5012493 228.191249,48.2925014 228.45625,48.0125 L228.45625,46.715 Z M224.21125,43.3775 C225.096254,42.567496 226.161244,42.1625 227.40625,42.1625 C227.856252,42.1625 228.258748,42.2362493 228.61375,42.38375 C228.968752,42.5312507 229.268749,42.7362487 229.51375,42.99875 C229.758751,43.2612513 229.944999,43.5749982 230.0725,43.94 C230.200001,44.3050018 230.26375,44.7049978 230.26375,45.14 L230.26375,50 L229.42375,50 C229.248749,50 229.11375,49.9737503 229.01875,49.92125 C228.92375,49.8687497 228.84875,49.7625008 228.79375,49.6025 L228.62875,49.0475 C228.433749,49.2225009 228.243751,49.3762493 228.05875,49.50875 C227.873749,49.6412507 227.681251,49.7524995 227.48125,49.8425 C227.281249,49.9325004 227.067501,50.0012498 226.84,50.04875 C226.612499,50.0962502 226.361251,50.12 226.08625,50.12 C225.761248,50.12 225.461251,50.0762504 225.18625,49.98875 C224.911249,49.9012496 224.673751,49.7700009 224.47375,49.595 C224.273749,49.4199991 224.118751,49.2025013 224.00875,48.9425 C223.898749,48.6824987 223.84375,48.3800017 223.84375,48.035 C223.84375,47.839999 223.87625,47.646251 223.94125,47.45375 C224.00625,47.261249 224.112499,47.0775009 224.26,46.9025 C224.407501,46.7274991 224.598749,46.5625008 224.83375,46.4075 C225.068751,46.2524992 225.357498,46.1175006 225.7,46.0025 C226.042502,45.8874994 226.441248,45.7937504 226.89625,45.72125 C227.351252,45.6487496 227.871247,45.6050001 228.45625,45.59 L228.45625,45.14 C228.45625,44.6249974 228.346251,44.2437512 228.12625,43.99625 C227.906249,43.7487488 227.588752,43.625 227.17375,43.625 C226.873748,43.625 226.625001,43.6599997 226.4275,43.73 C226.229999,43.8000004 226.056251,43.8787496 225.90625,43.96625 C225.756249,44.0537504 225.620001,44.1324996 225.4975,44.2025 C225.374999,44.2725004 225.238751,44.3075 225.08875,44.3075 C224.958749,44.3075 224.84875,44.2737503 224.75875,44.20625 C224.66875,44.1387497 224.59625,44.0600005 224.54125,43.97 L224.21125,43.3775 Z" fill="#000000"></path>
            </g>
        </g>
    </g>
</svg>