<svg width="274" height="64" viewBox="0 0 274 64" fill="none" xmlns="http://www.w3.org/2000/svg">
<path fill-rule="evenodd" clip-rule="evenodd" d="M73.9098 19.497L71.5706 31.1602H67.4168L63 14.7651L67.0343 14.2153L69.5893 26.9776L72.0475 14.6696L75.6286 14.2153L78.3502 26.9776L80.6422 14.2153L84.4858 14.5978L80.3079 31.1602H76.3212L73.9098 19.497Z" fill="white"/>
<path fill-rule="evenodd" clip-rule="evenodd" d="M92.746 31.1599V24.2049C92.746 22.0545 92.3163 21.0982 90.9555 21.0982C89.7141 21.0982 89.165 21.5998 88.6158 22.5797V31.1599H85.1306V14.4302L88.6158 14V19.9987C89.2608 18.756 90.335 18.2539 92.0774 18.2539C95.7538 18.2539 96.2312 21.146 96.2312 23.7274V31.1599H92.746Z" fill="white"/>
<path fill-rule="evenodd" clip-rule="evenodd" d="M106.186 31.4227C105.948 30.8252 105.733 30.1799 105.59 29.5583C104.897 30.7297 103.823 31.4468 101.937 31.4468C98.7623 31.4468 97.5205 29.9171 97.5205 27.5512C97.5205 25.0893 99.0008 23.7747 105.089 23.4164C104.993 21.5998 104.086 21.1459 102.701 21.1459C101.508 21.1459 100.314 21.4565 99.2156 22.0063L98.1655 19.4494C99.6694 18.5886 101.365 18.2539 103.25 18.2539C106.568 18.2539 108.574 20.2142 108.574 23.2254V26.3325C108.574 27.7899 108.598 29.3196 108.908 30.7538L106.186 31.4227ZM105.089 25.7109C102.08 25.8783 101.006 26.4039 101.006 27.4312C101.006 28.3633 101.459 28.7462 102.82 28.7462C104.014 28.7462 104.611 28.1005 105.089 27.0733V25.7109Z" fill="white"/>
<path fill-rule="evenodd" clip-rule="evenodd" d="M114.065 31.6858C111.725 30.3712 111.391 27.7661 111.391 25.376V21.1221H109.553V18.5406H111.391V14.956L114.876 14.5259V18.5406H117.479L117.168 21.1221H114.876V25.4479C114.876 27.36 115.234 28.7701 116.404 30.0602L114.065 31.6858Z" fill="white"/>
<path fill-rule="evenodd" clip-rule="evenodd" d="M122.279 28.7462C123.282 28.7462 123.975 28.4834 123.975 27.6949C123.975 26.8818 123.043 26.619 121.85 26.2607C119.964 25.7109 117.696 25.0179 117.696 22.15C117.696 19.7363 119.653 18.2539 122.303 18.2539C123.975 18.2539 125.454 18.4453 126.887 19.3061L125.932 21.7671C124.906 21.2896 123.879 21.0505 122.637 21.0505C121.754 21.0505 121.038 21.3133 121.038 22.1018C121.038 22.8907 121.921 23.1535 123.258 23.536C125.216 24.0857 127.364 24.8028 127.364 27.5034C127.364 30.1799 125.526 31.4468 122.614 31.4468C120.441 31.4468 118.794 31.0644 117.433 30.2518L118.34 27.7663C119.653 28.3874 121.038 28.7462 122.279 28.7462" fill="white"/>
<path fill-rule="evenodd" clip-rule="evenodd" d="M133.619 28.2682C136.34 28.2682 137.414 27.9335 137.414 26.1651C137.414 24.4444 136.388 24.0615 134.383 24.0615H132.162V28.2682H133.619ZM133.977 21.409C135.767 21.409 136.937 21.2894 136.937 19.3059C136.937 17.6326 135.576 17.0833 134.144 17.0833C133.451 17.0833 132.759 17.1551 132.162 17.2742V21.409H133.977ZM128.51 14.8129C129.99 14.4782 131.948 14.1436 133.786 14.1436C137.247 14.1436 140.47 15.1712 140.47 19.0187C140.47 21.0026 139.3 22.3172 137.796 22.6041C139.324 22.7715 141.234 23.8946 141.234 26.452C141.234 29.726 139.276 31.1598 135.194 31.1598H128.51V14.8129Z" fill="white"/>
<path fill-rule="evenodd" clip-rule="evenodd" d="M149.614 23.6316C149.566 21.7672 148.874 21.0505 147.584 21.0505C146.128 21.0505 145.365 21.9586 145.365 23.9421V24.3009L149.614 23.6316ZM147.943 31.4468C144.099 31.4468 141.903 29.8216 141.903 24.8983C141.903 19.8077 144.147 18.2539 147.584 18.2539C150.975 18.2539 153.004 19.5449 153.004 25.7109L145.508 26.4994C145.723 28.0287 146.439 28.6266 147.895 28.6266C149.208 28.6266 150.378 28.3633 151.595 27.6467L152.646 30.0604C151.285 30.9925 149.781 31.4468 147.943 31.4468V31.4468Z" fill="white"/>
<path fill-rule="evenodd" clip-rule="evenodd" d="M167.448 21.1223L167.758 18.5409H165.156V14.5261L161.67 14.9563V18.5409H158.877V14.5261L155.391 14.9563V18.5409H153.553V21.1223H155.391V25.3763C155.391 27.7663 155.726 30.3714 158.065 31.686L160.405 30.0604C159.235 28.7703 158.877 27.3602 158.877 25.4477V21.1223H161.67V25.3763C161.67 27.7663 162.004 30.3714 164.344 31.686L166.684 30.0604C165.514 28.7703 165.156 27.3602 165.156 25.4477V21.1223H167.448Z" fill="white"/>
<path fill-rule="evenodd" clip-rule="evenodd" d="M175.457 23.6316C175.409 21.7672 174.717 21.0505 173.428 21.0505C171.972 21.0505 171.208 21.9586 171.208 23.9421V24.3009L175.457 23.6316ZM173.786 31.4468C169.942 31.4468 167.746 29.8216 167.746 24.8983C167.746 19.8077 169.99 18.2539 173.427 18.2539C176.818 18.2539 178.847 19.5449 178.847 25.7109L171.351 26.4994C171.566 28.0287 172.282 28.6266 173.738 28.6266C175.051 28.6266 176.221 28.3633 177.438 27.6467L178.489 30.0604C177.128 30.9925 175.624 31.4468 173.786 31.4468V31.4468Z" fill="white"/>
<path fill-rule="evenodd" clip-rule="evenodd" d="M180.255 31.1599V23.3686C180.255 21.9103 180.231 20.3811 179.921 18.9474L182.642 18.278C182.929 18.9714 183.192 19.7599 183.383 20.5007C184.027 19.3293 185.077 18.4453 187.036 18.2539L187.489 21.8871H187.131C185.412 21.8871 184.433 22.4124 183.741 23.7506V31.1599H180.255Z" fill="white"/>
<path fill-rule="evenodd" clip-rule="evenodd" d="M186.892 29.2476C186.892 27.8621 187.632 27.1445 189.017 27.1445C190.401 27.1445 191.141 27.8621 191.141 29.2476C191.141 30.6336 190.401 31.3512 189.017 31.3512C187.632 31.3512 186.892 30.6336 186.892 29.2476" fill="white"/>
<path fill-rule="evenodd" clip-rule="evenodd" d="M207.876 31.1599V24.2049C207.876 22.0545 207.471 21.0982 206.158 21.0982C204.964 21.0982 204.439 21.5998 203.913 22.5797V31.1599H200.428V22.9626C200.428 21.8389 199.855 21.0982 198.709 21.0982C197.516 21.0982 196.991 21.5998 196.465 22.5797V31.1599H192.98V23.3686C192.98 21.9103 192.956 20.3811 192.646 18.9474L195.367 18.278C195.606 18.8755 195.82 19.5208 195.964 20.1424C196.632 18.9714 197.683 18.2539 199.569 18.2539C201.693 18.2539 202.815 19.0906 203.365 20.2374C204.033 18.9714 205.131 18.2539 207.017 18.2539C211.028 18.2539 211.362 21.1459 211.362 23.7274V31.1599H207.876Z" fill="white"/>
<path fill-rule="evenodd" clip-rule="evenodd" d="M220.362 23.6316C220.315 21.7672 219.623 21.0505 218.333 21.0505C216.877 21.0505 216.113 21.9586 216.113 23.9421V24.3009L220.362 23.6316ZM218.692 31.4468C214.848 31.4468 212.651 29.8216 212.651 24.8983C212.651 19.8077 214.896 18.2539 218.333 18.2539C221.723 18.2539 223.752 19.5449 223.752 25.7109L216.256 26.4994C216.471 28.0287 217.188 28.6266 218.644 28.6266C219.957 28.6266 221.127 28.3633 222.344 27.6467L223.394 30.0604C222.034 30.9925 220.53 31.4468 218.692 31.4468V31.4468Z" fill="white"/>
<path d="M65.9077 38.6689H73.4741V48H71.5254V40.2749H67.8628V48H65.9077V38.6689Z" fill="white"/>
<path d="M75.0007 41.0811H76.7146V42.0713H76.7399C76.8627 41.8639 76.9917 41.6862 77.1271 41.5381C77.2626 41.3857 77.4128 41.2609 77.5778 41.1636C77.7429 41.0662 77.9248 40.9943 78.1237 40.9478C78.3269 40.9012 78.5554 40.8779 78.8093 40.8779C79.0209 40.8779 79.2388 40.9033 79.4631 40.9541C79.6874 41.0049 79.9053 41.0874 80.1169 41.2017C80.3327 41.3117 80.5358 41.4577 80.7263 41.6396C80.9167 41.8174 81.0839 42.0374 81.2277 42.2998C81.3716 42.5622 81.4859 42.869 81.5705 43.2202C81.6551 43.5672 81.6975 43.965 81.6975 44.4136C81.6975 44.9722 81.6361 45.4842 81.5134 45.9497C81.3949 46.4152 81.2129 46.8151 80.9675 47.1494C80.7263 47.4837 80.4195 47.744 80.0471 47.9302C79.6789 48.1164 79.2451 48.2095 78.7458 48.2095C78.5723 48.2095 78.3967 48.1925 78.2189 48.1587C78.0412 48.1248 77.8677 48.0677 77.6984 47.9873C77.5292 47.9069 77.3684 47.799 77.216 47.6636C77.0679 47.5239 76.9367 47.3504 76.8225 47.1431H76.7971V50.6787H75.0007V41.0811ZM78.2761 42.4902C77.9883 42.4902 77.745 42.5516 77.5461 42.6743C77.3514 42.797 77.1927 42.9557 77.07 43.1504C76.9515 43.3451 76.8648 43.5651 76.8098 43.8105C76.7548 44.056 76.7272 44.2993 76.7272 44.5405C76.7272 44.6717 76.7336 44.8156 76.7463 44.9722C76.7632 45.1245 76.7928 45.2811 76.8352 45.4419C76.8775 45.5985 76.9346 45.7508 77.0065 45.8989C77.0827 46.047 77.1779 46.1782 77.2922 46.2925C77.4064 46.4067 77.544 46.4998 77.7048 46.5718C77.8656 46.6395 78.056 46.6733 78.2761 46.6733C78.4961 46.6733 78.6866 46.6395 78.8474 46.5718C79.0082 46.4998 79.1457 46.4067 79.26 46.2925C79.3742 46.1782 79.4673 46.047 79.5393 45.8989C79.6154 45.7508 79.6747 45.5985 79.717 45.4419C79.7593 45.2811 79.7868 45.1245 79.7995 44.9722C79.8164 44.8156 79.8249 44.6717 79.8249 44.5405C79.8249 44.2993 79.7974 44.056 79.7424 43.8105C79.6874 43.5651 79.5985 43.3451 79.4758 43.1504C79.3573 42.9557 79.1986 42.797 78.9997 42.6743C78.8008 42.5516 78.5596 42.4902 78.2761 42.4902Z" fill="white"/>
<path d="M82.3861 44.5405C82.3861 44.0073 82.4665 43.5164 82.6273 43.0679C82.7924 42.6193 83.0272 42.2342 83.3319 41.9126C83.6409 41.5868 84.0132 41.3328 84.4491 41.1509C84.885 40.9689 85.3759 40.8779 85.9218 40.8779C86.4761 40.8779 86.9713 40.9689 87.4071 41.1509C87.8472 41.3328 88.2175 41.5868 88.518 41.9126C88.8227 42.2342 89.0554 42.6193 89.2162 43.0679C89.377 43.5164 89.4574 44.0073 89.4574 44.5405C89.4574 45.0737 89.377 45.5646 89.2162 46.0132C89.0554 46.4618 88.8227 46.849 88.518 47.1748C88.2175 47.5007 87.8472 47.7546 87.4071 47.9365C86.9713 48.1185 86.4761 48.2095 85.9218 48.2095C85.3759 48.2095 84.885 48.1185 84.4491 47.9365C84.0132 47.7546 83.6409 47.5007 83.3319 47.1748C83.0272 46.849 82.7924 46.4618 82.6273 46.0132C82.4665 45.5646 82.3861 45.0737 82.3861 44.5405ZM84.2587 44.5405C84.2587 44.8029 84.2862 45.0632 84.3412 45.3213C84.4005 45.5752 84.4957 45.8037 84.6269 46.0068C84.758 46.2057 84.9294 46.3665 85.141 46.4893C85.3526 46.612 85.6129 46.6733 85.9218 46.6733C86.2434 46.6733 86.51 46.6141 86.7216 46.4956C86.9374 46.3729 87.1088 46.2142 87.2357 46.0195C87.3627 45.8206 87.4516 45.5942 87.5023 45.3403C87.5574 45.0822 87.5849 44.8156 87.5849 44.5405C87.5849 44.2697 87.5574 44.0052 87.5023 43.7471C87.4516 43.4889 87.3627 43.2625 87.2357 43.0679C87.1088 42.869 86.9374 42.7103 86.7216 42.5918C86.51 42.4691 86.2434 42.4077 85.9218 42.4077C85.6129 42.4077 85.3526 42.4691 85.141 42.5918C84.9294 42.7145 84.758 42.8774 84.6269 43.0806C84.4957 43.2795 84.4005 43.508 84.3412 43.7661C84.2862 44.02 84.2587 44.2782 84.2587 44.5405Z" fill="white"/>
<path d="M92.4059 43.7979H93.7896C93.9928 43.7979 94.162 43.783 94.2975 43.7534C94.4329 43.7196 94.5387 43.673 94.6148 43.6138C94.6952 43.5503 94.7503 43.4741 94.7799 43.3853C94.8137 43.2922 94.8307 43.1842 94.8307 43.0615C94.8307 42.96 94.8137 42.8669 94.7799 42.7822C94.7503 42.6934 94.6974 42.6193 94.6212 42.5601C94.545 42.4966 94.4435 42.4479 94.3165 42.4141C94.1896 42.376 94.0309 42.3569 93.8404 42.3569H92.4059V43.7979ZM90.6095 41.0811H94.1896C94.5069 41.0811 94.8116 41.1086 95.1036 41.1636C95.3998 41.2186 95.6601 41.3159 95.8844 41.4556C96.1087 41.591 96.2864 41.7772 96.4176 42.0142C96.553 42.2469 96.6207 42.5431 96.6207 42.9028C96.6207 43.1102 96.5974 43.29 96.5509 43.4424C96.5086 43.5947 96.4493 43.7259 96.3731 43.8359C96.297 43.9417 96.2081 44.0327 96.1065 44.1089C96.0092 44.1808 95.9076 44.2422 95.8019 44.293C96.1489 44.4157 96.4133 44.6125 96.5953 44.8833C96.7773 45.1499 96.8683 45.4694 96.8683 45.8418C96.8683 46.1676 96.8111 46.4639 96.6969 46.7305C96.5868 46.9928 96.4282 47.2192 96.2208 47.4097C96.0177 47.5959 95.768 47.7419 95.4718 47.8477C95.1798 47.9492 94.8518 48 94.4879 48H90.6095V41.0811ZM92.4059 46.7241H93.7896C94.0478 46.7241 94.2551 46.6966 94.4117 46.6416C94.5725 46.5866 94.6952 46.5168 94.7799 46.4321C94.8687 46.3475 94.9259 46.2544 94.9513 46.1528C94.9809 46.0513 94.9957 45.9561 94.9957 45.8672C94.9957 45.6979 94.9724 45.5583 94.9259 45.4482C94.8836 45.334 94.8137 45.243 94.7164 45.1753C94.6233 45.1076 94.4985 45.061 94.3419 45.0356C94.1896 45.0103 94.0055 44.9976 93.7896 44.9976H92.4059V46.7241Z" fill="white"/>
<path d="M99.4041 45.0991C99.4041 45.1626 99.4104 45.2472 99.4231 45.353C99.4358 45.4588 99.4612 45.5731 99.4993 45.6958C99.5374 45.8185 99.5924 45.9434 99.6644 46.0703C99.7363 46.193 99.8315 46.3052 99.95 46.4067C100.073 46.5083 100.221 46.5908 100.394 46.6543C100.572 46.7178 100.784 46.7495 101.029 46.7495C101.156 46.7495 101.281 46.7326 101.404 46.6987C101.531 46.6606 101.647 46.6077 101.753 46.54C101.859 46.4681 101.95 46.3835 102.026 46.2861C102.106 46.1846 102.163 46.0703 102.197 45.9434H104.057C104.057 46.0703 104.029 46.2163 103.974 46.3813C103.919 46.5422 103.835 46.7072 103.721 46.8765C103.61 47.0415 103.471 47.2044 103.302 47.3652C103.132 47.526 102.931 47.6699 102.699 47.7969C102.466 47.9196 102.201 48.019 101.905 48.0952C101.613 48.1714 101.287 48.2095 100.928 48.2095C100.466 48.2095 100.033 48.1396 99.6263 48C99.2243 47.8646 98.8709 47.6488 98.5662 47.3525C98.2658 47.0521 98.0288 46.6649 97.8553 46.1909C97.6818 45.717 97.595 45.1414 97.595 44.4644C97.595 43.9946 97.6564 43.5439 97.7791 43.1123C97.9061 42.6764 98.1007 42.2935 98.3631 41.9634C98.6297 41.6333 98.9682 41.3709 99.3787 41.1763C99.7934 40.9774 100.291 40.8779 100.87 40.8779C101.484 40.8779 102 40.9795 102.419 41.1826C102.838 41.3815 103.175 41.665 103.429 42.0332C103.687 42.4014 103.871 42.8457 103.981 43.3662C104.091 43.8867 104.146 44.4644 104.146 45.0991H99.4041ZM102.28 43.9058C102.28 43.6011 102.233 43.3472 102.14 43.144C102.051 42.9409 101.937 42.7801 101.797 42.6616C101.662 42.5389 101.512 42.4543 101.346 42.4077C101.181 42.3569 101.023 42.3315 100.87 42.3315C100.722 42.3315 100.566 42.3569 100.401 42.4077C100.236 42.4543 100.083 42.5389 99.9437 42.6616C99.8082 42.7801 99.694 42.9409 99.6009 43.144C99.512 43.3472 99.4676 43.6011 99.4676 43.9058H102.28Z" fill="white"/>
<path d="M105.101 41.0811H106.815V42.0713H106.84C106.963 41.8639 107.092 41.6862 107.228 41.5381C107.363 41.3857 107.513 41.2609 107.678 41.1636C107.843 41.0662 108.025 40.9943 108.224 40.9478C108.427 40.9012 108.656 40.8779 108.91 40.8779C109.121 40.8779 109.339 40.9033 109.563 40.9541C109.788 41.0049 110.006 41.0874 110.217 41.2017C110.433 41.3117 110.636 41.4577 110.827 41.6396C111.017 41.8174 111.184 42.0374 111.328 42.2998C111.472 42.5622 111.586 42.869 111.671 43.2202C111.756 43.5672 111.798 43.965 111.798 44.4136C111.798 44.9722 111.736 45.4842 111.614 45.9497C111.495 46.4152 111.313 46.8151 111.068 47.1494C110.827 47.4837 110.52 47.744 110.147 47.9302C109.779 48.1164 109.346 48.2095 108.846 48.2095C108.673 48.2095 108.497 48.1925 108.319 48.1587C108.142 48.1248 107.968 48.0677 107.799 47.9873C107.63 47.9069 107.469 47.799 107.316 47.6636C107.168 47.5239 107.037 47.3504 106.923 47.1431H106.897V50.6787H105.101V41.0811ZM108.376 42.4902C108.089 42.4902 107.845 42.5516 107.646 42.6743C107.452 42.797 107.293 42.9557 107.17 43.1504C107.052 43.3451 106.965 43.5651 106.91 43.8105C106.855 44.056 106.828 44.2993 106.828 44.5405C106.828 44.6717 106.834 44.8156 106.847 44.9722C106.864 45.1245 106.893 45.2811 106.936 45.4419C106.978 45.5985 107.035 45.7508 107.107 45.8989C107.183 46.047 107.278 46.1782 107.393 46.2925C107.507 46.4067 107.644 46.4998 107.805 46.5718C107.966 46.6395 108.156 46.6733 108.376 46.6733C108.597 46.6733 108.787 46.6395 108.948 46.5718C109.109 46.4998 109.246 46.4067 109.36 46.2925C109.475 46.1782 109.568 46.047 109.64 45.8989C109.716 45.7508 109.775 45.5985 109.817 45.4419C109.86 45.2811 109.887 45.1245 109.9 44.9722C109.917 44.8156 109.925 44.6717 109.925 44.5405C109.925 44.2993 109.898 44.056 109.843 43.8105C109.788 43.5651 109.699 43.3451 109.576 43.1504C109.458 42.9557 109.299 42.797 109.1 42.6743C108.901 42.5516 108.66 42.4902 108.376 42.4902Z" fill="white"/>
<path d="M114.188 45.0991C114.188 45.1626 114.194 45.2472 114.207 45.353C114.219 45.4588 114.245 45.5731 114.283 45.6958C114.321 45.8185 114.376 45.9434 114.448 46.0703C114.52 46.193 114.615 46.3052 114.734 46.4067C114.856 46.5083 115.004 46.5908 115.178 46.6543C115.356 46.7178 115.567 46.7495 115.813 46.7495C115.94 46.7495 116.064 46.7326 116.187 46.6987C116.314 46.6606 116.431 46.6077 116.536 46.54C116.642 46.4681 116.733 46.3835 116.809 46.2861C116.89 46.1846 116.947 46.0703 116.981 45.9434H118.841C118.841 46.0703 118.813 46.2163 118.758 46.3813C118.703 46.5422 118.618 46.7072 118.504 46.8765C118.394 47.0415 118.254 47.2044 118.085 47.3652C117.916 47.526 117.715 47.6699 117.482 47.7969C117.249 47.9196 116.985 48.019 116.689 48.0952C116.397 48.1714 116.071 48.2095 115.711 48.2095C115.25 48.2095 114.816 48.1396 114.41 48C114.008 47.8646 113.654 47.6488 113.35 47.3525C113.049 47.0521 112.812 46.6649 112.639 46.1909C112.465 45.717 112.379 45.1414 112.379 44.4644C112.379 43.9946 112.44 43.5439 112.563 43.1123C112.69 42.6764 112.884 42.2935 113.147 41.9634C113.413 41.6333 113.752 41.3709 114.162 41.1763C114.577 40.9774 115.074 40.8779 115.654 40.8779C116.268 40.8779 116.784 40.9795 117.203 41.1826C117.622 41.3815 117.958 41.665 118.212 42.0332C118.47 42.4014 118.654 42.8457 118.764 43.3662C118.874 43.8867 118.929 44.4644 118.929 45.0991H114.188ZM117.063 43.9058C117.063 43.6011 117.017 43.3472 116.924 43.144C116.835 42.9409 116.72 42.7801 116.581 42.6616C116.445 42.5389 116.295 42.4543 116.13 42.4077C115.965 42.3569 115.806 42.3315 115.654 42.3315C115.506 42.3315 115.349 42.3569 115.184 42.4077C115.019 42.4543 114.867 42.5389 114.727 42.6616C114.592 42.7801 114.478 42.9409 114.384 43.144C114.296 43.3472 114.251 43.6011 114.251 43.9058H117.063Z" fill="white"/>
<path d="M119.935 41.0811H121.732V43.582H124.372V41.0811H126.162V48H124.372V45.0356H121.732V48H119.935V41.0811Z" fill="white"/>
<path d="M127.27 44.5405C127.27 44.0073 127.351 43.5164 127.511 43.0679C127.676 42.6193 127.911 42.2342 128.216 41.9126C128.525 41.5868 128.897 41.3328 129.333 41.1509C129.769 40.9689 130.26 40.8779 130.806 40.8779C131.36 40.8779 131.855 40.9689 132.291 41.1509C132.731 41.3328 133.102 41.5868 133.402 41.9126C133.707 42.2342 133.939 42.6193 134.1 43.0679C134.261 43.5164 134.341 44.0073 134.341 44.5405C134.341 45.0737 134.261 45.5646 134.1 46.0132C133.939 46.4618 133.707 46.849 133.402 47.1748C133.102 47.5007 132.731 47.7546 132.291 47.9365C131.855 48.1185 131.36 48.2095 130.806 48.2095C130.26 48.2095 129.769 48.1185 129.333 47.9365C128.897 47.7546 128.525 47.5007 128.216 47.1748C127.911 46.849 127.676 46.4618 127.511 46.0132C127.351 45.5646 127.27 45.0737 127.27 44.5405ZM129.143 44.5405C129.143 44.8029 129.17 45.0632 129.225 45.3213C129.284 45.5752 129.38 45.8037 129.511 46.0068C129.642 46.2057 129.813 46.3665 130.025 46.4893C130.237 46.612 130.497 46.6733 130.806 46.6733C131.127 46.6733 131.394 46.6141 131.606 46.4956C131.821 46.3729 131.993 46.2142 132.12 46.0195C132.247 45.8206 132.336 45.5942 132.386 45.3403C132.441 45.0822 132.469 44.8156 132.469 44.5405C132.469 44.2697 132.441 44.0052 132.386 43.7471C132.336 43.4889 132.247 43.2625 132.12 43.0679C131.993 42.869 131.821 42.7103 131.606 42.5918C131.394 42.4691 131.127 42.4077 130.806 42.4077C130.497 42.4077 130.237 42.4691 130.025 42.5918C129.813 42.7145 129.642 42.8774 129.511 43.0806C129.38 43.2795 129.284 43.508 129.225 43.7661C129.17 44.02 129.143 44.2782 129.143 44.5405Z" fill="white"/>
<path d="M138.264 46.5464H138.981C139.151 46.229 139.29 45.8968 139.4 45.5498C139.515 45.1986 139.606 44.8452 139.673 44.4897C139.741 44.1343 139.79 43.7873 139.819 43.4487C139.849 43.106 139.87 42.7843 139.883 42.4839C139.896 42.1834 139.9 41.9126 139.896 41.6714C139.896 41.4302 139.898 41.2334 139.902 41.0811H145.31V46.5464H146.18V49.6631H144.491V48H139.953V49.6631H138.264V46.5464ZM143.52 46.5464V42.541H141.463C141.463 42.668 141.461 42.8245 141.457 43.0107C141.457 43.1969 141.449 43.4043 141.432 43.6328C141.419 43.8571 141.398 44.0962 141.368 44.3501C141.343 44.604 141.303 44.8579 141.248 45.1118C141.197 45.3657 141.133 45.6154 141.057 45.8608C140.985 46.1063 140.894 46.3348 140.784 46.5464H143.52Z" fill="white"/>
<path d="M146.925 41.0811H148.639V42.0713H148.665C148.787 41.8639 148.917 41.6862 149.052 41.5381C149.187 41.3857 149.338 41.2609 149.503 41.1636C149.668 41.0662 149.85 40.9943 150.049 40.9478C150.252 40.9012 150.48 40.8779 150.734 40.8779C150.946 40.8779 151.164 40.9033 151.388 40.9541C151.612 41.0049 151.83 41.0874 152.042 41.2017C152.258 41.3117 152.461 41.4577 152.651 41.6396C152.842 41.8174 153.009 42.0374 153.153 42.2998C153.296 42.5622 153.411 42.869 153.495 43.2202C153.58 43.5672 153.622 43.965 153.622 44.4136C153.622 44.9722 153.561 45.4842 153.438 45.9497C153.32 46.4152 153.138 46.8151 152.892 47.1494C152.651 47.4837 152.344 47.744 151.972 47.9302C151.604 48.1164 151.17 48.2095 150.671 48.2095C150.497 48.2095 150.321 48.1925 150.144 48.1587C149.966 48.1248 149.793 48.0677 149.623 47.9873C149.454 47.9069 149.293 47.799 149.141 47.6636C148.993 47.5239 148.862 47.3504 148.747 47.1431H148.722V50.6787H146.925V41.0811ZM150.201 42.4902C149.913 42.4902 149.67 42.5516 149.471 42.6743C149.276 42.797 149.118 42.9557 148.995 43.1504C148.876 43.3451 148.79 43.5651 148.735 43.8105C148.68 44.056 148.652 44.2993 148.652 44.5405C148.652 44.6717 148.658 44.8156 148.671 44.9722C148.688 45.1245 148.718 45.2811 148.76 45.4419C148.802 45.5985 148.859 45.7508 148.931 45.8989C149.008 46.047 149.103 46.1782 149.217 46.2925C149.331 46.4067 149.469 46.4998 149.63 46.5718C149.79 46.6395 149.981 46.6733 150.201 46.6733C150.421 46.6733 150.611 46.6395 150.772 46.5718C150.933 46.4998 151.071 46.4067 151.185 46.2925C151.299 46.1782 151.392 46.047 151.464 45.8989C151.54 45.7508 151.599 45.5985 151.642 45.4419C151.684 45.2811 151.712 45.1245 151.724 44.9722C151.741 44.8156 151.75 44.6717 151.75 44.5405C151.75 44.2993 151.722 44.056 151.667 43.8105C151.612 43.5651 151.523 43.3451 151.401 43.1504C151.282 42.9557 151.123 42.797 150.925 42.6743C150.726 42.5516 150.484 42.4902 150.201 42.4902Z" fill="white"/>
<path d="M158.532 47.8857C158.397 48.2835 158.274 48.6284 158.164 48.9204C158.054 49.2166 157.944 49.4705 157.834 49.6821C157.728 49.8979 157.614 50.0736 157.491 50.209C157.373 50.3486 157.233 50.4587 157.072 50.5391C156.911 50.6195 156.723 50.6745 156.507 50.7041C156.291 50.738 156.035 50.7549 155.739 50.7549C155.621 50.7549 155.509 50.7507 155.403 50.7422C155.301 50.738 155.178 50.7295 155.035 50.7168V49.2632C155.107 49.2716 155.195 49.2801 155.301 49.2886C155.407 49.297 155.496 49.3013 155.568 49.3013C155.758 49.3013 155.919 49.2653 156.05 49.1934C156.181 49.1214 156.285 49.0347 156.361 48.9331C156.442 48.8358 156.499 48.7342 156.533 48.6284C156.566 48.5226 156.583 48.4338 156.583 48.3618L154.051 41.0811H156.063L157.548 46.1782H157.574L158.989 41.0811H160.912L158.532 47.8857Z" fill="white"/>
<path d="M161.36 42.998C161.364 42.6172 161.44 42.2935 161.588 42.0269C161.741 41.756 161.946 41.536 162.204 41.3667C162.462 41.1974 162.767 41.0747 163.118 40.9985C163.469 40.9181 163.848 40.8779 164.254 40.8779C164.712 40.8779 165.105 40.9329 165.435 41.043C165.765 41.153 166.038 41.299 166.254 41.481C166.47 41.6629 166.629 41.8724 166.73 42.1094C166.832 42.3421 166.882 42.5812 166.882 42.8267C166.882 43.0298 166.853 43.2118 166.794 43.3726C166.734 43.5291 166.654 43.6667 166.552 43.7852C166.451 43.8994 166.332 43.9946 166.197 44.0708C166.066 44.147 165.928 44.2041 165.784 44.2422V44.2676C166.025 44.3057 166.231 44.3776 166.4 44.4834C166.569 44.585 166.707 44.7077 166.813 44.8516C166.918 44.9954 166.995 45.1541 167.041 45.3276C167.092 45.4969 167.117 45.6641 167.117 45.8291C167.117 46.2607 167.033 46.6268 166.863 46.9272C166.694 47.2277 166.472 47.4731 166.197 47.6636C165.926 47.854 165.619 47.9915 165.276 48.0762C164.938 48.165 164.597 48.2095 164.254 48.2095C163.806 48.2095 163.393 48.1672 163.017 48.0825C162.644 48.0021 162.323 47.8688 162.052 47.6826C161.785 47.4922 161.576 47.2467 161.423 46.9463C161.271 46.6416 161.193 46.2692 161.189 45.8291H162.902C162.902 45.9899 162.932 46.138 162.991 46.2734C163.051 46.4089 163.133 46.5252 163.239 46.6226C163.345 46.7199 163.472 46.7961 163.62 46.8511C163.768 46.9061 163.933 46.9336 164.115 46.9336C164.335 46.9336 164.517 46.8997 164.661 46.832C164.809 46.7601 164.925 46.6712 165.01 46.5654C165.094 46.4596 165.154 46.3475 165.188 46.229C165.226 46.1063 165.245 45.9941 165.245 45.8926C165.245 45.5625 165.154 45.3319 164.972 45.2007C164.794 45.0653 164.508 44.9976 164.115 44.9976H163.29V43.7979H163.982C164.384 43.7979 164.667 43.728 164.832 43.5884C165.001 43.4487 165.086 43.2456 165.086 42.979C165.086 42.8224 165.061 42.6912 165.01 42.5854C164.963 42.4797 164.896 42.395 164.807 42.3315C164.722 42.2638 164.621 42.2173 164.502 42.1919C164.384 42.1623 164.254 42.1475 164.115 42.1475C163.797 42.1475 163.539 42.2215 163.34 42.3696C163.146 42.5135 163.048 42.723 163.048 42.998H161.36Z" fill="white"/>
<path d="M168.047 41.0811H169.844V43.4868H171.678C172.105 43.4868 172.486 43.5312 172.821 43.6201C173.159 43.709 173.445 43.8465 173.678 44.0327C173.91 44.2189 174.088 44.4559 174.211 44.7437C174.333 45.0272 174.395 45.3636 174.395 45.7529C174.395 46.1042 174.344 46.4046 174.242 46.6543C174.141 46.904 174.01 47.1134 173.849 47.2827C173.692 47.4478 173.517 47.5789 173.322 47.6763C173.127 47.7694 172.937 47.8413 172.751 47.8921C172.565 47.9386 172.391 47.9683 172.23 47.981C172.074 47.9937 171.953 48 171.868 48H168.047V41.0811ZM169.844 46.6479H171.361C171.5 46.6479 171.638 46.6374 171.773 46.6162C171.913 46.5908 172.038 46.5464 172.148 46.4829C172.262 46.4152 172.353 46.3242 172.421 46.21C172.488 46.0915 172.522 45.9391 172.522 45.7529C172.522 45.571 172.486 45.4207 172.414 45.3022C172.347 45.1838 172.251 45.0907 172.129 45.0229C172.01 44.9552 171.871 44.9087 171.71 44.8833C171.553 44.8537 171.386 44.8389 171.208 44.8389H169.844V46.6479Z" fill="white"/>
<path d="M181.615 48H179.812V45.4546H178.638C178.38 45.4546 178.158 45.4652 177.972 45.4863C177.79 45.5033 177.639 45.5477 177.521 45.6196C177.403 45.6873 177.312 45.7889 177.248 45.9243C177.189 46.0597 177.155 46.2438 177.146 46.4766L177.121 47.1431C177.113 47.2404 177.1 47.3674 177.083 47.5239C177.07 47.6805 177.03 47.8392 176.962 48H175.064C175.119 47.9069 175.164 47.818 175.198 47.7334C175.232 47.6445 175.257 47.5599 175.274 47.4795C175.295 47.3949 175.31 47.3102 175.318 47.2256C175.331 47.141 175.342 47.0521 175.35 46.959L175.439 46.1274C175.46 45.9412 175.486 45.7804 175.515 45.645C175.545 45.5096 175.593 45.3932 175.661 45.2959C175.729 45.1943 175.822 45.1076 175.94 45.0356C176.059 44.9637 176.218 44.8981 176.417 44.8389C176.353 44.8219 176.281 44.7987 176.201 44.769C176.125 44.7352 176.042 44.6929 175.953 44.6421C175.868 44.5871 175.782 44.5194 175.693 44.439C175.608 44.3543 175.528 44.2507 175.452 44.1279C175.397 44.0475 175.352 43.9629 175.318 43.874C175.289 43.7809 175.265 43.6921 175.249 43.6074C175.232 43.5186 175.221 43.436 175.217 43.3599C175.213 43.2837 175.21 43.2181 175.21 43.1631C175.21 42.9176 175.24 42.6997 175.299 42.5093C175.359 42.3146 175.435 42.1453 175.528 42.0015C175.621 41.8576 175.727 41.7349 175.845 41.6333C175.964 41.5317 176.084 41.4492 176.207 41.3857C176.342 41.3096 176.493 41.2524 176.658 41.2144C176.823 41.172 176.984 41.1424 177.14 41.1255C177.297 41.1043 177.443 41.0916 177.578 41.0874C177.714 41.0832 177.819 41.0811 177.896 41.0811H181.615V48ZM179.812 42.4331H178.365C178.213 42.4331 178.061 42.4373 177.908 42.4458C177.756 42.4543 177.618 42.4881 177.496 42.5474C177.377 42.6024 177.28 42.6912 177.204 42.814C177.132 42.9325 177.096 43.1017 177.096 43.3218C177.096 43.5376 177.132 43.7026 177.204 43.8169C177.28 43.9312 177.375 44.0158 177.489 44.0708C177.608 44.1258 177.739 44.1576 177.883 44.166C178.027 44.1745 178.171 44.1787 178.314 44.1787H179.812V42.4331Z" fill="white"/>
<path d="M183.123 41.0811H185.827L186.995 46.1021H187.027L188.169 41.0811H190.791V48H189.102V42.4331H189.077L187.776 48H186.138L184.843 42.4331H184.811V48H183.123V41.0811Z" fill="white"/>
<path d="M192.317 41.0811H194.114V45.3467H194.139L196.659 41.0811H198.544V48H196.754V43.8296H196.723L194.279 48H192.317V41.0811Z" fill="white"/>
<path fill-rule="evenodd" clip-rule="evenodd" d="M32 56C45.2548 56 56 45.2548 56 32C56 18.7452 45.2548 8 32 8C18.7452 8 8 18.7452 8 32C8 45.2548 18.7452 56 32 56Z" fill="white"/>
<path fill-rule="evenodd" clip-rule="evenodd" d="M27.43 47.88L31.35 45.16C29.39 43 28.79 40.64 28.79 37.44V30.2H31.67H32.63H34.75V37.32C34.75 41.32 35.31 45.68 39.23 47.88L43.15 45.16C41.19 43 40.59 40.64 40.59 37.44V30.2H44.43L44.95 25.88H40.59V19.16L34.75 19.88V25.88H33.15H31.67H28.79V19.16L22.95 19.88V25.88H19.87V30.2H22.95V37.32C22.95 41.32 23.51 45.68 27.43 47.88Z" fill="black"/>
</svg>
