<svg width="200" height="48" viewBox="0 0 200 48" fill="none" xmlns="http://www.w3.org/2000/svg">
<rect width="200" height="48" fill="white"/>
<path d="M21.3525 17.0703L25.1875 27.8984L29.002 17.0703H33.042V32H29.9556V27.9189L30.2632 20.8745L26.2334 32H24.1211L20.1016 20.8848L20.4092 27.9189V32H17.333V17.0703H21.3525ZM44.3418 28.9238H38.9482L37.9229 32H34.6519L40.2095 17.0703H43.0601L48.6484 32H45.3774L44.3418 28.9238ZM39.7788 26.4321H43.5112L41.6348 20.8438L39.7788 26.4321ZM55.5698 26.5347H53.1191V32H50.043V17.0703H55.5903C57.354 17.0703 58.7144 17.4634 59.6714 18.2495C60.6284 19.0356 61.1069 20.1465 61.1069 21.582C61.1069 22.6006 60.8848 23.4517 60.4404 24.1353C60.0029 24.812 59.3364 25.3521 58.4409 25.7554L61.6709 31.8564V32H58.3691L55.5698 26.5347ZM53.1191 24.043H55.6006C56.373 24.043 56.9712 23.8481 57.395 23.4585C57.8188 23.062 58.0308 22.5186 58.0308 21.8281C58.0308 21.124 57.8291 20.5703 57.4258 20.167C57.0293 19.7637 56.4175 19.562 55.5903 19.562H53.1191V24.043ZM68.1309 26.0117L66.5312 27.7344V32H63.4551V17.0703H66.5312V23.8379L67.8848 21.9819L71.689 17.0703H75.4727L70.1714 23.7046L75.6265 32H71.9658L68.1309 26.0117ZM85.7676 25.5298H79.8613V29.5288H86.793V32H76.7852V17.0703H86.7725V19.562H79.8613V23.1201H85.7676V25.5298ZM100.041 19.562H95.4678V32H92.3916V19.562H87.8799V17.0703H100.041V19.562ZM104.583 26.8013H98.8105V24.4121H104.583V26.8013ZM114.899 28.083C114.899 27.502 114.694 27.0576 114.284 26.75C113.874 26.4355 113.135 26.1074 112.069 25.7656C111.002 25.417 110.158 25.0752 109.536 24.7402C107.841 23.8242 106.993 22.5903 106.993 21.0386C106.993 20.2319 107.219 19.5142 107.67 18.8853C108.128 18.2495 108.781 17.7539 109.628 17.3984C110.483 17.043 111.44 16.8652 112.5 16.8652C113.566 16.8652 114.516 17.0601 115.35 17.4497C116.184 17.8325 116.83 18.376 117.288 19.0801C117.753 19.7842 117.985 20.584 117.985 21.4795H114.909C114.909 20.7959 114.694 20.2661 114.263 19.8901C113.833 19.5073 113.228 19.3159 112.448 19.3159C111.696 19.3159 111.112 19.4766 110.695 19.7979C110.278 20.1123 110.069 20.5293 110.069 21.0488C110.069 21.5342 110.312 21.9409 110.797 22.269C111.29 22.5972 112.011 22.9048 112.961 23.1919C114.711 23.7183 115.986 24.3711 116.786 25.1504C117.585 25.9297 117.985 26.9004 117.985 28.0625C117.985 29.3545 117.497 30.3696 116.519 31.1079C115.542 31.8394 114.226 32.2051 112.571 32.2051C111.423 32.2051 110.377 31.9966 109.434 31.5796C108.49 31.1558 107.769 30.5781 107.27 29.8467C106.778 29.1152 106.532 28.2676 106.532 27.3037H109.618C109.618 28.9512 110.603 29.7749 112.571 29.7749C113.303 29.7749 113.874 29.6279 114.284 29.334C114.694 29.0332 114.899 28.6162 114.899 28.083ZM132.218 32H129.142L123.153 22.1768V32H120.077V17.0703H123.153L129.152 26.9141V17.0703H132.218V32ZM146.717 30.1133C146.163 30.7764 145.38 31.2925 144.369 31.6616C143.357 32.0239 142.236 32.2051 141.005 32.2051C139.713 32.2051 138.579 31.9248 137.601 31.3643C136.63 30.7969 135.878 29.9766 135.345 28.9033C134.819 27.8301 134.549 26.5688 134.535 25.1196V24.1045C134.535 22.6143 134.785 21.3257 135.284 20.2388C135.79 19.145 136.514 18.311 137.458 17.7368C138.408 17.1558 139.519 16.8652 140.79 16.8652C142.561 16.8652 143.945 17.2891 144.943 18.1367C145.941 18.9775 146.532 20.2046 146.717 21.8179H143.723C143.586 20.9634 143.282 20.3379 142.81 19.9414C142.345 19.5449 141.703 19.3467 140.882 19.3467C139.836 19.3467 139.04 19.7397 138.493 20.5259C137.946 21.312 137.669 22.481 137.663 24.0327V24.9863C137.663 26.5518 137.96 27.7344 138.555 28.5342C139.149 29.334 140.021 29.7339 141.169 29.7339C142.325 29.7339 143.148 29.4878 143.641 28.9956V26.4219H140.841V24.1558H146.717V30.1133ZM149.178 30.5439C149.178 30.0723 149.335 29.6895 149.649 29.3955C149.971 29.1016 150.371 28.9546 150.849 28.9546C151.334 28.9546 151.734 29.1016 152.049 29.3955C152.37 29.6895 152.531 30.0723 152.531 30.5439C152.531 31.0088 152.374 31.3882 152.059 31.6821C151.745 31.9692 151.341 32.1128 150.849 32.1128C150.364 32.1128 149.964 31.9692 149.649 31.6821C149.335 31.3882 149.178 31.0088 149.178 30.5439ZM160.857 26.5347H158.406V32H155.33V17.0703H160.877C162.641 17.0703 164.001 17.4634 164.958 18.2495C165.916 19.0356 166.394 20.1465 166.394 21.582C166.394 22.6006 166.172 23.4517 165.728 24.1353C165.29 24.812 164.624 25.3521 163.728 25.7554L166.958 31.8564V32H163.656L160.857 26.5347ZM158.406 24.043H160.888C161.66 24.043 162.258 23.8481 162.682 23.4585C163.106 23.062 163.318 22.5186 163.318 21.8281C163.318 21.124 163.116 20.5703 162.713 20.167C162.316 19.7637 161.705 19.562 160.877 19.562H158.406V24.043ZM180.042 17.0703V26.9038C180.042 28.5376 179.529 29.8296 178.504 30.7798C177.485 31.73 176.091 32.2051 174.32 32.2051C172.577 32.2051 171.193 31.7437 170.167 30.8208C169.142 29.8979 168.619 28.6299 168.599 27.0166V17.0703H171.675V26.9243C171.675 27.9019 171.907 28.6162 172.372 29.0674C172.844 29.5117 173.493 29.7339 174.32 29.7339C176.05 29.7339 176.928 28.8247 176.956 27.0063V17.0703H180.042Z" fill="black"/>
</svg>
