<svg width="28" height="28" viewBox="0 0 28 28" fill="none" xmlns="http://www.w3.org/2000/svg">
<path fill-rule="evenodd" clip-rule="evenodd" d="M14 28C21.732 28 28 21.732 28 14C28 6.26801 21.732 0 14 0C6.26801 0 0 6.26801 0 14C0 21.732 6.26801 28 14 28Z" fill="white"/>
<path fill-rule="evenodd" clip-rule="evenodd" d="M11.3343 23.2634L13.621 21.6767C12.4777 20.4167 12.1277 19.04 12.1277 17.1734V12.95H13.8076H14.3677H15.6043V17.1034C15.6043 19.4367 15.931 21.98 18.2176 23.2634L20.5043 21.6767C19.361 20.4167 19.011 19.04 19.011 17.1734V12.95H21.251L21.5543 10.43H19.011V6.51001L15.6043 6.93001V10.43H14.671H13.8076H12.1277V6.51001L8.72098 6.93001V10.43H6.92432V12.95H8.72098V17.1034C8.72098 19.4367 9.04765 21.98 11.3343 23.2634Z" fill="black"/>
</svg>
