<?xml version="1.0" encoding="UTF-8" standalone="no"?>
<svg width="32px" height="32px" viewBox="0 0 32 32" version="1.1" xmlns="http://www.w3.org/2000/svg" xmlns:xlink="http://www.w3.org/1999/xlink">
<g stroke="none" stroke-width="1" fill="none" fill-rule="evenodd"><g transform="translate(-12.000000, -76.000000)"><g transform="translate(0.000000, 64.000000)"><g transform="translate(8.000000, 8.000000)"><g transform="translate(4.000000, 4.000000)"><path d="M15.9998002,32 C7.16353513,32 0,24.8364649 0,16.0001998 C0,7.16353513 7.16353513,0 15.9998002,0 C24.8364649,0 32,7.16353513 32,16.0001998 C32,24.8364649 24.8364649,32 15.9998002,32 Z" fill="#000000"></path><path d="M16.121626,12.4965854 L14.3079675,12.4965854 L14.3079675,9 L11.268852,9.37463415 L11.268852,12.4965854 L9.66666667,12.4965854 L9.66666667,14.7443902 L11.268852,14.7443902 L11.268852,18.449522 C11.268852,20.5308228 11.5606504,22.7998569 13.6003252,23.9445724 L15.64,22.5292878 C14.6201626,21.4053854 14.3079675,20.1770016 14.3079675,18.511961 L14.3079675,14.7443902 L15.9863415,14.7443902 L17.268852,14.7443902 L17.268852,18.449522 C17.268852,20.5308228 17.5606504,22.7998569 19.6003252,23.9445724 L21.64,22.5292878 C20.6201626,21.4053854 20.3079675,20.1770016 20.3079675,18.511961 L20.3079675,14.7443902 L22.3060163,14.7443902 L22.5765854,12.4965854 L20.3079675,12.4965854 L20.3079675,9 L17.268852,9.37463415 L17.268852,12.4965854 L16.121626,12.4965854 Z" fill="#FFFFFF"></path></g></g></g></g></g>
</svg>