<svg width="219" height="32" viewBox="0 0 219 32" fill="none" xmlns="http://www.w3.org/2000/svg">
<path fill-rule="evenodd" clip-rule="evenodd" d="M16 32C24.8366 32 32 24.8366 32 16C32 7.16344 24.8366 0 16 0C7.16344 0 0 7.16344 0 16C0 24.8366 7.16344 32 16 32Z" fill="black"/>
<path fill-rule="evenodd" clip-rule="evenodd" d="M12.9533 26.5867L15.5667 24.7734C14.26 23.3334 13.86 21.76 13.86 19.6267V14.8H15.78H16.42H17.8333V19.5467C17.8333 22.2134 18.2066 25.12 20.82 26.5867L23.4333 24.7734C22.1266 23.3334 21.7266 21.76 21.7266 19.6267V14.8H24.2866L24.6333 11.92H21.7266V7.44003L17.8333 7.92003V11.92H16.7667H15.78H13.86V7.44003L9.96666 7.92003V11.92H7.91333V14.8H9.96666V19.5467C9.96666 22.2134 10.34 25.12 12.9533 26.5867Z" fill="white"/>
<path fill-rule="evenodd" clip-rule="evenodd" d="M46.754 13.1394L44.0806 26.4688H39.3334L34.2856 7.73154L38.8963 7.10324L41.8163 21.6887L44.6257 7.6224L48.7183 7.10324L51.8288 21.6887L54.4482 7.10324L58.8408 7.54029L54.0661 26.4688H49.5099L46.754 13.1394Z" fill="black"/>
<path fill-rule="evenodd" clip-rule="evenodd" d="M68.2812 26.4685V18.5199C68.2812 16.0623 67.7901 14.9694 66.2349 14.9694C64.8162 14.9694 64.1886 15.5426 63.561 16.6626V26.4685H59.5779V7.34877L63.561 6.85715V13.7128C64.2981 12.2925 65.5258 11.7188 67.5171 11.7188C71.7187 11.7188 72.2643 15.024 72.2643 17.9742V26.4685H68.2812Z" fill="black"/>
<path fill-rule="evenodd" clip-rule="evenodd" d="M83.6415 26.7688C83.369 26.0859 83.1229 25.3485 82.9594 24.6381C82.1683 25.9768 80.9406 26.7963 78.7853 26.7963C75.1568 26.7963 73.7375 25.0481 73.7375 22.3442C73.7375 19.5306 75.4293 18.0282 82.3868 17.6187C82.2773 15.5426 81.2407 15.0239 79.6584 15.0239C78.2942 15.0239 76.93 15.3789 75.6748 16.0072L74.4747 13.085C76.1934 12.1012 78.1307 11.7188 80.286 11.7188C84.0781 11.7188 86.3699 13.9591 86.3699 17.4004V20.9514C86.3699 22.617 86.3974 24.3653 86.752 26.0043L83.6415 26.7688ZM82.3868 20.2411C78.9488 20.4323 77.7211 21.0331 77.7211 22.207C77.7211 23.2724 78.2392 23.71 79.7944 23.71C81.1591 23.71 81.8412 22.972 82.3868 21.798V20.2411Z" fill="black"/>
<path fill-rule="evenodd" clip-rule="evenodd" d="M92.6453 27.0695C89.9714 25.5671 89.5898 22.5898 89.5898 19.8584V14.9967H87.489V12.0465H89.5898V7.94978L93.5729 7.45816V12.0465H96.5469L96.1923 14.9967H93.5729V19.9405C93.5729 22.1257 93.982 23.7373 95.3192 25.2116L92.6453 27.0695Z" fill="black"/>
<path fill-rule="evenodd" clip-rule="evenodd" d="M102.033 23.7099C103.179 23.7099 103.971 23.4096 103.971 22.5084C103.971 21.5792 102.907 21.2789 101.542 20.8693C99.387 20.241 96.7952 19.449 96.7952 16.1714C96.7952 13.4129 99.032 11.7188 102.061 11.7188C103.971 11.7188 105.662 11.9375 107.299 12.9213L106.208 15.7338C105.035 15.1882 103.861 14.9148 102.442 14.9148C101.433 14.9148 100.615 15.2152 100.615 16.1163C100.615 17.018 101.624 17.3183 103.152 17.7554C105.389 18.3837 107.844 19.2032 107.844 22.2896C107.844 25.3485 105.744 26.7963 102.415 26.7963C99.9326 26.7963 98.0504 26.3593 96.4951 25.4306L97.5318 22.59C99.032 23.2999 100.615 23.7099 102.033 23.7099" fill="black"/>
<path fill-rule="evenodd" clip-rule="evenodd" d="M114.993 23.1636C118.103 23.1636 119.331 22.7811 119.331 20.7601C119.331 18.7936 118.158 18.356 115.866 18.356H113.328V23.1636H114.993ZM115.402 15.3246C117.448 15.3246 118.785 15.1879 118.785 12.9211C118.785 11.0087 117.23 10.3809 115.593 10.3809C114.802 10.3809 114.011 10.463 113.328 10.5991V15.3246H115.402ZM109.154 7.78618C110.846 7.4037 113.083 7.02121 115.184 7.02121C119.14 7.02121 122.823 8.1957 122.823 12.5928C122.823 14.8601 121.486 16.3625 119.767 16.6905C121.514 16.8817 123.696 18.1653 123.696 21.088C123.696 24.8298 121.459 26.4683 116.793 26.4683H109.154V7.78618Z" fill="black"/>
<path fill-rule="evenodd" clip-rule="evenodd" d="M133.273 17.8646C133.218 15.7339 132.427 14.9149 130.953 14.9149C129.29 14.9149 128.416 15.9527 128.416 18.2196V18.6296L133.273 17.8646ZM131.363 26.7963C126.97 26.7963 124.46 24.939 124.46 19.3124C124.46 13.4945 127.025 11.7188 130.953 11.7188C134.828 11.7188 137.147 13.1941 137.147 20.241L128.58 21.1422C128.826 22.8899 129.644 23.5733 131.308 23.5733C132.809 23.5733 134.146 23.2724 135.537 22.4533L136.738 25.2118C135.183 26.2772 133.464 26.7963 131.363 26.7963Z" fill="black"/>
<path fill-rule="evenodd" clip-rule="evenodd" d="M153.655 14.997L154.009 12.0467H151.035V7.45844L147.052 7.95006V12.0467H143.86V7.45844L139.876 7.95006V12.0467H137.775V14.997H139.876V19.8586C139.876 22.5901 140.258 25.5674 142.932 27.0698L145.606 25.2119C144.269 23.7375 143.86 22.126 143.86 19.9402V14.997H147.052V19.8586C147.052 22.5901 147.434 25.5674 150.107 27.0698L152.781 25.2119C151.444 23.7375 151.035 22.126 151.035 19.9402V14.997H153.655Z" fill="black"/>
<path fill-rule="evenodd" clip-rule="evenodd" d="M162.808 17.8646C162.753 15.7339 161.962 14.9149 160.489 14.9149C158.825 14.9149 157.952 15.9527 157.952 18.2196V18.6296L162.808 17.8646ZM160.898 26.7963C156.505 26.7963 153.995 24.939 153.995 19.3124C153.995 13.4945 156.56 11.7188 160.488 11.7188C164.363 11.7188 166.682 13.1941 166.682 20.241L158.115 21.1422C158.361 22.8899 159.179 23.5733 160.843 23.5733C162.344 23.5733 163.681 23.2724 165.072 22.4533L166.273 25.2118C164.717 26.2772 162.999 26.7963 160.898 26.7963V26.7963Z" fill="black"/>
<path fill-rule="evenodd" clip-rule="evenodd" d="M168.292 26.4684V17.5642C168.292 15.8975 168.264 14.1498 167.91 12.5113L171.02 11.7463C171.347 12.5388 171.648 13.4399 171.866 14.2865C172.602 12.9478 173.803 11.9375 176.04 11.7188L176.559 15.871H176.149C174.185 15.871 173.066 16.4713 172.275 18.0007V26.4684H168.292Z" fill="black"/>
<path fill-rule="evenodd" clip-rule="evenodd" d="M175.876 24.283C175.876 22.6995 176.722 21.8795 178.305 21.8795C179.887 21.8795 180.732 22.6995 180.732 24.283C180.732 25.867 179.887 26.687 178.305 26.687C176.722 26.687 175.876 25.867 175.876 24.283" fill="black"/>
<path fill-rule="evenodd" clip-rule="evenodd" d="M199.858 26.4684V18.5199C199.858 16.0623 199.395 14.9694 197.895 14.9694C196.531 14.9694 195.93 15.5426 195.329 16.6625V26.4684H191.346V17.1001C191.346 15.8159 190.692 14.9694 189.382 14.9694C188.018 14.9694 187.418 15.5426 186.817 16.6625V26.4684H182.834V17.5642C182.834 15.8975 182.806 14.1498 182.452 12.5113L185.562 11.7463C185.835 12.4292 186.08 13.1666 186.244 13.877C187.008 12.5388 188.209 11.7188 190.364 11.7188C192.792 11.7188 194.075 12.675 194.702 13.9856C195.466 12.5388 196.721 11.7188 198.876 11.7188C203.46 11.7188 203.842 15.0239 203.842 17.9742V26.4684H199.858Z" fill="black"/>
<path fill-rule="evenodd" clip-rule="evenodd" d="M214.128 17.8646C214.074 15.7339 213.283 14.9149 211.809 14.9149C210.145 14.9149 209.272 15.9527 209.272 18.2196V18.6296L214.128 17.8646ZM212.219 26.7963C207.826 26.7963 205.316 24.939 205.316 19.3124C205.316 13.4945 207.881 11.7188 211.809 11.7188C215.684 11.7188 218.003 13.1941 218.003 20.241L209.436 21.1422C209.681 22.8899 210.5 23.5733 212.164 23.5733C213.665 23.5733 215.002 23.2724 216.393 22.4533L217.594 25.2118C216.038 26.2772 214.32 26.7963 212.219 26.7963Z" fill="black"/>
</svg>
