<svg width="191" height="28" viewBox="0 0 191 28" fill="none" xmlns="http://www.w3.org/2000/svg">
<path fill-rule="evenodd" clip-rule="evenodd" d="M14 28C21.732 28 28 21.732 28 14C28 6.26801 21.732 0 14 0C6.26801 0 0 6.26801 0 14C0 21.732 6.26801 28 14 28Z" fill="white"/>
<path fill-rule="evenodd" clip-rule="evenodd" d="M11.3343 23.2634L13.621 21.6767C12.4777 20.4167 12.1277 19.04 12.1277 17.1734V12.95H13.8076H14.3677H15.6043V17.1034C15.6043 19.4367 15.931 21.98 18.2176 23.2634L20.5043 21.6767C19.361 20.4167 19.011 19.04 19.011 17.1734V12.95H21.251L21.5543 10.43H19.011V6.51004L15.6043 6.93004V10.43H14.671H13.8076H12.1277V6.51004L8.72098 6.93004V10.43H6.92432V12.95H8.72098V17.1034C8.72098 19.4367 9.04765 21.98 11.3343 23.2634Z" fill="#3786bd"/>
<path fill-rule="evenodd" clip-rule="evenodd" d="M40.9098 11.497L38.5706 23.1602H34.4168L30 6.76509L34.0343 6.21533L36.5893 18.9776L39.0475 6.6696L42.6286 6.21533L45.3502 18.9776L47.6422 6.21533L51.4858 6.59775L47.3079 23.1602H43.3212L40.9098 11.497Z" fill="white"/>
<path fill-rule="evenodd" clip-rule="evenodd" d="M59.7462 23.1599V16.2049C59.7462 14.0545 59.3166 13.0982 57.9557 13.0982C56.7144 13.0982 56.1652 13.5998 55.6161 14.5797V23.1599H52.1309V6.43017L55.6161 6V11.9987C56.261 10.756 57.3353 10.2539 59.0776 10.2539C62.7541 10.2539 63.2314 13.146 63.2314 15.7274V23.1599H59.7462Z" fill="white"/>
<path fill-rule="evenodd" clip-rule="evenodd" d="M73.1865 23.4227C72.948 22.8252 72.7327 22.1799 72.5897 21.5583C71.8974 22.7297 70.8232 23.4468 68.9373 23.4468C65.7623 23.4468 64.5205 21.9171 64.5205 19.5512C64.5205 17.0893 66.0008 15.7747 72.0886 15.4164C71.9928 13.5998 71.0857 13.1459 69.7013 13.1459C68.5076 13.1459 67.3139 13.4565 66.2156 14.0063L65.1655 11.4494C66.6694 10.5886 68.3645 10.2539 70.2504 10.2539C73.5685 10.2539 75.5738 12.2142 75.5738 15.2254V18.3325C75.5738 19.7899 75.5979 21.3196 75.9081 22.7538L73.1865 23.4227ZM72.0886 17.7109C69.0803 17.8783 68.0061 18.4039 68.0061 19.4312C68.0061 20.3633 68.4594 20.7462 69.8202 20.7462C71.0144 20.7462 71.6112 20.1005 72.0886 19.0733V17.7109Z" fill="white"/>
<path fill-rule="evenodd" clip-rule="evenodd" d="M81.0645 23.6858C78.7248 22.3712 78.3909 19.7661 78.3909 17.376V13.1221H76.5527V10.5406H78.3909V6.95605L81.8761 6.52588V10.5406H84.4784L84.1681 13.1221H81.8761V17.4479C81.8761 19.36 82.2341 20.7701 83.4041 22.0602L81.0645 23.6858Z" fill="white"/>
<path fill-rule="evenodd" clip-rule="evenodd" d="M89.2796 20.7462C90.2821 20.7462 90.9748 20.4834 90.9748 19.6949C90.9748 18.8818 90.0436 18.619 88.8499 18.2607C86.964 17.7109 84.6961 17.0179 84.6961 14.15C84.6961 11.7363 86.6534 10.2539 89.3037 10.2539C90.9748 10.2539 92.4546 10.4453 93.8872 11.3061L92.932 13.7671C91.9059 13.2896 90.8789 13.0505 89.6376 13.0505C88.7541 13.0505 88.0383 13.3133 88.0383 14.1018C88.0383 14.8907 88.9213 15.1536 90.258 15.536C92.2161 16.0857 94.3641 16.8028 94.3641 19.5034C94.3641 22.1799 92.5264 23.4468 89.6139 23.4468C87.4414 23.4468 85.7944 23.0644 84.4336 22.2518L85.3407 19.7663C86.6534 20.3874 88.0383 20.7462 89.2796 20.7462Z" fill="white"/>
<path fill-rule="evenodd" clip-rule="evenodd" d="M100.618 20.2682C103.34 20.2682 104.414 19.9335 104.414 18.1651C104.414 16.4444 103.388 16.0615 101.382 16.0615H99.1621V20.2682H100.618ZM100.977 13.409C102.767 13.409 103.936 13.2894 103.936 11.3059C103.936 9.63257 102.576 9.08325 101.144 9.08325C100.451 9.08325 99.7589 9.1551 99.1621 9.27424V13.409H100.977ZM95.5098 6.8129C96.9896 6.47823 98.9473 6.14355 100.785 6.14355C104.247 6.14355 107.47 7.17123 107.47 11.0187C107.47 13.0026 106.3 14.3172 104.796 14.6041C106.324 14.7715 108.234 15.8946 108.234 18.452C108.234 21.726 106.276 23.1598 102.194 23.1598H95.5098V6.8129Z" fill="white"/>
<path fill-rule="evenodd" clip-rule="evenodd" d="M116.613 15.6316C116.566 13.7672 115.874 13.0505 114.584 13.0505C113.128 13.0505 112.364 13.9586 112.364 15.9421V16.3009L116.613 15.6316ZM114.943 23.4468C111.099 23.4468 108.902 21.8216 108.902 16.8983C108.902 11.8077 111.147 10.2539 114.584 10.2539C117.974 10.2539 120.003 11.5449 120.003 17.7109L112.507 18.4994C112.722 20.0287 113.439 20.6266 114.895 20.6266C116.208 20.6266 117.378 20.3633 118.595 19.6467L119.645 22.0604C118.285 22.9925 116.781 23.4468 114.943 23.4468Z" fill="white"/>
<path fill-rule="evenodd" clip-rule="evenodd" d="M134.448 13.1223L134.758 10.5409H132.156V6.52612L128.67 6.95629V10.5409H125.877V6.52612L122.391 6.95629V10.5409H120.553V13.1223H122.391V17.3763C122.391 19.7663 122.726 22.3714 125.065 23.686L127.405 22.0604C126.235 20.7703 125.877 19.3602 125.877 17.4477V13.1223H128.67V17.3763C128.67 19.7663 129.004 22.3714 131.344 23.686L133.684 22.0604C132.514 20.7703 132.156 19.3602 132.156 17.4477V13.1223H134.448Z" fill="white"/>
<path fill-rule="evenodd" clip-rule="evenodd" d="M142.457 15.6316C142.409 13.7672 141.717 13.0505 140.428 13.0505C138.972 13.0505 138.208 13.9586 138.208 15.9421V16.3009L142.457 15.6316ZM140.786 23.4468C136.942 23.4468 134.746 21.8216 134.746 16.8983C134.746 11.8077 136.99 10.2539 140.427 10.2539C143.818 10.2539 145.847 11.5449 145.847 17.7109L138.351 18.4994C138.566 20.0287 139.282 20.6266 140.738 20.6266C142.051 20.6266 143.221 20.3633 144.438 19.6467L145.489 22.0604C144.128 22.9925 142.624 23.4468 140.786 23.4468Z" fill="white"/>
<path fill-rule="evenodd" clip-rule="evenodd" d="M147.255 23.1599V15.3686C147.255 13.9103 147.231 12.3811 146.921 10.9474L149.642 10.278C149.929 10.9714 150.192 11.7599 150.382 12.5007C151.027 11.3293 152.077 10.4453 154.035 10.2539L154.489 13.8871H154.131C152.411 13.8871 151.433 14.4124 150.74 15.7506V23.1599H147.255Z" fill="white"/>
<path fill-rule="evenodd" clip-rule="evenodd" d="M153.892 21.2476C153.892 19.8621 154.632 19.1445 156.016 19.1445C157.401 19.1445 158.141 19.8621 158.141 21.2476C158.141 22.6336 157.401 23.3512 156.016 23.3512C154.632 23.3512 153.892 22.6336 153.892 21.2476Z" fill="white"/>
<path fill-rule="evenodd" clip-rule="evenodd" d="M174.876 23.1599V16.2049C174.876 14.0545 174.471 13.0982 173.158 13.0982C171.964 13.0982 171.439 13.5998 170.913 14.5797V23.1599H167.428V14.9626C167.428 13.8389 166.855 13.0982 165.709 13.0982C164.516 13.0982 163.991 13.5998 163.465 14.5797V23.1599H159.98V15.3686C159.98 13.9103 159.956 12.3811 159.646 10.9474L162.367 10.278C162.606 10.8755 162.82 11.5208 162.964 12.1424C163.632 10.9714 164.683 10.2539 166.569 10.2539C168.693 10.2539 169.815 11.0906 170.365 12.2374C171.033 10.9714 172.131 10.2539 174.017 10.2539C178.028 10.2539 178.362 13.1459 178.362 15.7274V23.1599H174.876Z" fill="white"/>
<path fill-rule="evenodd" clip-rule="evenodd" d="M187.362 15.6316C187.315 13.7672 186.623 13.0505 185.333 13.0505C183.877 13.0505 183.113 13.9586 183.113 15.9421V16.3009L187.362 15.6316ZM185.692 23.4468C181.848 23.4468 179.651 21.8216 179.651 16.8983C179.651 11.8077 181.896 10.2539 185.333 10.2539C188.723 10.2539 190.752 11.5449 190.752 17.7109L183.256 18.4994C183.471 20.0287 184.188 20.6266 185.644 20.6266C186.957 20.6266 188.127 20.3633 189.344 19.6467L190.394 22.0604C189.034 22.9925 187.53 23.4468 185.692 23.4468Z" fill="white"/>
</svg>
