<svg width="274" height="64" viewBox="0 0 274 64" fill="none" xmlns="http://www.w3.org/2000/svg">
<path fill-rule="evenodd" clip-rule="evenodd" d="M73.9098 19.497L71.5706 31.1602H67.4168L63 14.7651L67.0343 14.2153L69.5893 26.9776L72.0475 14.6696L75.6286 14.2153L78.3502 26.9776L80.6422 14.2153L84.4858 14.5978L80.3079 31.1602H76.3212L73.9098 19.497Z" fill="black"/>
<path fill-rule="evenodd" clip-rule="evenodd" d="M92.746 31.1599V24.2049C92.746 22.0545 92.3163 21.0982 90.9555 21.0982C89.7141 21.0982 89.165 21.5998 88.6158 22.5797V31.1599H85.1306V14.4302L88.6158 14V19.9987C89.2608 18.756 90.335 18.2539 92.0774 18.2539C95.7538 18.2539 96.2312 21.146 96.2312 23.7274V31.1599H92.746Z" fill="black"/>
<path fill-rule="evenodd" clip-rule="evenodd" d="M106.186 31.4227C105.948 30.8252 105.733 30.1799 105.59 29.5583C104.897 30.7297 103.823 31.4468 101.937 31.4468C98.7623 31.4468 97.5205 29.9171 97.5205 27.5512C97.5205 25.0893 99.0008 23.7747 105.089 23.4164C104.993 21.5998 104.086 21.1459 102.701 21.1459C101.508 21.1459 100.314 21.4565 99.2156 22.0063L98.1655 19.4494C99.6694 18.5886 101.365 18.2539 103.25 18.2539C106.568 18.2539 108.574 20.2142 108.574 23.2254V26.3325C108.574 27.7899 108.598 29.3196 108.908 30.7538L106.186 31.4227ZM105.089 25.7109C102.08 25.8783 101.006 26.4039 101.006 27.4312C101.006 28.3633 101.459 28.7462 102.82 28.7462C104.014 28.7462 104.611 28.1005 105.089 27.0733V25.7109Z" fill="black"/>
<path fill-rule="evenodd" clip-rule="evenodd" d="M114.065 31.6858C111.725 30.3712 111.391 27.7661 111.391 25.376V21.1221H109.553V18.5406H111.391V14.956L114.876 14.5259V18.5406H117.479L117.168 21.1221H114.876V25.4479C114.876 27.36 115.234 28.7701 116.404 30.0602L114.065 31.6858Z" fill="black"/>
<path fill-rule="evenodd" clip-rule="evenodd" d="M122.279 28.7462C123.282 28.7462 123.975 28.4834 123.975 27.6949C123.975 26.8818 123.043 26.619 121.85 26.2607C119.964 25.7109 117.696 25.0179 117.696 22.15C117.696 19.7363 119.653 18.2539 122.303 18.2539C123.975 18.2539 125.454 18.4453 126.887 19.3061L125.932 21.7671C124.906 21.2896 123.879 21.0505 122.637 21.0505C121.754 21.0505 121.038 21.3133 121.038 22.1018C121.038 22.8907 121.921 23.1536 123.258 23.536C125.216 24.0857 127.364 24.8028 127.364 27.5034C127.364 30.1799 125.526 31.4468 122.614 31.4468C120.441 31.4468 118.794 31.0644 117.433 30.2518L118.34 27.7663C119.653 28.3874 121.038 28.7462 122.279 28.7462Z" fill="black"/>
<path fill-rule="evenodd" clip-rule="evenodd" d="M133.619 28.2682C136.34 28.2682 137.414 27.9335 137.414 26.1651C137.414 24.4444 136.388 24.0615 134.383 24.0615H132.162V28.2682H133.619ZM133.977 21.409C135.767 21.409 136.937 21.2894 136.937 19.3059C136.937 17.6326 135.576 17.0833 134.144 17.0833C133.451 17.0833 132.759 17.1551 132.162 17.2742V21.409H133.977ZM128.51 14.8129C129.99 14.4782 131.948 14.1436 133.786 14.1436C137.247 14.1436 140.47 15.1712 140.47 19.0187C140.47 21.0026 139.3 22.3172 137.796 22.6041C139.324 22.7715 141.234 23.8946 141.234 26.452C141.234 29.726 139.276 31.1598 135.194 31.1598H128.51V14.8129Z" fill="black"/>
<path fill-rule="evenodd" clip-rule="evenodd" d="M149.614 23.6316C149.566 21.7672 148.874 21.0505 147.584 21.0505C146.128 21.0505 145.365 21.9586 145.365 23.9421V24.3009L149.614 23.6316ZM147.943 31.4468C144.099 31.4468 141.903 29.8216 141.903 24.8983C141.903 19.8077 144.147 18.2539 147.584 18.2539C150.975 18.2539 153.004 19.5449 153.004 25.7109L145.508 26.4994C145.723 28.0287 146.439 28.6266 147.895 28.6266C149.208 28.6266 150.378 28.3633 151.595 27.6467L152.646 30.0604C151.285 30.9925 149.781 31.4468 147.943 31.4468Z" fill="black"/>
<path fill-rule="evenodd" clip-rule="evenodd" d="M167.448 21.1223L167.758 18.5409H165.156V14.5261L161.67 14.9563V18.5409H158.877V14.5261L155.391 14.9563V18.5409H153.553V21.1223H155.391V25.3763C155.391 27.7663 155.726 30.3714 158.065 31.686L160.405 30.0604C159.235 28.7703 158.877 27.3602 158.877 25.4477V21.1223H161.67V25.3763C161.67 27.7663 162.004 30.3714 164.344 31.686L166.684 30.0604C165.514 28.7703 165.156 27.3602 165.156 25.4477V21.1223H167.448Z" fill="black"/>
<path fill-rule="evenodd" clip-rule="evenodd" d="M175.457 23.6316C175.409 21.7672 174.717 21.0505 173.428 21.0505C171.972 21.0505 171.208 21.9586 171.208 23.9421V24.3009L175.457 23.6316ZM173.786 31.4468C169.942 31.4468 167.746 29.8216 167.746 24.8983C167.746 19.8077 169.99 18.2539 173.427 18.2539C176.818 18.2539 178.847 19.5449 178.847 25.7109L171.351 26.4994C171.566 28.0287 172.282 28.6266 173.738 28.6266C175.051 28.6266 176.221 28.3633 177.438 27.6467L178.489 30.0604C177.128 30.9925 175.624 31.4468 173.786 31.4468Z" fill="black"/>
<path fill-rule="evenodd" clip-rule="evenodd" d="M180.255 31.1599V23.3686C180.255 21.9103 180.231 20.3811 179.921 18.9474L182.642 18.278C182.929 18.9714 183.192 19.7599 183.383 20.5007C184.027 19.3293 185.077 18.4453 187.036 18.2539L187.489 21.8871H187.131C185.412 21.8871 184.433 22.4124 183.741 23.7506V31.1599H180.255Z" fill="black"/>
<path fill-rule="evenodd" clip-rule="evenodd" d="M186.892 29.2476C186.892 27.8621 187.632 27.1445 189.017 27.1445C190.401 27.1445 191.141 27.8621 191.141 29.2476C191.141 30.6336 190.401 31.3512 189.017 31.3512C187.632 31.3512 186.892 30.6336 186.892 29.2476Z" fill="black"/>
<path fill-rule="evenodd" clip-rule="evenodd" d="M207.876 31.1599V24.2049C207.876 22.0545 207.471 21.0982 206.158 21.0982C204.964 21.0982 204.439 21.5998 203.913 22.5797V31.1599H200.428V22.9626C200.428 21.8389 199.855 21.0982 198.709 21.0982C197.516 21.0982 196.991 21.5998 196.465 22.5797V31.1599H192.98V23.3686C192.98 21.9103 192.956 20.3811 192.646 18.9474L195.367 18.278C195.606 18.8755 195.82 19.5208 195.964 20.1424C196.632 18.9714 197.683 18.2539 199.569 18.2539C201.693 18.2539 202.815 19.0906 203.365 20.2374C204.033 18.9714 205.131 18.2539 207.017 18.2539C211.028 18.2539 211.362 21.1459 211.362 23.7274V31.1599H207.876Z" fill="black"/>
<path fill-rule="evenodd" clip-rule="evenodd" d="M220.362 23.6316C220.315 21.7672 219.623 21.0505 218.333 21.0505C216.877 21.0505 216.113 21.9586 216.113 23.9421V24.3009L220.362 23.6316ZM218.692 31.4468C214.848 31.4468 212.651 29.8216 212.651 24.8983C212.651 19.8077 214.896 18.2539 218.333 18.2539C221.723 18.2539 223.752 19.5449 223.752 25.7109L216.256 26.4994C216.471 28.0287 217.188 28.6266 218.644 28.6266C219.957 28.6266 221.127 28.3633 222.344 27.6467L223.394 30.0604C222.034 30.9925 220.53 31.4468 218.692 31.4468Z" fill="black"/>
<path d="M66 39.4824H70.2402C70.7354 39.4824 71.1649 39.5501 71.5288 39.6855C71.897 39.821 72.2017 40.0177 72.4429 40.2759C72.6841 40.534 72.8639 40.8472 72.9824 41.2153C73.1009 41.5835 73.1602 42.0024 73.1602 42.4722C73.1602 42.908 73.0903 43.3101 72.9507 43.6782C72.811 44.0422 72.6079 44.3574 72.3413 44.624C72.0789 44.8864 71.7573 45.0916 71.3765 45.2397C70.9956 45.3879 70.564 45.4619 70.0815 45.4619H67.9487V48.8135H66V39.4824ZM67.9487 43.8496H69.7959C70.236 43.8496 70.5809 43.7417 70.8306 43.5259C71.0845 43.3101 71.2114 42.9588 71.2114 42.4722C71.2114 42.2267 71.1776 42.0173 71.1099 41.8438C71.0464 41.6702 70.9533 41.5285 70.8306 41.4185C70.7121 41.3042 70.564 41.2217 70.3862 41.1709C70.2127 41.1159 70.016 41.0884 69.7959 41.0884H67.9487V43.8496Z" fill="black"/>
<path d="M75.55 45.9126C75.55 45.9761 75.5563 46.0607 75.569 46.1665C75.5817 46.2723 75.6071 46.3866 75.6452 46.5093C75.6833 46.632 75.7383 46.7568 75.8103 46.8838C75.8822 47.0065 75.9774 47.1187 76.0959 47.2202C76.2186 47.3218 76.3667 47.4043 76.5402 47.4678C76.718 47.5312 76.9296 47.563 77.175 47.563C77.302 47.563 77.4268 47.5461 77.5495 47.5122C77.6765 47.4741 77.7928 47.4212 77.8986 47.3535C78.0044 47.2816 78.0954 47.1969 78.1716 47.0996C78.252 46.998 78.3091 46.8838 78.343 46.7568H80.2028C80.2028 46.8838 80.1753 47.0298 80.1203 47.1948C80.0653 47.3556 79.9807 47.5207 79.8664 47.6899C79.7564 47.855 79.6167 48.0179 79.4475 48.1787C79.2782 48.3395 79.0772 48.4834 78.8444 48.6104C78.6117 48.7331 78.3472 48.8325 78.051 48.9087C77.759 48.9849 77.4331 49.0229 77.0734 49.0229C76.6122 49.0229 76.1784 48.9531 75.7722 48.8135C75.3701 48.6781 75.0168 48.4622 74.7121 48.166C74.4117 47.8656 74.1747 47.4784 74.0012 47.0044C73.8277 46.5304 73.7409 45.9549 73.7409 45.2778C73.7409 44.8081 73.8023 44.3574 73.925 43.9258C74.052 43.4899 74.2466 43.1069 74.509 42.7769C74.7756 42.4468 75.1141 42.1844 75.5246 41.9897C75.9393 41.7909 76.4366 41.6914 77.0163 41.6914C77.6299 41.6914 78.1462 41.793 78.5651 41.9961C78.9841 42.195 79.3205 42.4785 79.5744 42.8467C79.8326 43.2148 80.0166 43.6592 80.1267 44.1797C80.2367 44.7002 80.2917 45.2778 80.2917 45.9126H75.55ZM78.4255 44.7192C78.4255 44.4146 78.3789 44.1606 78.2858 43.9575C78.197 43.7544 78.0827 43.5936 77.9431 43.4751C77.8076 43.3524 77.6574 43.2677 77.4924 43.2212C77.3273 43.1704 77.1687 43.145 77.0163 43.145C76.8682 43.145 76.7116 43.1704 76.5466 43.2212C76.3815 43.2677 76.2292 43.3524 76.0896 43.4751C75.9541 43.5936 75.8399 43.7544 75.7468 43.9575C75.6579 44.1606 75.6135 44.4146 75.6135 44.7192H78.4255Z" fill="black"/>
<path d="M86.5854 39C86.5854 39.3343 86.5303 39.62 86.4203 39.8569C86.3103 40.0939 86.1579 40.2886 85.9633 40.4409C85.7729 40.589 85.5443 40.6991 85.2777 40.771C85.0111 40.8387 84.7213 40.8726 84.4081 40.8726C84.0907 40.8726 83.7987 40.8387 83.5321 40.771C83.2655 40.6991 83.0349 40.589 82.8402 40.4409C82.6456 40.2886 82.4932 40.0939 82.3832 39.8569C82.2774 39.62 82.2245 39.3343 82.2245 39H83.5258C83.53 39.1185 83.5448 39.2306 83.5702 39.3364C83.5956 39.438 83.64 39.529 83.7035 39.6094C83.7712 39.6855 83.8601 39.7469 83.9701 39.7935C84.0844 39.8358 84.2304 39.8569 84.4081 39.8569C84.5816 39.8569 84.7255 39.84 84.8397 39.8062C84.9582 39.7681 85.0513 39.7131 85.119 39.6411C85.1868 39.5692 85.2333 39.4803 85.2587 39.3745C85.2841 39.2687 85.2947 39.1439 85.2904 39H86.5854ZM81.2978 41.8945H83.0941V46.1602H83.1195L85.6396 41.8945H87.5248V48.8135H85.7348V44.6431H85.703L83.2592 48.8135H81.2978V41.8945Z" fill="black"/>
<path d="M90.5431 43.3545H88.4483V41.8945H94.4278V43.3545H92.3331V48.8135H90.5431V43.3545Z" fill="black"/>
<path d="M95.345 41.8945H97.1414V46.1602H97.1668L99.6868 41.8945H101.572V48.8135H99.782V44.6431H99.7503L97.3064 48.8135H95.345V41.8945Z" fill="black"/>
<path d="M103.092 41.8945H104.889V44.3955H107.529V41.8945H109.319V48.8135H107.529V45.8491H104.889V48.8135H103.092V41.8945Z" fill="black"/>
<path d="M110.84 41.8945H115.492V43.3545H112.636V48.8135H110.84V41.8945Z" fill="black"/>
<path d="M121.332 43.3545H119.237V41.8945H125.217V43.3545H123.122V48.8135H121.332V43.3545Z" fill="black"/>
<path d="M131.726 47.4487C131.726 47.6561 131.737 47.8275 131.758 47.9629C131.783 48.0941 131.815 48.1999 131.853 48.2803C131.891 48.3564 131.934 48.4136 131.98 48.4517C132.031 48.4855 132.084 48.5109 132.139 48.5278V48.8135H130.152C130.118 48.7331 130.08 48.6273 130.038 48.4961C130 48.3607 129.981 48.1978 129.981 48.0073C129.841 48.1512 129.704 48.2845 129.568 48.4072C129.437 48.5299 129.289 48.6379 129.124 48.731C128.959 48.8198 128.768 48.8896 128.553 48.9404C128.337 48.9954 128.076 49.0229 127.772 49.0229C127.463 49.0229 127.177 48.9764 126.915 48.8833C126.657 48.7944 126.432 48.6611 126.242 48.4834C126.052 48.3057 125.903 48.0835 125.798 47.8169C125.692 47.5503 125.639 47.2414 125.639 46.8901C125.639 46.6066 125.683 46.3442 125.772 46.103C125.861 45.8576 125.986 45.6439 126.147 45.4619C126.312 45.2757 126.511 45.1234 126.743 45.0049C126.98 44.8822 127.245 44.7996 127.537 44.7573L129.295 44.4971C129.359 44.4886 129.426 44.4759 129.498 44.459C129.575 44.4421 129.644 44.4146 129.708 44.3765C129.771 44.3341 129.824 44.2791 129.867 44.2114C129.909 44.1395 129.93 44.0443 129.93 43.9258C129.93 43.8115 129.911 43.7078 129.873 43.6147C129.839 43.5174 129.78 43.4349 129.695 43.3672C129.61 43.2952 129.496 43.2402 129.352 43.2021C129.213 43.1641 129.037 43.145 128.825 43.145C128.584 43.145 128.39 43.1704 128.242 43.2212C128.098 43.2677 127.983 43.3354 127.899 43.4243C127.814 43.509 127.753 43.6105 127.715 43.729C127.677 43.8433 127.649 43.966 127.632 44.0972H125.836C125.836 44.0125 125.848 43.8962 125.874 43.748C125.903 43.5957 125.954 43.4307 126.026 43.2529C126.102 43.0752 126.206 42.8953 126.337 42.7134C126.473 42.5314 126.648 42.3664 126.864 42.2183C127.084 42.0659 127.351 41.9411 127.664 41.8438C127.977 41.7464 128.352 41.6956 128.787 41.6914C129.405 41.6914 129.905 41.7549 130.285 41.8818C130.671 42.0046 130.969 42.1675 131.18 42.3706C131.396 42.5695 131.54 42.7938 131.612 43.0435C131.688 43.2889 131.726 43.5343 131.726 43.7798V47.4487ZM129.93 45.4365C129.82 45.4958 129.71 45.5508 129.6 45.6016C129.49 45.6481 129.344 45.6883 129.162 45.7222L128.686 45.811C128.478 45.8491 128.297 45.8936 128.14 45.9443C127.983 45.9951 127.852 46.0628 127.746 46.1475C127.645 46.2279 127.567 46.3273 127.512 46.4458C127.461 46.5643 127.435 46.7124 127.435 46.8901C127.435 47.0382 127.459 47.1673 127.505 47.2773C127.552 47.3831 127.615 47.472 127.696 47.5439C127.78 47.6117 127.878 47.6624 127.988 47.6963C128.098 47.7301 128.216 47.7471 128.343 47.7471C128.411 47.7471 128.498 47.7407 128.603 47.728C128.709 47.7111 128.821 47.6815 128.94 47.6392C129.058 47.5968 129.177 47.5397 129.295 47.4678C129.414 47.3916 129.52 47.2943 129.613 47.1758C129.706 47.0573 129.782 46.9134 129.841 46.7441C129.9 46.5706 129.93 46.3675 129.93 46.1348V45.4365Z" fill="black"/>
<path d="M133.221 41.8945H135.018V44.5225L137.607 41.8945H139.994L137.138 44.77L140.115 48.8135H137.772L135.741 45.8936L135.018 46.6235V48.8135H133.221V41.8945Z" fill="black"/>
<path d="M144.974 44.3384C144.94 44.1564 144.893 43.9977 144.834 43.8623C144.775 43.7227 144.697 43.6063 144.599 43.5132C144.506 43.4159 144.39 43.3439 144.25 43.2974C144.115 43.2466 143.95 43.2212 143.755 43.2212C143.455 43.2212 143.213 43.291 143.031 43.4307C142.854 43.5703 142.716 43.7459 142.619 43.9575C142.522 44.1691 142.456 44.3997 142.422 44.6494C142.392 44.8991 142.378 45.134 142.378 45.354C142.378 45.5825 142.39 45.8237 142.416 46.0776C142.441 46.3273 142.5 46.5579 142.593 46.7695C142.687 46.9769 142.824 47.1483 143.006 47.2837C143.188 47.4191 143.438 47.4868 143.755 47.4868C143.962 47.4868 144.142 47.4466 144.295 47.3662C144.447 47.2816 144.574 47.1779 144.675 47.0552C144.777 46.9325 144.851 46.8013 144.898 46.6616C144.948 46.522 144.974 46.395 144.974 46.2808H146.846C146.846 46.395 146.825 46.5431 146.783 46.7251C146.745 46.9071 146.679 47.0996 146.586 47.3027C146.493 47.5059 146.368 47.7111 146.212 47.9185C146.059 48.1216 145.867 48.3057 145.634 48.4707C145.405 48.6315 145.137 48.7627 144.828 48.8643C144.519 48.9701 144.161 49.0229 143.755 49.0229C143.226 49.0229 142.758 48.9425 142.352 48.7817C141.95 48.6209 141.612 48.3861 141.337 48.0771C141.066 47.764 140.858 47.3789 140.715 46.9219C140.575 46.4648 140.505 45.9422 140.505 45.354C140.505 44.7658 140.581 44.2453 140.734 43.7925C140.89 43.3354 141.11 42.9525 141.394 42.6436C141.677 42.3304 142.018 42.0934 142.416 41.9326C142.818 41.7718 143.264 41.6914 143.755 41.6914C143.967 41.6914 144.185 41.7083 144.409 41.7422C144.637 41.776 144.862 41.8353 145.082 41.9199C145.302 42.0003 145.511 42.1061 145.71 42.2373C145.913 42.3685 146.093 42.5335 146.25 42.7324C146.411 42.9271 146.542 43.1577 146.643 43.4243C146.749 43.6867 146.817 43.9914 146.846 44.3384H144.974Z" fill="black"/>
<path d="M147.541 45.354C147.541 44.8208 147.622 44.3299 147.783 43.8813C147.948 43.4328 148.183 43.0477 148.487 42.7261C148.796 42.4002 149.169 42.1463 149.604 41.9644C150.04 41.7824 150.531 41.6914 151.077 41.6914C151.631 41.6914 152.127 41.7824 152.562 41.9644C153.003 42.1463 153.373 42.4002 153.673 42.7261C153.978 43.0477 154.211 43.4328 154.371 43.8813C154.532 44.3299 154.613 44.8208 154.613 45.354C154.613 45.8872 154.532 46.3781 154.371 46.8267C154.211 47.2752 153.978 47.6624 153.673 47.9883C153.373 48.3141 153.003 48.568 152.562 48.75C152.127 48.932 151.631 49.0229 151.077 49.0229C150.531 49.0229 150.04 48.932 149.604 48.75C149.169 48.568 148.796 48.3141 148.487 47.9883C148.183 47.6624 147.948 47.2752 147.783 46.8267C147.622 46.3781 147.541 45.8872 147.541 45.354ZM149.414 45.354C149.414 45.6164 149.441 45.8766 149.496 46.1348C149.556 46.3887 149.651 46.6172 149.782 46.8203C149.913 47.0192 150.085 47.18 150.296 47.3027C150.508 47.4255 150.768 47.4868 151.077 47.4868C151.399 47.4868 151.665 47.4276 151.877 47.3091C152.093 47.1864 152.264 47.0277 152.391 46.833C152.518 46.6341 152.607 46.4077 152.658 46.1538C152.713 45.8957 152.74 45.6291 152.74 45.354C152.74 45.0832 152.713 44.8187 152.658 44.5605C152.607 44.3024 152.518 44.076 152.391 43.8813C152.264 43.6825 152.093 43.5238 151.877 43.4053C151.665 43.2826 151.399 43.2212 151.077 43.2212C150.768 43.2212 150.508 43.2826 150.296 43.4053C150.085 43.528 149.913 43.6909 149.782 43.894C149.651 44.0929 149.556 44.3215 149.496 44.5796C149.441 44.8335 149.414 45.0916 149.414 45.354Z" fill="black"/>
<path d="M155.714 41.8945H161.941V48.8135H160.151V43.3545H157.51V48.8135H155.714V41.8945Z" fill="black"/>
<path d="M169.054 47.4487C169.054 47.6561 169.064 47.8275 169.085 47.9629C169.111 48.0941 169.142 48.1999 169.18 48.2803C169.219 48.3564 169.261 48.4136 169.307 48.4517C169.358 48.4855 169.411 48.5109 169.466 48.5278V48.8135H167.479C167.445 48.7331 167.407 48.6273 167.365 48.4961C167.327 48.3607 167.308 48.1978 167.308 48.0073C167.168 48.1512 167.031 48.2845 166.895 48.4072C166.764 48.5299 166.616 48.6379 166.451 48.731C166.286 48.8198 166.096 48.8896 165.88 48.9404C165.664 48.9954 165.404 49.0229 165.099 49.0229C164.79 49.0229 164.504 48.9764 164.242 48.8833C163.984 48.7944 163.76 48.6611 163.569 48.4834C163.379 48.3057 163.231 48.0835 163.125 47.8169C163.019 47.5503 162.966 47.2414 162.966 46.8901C162.966 46.6066 163.011 46.3442 163.099 46.103C163.188 45.8576 163.313 45.6439 163.474 45.4619C163.639 45.2757 163.838 45.1234 164.071 45.0049C164.308 44.8822 164.572 44.7996 164.864 44.7573L166.622 44.4971C166.686 44.4886 166.754 44.4759 166.825 44.459C166.902 44.4421 166.971 44.4146 167.035 44.3765C167.098 44.3341 167.151 44.2791 167.194 44.2114C167.236 44.1395 167.257 44.0443 167.257 43.9258C167.257 43.8115 167.238 43.7078 167.2 43.6147C167.166 43.5174 167.107 43.4349 167.022 43.3672C166.938 43.2952 166.823 43.2402 166.679 43.2021C166.54 43.1641 166.364 43.145 166.153 43.145C165.911 43.145 165.717 43.1704 165.569 43.2212C165.425 43.2677 165.311 43.3354 165.226 43.4243C165.141 43.509 165.08 43.6105 165.042 43.729C165.004 43.8433 164.976 43.966 164.959 44.0972H163.163C163.163 44.0125 163.176 43.8962 163.201 43.748C163.231 43.5957 163.281 43.4307 163.353 43.2529C163.429 43.0752 163.533 42.8953 163.664 42.7134C163.8 42.5314 163.975 42.3664 164.191 42.2183C164.411 42.0659 164.678 41.9411 164.991 41.8438C165.304 41.7464 165.679 41.6956 166.115 41.6914C166.732 41.6914 167.232 41.7549 167.613 41.8818C167.998 42.0046 168.296 42.1675 168.508 42.3706C168.723 42.5695 168.867 42.7938 168.939 43.0435C169.015 43.2889 169.054 43.5343 169.054 43.7798V47.4487ZM167.257 45.4365C167.147 45.4958 167.037 45.5508 166.927 45.6016C166.817 45.6481 166.671 45.6883 166.489 45.7222L166.013 45.811C165.806 45.8491 165.624 45.8936 165.467 45.9443C165.311 45.9951 165.179 46.0628 165.074 46.1475C164.972 46.2279 164.894 46.3273 164.839 46.4458C164.788 46.5643 164.762 46.7124 164.762 46.8901C164.762 47.0382 164.786 47.1673 164.832 47.2773C164.879 47.3831 164.942 47.472 165.023 47.5439C165.107 47.6117 165.205 47.6624 165.315 47.6963C165.425 47.7301 165.543 47.7471 165.67 47.7471C165.738 47.7471 165.825 47.7407 165.93 47.728C166.036 47.7111 166.148 47.6815 166.267 47.6392C166.385 47.5968 166.504 47.5397 166.622 47.4678C166.741 47.3916 166.847 47.2943 166.94 47.1758C167.033 47.0573 167.109 46.9134 167.168 46.7441C167.228 46.5706 167.257 46.3675 167.257 46.1348V45.4365Z" fill="black"/>
<path d="M170.447 41.8945H172.161V42.8848H172.186C172.309 42.6774 172.438 42.4997 172.573 42.3516C172.709 42.1992 172.859 42.0744 173.024 41.9771C173.189 41.8797 173.371 41.8078 173.57 41.7612C173.773 41.7147 174.001 41.6914 174.255 41.6914C174.467 41.6914 174.685 41.7168 174.909 41.7676C175.133 41.8184 175.351 41.9009 175.563 42.0151C175.779 42.1252 175.982 42.2712 176.172 42.4531C176.363 42.6309 176.53 42.8509 176.674 43.1133C176.818 43.3757 176.932 43.6825 177.017 44.0337C177.101 44.3807 177.144 44.7785 177.144 45.2271C177.144 45.7856 177.082 46.2977 176.959 46.7632C176.841 47.2287 176.659 47.6286 176.414 47.9629C176.172 48.2972 175.866 48.5575 175.493 48.7437C175.125 48.9299 174.691 49.0229 174.192 49.0229C174.018 49.0229 173.843 49.006 173.665 48.9722C173.487 48.9383 173.314 48.8812 173.145 48.8008C172.975 48.7204 172.814 48.6125 172.662 48.4771C172.514 48.3374 172.383 48.1639 172.269 47.9565H172.243V51.4922H170.447V41.8945ZM173.722 43.3037C173.434 43.3037 173.191 43.3651 172.992 43.4878C172.798 43.6105 172.639 43.7692 172.516 43.9639C172.398 44.1585 172.311 44.3786 172.256 44.624C172.201 44.8695 172.173 45.1128 172.173 45.354C172.173 45.4852 172.18 45.6291 172.192 45.7856C172.209 45.938 172.239 46.0946 172.281 46.2554C172.324 46.4119 172.381 46.5643 172.453 46.7124C172.529 46.8605 172.624 46.9917 172.738 47.106C172.853 47.2202 172.99 47.3133 173.151 47.3853C173.312 47.453 173.502 47.4868 173.722 47.4868C173.942 47.4868 174.133 47.453 174.293 47.3853C174.454 47.3133 174.592 47.2202 174.706 47.106C174.82 46.9917 174.913 46.8605 174.985 46.7124C175.062 46.5643 175.121 46.4119 175.163 46.2554C175.205 46.0946 175.233 45.938 175.246 45.7856C175.263 45.6291 175.271 45.4852 175.271 45.354C175.271 45.1128 175.243 44.8695 175.188 44.624C175.133 44.3786 175.045 44.1585 174.922 43.9639C174.803 43.7692 174.645 43.6105 174.446 43.4878C174.247 43.3651 174.006 43.3037 173.722 43.3037Z" fill="black"/>
<path d="M178.296 41.8945H180.092V44.5225L182.682 41.8945H185.069L182.212 44.77L185.189 48.8135H182.847L180.816 45.8936L180.092 46.6235V48.8135H178.296V41.8945Z" fill="black"/>
<path d="M185.579 45.354C185.579 44.8208 185.66 44.3299 185.821 43.8813C185.986 43.4328 186.221 43.0477 186.525 42.7261C186.834 42.4002 187.207 42.1463 187.642 41.9644C188.078 41.7824 188.569 41.6914 189.115 41.6914C189.669 41.6914 190.165 41.7824 190.6 41.9644C191.041 42.1463 191.411 42.4002 191.711 42.7261C192.016 43.0477 192.249 43.4328 192.41 43.8813C192.57 44.3299 192.651 44.8208 192.651 45.354C192.651 45.8872 192.57 46.3781 192.41 46.8267C192.249 47.2752 192.016 47.6624 191.711 47.9883C191.411 48.3141 191.041 48.568 190.6 48.75C190.165 48.932 189.669 49.0229 189.115 49.0229C188.569 49.0229 188.078 48.932 187.642 48.75C187.207 48.568 186.834 48.3141 186.525 47.9883C186.221 47.6624 185.986 47.2752 185.821 46.8267C185.66 46.3781 185.579 45.8872 185.579 45.354ZM187.452 45.354C187.452 45.6164 187.48 45.8766 187.535 46.1348C187.594 46.3887 187.689 46.6172 187.82 46.8203C187.951 47.0192 188.123 47.18 188.334 47.3027C188.546 47.4255 188.806 47.4868 189.115 47.4868C189.437 47.4868 189.703 47.4276 189.915 47.3091C190.131 47.1864 190.302 47.0277 190.429 46.833C190.556 46.6341 190.645 46.4077 190.696 46.1538C190.751 45.8957 190.778 45.6291 190.778 45.354C190.778 45.0832 190.751 44.8187 190.696 44.5605C190.645 44.3024 190.556 44.076 190.429 43.8813C190.302 43.6825 190.131 43.5238 189.915 43.4053C189.703 43.2826 189.437 43.2212 189.115 43.2212C188.806 43.2212 188.546 43.2826 188.334 43.4053C188.123 43.528 187.951 43.6909 187.82 43.894C187.689 44.0929 187.594 44.3215 187.535 44.5796C187.48 44.8335 187.452 45.0916 187.452 45.354Z" fill="black"/>
<path d="M195.599 44.6113H196.983C197.186 44.6113 197.355 44.5965 197.491 44.5669C197.626 44.533 197.732 44.4865 197.808 44.4272C197.889 44.3638 197.944 44.2876 197.973 44.1987C198.007 44.1056 198.024 43.9977 198.024 43.875C198.024 43.7734 198.007 43.6803 197.973 43.5957C197.944 43.5068 197.891 43.4328 197.815 43.3735C197.738 43.3101 197.637 43.2614 197.51 43.2275C197.383 43.1895 197.224 43.1704 197.034 43.1704H195.599V44.6113ZM193.803 41.8945H197.383C197.7 41.8945 198.005 41.922 198.297 41.9771C198.593 42.0321 198.853 42.1294 199.078 42.269C199.302 42.4045 199.48 42.5907 199.611 42.8276C199.746 43.0604 199.814 43.3566 199.814 43.7163C199.814 43.9237 199.791 44.1035 199.744 44.2559C199.702 44.4082 199.643 44.5394 199.566 44.6494C199.49 44.7552 199.401 44.8462 199.3 44.9224C199.203 44.9943 199.101 45.0557 198.995 45.1064C199.342 45.2292 199.607 45.4259 199.789 45.6968C199.971 45.9634 200.062 46.2829 200.062 46.6553C200.062 46.9811 200.004 47.2773 199.89 47.5439C199.78 47.8063 199.622 48.0327 199.414 48.2231C199.211 48.4093 198.961 48.5553 198.665 48.6611C198.373 48.7627 198.045 48.8135 197.681 48.8135H193.803V41.8945ZM195.599 47.5376H196.983C197.241 47.5376 197.449 47.5101 197.605 47.4551C197.766 47.4001 197.889 47.3302 197.973 47.2456C198.062 47.161 198.119 47.0679 198.145 46.9663C198.174 46.8647 198.189 46.7695 198.189 46.6807C198.189 46.5114 198.166 46.3717 198.119 46.2617C198.077 46.1475 198.007 46.0565 197.91 45.9888C197.817 45.9211 197.692 45.8745 197.535 45.8491C197.383 45.8237 197.199 45.811 196.983 45.811H195.599V47.5376Z" fill="black"/>
<path fill-rule="evenodd" clip-rule="evenodd" d="M32 56C45.2548 56 56 45.2548 56 32C56 18.7452 45.2548 8 32 8C18.7452 8 8 18.7452 8 32C8 45.2548 18.7452 56 32 56Z" fill="black"/>
<path fill-rule="evenodd" clip-rule="evenodd" d="M27.4301 47.88L31.3501 45.16C29.3901 43 28.7901 40.64 28.7901 37.44V30.2H31.6701H32.6301H34.7501V37.32C34.7501 41.32 35.3101 45.68 39.2301 47.88L43.1501 45.16C41.1901 43 40.5901 40.64 40.5901 37.44V30.2H44.4301L44.9501 25.88H40.5901V19.16L34.7501 19.88V25.88H33.1501H31.6701H28.7901V19.16L22.9501 19.88V25.88H19.8701V30.2H22.9501V37.32C22.9501 41.32 23.5101 45.68 27.4301 47.88Z" fill="white"/>
</svg>
