<svg xmlns="http://www.w3.org/2000/svg" width="30" height="18" viewBox="0 0 30 18">
    <path fill="#4a4a4a" fill-rule="nonzero" d="M8.182 0C5.922 0 4.09 1.86 4.09 4.154c0 2.294 1.831 4.154 4.09 4.154 2.26 0 4.092-1.86 4.092-4.154C12.273 1.86 10.44 0 8.182 0zm8.863 0c-1.882 0-3.409 1.55-3.409 3.462 0 1.911 1.527 3.461 3.41 3.461 1.882 0 3.409-1.55 3.409-3.461C20.455 1.55 18.928 0 17.045 0zm7.5 0c-1.506 0-2.727 1.24-2.727 2.77 0 1.529 1.221 2.768 2.727 2.768 1.507 0 2.728-1.24 2.728-2.769C27.273 1.24 26.052 0 24.545 0zm0 8.308c-1.581 0-2.74.409-3.58.908 1.92.99 2.9 2.52 3.282 3.246H30v-1.385s-1.312-2.77-5.455-2.77zm-7.5 1.384c-1.673 0-2.946.471-3.877 1.082 3.177 1.544 4.363 4.212 4.431 4.37l.043.087h5.54v-1.86s-1.476-3.679-6.137-3.679zm-8.863 1.385c-6.216 0-8.182 4.63-8.182 4.63V18h16.364v-2.293s-1.967-4.63-8.182-4.63z"/>
</svg>
