<svg xmlns="http://www.w3.org/2000/svg" width="40" height="40" viewBox="0 0 40 40">
    <g fill="none" fill-rule="evenodd">
        <rect width="40" height="40" fill="#2E62D0" rx="20"/>
        <path fill="#FFF" d="M28.36 26.86h-2.683s-.564.14-1.27-.422c-.989-.702-1.977-2.387-2.684-2.247-.706.281-.706 1.826-.706 1.826s0 .28-.14.421c-.142.14-.566.14-.566.14h-1.13s-2.541.281-4.942-2.106c-2.542-2.528-4.801-7.724-4.801-7.724s-.141-.28 0-.42c.141-.141.565-.141.565-.141h2.824s.282 0 .424.14c.282.14.423.281.423.281s.424 1.123 1.13 2.247c1.13 1.966 1.695 2.528 2.118 2.247.565-.281.424-2.809.424-2.809s0-.983-.283-1.404c-.282-.281-.706-.421-.847-.421-.141 0 .141-.422.424-.562.282-.281 1.27-.281 2.26-.281.846 0 1.129 0 1.411.14.989.281.706 1.124.706 3.37 0 .703-.14 1.686.424 1.967.282.14.706 0 2.118-2.247l1.13-2.247s.141-.28.282-.28c.142-.141.424 0 .424 0h2.966s.847-.141.988.28c.141.421-.282 1.404-1.553 2.949-1.977 2.668-2.26 2.387-.565 3.932 1.553 1.404 1.977 2.107 1.977 2.247.423.983-.847 1.123-.847 1.123z"/>
    </g>
</svg>
