<svg xmlns="http://www.w3.org/2000/svg" width="40" height="40" viewBox="0 0 40 40">
    <g fill="none" fill-rule="evenodd">
        <rect width="40" height="40" fill="#F09300" rx="20"/>
        <path fill="#FFF" d="M20 20.577c-3.161 0-5.732-2.512-5.732-5.6 0-3.09 2.57-5.603 5.732-5.602 3.162 0 5.732 2.513 5.732 5.602 0 3.089-2.57 5.6-5.732 5.6zm0-7.855c-1.27 0-2.306 1.011-2.306 2.254 0 1.242 1.036 2.253 2.306 2.253 1.272 0 2.306-1.011 2.306-2.253 0-1.243-1.034-2.254-2.306-2.254zm2.253 12.137l3.116 3.044a1.568 1.568 0 0 1 0 2.255 1.657 1.657 0 0 1-2.307 0l-3.06-2.991-3.06 2.99a1.648 1.648 0 0 1-1.154.468c-.418 0-.835-.156-1.154-.467a1.57 1.57 0 0 1-.001-2.255l3.114-3.044a10.575 10.575 0 0 1-3.234-1.309A1.573 1.573 0 0 1 14 21.352a1.652 1.652 0 0 1 2.25-.503 7.208 7.208 0 0 0 7.498 0 1.653 1.653 0 0 1 2.25.503c.48.744.25 1.729-.512 2.198a10.575 10.575 0 0 1-3.234 1.31z"/>
    </g>
</svg>
