<?xml version="1.0" encoding="UTF-8"?>
<svg width="14px" height="18px" viewBox="0 0 14 18" version="1.1" xmlns="http://www.w3.org/2000/svg" xmlns:xlink="http://www.w3.org/1999/xlink">
<g  stroke="none" stroke-width="1" fill="none" fill-rule="evenodd"><g transform="translate(-519.000000, -290.000000)" fill="#FFFFFF" fill-rule="nonzero"><g transform="translate(502.000000, 275.000000)"><g transform="translate(17.000000, 15.000000)"><path d="M0,18 L0,0 L5.898438,0 C8,0 9.699219,0.398438 10.898438,1.199219 C12.101563,2 12.699219,3.300781 12.699219,4.898438 C12.699219,5.699219 12.5,6.5 12.101563,7.101563 C11.699219,7.800781 11,8.199219 10.199219,8.601563 C11.300781,8.800781 12.199219,9.300781 12.699219,10.101563 C13.300781,10.898438 13.601563,11.800781 13.601563,12.800781 C13.601563,14.5 13,15.800781 11.898438,16.699219 C10.699219,17.601563 9,18 7,18 L0,18 Z M3.601563,7.5 L6,7.5 C7,7.5 7.699219,7.300781 8.199219,6.898438 C8.800781,6.601563 9,6 9,5.199219 C9,4.398438 8.699219,3.800781 8.199219,3.398438 C7.699219,3 6.898438,2.800781 5.898438,2.800781 L3.601563,2.800781 L3.601563,7.5 Z M3.601563,10 L3.601563,15.199219 L7,15.199219 C8,15.199219 8.699219,15 9.199219,14.601563 C9.699219,14.199219 10,13.601563 10,12.800781 C10,11.898438 9.800781,11.300781 9.300781,10.800781 C8.800781,10.300781 8.101563,10.101563 7.101563,10.101563 L3.601563,10.101563 L3.601563,10 Z"></path></g></g></g></g>
</svg>