<?xml version="1.0" encoding="UTF-8"?>
<svg width="18px" height="11px" viewBox="0 0 18 11" version="1.1" xmlns="http://www.w3.org/2000/svg" xmlns:xlink="http://www.w3.org/1999/xlink">
<g stroke="none" stroke-width="1" fill="none" fill-rule="evenodd"><g transform="translate(-709.000000, -294.000000)" fill="#FFFFFF" fill-rule="nonzero"><g transform="translate(502.000000, 275.000000)"><g transform="translate(192.000000, 0.000000)"><g transform="translate(15.000000, 19.000000)"><path d="M14.375,0.84375 C11.246094,0.84375 10.90625,3.460938 10.90625,4.125 L12.90625,4.125 C12.90625,2.476563 14.113281,2.4375 14.34375,2.4375 C15.488281,2.4375 15.625,3.433594 15.625,3.875 C15.625,5.207031 13.847656,6.488281 11.125,9.59375 L11.125,10.9375 L17.9375,10.9375 L17.9375,9.34375 L13.65625,9.34375 C16.175781,6.691406 17.625,5.46875 17.625,3.6875 C17.625,3.25 17.605469,0.84375 14.375,0.84375 Z M0,1 L0,11 L2.28125,11 L2.28125,6.71875 L6.71875,6.71875 L6.71875,11 L9,11 L9,1 L6.71875,1 L6.71875,5.0625 L2.28125,5.0625 L2.28125,1 L0,1 Z"></path></g></g></g></g></g>
</svg>