<?xml version="1.0" encoding="UTF-8"?>
<svg width="24px" height="10px" viewBox="0 0 24 10" version="1.1" xmlns="http://www.w3.org/2000/svg" xmlns:xlink="http://www.w3.org/1999/xlink">
<g stroke="none" stroke-width="1" fill="none" fill-rule="evenodd"><g transform="translate(-610.000000, -294.000000)" fill="#FFFFFF" fill-rule="nonzero"><g transform="translate(502.000000, 275.000000)"><g transform="translate(96.000000, 0.000000)"><g transform="translate(12.000000, 19.000000)"><path d="M5,0 C2.199219,0 0,2.199219 0,5 C0,7.800781 2.199219,10 5,10 L8,10 C9.601563,10 11.101563,9.199219 12,8 C12.898438,9.199219 14.398438,10 16,10 L19,10 C21.800781,10 24,7.800781 24,5 C24,2.199219 21.800781,0 19,0 L16,0 C14.398438,0 12.898438,0.800781 12,2 C11.101563,0.800781 9.601563,0 8,0 L5,0 Z M5,2 L8,2 C8.898438,2 9.6875,2.398438 10.1875,3 L13.8125,3 C14.3125,2.398438 15.101563,2 16,2 L19,2 C20.699219,2 22,3.300781 22,5 C22,6.699219 20.699219,8 19,8 L16,8 C15.101563,8 14.3125,7.601563 13.8125,7 L10.1875,7 C9.6875,7.601563 8.898438,8 8,8 L5,8 C3.300781,8 2,6.699219 2,5 C2,3.300781 3.300781,2 5,2 Z M7.8125,4 C7.261719,4.050781 6.855469,4.542969 6.90625,5.09375 C6.957031,5.644531 7.449219,6.050781 8,6 L16,6 C16.359375,6.003906 16.695313,5.816406 16.878906,5.503906 C17.058594,5.191406 17.058594,4.808594 16.878906,4.496094 C16.695313,4.183594 16.359375,3.996094 16,4 L8,4 C7.96875,4 7.9375,4 7.90625,4 C7.875,4 7.84375,4 7.8125,4 Z"></path></g></g></g></g></g>
</svg>