<?xml version="1.0" encoding="UTF-8"?>
<svg width="20px" height="20px" viewBox="0 0 20 20" version="1.1" xmlns="http://www.w3.org/2000/svg" xmlns:xlink="http://www.w3.org/1999/xlink"><g stroke="none" stroke-width="1" fill="none" fill-rule="evenodd"><g transform="translate(-804.000000, -289.000000)" fill="#FFFFFF" fill-rule="nonzero"><g transform="translate(502.000000, 275.000000)"><g transform="translate(288.000000, 0.000000)">
<g transform="translate(14.000000, 14.000000)"><path d="M0,0 L0,2 L2,2 L2,0 L0,0 Z M5,0 L5,2 L20,2 L20,0 L5,0 Z M0,6 L0,8 L2,8 L2,6 L0,6 Z M5,6 L5,8 L20,8 L20,6 L5,6 Z M0,12 L0,14 L2,14 L2,12 L0,12 Z M5,12 L5,14 L20,14 L20,12 L5,12 Z M0,18 L0,20 L2,20 L2,18 L0,18 Z M5,18 L5,20 L20,20 L20,18 L5,18 Z"></path></g></g></g></g></g>
</svg>