<svg xmlns="http://www.w3.org/2000/svg" height="512" width="512.0015258789062" style=""><rect id="backgroundrect" width="100%" height="100%" x="0" y="0" fill="none" stroke="none"/><g class="currentLayer" style=""><title>Layer 1</title><path d="m456.882812 0h-194.308593c-3.976563 0-7.792969 1.582031-10.605469 4.394531l-235.855469 235.847657c-21.484375 21.492187-21.484375 56.457031 0 77.941406l177.699219 177.695312c10.375 10.375 24.214844 16.089844 38.964844 16.09375h.003906c14.753906 0 28.59375-5.71875 38.972656-16.097656l235.847656-235.851562c2.8125-2.8125 4.394532-6.628907 4.394532-10.605469l.003906-194.308594c-.003906-30.386719-24.730469-55.109375-55.117188-55.109375zm25.113282 243.207031-231.457032 231.457031c-4.710937 4.714844-11.019531 7.308594-17.757812 7.308594-6.742188 0-13.046875-2.59375-17.757812-7.304687l-177.699219-177.695313c-9.789063-9.789062-9.789063-25.726562 0-35.519531l231.460937-231.453125h188.097656c13.847657 0 25.117188 11.265625 25.117188 25.113281zm0 0" id="svg_1" class="" fill="#0079ff" fill-opacity="1" marker-start=""/><path d="m437.0740808857079,-7.499999821186066 h-184.82086873242187 c-3.782394884765625,0 -7.4124529355468765,1.504783392578125 -10.087623833984374,4.179954291015624 l-224.33908867773437,224.33165812304688 c-20.435333251953125,20.442763806640627 -20.435333251953125,53.700340033203126 0,74.13567328515624 l169.02249932226562,169.01878309375 c9.868408203125,9.868408203125 23.0324785703125,15.304207085937499 37.0622637265625,15.30792236328125 h0.003715277343750011 c14.033500433593751,0 27.19757080078125,-5.43951416015625 37.06969428125,-15.311637640625001 l224.331657171875,-224.33537244921874 c2.6751708984375,-2.6751708984375 4.1799552421875,-6.305229900390625 4.1799552421875,-10.087623833984374 l0.003715277343750011,-184.82086968359374 c-0.003715277343750011,-28.902992486328124 -23.522926568359374,-52.418487548828125 -52.4259190546875,-52.418487548828125 zm23.88704752734375,231.33168768945313 l-220.155419109375,220.15541815820313 c-4.4809107792968765,4.4846270078125015 -10.481467962890626,6.9517290585937515 -16.890731335937502,6.9517290585937515 c-6.4129796015625,0 -12.409820556640625,-2.46710205078125 -16.890731335937502,-6.948012830078126 l-169.02249932226562,-169.0187840449219 c-9.311081408203126,-9.311080457031249 -9.311081408203126,-24.470382214843752 0,-33.785178900390626 l220.15913343554686,-220.15170288085938 h178.913200140625 c13.171501873046875,0 23.890762804687498,10.715545654296875 23.890762804687498,23.887046576171876 zm0,0 " class="selected" fill="#0079ff" fill-opacity="1" marker-start="" id="svg_3" transform="translate(9.166666030883789,16.66666603088379) "/><path d="m379.785156 85.078125c-12.589844 0-24.425781 4.90625-33.328125 13.808594-8.902343 8.898437-13.804687 20.734375-13.804687 33.324219 0 12.589843 4.902344 24.425781 13.804687 33.328124 8.902344 8.902344 20.738281 13.804688 33.328125 13.804688 12.585938 0 24.421875-4.902344 33.324219-13.804688 8.902344-8.902343 13.804687-20.738281 13.804687-33.328124 0-12.589844-4.902343-24.425782-13.800781-33.324219-8.902343-8.902344-20.738281-13.808594-33.328125-13.808594zm12.113282 59.246094c-3.234376 3.238281-7.539063 5.019531-12.113282 5.019531-4.578125 0-8.878906-1.78125-12.113281-5.019531-3.238281-3.234375-5.019531-7.539063-5.019531-12.113281 0-4.574219 1.78125-8.878907 5.019531-12.113282 3.234375-3.238281 7.539063-5.019531 12.113281-5.019531 4.574219 0 8.875 1.78125 12.113282 5.019531 3.238281 3.234375 5.019531 7.539063 5.019531 12.113282 0 4.574218-1.785157 8.878906-5.019531 12.113281zm0 0" id="svg_2" class="" fill-opacity="1" fill="#0079ff"/></g><defs><marker id="Arrow1Lstart" refX="0" refY="0" orient="auto" xmlns:inkscape="http://www.inkscape.org/namespaces/inkscape" inkscape:stockid="Arrow1Lstart" overflow="visible">
            <path transform="scale(.8) translate(12.5)" d="M0 0l5-5-17.5 5 17.5 5-5-5z" fill-rule="evenodd" stroke="#000" stroke-width="1pt" style="fill: none; stroke: none; stroke-dasharray: none;"/>
        </marker></defs></svg>