<svg xmlns="http://www.w3.org/2000/svg" xmlns:xlink="http://www.w3.org/1999/xlink" version="1.1" style="enable-background:new 0 0 511.997 511.997;" xml:space="preserve" width="511.997" height="511.997"><rect id="backgroundrect" width="100%" height="100%" x="0" y="0" fill="none" stroke="none"/>


















<g class="currentLayer" style=""><title>Layer 1</title><g id="svg_1" class="" fill-opacity="1" fill="#0079ff">
	<g id="svg_2" fill="#0079ff">
		<path d="M405.387,362.612c-35.202,0-63.84,28.639-63.84,63.84s28.639,63.84,63.84,63.84s63.84-28.639,63.84-63.84    S440.588,362.612,405.387,362.612z M405.387,451.988c-14.083,0-25.536-11.453-25.536-25.536s11.453-25.536,25.536-25.536    c14.083,0,25.536,11.453,25.536,25.536S419.47,451.988,405.387,451.988z" id="svg_3" fill="#0079ff"/>
	</g>
</g><g id="svg_4" class="" fill-opacity="1" fill="#0079ff">
	<g id="svg_5" fill="#0079ff">
		<path d="M507.927,115.875c-3.626-4.641-9.187-7.348-15.079-7.348H118.22l-17.237-72.12c-2.062-8.618-9.768-14.702-18.629-14.702    H19.152C8.574,21.704,0,30.278,0,40.856s8.574,19.152,19.152,19.152h48.085l62.244,260.443    c2.062,8.625,9.768,14.702,18.629,14.702h298.135c8.804,0,16.477-6.001,18.59-14.543l46.604-188.329    C512.849,126.562,511.553,120.516,507.927,115.875z M431.261,296.85H163.227l-35.853-150.019h341.003L431.261,296.85z" id="svg_6" fill="#0079ff"/>
	</g>
</g><g id="svg_7" class="selected" fill-opacity="1" fill="#0079ff">
	<g id="svg_8" fill="#0079ff">
		<path d="M173.646,362.612c-35.202,0-63.84,28.639-63.84,63.84s28.639,63.84,63.84,63.84s63.84-28.639,63.84-63.84    S208.847,362.612,173.646,362.612z M173.646,451.988c-14.083,0-25.536-11.453-25.536-25.536s11.453-25.536,25.536-25.536    s25.536,11.453,25.536,25.536S187.729,451.988,173.646,451.988z" id="svg_9" fill="#0079ff"/>
	</g>
</g><g id="svg_10">
</g><g id="svg_11">
</g><g id="svg_12">
</g><g id="svg_13">
</g><g id="svg_14">
</g><g id="svg_15">
</g><g id="svg_16">
</g><g id="svg_17">
</g><g id="svg_18">
</g><g id="svg_19">
</g><g id="svg_20">
</g><g id="svg_21">
</g><g id="svg_22">
</g><g id="svg_23">
</g><g id="svg_24">
</g></g></svg>