<svg width="512" height="512" xmlns="http://www.w3.org/2000/svg">

 <g>
  <title>background</title>
  <rect fill="none" id="canvas_background" height="402" width="582" y="-1" x="-1"/>
 </g>
 <g>
  <title>Layer 1</title>
  <g id="svg_1">
   <g id="svg_2">
    <path fill="#0079ff" id="svg_3" d="m469.333,320l-21.333,0l0,-42.667c0,-23.531 -19.146,-42.667 -42.667,-42.667l-128,0l0,-42.666l21.333,0c23.521,0 42.667,-19.135 42.667,-42.667l0,-85.333c0,-23.531 -19.146,-42.667 -42.667,-42.667l-85.333,0c-23.521,0 -42.667,19.135 -42.667,42.667l0,85.333c0,23.531 19.146,42.667 42.667,42.667l21.333,0l0,42.667l-128,0c-23.52,0 -42.666,19.135 -42.666,42.666l0,42.667l-21.333,0c-23.521,0 -42.667,19.135 -42.667,42.667l0,85.333c0,23.531 19.146,42.667 42.667,42.667l85.333,0c23.521,0 42.667,-19.135 42.667,-42.667l0,-85.333c0,-23.532 -19.146,-42.667 -42.667,-42.667l-21.333,0l0,-42.667l298.667,0l0,42.667l-21.334,0c-23.521,0 -42.667,19.135 -42.667,42.667l0,85.333c0,23.531 19.146,42.667 42.667,42.667l85.333,0c23.521,0 42.667,-19.136 42.667,-42.667l0,-85.333c0,-23.532 -19.146,-42.667 -42.667,-42.667z"/>
   </g>
  </g>
  <g id="svg_4"/>
  <g id="svg_5"/>
  <g id="svg_6"/>
  <g id="svg_7"/>
  <g id="svg_8"/>
  <g id="svg_9"/>
  <g id="svg_10"/>
  <g id="svg_11"/>
  <g id="svg_12"/>
  <g id="svg_13"/>
  <g id="svg_14"/>
  <g id="svg_15"/>
  <g id="svg_16"/>
  <g id="svg_17"/>
  <g id="svg_18"/>
 </g>
</svg>