<?xml version="1.0"?>
<svg xmlns="http://www.w3.org/2000/svg" xmlns:xlink="http://www.w3.org/1999/xlink" version="1.1" id="Capa_1" x="0px" y="0px" viewBox="0 0 512 512" style="enable-background:new 0 0 512 512;" xml:space="preserve" width="512px" height="512px" class="hovered-paths"><g><g>
	<g>
		<path d="M492,312h-60v-56c0-11.046-8.954-20-20-20H276v-36h60c11.046,0,20-8.954,20-20V20c0-11.046-8.954-20-20-20H176    c-11.046,0-20,8.954-20,20v160c0,11.046,8.954,20,20,20h60v36H100c-11.046,0-20,8.954-20,20v56H20c-11.046,0-20,8.954-20,20v160    c0,11.046,8.954,20,20,20h160c11.046,0,20-8.954,20-20V332c0-11.046-8.954-20-20-20h-60v-36h272v36h-60c-11.046,0-20,8.954-20,20    v160c0,11.046,8.954,20,20,20h160c11.046,0,20-8.954,20-20V332C512,320.954,503.046,312,492,312z M160,352v120H40V352H160z     M196,160V40h120v120H196z M472,472H352V352h120V472z" data-original="#000000" class="active-path" data-old_color="#000000" fill="#0079FF"/>
	</g>
</g></g> </svg>
