<?xml version="1.0"?>
<svg xmlns="http://www.w3.org/2000/svg" xmlns:xlink="http://www.w3.org/1999/xlink" version="1.1" id="Capa_1" x="0px" y="0px" viewBox="0 0 83.585 83.585" style="enable-background:new 0 0 83.585 83.585;" xml:space="preserve" width="512px" height="512px" class=""><g><g>
	<path d="M66.387,0h-49.19C12.237,0,8.2,4.037,8.2,8.998v65.589c0,4.962,4.037,8.998,8.998,8.998h49.19   c4.962,0,8.998-4.036,8.998-8.998V8.998C75.385,4.036,71.35,0,66.387,0z M69.385,74.587c0,1.653-1.345,2.998-2.998,2.998h-49.19   c-1.653,0-2.998-1.345-2.998-2.998V8.998C14.2,7.345,15.545,6,17.198,6h49.19c1.653,0,2.998,1.345,2.998,2.998V74.587z" data-original="#000000" class="active-path" data-old_color="#000000" fill="#0079FF"/>
	<rect x="22.296" y="21.331" width="38.992" height="5.999" data-original="#000000" class="active-path" data-old_color="#000000" fill="#0079FF"/>
	<rect x="22.296" y="37.528" width="38.992" height="5.999" data-original="#000000" class="active-path" data-old_color="#000000" fill="#0079FF"/>
	<rect x="22.296" y="53.725" width="38.992" height="5.998" data-original="#000000" class="active-path" data-old_color="#000000" fill="#0079FF"/>
</g></g> </svg>
