<svg xmlns="http://www.w3.org/2000/svg" xmlns:xlink="http://www.w3.org/1999/xlink" version="1.1" style="" xml:space="preserve" width="512" height="512"><rect id="backgroundrect" width="100%" height="100%" x="0" y="0" fill="none" stroke="none"/>
















<g class="currentLayer" style=""><title>Layer 1</title><g id="svg_1" class="selected" fill-opacity="1" fill="#0079ff">
	<g id="svg_2" fill="#0079ff">
		<g id="svg_3" fill="#0079ff">
			<path d="M352.459,220c0-11.046-8.954-20-20-20h-206c-11.046,0-20,8.954-20,20s8.954,20,20,20h206     C343.505,240,352.459,231.046,352.459,220z" id="svg_4" fill="#0079ff"/>
			<path d="M126.459,280c-11.046,0-20,8.954-20,20c0,11.046,8.954,20,20,20H251.57c11.046,0,20-8.954,20-20c0-11.046-8.954-20-20-20     H126.459z" id="svg_5" fill="#0079ff"/>
			<path d="M173.459,472H106.57c-22.056,0-40-17.944-40-40V80c0-22.056,17.944-40,40-40h245.889c22.056,0,40,17.944,40,40v123     c0,11.046,8.954,20,20,20c11.046,0,20-8.954,20-20V80c0-44.112-35.888-80-80-80H106.57c-44.112,0-80,35.888-80,80v352     c0,44.112,35.888,80,80,80h66.889c11.046,0,20-8.954,20-20C193.459,480.954,184.505,472,173.459,472z" id="svg_6" fill="#0079ff"/>
			<path d="M467.884,289.572c-23.394-23.394-61.458-23.395-84.837-0.016l-109.803,109.56c-2.332,2.327-4.052,5.193-5.01,8.345     l-23.913,78.725c-2.12,6.98-0.273,14.559,4.821,19.78c3.816,3.911,9,6.034,14.317,6.034c1.779,0,3.575-0.238,5.338-0.727     l80.725-22.361c3.322-0.92,6.35-2.683,8.79-5.119l109.573-109.367C491.279,351.032,491.279,312.968,467.884,289.572z      M333.776,451.768l-40.612,11.25l11.885-39.129l74.089-73.925l28.29,28.29L333.776,451.768z M439.615,346.13l-3.875,3.867     l-28.285-28.285l3.862-3.854c7.798-7.798,20.486-7.798,28.284,0C447.399,325.656,447.399,338.344,439.615,346.13z" id="svg_7" fill="#0079ff"/>
			<path d="M332.459,120h-206c-11.046,0-20,8.954-20,20s8.954,20,20,20h206c11.046,0,20-8.954,20-20S343.505,120,332.459,120z" id="svg_8" fill="#0079ff"/>
		</g>
	</g>
</g><g id="svg_9">
</g><g id="svg_10">
</g><g id="svg_11">
</g><g id="svg_12">
</g><g id="svg_13">
</g><g id="svg_14">
</g><g id="svg_15">
</g><g id="svg_16">
</g><g id="svg_17">
</g><g id="svg_18">
</g><g id="svg_19">
</g><g id="svg_20">
</g><g id="svg_21">
</g><g id="svg_22">
</g><g id="svg_23">
</g></g></svg>